<svg xmlns="http://www.w3.org/2000/svg" version="1.1" xmlns:xlink="http://www.w3.org/1999/xlink" xmlns:svgjs="http://svgjs.com/svgjs" width="512" height="512" x="0" y="0" viewBox="0 0 512 512" style="enable-background:new 0 0 512 512" xml:space="preserve"><g><path d="M438.855 64c0-35.348-98.238-64-219.425-64C98.242 0 0 28.652 0 64s98.242 64 219.43 64c121.187 0 219.425-28.652 219.425-64Zm0 0" style="stroke:none;fill-rule:nonzero;fill-opacity:1;" fill="#bddbff" data-original="#bddbff"></path><path d="M219.43 256c121.14 0 219.425-28.617 219.425-64V64c0 35.383-98.285 64-219.425 64C98.285 128 0 99.383 0 64v128c0 35.383 98.285 64 219.43 64Zm0 0" style="stroke:none;fill-rule:nonzero;fill-opacity:1;" fill="#9bc9ff" data-original="#9bc9ff"></path><path d="M219.43 384c121.14 0 219.425-28.617 219.425-64V192c0 35.383-98.285 64-219.425 64C98.285 256 0 227.383 0 192v128c0 35.383 98.285 64 219.43 64Zm0 0" style="stroke:none;fill-rule:nonzero;fill-opacity:1;" fill="#57a4ff" data-original="#57a4ff"></path><path d="M438.855 320c0 35.383-98.285 64-219.425 64C98.285 384 0 355.383 0 320v128c0 35.383 98.285 64 219.43 64 121.14 0 219.425-28.617 219.425-64Zm0 0" style="stroke:none;fill-rule:nonzero;fill-opacity:1;" fill="#2488ff" data-original="#2488ff"></path></g></svg>