<svg xmlns="http://www.w3.org/2000/svg" version="1.1" xmlns:xlink="http://www.w3.org/1999/xlink" xmlns:svgjs="http://svgjs.com/svgjs" width="512" height="512" x="0" y="0" viewBox="0 0 267 267" style="enable-background:new 0 0 512 512" xml:space="preserve" fill-rule="evenodd"><g><path fill="#d8dfe3" d="M50 154.167c56.944 9.876 113.889 9.544 170.833 0V75c0-.902-.292-1.779-.833-2.5l-37.5-50a4.168 4.168 0 0 0-3.333-1.667H62.5a12.501 12.501 0 0 0-12.5 12.5v95.834c0 6.188-1.451 11.433-1.451 15.614 0 5.78 1.451 9.386 1.451 9.386z" data-original="#d8dfe3"></path><path fill="#1fb35b" d="M25 143.365v89.968a12.501 12.501 0 0 0 12.5 12.5h191.667a12.503 12.503 0 0 0 12.5-12.5v-66.666a12.501 12.501 0 0 0-12.5-12.5h-187.5c-5.316 0-16.667-10.802-16.667-10.802z" data-original="#1fb35b"></path><path fill="#198043" d="M37.5 154.167c-3.804 0-6.581-1.543-8.625-3.443-1.923-1.788-3.875-4.939-3.875-9.057 0-2.643 1.317-6.495 3.661-8.839s5.524-3.661 8.839-3.661H50v25H37.5z" data-original="#198043"></path><path fill="#afbdc7" d="M179.167 20.833V62.5a12.501 12.501 0 0 0 12.5 12.5h29.166c0-.902-.292-1.779-.833-2.5l-37.5-50a4.168 4.168 0 0 0-3.333-1.667z" data-original="#afbdc7"></path><path fill="#1fb35b" d="M87.5 79.167h54.167c2.299 0 4.166-1.867 4.166-4.167s-1.867-4.167-4.166-4.167H87.5c-2.3 0-4.167 1.867-4.167 4.167s1.867 4.167 4.167 4.167zM87.5 104.167h95.833c2.3 0 4.167-1.867 4.167-4.167s-1.867-4.167-4.167-4.167H87.5c-2.3 0-4.167 1.867-4.167 4.167s1.867 4.167 4.167 4.167zM87.5 129.167h95.833c2.3 0 4.167-1.867 4.167-4.167s-1.867-4.167-4.167-4.167H87.5c-2.3 0-4.167 1.867-4.167 4.167s1.867 4.167 4.167 4.167z" data-original="#1fb35b"></path><g fill="#d8dfe3"><path d="m156.548 180.714 16.667 41.667a4.165 4.165 0 0 0 7.737 0l16.667-41.667a4.168 4.168 0 0 0-2.322-5.416 4.169 4.169 0 0 0-5.416 2.321l-12.798 31.995-12.798-31.995c-.854-2.135-3.281-3.175-5.416-2.321s-3.175 3.281-2.321 5.416zM91.963 175h-2.381c-11.506 0-20.833 9.327-20.833 20.833v8.334c0 11.506 9.327 20.833 20.833 20.833h2.381a18.992 18.992 0 0 0 17.273-11.096c.431-.942.516-1.12.793-1.734a4.124 4.124 0 0 0-1.79-5.419c-2.612-1.313-4.982.142-5.789 1.954-.245.55-.793 1.735-.793 1.735a10.66 10.66 0 0 1-9.694 6.227h-2.381c-6.904 0-12.5-5.597-12.5-12.5v-8.334c0-6.903 5.596-12.5 12.5-12.5h2.381a10.66 10.66 0 0 1 9.694 6.227s.508 1.138.793 1.735c1.252 2.624 4.212 2.997 6.084 1.781 1.315-.856 2.557-2.923 1.495-5.246l-.793-1.734A18.992 18.992 0 0 0 91.963 175zM116.667 210.443v-.001 2.066A12.493 12.493 0 0 0 129.158 225h9.392a12.491 12.491 0 0 0 12.492-12.492v-1.658c0-5.111-3.112-9.707-7.858-11.606l-15.151-6.06a4.825 4.825 0 0 1-3.033-4.48V187.5a4.167 4.167 0 0 1 4.166-4.167h9.376a4.164 4.164 0 0 1 4.166 4.167v2.058c0 1.176.52 2.24 1.043 2.78a4.192 4.192 0 0 0 3.124 1.412c2.028 0 4.167-1.566 4.167-4.192V187.5a12.501 12.501 0 0 0-12.5-12.5h-9.375a12.5 12.5 0 0 0-12.5 12.5v1.204c0 5.38 3.276 10.219 8.271 12.217l15.151 6.061a4.165 4.165 0 0 1 2.619 3.868v1.658a4.16 4.16 0 0 1-4.158 4.159h-9.392a4.157 4.157 0 0 1-4.158-4.158v-2.067c0-2.748-2.24-4.194-4.094-4.194-1.758 0-4.239 1.363-4.239 4.169z" fill="#d8dfe3" data-original="#d8dfe3"></path></g></g></svg>