<svg width="64" height="64" xmlns="http://www.w3.org/2000/svg" xml:space="preserve" version="1.1">

 <g>
  <title>Layer 1</title>
  <g stroke="null" id="svg_1">
   <g stroke="null" id="flat" xmlns="http://www.w3.org/2000/svg">
    <path stroke="null" id="svg_2" data-original="#f3f2f0" fill="#f3f2f0" d="m0,0.15094l64.0272,0l0,63.69811l-64.0272,0l0,-63.69811z"/>
    <path stroke="null" id="svg_3" data-original="#da1c4b" fill="#da1c4b" d="m24.28618,0.15094l15.45484,0l0,21.2327l-15.45484,0l0,-21.2327z"/>
    <path stroke="null" id="svg_4" data-original="#da1c4b" fill="#da1c4b" d="m24.28618,42.61635l15.45484,0l0,21.2327l-15.45484,0l0,-21.2327z"/>
    <path stroke="null" id="svg_5" data-original="#233b8e" fill="#233b8e" d="m64.0272,21.38365l0,21.2327l-64.0272,0l0,-21.2327l64.0272,0z"/>
    <g stroke="null" id="svg_6" fill="#f3f2f0">
     <path stroke="null" id="svg_7" data-original="#f3f2f0" fill="#f3f2f0" d="m27.59793,25.93351l2.20783,0l0,3.03324l-2.20783,0l0,-3.03324z"/>
     <path stroke="null" id="svg_8" data-original="#f3f2f0" fill="#f3f2f0" d="m27.59793,35.03324l2.20783,0l0,3.03324l-2.20783,0l0,-3.03324z"/>
     <path stroke="null" id="svg_9" data-original="#f3f2f0" fill="#f3f2f0" d="m34.22144,25.93351l2.20783,0l0,3.03324l-2.20783,0l0,-3.03324z"/>
     <path stroke="null" id="svg_10" data-original="#f3f2f0" fill="#f3f2f0" d="m34.22144,35.03324l2.20783,0l0,3.03324l-2.20783,0l0,-3.03324z"/>
     <path stroke="null" id="svg_11" data-original="#f3f2f0" fill="#f3f2f0" d="m39.74102,30.48338l2.20783,0l0,3.03324l-2.20783,0l0,-3.03324z"/>
     <path stroke="null" id="svg_12" data-original="#f3f2f0" fill="#f3f2f0" d="m22.07835,30.48338l2.20783,0l0,3.03324l-2.20783,0l0,-3.03324z"/>
    </g>
   </g>
  </g>
 </g>
</svg>