<svg xmlns="http://www.w3.org/2000/svg" version="1.1" xmlns:xlink="http://www.w3.org/1999/xlink" xmlns:svgjs="http://svgjs.com/svgjs" width="512" height="512" x="0" y="0" viewBox="0 0 512.006 512.006" style="enable-background:new 0 0 512 512" xml:space="preserve"><g>
<rect xmlns="http://www.w3.org/2000/svg" x="0.003" y="0.017" style="" width="512" height="511.989" fill="#d80027" data-original="#d80027"></rect>
<g xmlns="http://www.w3.org/2000/svg">
	<polygon style="" points="215.866,256.008 0.003,471.864 0.003,40.136  " fill="#6da544" data-original="#6da544"></polygon>
	<polygon style="" points="512.003,40.136 512.003,471.864 296.139,256.008  " fill="#6da544" data-original="#6da544"></polygon>
</g>
<polygon xmlns="http://www.w3.org/2000/svg" style="" points="512.003,40.136 296.139,256.008 512.003,471.864 512.003,512 471.878,512 256.003,296.127   40.128,512 0.003,512 0.003,471.864 215.866,256.008 0.003,40.136 0.003,0 40.128,0 256.003,215.873 471.878,0 512.003,0 " fill="#0052b4" data-original="#0052b4"></polygon>
<g xmlns="http://www.w3.org/2000/svg">
	<polygon style="" points="512.003,40.136 296.139,256.008 512.003,471.864 512.003,512 471.878,512 256.003,296.127    40.128,512 0.003,512 0.003,471.864 215.866,256.008 0.003,40.136 0.003,0 40.128,0 256.003,215.873 471.878,0 512.003,0  " fill="#f0f0f0" data-original="#f0f0f0"></polygon>
	<circle style="" cx="256.003" cy="256" r="74.207" fill="#f0f0f0" data-original="#f0f0f0"></circle>
</g>
<g xmlns="http://www.w3.org/2000/svg">
	<polygon style="" points="256.003,204.058 262.428,215.188 275.281,215.188 268.855,226.318 275.281,237.449    262.428,237.449 256.003,248.579 249.577,237.449 236.725,237.449 243.15,226.318 236.725,215.188 249.577,215.188  " fill="#d80027" data-original="#d80027"></polygon>
	<polygon style="" points="223.339,256 229.765,267.13 242.617,267.13 236.192,278.261 242.617,289.391    229.765,289.391 223.339,300.522 216.913,289.391 204.06,289.391 210.487,278.261 204.06,267.13 216.913,267.13  " fill="#d80027" data-original="#d80027"></polygon>
	<polygon style="" points="288.666,256 295.093,267.13 307.945,267.13 301.518,278.261 307.945,289.391    295.093,289.391 288.666,300.522 282.241,289.391 269.388,289.391 275.814,278.261 269.388,267.13 282.241,267.13  " fill="#d80027" data-original="#d80027"></polygon>
</g>
<g xmlns="http://www.w3.org/2000/svg">
</g>
<g xmlns="http://www.w3.org/2000/svg">
</g>
<g xmlns="http://www.w3.org/2000/svg">
</g>
<g xmlns="http://www.w3.org/2000/svg">
</g>
<g xmlns="http://www.w3.org/2000/svg">
</g>
<g xmlns="http://www.w3.org/2000/svg">
</g>
<g xmlns="http://www.w3.org/2000/svg">
</g>
<g xmlns="http://www.w3.org/2000/svg">
</g>
<g xmlns="http://www.w3.org/2000/svg">
</g>
<g xmlns="http://www.w3.org/2000/svg">
</g>
<g xmlns="http://www.w3.org/2000/svg">
</g>
<g xmlns="http://www.w3.org/2000/svg">
</g>
<g xmlns="http://www.w3.org/2000/svg">
</g>
<g xmlns="http://www.w3.org/2000/svg">
</g>
<g xmlns="http://www.w3.org/2000/svg">
</g>
</g></svg>