<svg xmlns="http://www.w3.org/2000/svg" version="1.1" xmlns:xlink="http://www.w3.org/1999/xlink" xmlns:svgjs="http://svgjs.com/svgjs" width="512" height="512" x="0" y="0" viewBox="0 0 512.006 512.006" style="enable-background:new 0 0 512 512" xml:space="preserve"><g>
<rect xmlns="http://www.w3.org/2000/svg" x="0.003" y="0.017" style="" width="512" height="511.989" fill="#496e2d" data-original="#496e2d"></rect>
<rect xmlns="http://www.w3.org/2000/svg" x="256.003" style="" width="256" height="512" fill="#f0f0f0" data-original="#f0f0f0"></rect>
<g xmlns="http://www.w3.org/2000/svg">
	<polygon style="" points="319.392,200.757 295.762,233.321 257.493,220.911 281.16,253.446 257.532,286.008    295.789,273.553 319.455,306.087 319.431,265.856 357.687,253.4 319.417,240.991  " fill="#d80027" data-original="#d80027"></polygon>
	<path style="" d="M281.405,337.391c-44.951,0-81.391-36.44-81.391-81.391s36.44-81.391,81.391-81.391   c14.015,0,27.203,3.544,38.717,9.783c-18.062-17.663-42.764-28.565-70.022-28.565c-55.324,0-100.174,44.85-100.174,100.174   s44.85,100.174,100.174,100.174c27.258,0,51.959-10.902,70.022-28.565C308.607,333.847,295.42,337.391,281.405,337.391z" fill="#d80027" data-original="#d80027"></path>
</g>
<g xmlns="http://www.w3.org/2000/svg">
</g>
<g xmlns="http://www.w3.org/2000/svg">
</g>
<g xmlns="http://www.w3.org/2000/svg">
</g>
<g xmlns="http://www.w3.org/2000/svg">
</g>
<g xmlns="http://www.w3.org/2000/svg">
</g>
<g xmlns="http://www.w3.org/2000/svg">
</g>
<g xmlns="http://www.w3.org/2000/svg">
</g>
<g xmlns="http://www.w3.org/2000/svg">
</g>
<g xmlns="http://www.w3.org/2000/svg">
</g>
<g xmlns="http://www.w3.org/2000/svg">
</g>
<g xmlns="http://www.w3.org/2000/svg">
</g>
<g xmlns="http://www.w3.org/2000/svg">
</g>
<g xmlns="http://www.w3.org/2000/svg">
</g>
<g xmlns="http://www.w3.org/2000/svg">
</g>
<g xmlns="http://www.w3.org/2000/svg">
</g>
</g></svg>