<svg xmlns="http://www.w3.org/2000/svg" version="1.1" xmlns:xlink="http://www.w3.org/1999/xlink" xmlns:svgjs="http://svgjs.com/svgjs" width="512" height="512" x="0" y="0" viewBox="0 0 512 512" style="enable-background:new 0 0 512 512" xml:space="preserve"><g>
<rect x="0" style="" width="512" height="512" fill="#338af3" data-original="#338af3"></rect>
<rect x="0" style="" width="512" height="256" fill="#6da544" data-original="#6da544"></rect>
<path style="" d="M0,512c-0.004,0.041,512-256.008,512-256.008L0,0V512z" fill="#d80027" data-original="#d80027"></path>
<path style="" d="M140.986,156.865c-46.03,0-83.478,37.448-83.478,83.478v31.304c0,46.03,37.448,83.478,83.478,83.478
	s83.478-37.448,83.478-83.478v-31.304C224.464,194.312,187.016,156.865,140.986,156.865z M193.16,271.647
	c0,23.317-15.377,43.108-36.522,49.772v-34.12l22.147-22.147l-22.135-22.135l-0.012-7.879V224.69h-31.304v31.304l-22.132,22.131
	l22.132,22.131v21.162c-21.144-6.664-36.521-26.455-36.521-49.772v-31.304c0-28.769,23.405-52.174,52.174-52.174
	s52.174,23.405,52.174,52.174V271.647z" fill="#ffda44" data-original="#ffda44"></path>
<g>
</g>
<g>
</g>
<g>
</g>
<g>
</g>
<g>
</g>
<g>
</g>
<g>
</g>
<g>
</g>
<g>
</g>
<g>
</g>
<g>
</g>
<g>
</g>
<g>
</g>
<g>
</g>
<g>
</g>
</g></svg>