<svg width="40" height="40" fill="none" xmlns="http://www.w3.org/2000/svg"><g clip-path="url(#clip0)"><path fill="#69B3E7" d="M0 0h40v40H0z"/><mask id="a" maskUnits="userSpaceOnUse" x="0" y="0" width="20" height="20"><path fill="#C4C4C4" d="M0 0h20v20H0z"/></mask><g mask="url(#a)"><path d="M70 0h-80v40h80V0z" fill="#012169"/><path d="M-10 0l40 20-40-20zm0 20L30 0l-40 20z" fill="#000"/><path d="M-10 20L30 0m-40 0l40 20-40-20z" stroke="#fff" stroke-width="5.333"/><path d="M-10 0l40 20-40-20zm0 20L30 0l-40 20z" fill="#000"/><path d="M-10 20L30 0m-40 0l40 20-40-20z" stroke="#C8102E" stroke-width="3.556"/><path d="M0 10h20H0z" fill="#000"/><path d="M10 0v26.667M0 10h20" stroke="#fff" stroke-width="8.889"/><path d="M0 10h20H0z" fill="#000"/><path d="M10 0v20M0 10h20" stroke="#C8102E" stroke-width="5.333"/></g><path d="M22.793 15.5v11.914c0 3.897 7.041 6.211 7.041 6.211s7.041-2.314 7.041-6.21V15.5H22.793z" fill="#fff"/><path d="M28.858 19.686v5.365h-6.065v1.952h6.065v6.25l.976.372.976-.371v-6.251h6.065V25.05H30.81v-5.365h-1.952z" fill="#C8102E"/><path d="M22.793 15.5h14.082v4.601H22.793V15.5z" fill="#C8102E"/><path d="M23.922 18.941c.437 0 .791-.285.791-.636 0-.352-.354-.637-.791-.637-.437 0-.791.285-.791.637 0 .351.354.636.791.636z" fill="#fff" stroke="#000" stroke-width=".054" stroke-miterlimit="3"/><path d="M23.922 18.33c.389 0 .704-.16.704-.356 0-.196-.315-.356-.704-.356-.389 0-.704.16-.704.356 0 .197.315.356.704.356zM23.922 19.041c.389 0 .704-.16.704-.356 0-.196-.315-.355-.704-.355-.389 0-.704.159-.704.355 0 .197.315.356.704.356z" fill="#fff" stroke="#000" stroke-width=".054" stroke-miterlimit="3"/><path d="M23.922 18.66c.389 0 .704-.159.704-.355 0-.197-.315-.356-.704-.356-.389 0-.704.16-.704.355 0 .197.315.356.704.356z" fill="#fff" stroke="#000" stroke-width=".054" stroke-miterlimit="3"/><path d="M36.526 19.188l-.115-.318s-.316-.128-.34-.296c-.056-.447-.215-.615-.454-.679a.522.522 0 00-.4.04c-.072.104-.43.104-.63.112-.2.008-.203-.087-.203-.087a.254.254 0 01-.22-.112c-.102-.203-.177-.279-.227-.304.259.003.454-.116.746-.423.319-.335.547-.205.547-.205-.155.313.051.285.051.285.423-.215.056-.758-.072-.734-.127.024-.164-.062-.164-.062.004.097-.141.136-.141.136.109-.62-.261-.784-.261-.784a.466.466 0 00-.088.167c-.104.375-.447.32-.83.136-.383-.184-1.405.191-1.724.32-.32.127-.902.326-1.429.031-.527-.296-.655-.24-.862-.184-.208.056-.575.144-.71.072-.136-.072-.29-.076-.29-.076.036-.02-.021-.107-.021-.107-.16-.216.02-.348.02-.348s-.297.084-.179.591l.055.076s.04.16.127.207l-.003.035s.076-.035.1.07c.023.103.135.007.183-.08 0 0-.08.462.495.574 0 0-.064-.072-.04-.12.023-.048-.072-.088-.064-.16.008-.071-.143-.103-.024-.16.12-.055.176-.167.431-.015.255.152.455.12.455.12s-.156-.32-.07-.32.472.479.662.455c.19-.024.557-.24.741-.16 0 0 .016-.095.718-.215.703-.12 1.569-.47 1.894-.163 0 0 .038.243.173.307 0 0-.024.503-.894.223l-.315-.083s-.048-.152-1.702.273c0 0-.098.034-.161.082-.064.047-.152-.024-.48.095-.326.12-1.548.52-2.298.376v.002c-.166-.05-.32-.024-.327-.05-.008-.032.088.008.088.008-.056-.064-.08-.07-.08-.07-.63-.068-.52-.353-.52-.353l.033.088c.104-.136-.04-.455-.04-.455h-.006a.34.34 0 00-.006-.028l.052-.036c.303-.256.655-.304.655-.304-.208-.255-.647-.12-.647-.12.008-.31-.12-.67-.12-.67-.431.048-.678.407-.678.407-.016-.319-.423-.502-.423-.502.151.183.056.622.056.622l.016.008h-.04l-.01.094-.014-.006s-.152.056-.327.455c0 0-.018.094-.086.18v-.033s-.197.257-.65 0c0 0-.616-.366-.832-.352-.217.013-.359.115-.345.176 0 0-.494-.041-.663.243 0 0-.372.135-.054.44 0 0 .042.132.135.203 0 0-.013-.278.054-.196 0 0 .018.027.051.046.009.04.039.148.105.203l.047-.015a.902.902 0 01.038-.194l.016.002-.006.005.088.135.1-.054c.048-.007.11.04.11.04l.114-.094-.002-.002c.113.019.144-.2.144-.2a.355.355 0 00.278-.053c.05.182.453.377.453.377l.017-.001c-.034.021-.054.038-.054.038.183.128.527.096.527.096-.144.056-.124.321-.124.321a.151.151 0 00-.092.118c.28.111.47.019.47.019.016.09-.007.1-.007.1-.112.24-.16.471-.16.471l.008.003c-.003.006-.008.012-.01.019 0 0-.487.169-.704.405 0 0-.02-.067-.08-.067-.062 0-.251-.156-.34-.183-.087-.027-.215.027-.25-.013-.03-.037-.016-.314-.075-.359h.001l-.06-.169c-.041.088-.21.068-.21.068a1.66 1.66 0 00-.07.05c-.034.002-.072-.01-.072-.01-.018.004-.035.053-.047.1l-.021.015v-.047c-.034.027-.101-.014-.129-.014-.013 0-.03.04-.042.079-.07.013-.16.016-.16.016-.027.014-.007.223-.007.223-.196.109-.102.27-.102.27.108.529 1.008.292 1.076.36.067.067.223.08.304.08.081 0 .183.197.298.217.115.02 0-.155.533-.283.533-.127.711-.346.711-.346.167-.032.214-.235.226-.317.002.038.006.08.012.127.024.184-.102.25-.102.25l.462-.138c.183-.048.16-.208.16-.208.175.503.494.535.494.535.064-.192.056-.248.056-.248l.144-.007c.006-.109-.09-.188-.145-.225l.224.137.088-.016c0 .08.12.151.12.151l.016-.103c.104.136.295.088.295.088a.644.644 0 00-.017-.075c.41.252 1.063-.07 1.063-.07.175.04.2-.063.2-.063.199.024.245-.113.245-.113.47-.04.8-.374.8-.374.231-.016.239-.181.239-.181s.232.045.455-.234c.519-.742 1.294-.356 1.294-.356l-.448.029c-1.173-.008-.687.79-.687.79l.073-.008c.111.024.494.327.353.553l-.008.011c-.239.328-.682.015-.808-.26-.128-.28-.383-.216-.383-.216s-.663.111-.392.638h.01c.005.13.086.276.322.421.133.188.57.207.89.138.149-.032.936-.37.936-.37.057-.172.253-.133.428-.38.176-.247-.247-.335-.343-.471-.096-.136.024-.112.024-.112.383.208.415-.455.415-.455.04.383.375.487.375.487.208-.207.056-.63.056-.63.495.886.795.744.795.744-.266-.165-.132-.385-.132-.385.239.942 1.221.12 1.221.12-.048.135 0 .215.088.303.088.087.191.127.144.287-.048.16-.503.128-.503.128s-.447-.024-.407.351c.023.088.319.12.43.096 0 0-.045.01.12.032.055.007.122.008.19.006.19-.006.393-.038.393-.038.255-.056.216-.144.216-.144.39-.072.43-.335.43-.335h0z" fill="#FEDD00" stroke="#000" stroke-width=".08" stroke-miterlimit="3"/><path d="M23.557 17.554s.021-.05.06-.055c.031-.005.068.018.107.065l.021-.016c0-.002-.105-.154-.063-.261.018-.048.064-.08.137-.097l-.006-.026c-.082.018-.134.056-.156.113a.182.182 0 00-.012.066c0 .053.018.106.037.147a.1.1 0 00-.068-.018c-.04.006-.06.035-.07.054l.013.028zM35.876 19.644c-.267.043-.658.066-.69-.014-.005-.015-.006-.072.212-.215l-.025-.039c-.182.119-.255.205-.23.27.056.145.627.063.742.044l-.01-.046zM30.775 19.798c-.06-.093-.033-.22.082-.379l-.038-.027c-.128.175-.155.321-.083.432l.04-.026z" fill="#000"/><path d="M30.415 19.397c.006.16.12.31.337.443l.024-.04c-.203-.124-.309-.26-.314-.405-.008-.221.226-.392.228-.394l-.027-.038c-.01.008-.257.187-.248.434zM34.963 19.457c-.073.108-.049.238-.047.244l.045-.009a.31.31 0 01.041-.21.267.267 0 01.18-.106l-.008-.046a.312.312 0 00-.21.127zM24.543 17.414l-.014-.004-.002.015c0 .002-.021.143-.085.182a.066.066 0 01-.06.004l-.11-.067c-.021-.019-.04-.033-.071-.024a.158.158 0 01-.03-.115c.008-.064.052-.126.133-.183l-.015-.022c-.088.062-.136.13-.145.202-.01.083.039.14.04.142l.007.008.01-.004c.023-.011.03-.005.054.016l.118.072c.03.01.057.009.082-.006.067-.04.09-.156.096-.188.283.06.511-.284.52-.298l-.022-.015c-.002.004-.235.356-.506.285z" fill="#000"/><path d="M23.864 17.361a.214.214 0 00.028.168c.032.05.062.078.095.082.039.005.07-.024.098-.049.02-.019.039-.036.055-.035l.024.017.02-.017-.043-.027c-.027-.002-.05.02-.075.042-.024.023-.05.046-.076.043-.023-.003-.048-.027-.075-.07a.189.189 0 01-.025-.147c.03-.127.181-.22.183-.22l-.014-.023c-.006.004-.162.1-.195.236zM23.474 19.166c.014-.05.051-.09.112-.124-.012 0 .059.059.12.052l.04-.021c.016.014.121.11.121.232a.196.196 0 01-.016.078l.025.01c.077-.182-.117-.345-.12-.346l-.006-.006-.012.008-.035.019c-.05.005-.115-.048-.115-.048-.082.035-.124.083-.14.139l.026.007zM24.376 18.699c-.058.005-.22.036-.274.12a.108.108 0 00-.008.1l.022.057c.05.137.103.277.16.309l.013-.023c-.049-.027-.102-.17-.148-.295l-.022-.057a.083.083 0 01.006-.077c.044-.069.19-.102.254-.108.037-.003.049.135.056.217l.027-.003c-.01-.12-.022-.246-.086-.24z" fill="#000"/><path d="M23.93 18.832c-.033.03-.026.077-.026.079 0 .012.015.352.177.422l.01-.024c-.146-.064-.16-.398-.16-.4 0-.003-.005-.037.018-.057.024-.022.073-.023.14-.005l.008-.026c-.078-.021-.134-.017-.166.011z" fill="#000"/><path d="M23.803 18.86c-.071.05-.069.192-.068.198h.026c0-.002-.002-.135.057-.176.022-.015.052-.016.087-.002l.01-.024c-.044-.018-.082-.017-.112.004zM27.646 16.984a.915.915 0 01.076.308c0 .025-.012.042-.017.063l-.03-.08-.022.058c0 .004-.03.08.023.168.07.115.243.188.516.218l.003.004a.049.049 0 00-.022.007l-.011.01.001.023c.008.028.04.03.104.032l.041.003.032.01-.005-.007c.062.004.132.02.208.048a9.15 9.15 0 01-.058.015l.068.026c.005.002.502.202.708.366-.059.051-.308.238-.74.131l-.072-.018.049.056c.003.004.284.326.342.522-.098.001-.475-.002-.607-.114l-.034.03c.002.004.18.267.22.472-.05.006-.173.011-.246-.084l-.034-.043-.018.118c-.035-.026-.08-.066-.08-.108v-.028l-.106.019-.218-.133a.464.464 0 00-.036-.02l-.002-.002-.001-.001-.023.041.034.02c.046.03.127.097.135.185-.035.003-.143.008-.143.008l.003.025v.004a.816.816 0 01-.05.214c-.066-.016-.311-.102-.456-.516l-.045.011.001.016c0 .038-.013.132-.143.166l-.375.112a.26.26 0 00.048-.155c0-.016 0-.032-.003-.05a1.183 1.183 0 01-.013-.151c0-.088.021-.14.082-.176l-.021-.042c-.006.002-.559.222-.833.13.012-.053.059-.241.152-.442l-.012.012c.018-.008.037-.036.022-.126l-.006-.03-.028.013a.604.604 0 01-.43-.014.112.112 0 01.071-.08l.016-.006-.002-.017v-.031c0-.069.01-.229.109-.267l-.01-.046c-.004 0-.3.024-.48-.076a.647.647 0 01.261-.109l.019-.002.001-.019v-.015c0-.023-.008-.07-.029-.118.069.019.15.036.18.014l.01-.007-.009-.18-.046.002.007.149a.677.677 0 01-.177-.037l-.071-.022.046.06a.232.232 0 01.043.134.737.737 0 00-.295.136l-.024.02.026.017c.139.097.357.106.469.103-.066.074-.077.199-.077.261v.023a.182.182 0 00-.091.126l-.002.018.017.007c.24.095.403.049.458.028l.002.023c0 .022-.004.029-.004.029-.117.247-.167.481-.167.483l-.004.02.018.007c.222.089.622-.032.799-.095a.272.272 0 00-.037.141c0 .047.006.1.014.159a.298.298 0 01.002.042c0 .132-.09.183-.093.185l.017.043.462-.14c.107-.027.148-.09.165-.144.182.433.468.472.48.473l.02.002.005-.018a.978.978 0 00.057-.233l.143-.007.001-.021v-.01a.213.213 0 00-.028-.103l.08.048.077-.014c.02.077.111.138.123.145l.03.018.015-.1c.114.101.277.07.284.069l.02-.005-.002-.021c-.024-.156-.128-.342-.19-.441.203.092.572.085.59.085l.028-.001-.006-.027c-.032-.165-.237-.423-.323-.526.476.09.732-.157.743-.168l.017-.018-.018-.016c-.16-.14-.53-.302-.678-.364l.052-.013-.051-.029a.75.75 0 00-.345-.082c-.057-.065-.085-.075-.093-.077-.322-.036-.44-.126-.483-.196-.003-.005-.002-.01-.004-.015l.014-.018a.247.247 0 00.042-.152c0-.148-.075-.317-.08-.327l-.042.02z" fill="#000"/><path d="M26.163 16.89c-.001.004-.036.18-.186.264-.113.062-.263.057-.444-.016l-.02-.008.002.022a.29.29 0 00.11.184c.082.064.198.086.344.07-.049.058-.206.258-.206.453l.002.03c.02.015.266.082.38-.064.004.062.022.262.1.34.043.043.053.106.053.155 0 .045-.008.08-.008.08l-.01.036.03-.021c.01-.007.236-.173.309-.39 0 0 .036-.055.106-.077a.196.196 0 00-.003.033c0 .083.037.236.28.329l.02.008-.001-.022s-.002-.017-.002-.042c0-.061.009-.174.067-.232a.164.164 0 00.05-.119.2.2 0 00-.013-.07c.05.012.166.05.213.138.07.13.31.026.32.022l-.008-.025s-.1.022-.164-.021a.123.123 0 01-.05-.088l-.012-.134c-.002-.06-.01-.1-.041-.132.032-.003.096-.002.123.058.042.094.189.103.195.104l.05.002-.042-.027c-.002 0-.128-.085-.106-.194l.018-.08c.035-.144.092-.385.045-.533l-.025.008c.011.037.016.08.016.128 0 .131-.037.287-.062.391l-.018.081a.153.153 0 00-.003.032c0 .07.045.124.081.157-.043-.01-.102-.03-.125-.08-.035-.077-.13-.08-.174-.072l-.032.007.027.018c.042.028.044.06.047.133l.011.137a.148.148 0 00.062.106.19.19 0 00.096.025c-.071.02-.17.03-.205-.036-.066-.123-.25-.157-.257-.158l-.028-.005.014.025c.002.002.021.038.021.082 0 .032-.01.068-.043.101-.064.065-.074.184-.074.25v.022c-.208-.088-.245-.218-.245-.291 0-.032.006-.053.007-.055l.006-.02-.021.003c-.102.017-.144.1-.146.103-.058.173-.215.31-.272.357.001-.015.004-.032.004-.052a.242.242 0 00-.061-.173c-.084-.083-.095-.347-.095-.35l-.002-.047-.023.041c-.092.165-.36.085-.363.085-.011-.208.225-.474.227-.477l.025-.027-.036.005c-.154.022-.274.002-.356-.062a.269.269 0 01-.095-.145c.178.067.328.07.443.007a.432.432 0 00.198-.28c.17-.383.318-.444.32-.444l-.01-.025c-.007.002-.16.062-.335.462z" fill="#000"/><path d="M26.549 16.32l-.011.001-.138.188.041.005c.745.072 1.14.522 1.143.526l.018.02.135-.146-.01-.016c-.378-.595-1.17-.577-1.178-.577zm.013.048c.092 0 .77.02 1.114.542l-.074.08a1.897 1.897 0 00-1.117-.517l.077-.105z" fill="#000"/><path d="M26.442 16.714c-.064.087-.123.216-.123.276 0 .011.002.02.007.026 0 0 .002 0 .003.002a.424.424 0 00-.124.317.63.63 0 00.04.219l.015.04c.073.2.136.371.452.27.305-.098.317-.117.394-.244l.02-.032c.041-.068.087-.082.136-.096.058-.018.118-.036.17-.14l.052-.077c.055-.076.124-.17.133-.291l-.027-.002c-.008.113-.074.204-.128.277l-.053.081c-.048.094-.1.11-.155.126a.226.226 0 00-.151.108l-.02.032c-.074.122-.084.138-.379.232-.292.094-.345-.052-.419-.253l-.015-.04c-.083-.223-.018-.446.09-.526l.037-.028-.051.006-.001-.008c0-.036.04-.152.118-.26a.896.896 0 01.228-.183l-.014-.023c-.006.004-.165.095-.235.191z" fill="#000"/><path d="M26.3 17.517c.052.036.126.033.214 0 0 .031.008.098.063.147.065.057.172.068.32.033l-.007-.026c-.138.033-.237.024-.295-.027-.063-.055-.054-.142-.054-.143l.003-.023-.021.01c-.09.038-.16.04-.208.006-.087-.06-.08-.218-.08-.22h-.027c0 .006-.007.174.092.242z" fill="#000"/><path d="M26.469 17.304c-.038.009-.048.04-.048.066l.001.016c.007.068.081.114.15.134.065.019.146.02.178-.021.013-.016.022-.046-.006-.094-.102-.172-.266-.105-.275-.101zm.11.19c-.06-.017-.125-.055-.13-.113-.001-.005-.008-.043.026-.051l.002-.001a.189.189 0 01.244.09c.016.028.019.05.008.064-.02.025-.085.03-.15.01zm-.113-.19h.003-.003zM26.56 17.652c-.016.146-.006.15.005.153l.009.003.01-.013.085-.111-.106-.05-.002.018zm.025.022l.043.02-.05.064.007-.084zM26.34 17.535l-.005.137.116-.14-.11-.012v.015zm.026.015l.033.003-.034.041.002-.044z" fill="#000"/><path d="M26.263 17.49c.001.002.086.169.101.23.01.038.06.082.118.104.059.022.114.018.155-.01l.077-.064c.025-.025.034-.032.055-.028l.004-.027c-.035-.005-.052.01-.078.035l-.073.062c-.046.032-.101.018-.13.007-.055-.02-.095-.06-.102-.086-.016-.064-.1-.228-.103-.235l-.024.012zM26.374 16.99c-.094.044-.134.158-.135.163l.025.009c0-.001.038-.109.121-.147a.169.169 0 01.137.001l.01-.024a.193.193 0 00-.158-.001zM27.007 17.29c.007.006.185.14.083.305l.023.014c.115-.185-.088-.339-.09-.34l-.016.021zM26.472 17.317s-.027.1.114.136c0 0-.133-.002-.141-.036-.01-.034 0-.11.027-.1zM26.906 17.438c0 .009-.007.016-.016.016a.017.017 0 01-.017-.016c0-.01.008-.017.017-.017.009 0 .016.008.016.017zM26.922 17.5c0 .01-.008.017-.017.017a.017.017 0 010-.033c.01 0 .017.007.017.016zM26.815 17.486c.009 0 .016-.008.016-.017a.016.016 0 00-.033 0c0 .01.008.017.017.017zM26.858 17.564a.016.016 0 01-.033 0c0-.01.008-.017.017-.017.009 0 .017.007.017.017zM26.446 17.138c0 .01-.007.017-.017.017a.017.017 0 01-.016-.017c0-.009.007-.016.016-.016.01 0 .017.007.017.016zM26.445 17.218a.017.017 0 100-.033.017.017 0 000 .033zM26.355 17.187c.009 0 .016-.008.016-.017a.016.016 0 00-.016-.016.016.016 0 100 .033zM26.398 17.265a.017.017 0 01-.016.016.017.017 0 01-.017-.016.017.017 0 01.033 0zM26.672 16.709s.204.126.008.362c0 0 .097-.072.107-.196.01-.123-.07-.221-.115-.166zM27.456 17.048c-.065.034-.16-.029-.208-.088-.047-.059-.145-.074-.206.034a.37.37 0 01-.149.149s.086-.05.175-.146c.087-.094.138-.018.224.027.087.046.1.056.161.032l.003-.008z" fill="#000"/><path d="M27.44 17.064a.1.1 0 01-.129-.005c-.052-.043-.096-.1-.162-.066s-.191.128-.191.128.203-.14.242-.11c.038.031.13.105.186.084.055-.023.054-.031.054-.031z" fill="#000"/><path d="M27.284 17.15c-.064-.05-.129.057-.183.044-.054-.014-.098-.103-.098-.103s.051.095.122.072c.071-.021.12-.066.164-.032.044.034-.005.019-.005.019z" fill="#000"/><path d="M27.183 17.163c-.126.013-.139-.105-.139-.106 0 0 .04.103.152.084l-.013.022z" fill="#000"/><path d="M27.18 17.082c.008.033.006.047-.028.047s-.058-.011-.058-.044c0-.034.08-.023.085-.003zM26.724 16.907a.04.04 0 01-.04.04c-.023 0-.028-.016-.028-.038 0-.021.005-.042.027-.042a.04.04 0 01.04.04z" fill="#000"/><path d="M26.584 16.765s.217.002.11.274c0 0 .082-.136.03-.233-.052-.097-.134-.073-.134-.073s-.02.019-.006.032z" fill="#000"/><path d="M26.578 16.873c-.001.055.035.111.107.168l.017-.021c-.065-.051-.098-.1-.098-.146a.1.1 0 01.036-.073l-.016-.022c-.002.002-.046.035-.046.094z" fill="#000"/><path d="M26.626 16.92c.009.03.033.054.072.07l.01-.025c-.03-.012-.05-.03-.057-.053-.013-.046.024-.1.024-.1l-.021-.016c-.003.003-.046.065-.028.123zM26.924 17.07s.04.088-.019.183c-.06.095-.058.09-.058.09s.072-.13.045-.185c-.027-.054.032-.088.032-.088zM27.769 17.988c.223.042.727.436.732.44l.029-.036c-.021-.017-.518-.406-.752-.45l-.01.046zM27.967 18.545c.015.198.23.32.24.326l.023-.04c-.003-.002-.203-.117-.216-.29l-.047.004zM27.432 18.586c0 .222.208.49.217.502l.037-.029c-.002-.002-.207-.267-.207-.473h-.047zM26.726 18.61c.037.074.033.111.024.13-.012.02-.034.023-.035.023l.006.047a.095.095 0 00.07-.047c.021-.041.014-.1-.023-.173l-.042.02z" fill="#000"/><path d="M23.552 17.515s.014.15.128.237c0 0-.013-.162.02-.23 0 0-.06-.067-.148-.007zM23.782 17.61s.027.135.108.196l.047-.013s.02-.17.048-.19c.027-.02-.115.061-.203.007z" fill="#fff" stroke="#000" stroke-width=".024" stroke-miterlimit="3"/><path d="M23.985 17.603l.088.135.101-.054-.02-.162s-.06-.014-.17.081zM24.397 17.63l-.115.095s-.06-.047-.108-.04l.02-.15s.082-.06.203.095zM23.579 19.03s-.02-.21.007-.223c0 0 .08.027.115-.007 0 0 .047.17.033.237-.013.068-.094.04-.155-.007zM24.1 18.814s-.007-.176.027-.196c0 0 .169.02.21-.068l.06.17s-.189-.021-.297.094z" fill="#fff" stroke="#000" stroke-width=".024" stroke-miterlimit="3"/><path d="M23.917 18.848s.034-.183.068-.19c0 0 .088.027.115-.007l-.007.224s.007-.095-.176-.027zM23.721 18.875s.04-.163.068-.163c.027 0 .095.041.128.014v.122s-.149-.034-.169.169l-.027-.142z" fill="#fff" stroke="#000" stroke-width=".023" stroke-miterlimit="3"/><path d="M26.358 22.242s.46.427.34.8c0 0 .295-.636-.022-.822-.318-.186-.329-.043-.318.022v0z" fill="#00AD50" stroke="#000" stroke-width=".052" stroke-miterlimit="4.8"/><path d="M25.777 22.658s-.12.164.011.285c0 0-.142.207-.032.383 0 0-.088.186-.066.383 0 0-.077.306.087.449 0 0 .176.088.253.01 0 0 .153-.229.054-.47 0 0 .11-.197-.01-.449 0 0 .032-.142-.066-.306 0 0 .065-.11.01-.198 0 0-.219-.23-.24-.087z" fill="#862633" stroke="#000" stroke-width=".052" stroke-miterlimit="4.8"/><path d="M25.909 22.122s-.548-1.051-.93-1.096c-.384-.043-.406-.415-.406-.415s.044.175.35.175c.307 0 .898.427.964.755.066.328.131.285.131.285l-.11.296h0z" fill="#00AD50" stroke="#000" stroke-width=".052" stroke-miterlimit="4.8"/><path d="M25.909 22.045s.197-1.325 1.062-1.347c.865-.022.58.066.788-.077 0 0-.58.307-.941.35-.362.044-.657.745-.646.877.01.13-.197.383-.296.295-.098-.087.033-.098.033-.098h0z" fill="#00AD50" stroke="#000" stroke-width=".052" stroke-miterlimit="4.8"/><path d="M26.106 22.538s.197-.526.536-.35c0 0-.263-.504-.733-.066 0 0 .208.285.197.416h0zM25.449 22.012s.284 1.171-.154 1.532c0 0 .011-.601-.251-.963-.263-.361.262-.755.405-.57v0z" fill="#00AD50" stroke="#000" stroke-width=".052" stroke-miterlimit="4.8"/><path d="M25.482 22.22s.515.493.547.657c.033.165.154-.492-.087-.678-.241-.187-.504-.22-.504-.22l.044.241z" fill="#00AD50" stroke="#000" stroke-width=".052" stroke-miterlimit="4.8"/><path d="M24.533 23.512s.046.206.173.246c0 0 .007.154.12.2 0 0-.06.128.04.208 0 0-.02.253.074.307 0 0 .227-.014.307-.08 0 0 .047-.167-.08-.334 0 0 .02-.16-.107-.247 0 0 .04-.214-.12-.294 0 0-.027-.174-.127-.26 0 0-.194.273-.28.254z" fill="#862633" stroke="#000" stroke-width=".052" stroke-miterlimit="4.8"/><path d="M24.786 23.258s-.674-.247-1.048.107c0 0 .574.08.647.193.074.114.427-.187.4-.3h0z" fill="#00AD50" stroke="#000" stroke-width=".052" stroke-miterlimit="4.8"/><path d="M24.58 23.678s-.054-.046-.121-.093-.634-.2-.715.347c0 0-.206-.54.094-.614.3-.074.54.1.741.36" fill="#00AD50"/><path d="M24.58 23.678s-.054-.046-.121-.093-.634-.2-.715.347c0 0-.206-.54.094-.614.3-.074.54.1.741.36" stroke="#000" stroke-width=".052" stroke-miterlimit="4.8"/><path d="M24.135 22.56s.208.448.285.47c.076.022.131-.054.131-.054s-.273-.405-.416-.417zM23.982 21.87s-.175-.58-.383-.427c-.208.153-.154.57-.154.57s-.416-.428-.175-.767c.241-.34.712.033.712.624h0z" fill="#00AD50" stroke="#000" stroke-width=".052" stroke-miterlimit="4.8"/><path d="M24.453 23.063s0 .11.077.142c.076.033.219.088.219.022 0-.065-.11-.317-.154-.284-.044.033-.12.032-.142.12z" fill="#862633" stroke="#000" stroke-width=".052" stroke-miterlimit="4.8"/><path d="M24.322 22.385s-.022-.504.306-.69c0 0 .066.011.099-.087 0 0-.263.634-.186.952l-.011.044" fill="#00AD50"/><path d="M24.322 22.385s-.022-.504.306-.69c0 0 .066.011.099-.087 0 0-.263.634-.186.952l-.011.044" stroke="#000" stroke-width=".052" stroke-miterlimit="4.8"/><path d="M24.387 21.771s.592-1.226 1.314-.8c0 0-.755.154-1.029.69l-.274.405-.01-.295h0z" fill="#00AD50" stroke="#000" stroke-width=".052" stroke-miterlimit="4.8"/><path d="M24.07 22.22s-.176-.82-.285-.93c-.11-.11-.296-.23-.515-.044 0 0 .384-.34.789-.055.404.285.317.734.317.734l-.044.57-.273-.253" fill="#00AD50"/><path d="M24.07 22.22s-.176-.82-.285-.93c-.11-.11-.296-.23-.515-.044 0 0 .384-.34.789-.055.404.285.317.734.317.734l-.044.57-.273-.253" stroke="#000" stroke-width=".052" stroke-miterlimit="4.8"/><path d="M24.705 23.194s-.723-1.368-1.194-.393c0 0-.088.251.01.35 0 0-.262-.197-.141-.68.12-.48.92-.262 1.15.132.23.394.295.592.262.613-.033.022-.088-.022-.088-.022h0zM26.741 23.589s.526-1.084.832-.591c0 0 .088.24-.044.339 0 0-.207-.252-.393.055-.187.306-.11.285-.11.285s-.197.054-.285-.088h0z" fill="#00AD50" stroke="#000" stroke-width=".052" stroke-miterlimit="4.8"/><path d="M27.529 23.337s.285.153.186.46c0 0 .383-.734-.142-.8 0 0 .099.23-.044.34zM27.562 22.593s.69.197.712.492c0 0 .12-.57-.274-.744 0 0-.47.076-.438.252v0z" fill="#00AD50" stroke="#000" stroke-width=".052" stroke-miterlimit="4.8"/><path d="M27.869 21.683c.296-.58.668.187.668.187s.131-.602-.241-.712c-.372-.11-.613 1.28-.613 1.28l-.438.1s.12-1.216.777-1.325l.077.01" fill="#00AD50"/><path d="M27.869 21.683c.296-.58.668.187.668.187s.131-.602-.241-.712c-.372-.11-.613 1.28-.613 1.28l-.438.1s.12-1.216.777-1.325l.077.01" stroke="#000" stroke-width=".052" stroke-miterlimit="4.8"/><path d="M27.343 22.034s-.416-.854-.7-.942c-.285-.087.153-.219.328-.055.175.165.503.373.47.81l-.098.187h0zM26.916 23.206s.12-.58.449-.756c.328-.175.635-.11.635-.11s-.394.088-.46.285c-.066.197-.175.208-.175.208l-.449.373v0z" fill="#00AD50" stroke="#000" stroke-width=".052" stroke-miterlimit="4.8"/><path d="M26.741 23.589s-.186.35-.142.405c0 0-.197.285-.12.427 0 0 .197.153.284.087 0 0 .23-.317.164-.492 0 0 .154-.208.1-.34 0 0-.23.011-.286-.087z" fill="#862633" stroke="#000" stroke-width=".052" stroke-miterlimit="4.8"/><path d="M33.382 24.811a.097.097 0 00-.036.024l.036-.024z" fill="#862633" stroke="#000" stroke-width=".028" stroke-miterlimit="4.8"/><path d="M34.187 24.61c-.008-.02-.013-.012-.024-.021-.014-.012-.023-.05-.036-.065-.008-.01-.016 0-.025-.003l-.06-.125a.035.035 0 00.005-.018.694.694 0 00-.01-.035c-.006-.01-.015-.004-.02-.018-.006-.013-.002-.04-.004-.057-.001-.013-.006-.02-.006-.04.001-.016.01-.035.009-.05 0-.009-.011-.03-.014-.037a.275.275 0 01-.026-.1c-.001-.034.006-.056.008-.086.003-.036-.016-.054-.016-.088 0-.025.011-.054.014-.077a.58.58 0 00.002-.11c-.002-.03-.01-.05-.006-.084.001-.008.005-.015.006-.027V23.494c0-.016.002-.034 0-.05-.001-.013-.009-.027-.009-.037 0-.018.012-.026.01-.05-.002-.018-.005-.022-.009-.037-.008-.029-.002-.057-.007-.088-.002-.015-.007-.02-.008-.036-.002-.02.004-.027.006-.04a.19.19 0 00.002-.048c-.002-.018-.01-.03-.008-.05l-.007.22c-.005-.192-.013-.37-.013-.37l-.291-.136s-.025.535-.019.61c.006.074.031.585.019.647a8.818 8.818 0 00-.044.374s-.142.1-.198.211c-.056.112-.043.15-.062.15l.138-.022-.103.069a.063.063 0 01.064.01c.003.002.018.015.02.015.006 0 .013-.014.02-.016.021-.008.04.033.06.03.01-.002.026-.014.035-.025.007-.01.01-.027.017-.034.008-.006.025 0 .032 0 .02 0 .041.002.062 0 .027 0 .049-.038.074-.06.023-.02.04-.026.065-.025.027.002.052.028.08.03.02 0 .035.003.052-.02.012-.014.02-.037.031-.053l.07-.01c.013.005.027.011.039.01.017 0 .035-.002.053 0 .006.001.02.017.025.013.004-.003.01-.024.014-.03-.002-.009-.005-.03-.008-.037v0z" fill="#862633" stroke="#000" stroke-width=".028" stroke-miterlimit="4.8"/><path d="M33.597 24.801c.017 0 .033-.004.048.009l.007.014c.005.003.01.003.015.002.01.006.012.01.023.012.01.003.02 0 .03 0 .014 0 .02.005.032.01.02.008.034 0 .052-.013.021-.015.029-.003.049.016.015.014.012.013.025.003a.121.121 0 01.007-.013.094.094 0 01.02-.006c.011-.005.022-.004.033-.008.011-.005.02-.017.03-.015.01.002.022.01.032.014.01.003.013.005.021.01.014-.028.045-.037.064-.05.02-.015.04.002.062.002.012 0 .017-.006.025-.01.01-.003.02.002.03-.001.01-.004.011-.013.022-.015.02-.002.042.03.062.036.01.004.062.016.055-.022-.008-.036-.04-.011-.047-.037-.003-.014.004-.034 0-.05-.004-.015-.02-.032-.03-.035-.012-.004-.02.009-.03-.001-.008-.008-.011-.038-.019-.05-.01.008-.016.014-.029.012-.015-.004-.014-.009-.025-.023-.024-.03-.038.018-.06.01-.017-.005-.033-.048-.046-.065-.008-.01-.027-.04-.038-.033-.017.011-.001.044-.01.059-.007.01-.03 0-.038.001-.013.003-.016.006-.025.022-.02.032-.03.057-.06.053-.014-.001-.025-.015-.039-.01-.015.005-.023.021-.04.023a.085.085 0 01-.036-.003c-.011-.005-.024-.026-.034-.032a.013.013 0 00-.014-.003l-.017-.01c-.018-.005-.017-.004-.024.02-.004.014-.006.03-.011.043a.163.163 0 01-.024.034c-.012.014-.018.01-.035.015-.013.005-.03.025-.037-.001-.01-.04.029-.1-.015-.089-.012.003-.019.005-.026.022-.007.02-.001.032-.005.054-.004.027-.056.072-.046.097.007.017.03-.01.036-.005.011.007.008.024.015.036.016.024.062-.037.065-.004" fill="#862633"/><path d="M33.597 24.801c.017 0 .033-.004.048.009l.007.014c.005.003.01.003.015.002.01.006.012.01.023.012.01.003.02 0 .03 0 .014 0 .02.005.032.01.02.008.034 0 .052-.013.021-.015.029-.003.049.016.015.014.012.013.025.003a.121.121 0 01.007-.013.094.094 0 01.02-.006c.011-.005.022-.004.033-.008.011-.005.02-.017.03-.015.01.002.022.01.032.014.01.003.013.005.021.01.014-.028.045-.037.064-.05.02-.015.04.002.062.002.012 0 .017-.006.025-.01.01-.003.02.002.03-.001.01-.004.011-.013.022-.015.02-.002.042.03.062.036.01.004.062.016.055-.022-.008-.036-.04-.011-.047-.037-.003-.014.004-.034 0-.05-.004-.015-.02-.032-.03-.035-.012-.004-.02.009-.03-.001-.008-.008-.011-.038-.019-.05-.01.008-.016.014-.029.012-.015-.004-.014-.009-.025-.023-.024-.03-.038.018-.06.01-.017-.005-.033-.048-.046-.065-.008-.01-.027-.04-.038-.033-.017.011-.001.044-.01.059-.007.01-.03 0-.038.001-.013.003-.016.006-.025.022-.02.032-.03.057-.06.053-.014-.001-.025-.015-.039-.01-.015.005-.023.021-.04.023a.085.085 0 01-.036-.003c-.011-.005-.024-.026-.034-.032a.013.013 0 00-.014-.003l-.017-.01c-.018-.005-.017-.004-.024.02-.004.014-.006.03-.011.043a.163.163 0 01-.024.034c-.012.014-.018.01-.035.015-.013.005-.03.025-.037-.001-.01-.04.029-.1-.015-.089-.012.003-.019.005-.026.022-.007.02-.001.032-.005.054-.004.027-.056.072-.046.097.007.017.03-.01.036-.005.011.007.008.024.015.036.016.024.062-.037.065-.004" stroke="#000" stroke-width=".028" stroke-miterlimit="4.8"/><path d="M33.41 24.59l-.001-.011c-.012-.002-.026-.015-.038-.016-.01 0-.031.026-.039.038-.022.038-.016.088-.054.088-.01 0-.031-.007-.04-.001-.013.01-.004.04-.004.06 0 .02.008 0-.002.025-.003.007-.012.01-.015.018-.007.033.02.023.032.022h.091c.018 0 .03-.006.047-.013.011-.003.035-.003.045-.013a.197.197 0 00.016-.036c.002-.012-.003-.027 0-.038.005-.018.022-.011.025-.036.008-.061-.057-.015-.047-.075" fill="#862633"/><path d="M33.41 24.59l-.001-.011c-.012-.002-.026-.015-.038-.016-.01 0-.031.026-.039.038-.022.038-.016.088-.054.088-.01 0-.031-.007-.04-.001-.013.01-.004.04-.004.06 0 .02.008 0-.002.025-.003.007-.012.01-.015.018-.007.033.02.023.032.022h.091c.018 0 .03-.006.047-.013.011-.003.035-.003.045-.013a.197.197 0 00.016-.036c.002-.012-.003-.027 0-.038.005-.018.022-.011.025-.036.008-.061-.057-.015-.047-.075" stroke="#000" stroke-width=".028" stroke-miterlimit="4.8"/><path d="M34.145 22.897c0 .08-.054.143-.12.143s-.12-.064-.12-.143c0-.078.053-.142.12-.142.066 0 .12.064.12.142zM33.751 22.722c0 .079-.054.142-.12.142-.067 0-.12-.063-.12-.142 0-.079.053-.142.12-.142.066 0 .12.064.12.142z" fill="#000" stroke="#000" stroke-width=".052" stroke-miterlimit="4.8"/><path d="M33.96 22.777c0 .078-.055.142-.121.142-.067 0-.12-.064-.12-.142 0-.08.053-.143.12-.143.066 0 .12.064.12.143z" fill="#000" stroke="#000" stroke-width=".052" stroke-miterlimit="4.8"/><path d="M33.758 22.907c0 .079-.054.142-.12.142-.067 0-.121-.064-.121-.142 0-.079.054-.142.12-.142.067 0 .12.063.12.142z" fill="#000" stroke="#000" stroke-width=".052" stroke-miterlimit="4.8"/><path d="M33.945 23.015c0 .079-.054.143-.12.143-.067 0-.121-.064-.121-.143 0-.078.054-.142.12-.142s.12.064.12.142z" fill="#000" stroke="#000" stroke-width=".052" stroke-miterlimit="4.8"/><path d="M34.003 21.463s1.215-1.697 2.518.066c0 0 .011.175-.11.36l-.032-.141-.077.021-.022-.087-.142-.011.044-.186-.154.12.022-.131-.175.175.022-.372-.186.317.022-.219-.066.099-.04-.128-.058.128-.088-.066v.088l-.153-.131-.055.175-.077-.186-.022.13-.076-.152-.011.164-.252-.11.055.154-.12-.088.021.088-.164-.033.01.098-.174-.032.033.087-.241-.033.087.099-.024.04s1.316-.434 1.404 1.208l-.241.12.066-.13-.066-.045-.197-.153.055-.208-.066.022-.011-.12-.033.021-.077-.12-.022.044-.054-.143-.055.1-.033-.242-.087.154-.012-.088-.032.055-.11-.132-.032.088-.044-.066-.033.077-.12-.11v.088l-.077-.066-.033.044-.186-.099-.011.088-.099-.087-.033.087s1.194.679.822 1.785l-.066.142-.022-.372-.11.197.077-.427-.076.076-.012-.164-.098.164-.033-.185-.044.054-.066-.285-.054.121-.088-.317-.066.13-.043-.273-.044.164-.132-.24-.021.098-.077-.197-.044.066s-.219-.011-.285-.066c-.065-.055-.251.329-.251.329l.022-.23-.077.152v-.153l-.142.46-.033-.328-.077.284-.033-.087-.022.12-.044-.043-.038.129-.071-.053v.175l-.066-.087-.054.263-.033-.11v.12l-.055-.065-.055.263-.076-.11-.011.186.032.143-.087-.044.033.23s-.34-.635.066-1.248c.404-.613.952-.778.952-.778l-.055-.054-.01-.055-.33.164.012-.099-.088.077-.022-.11-.055.1-.01-.045-.077.121-.044-.175-.055.208-.051-.146-.113.31v-.23l-.087.241-.033-.263-.066.307v-.274l-.099.274-.065-.263-.044.252-.066-.197-.066.295-.098-.263-.055.395-.065-.154-.011.285-.077-.175.077.372-.099-.142.033.23-.142-.252.01.296-.076-.1-.033.11s-.033-1.138.744-1.357c.778-.22 1.282.065 1.282.065l-.296-.24.033-.077h-.11l.044-.088-.23.011.066-.087-.175.021v-.054l-.11.087.044-.098-.153.098-.01-.146-.078.125-.043-.132-.35.35.098-.36-.066.076-.01-.077-.1.154-.021-.11-.044.131-.033-.153-.076.153-.077-.142-.033.186-.055-.099-.066.143-.087-.088-.011.088-.175-.077.044.132-.132-.11-.033.175-.076-.087-.055.219-.055-.208-.054.164s.684-1.76 2.416-.611c0 0 .19.184.233.315.044.132.011.022.011.022l-.033-1.215.066.526.044-.187-.011.274.175-.383s-.208.635-.132.865c0 0 .077-.734.34-.821l-.24.525.076-.01-.055.109h.066l-.08.174-.04.089.043.087.066-.066h0z" fill="#00AD50" stroke="#000" stroke-width=".052" stroke-miterlimit="4.8"/><path d="M33.823 22.177l.034.03c.005-.004.113-.12.295.034l.03-.036c-.217-.183-.358-.03-.36-.028zM33.77 21.58l-.007.043.084-.036-.058.101.126-.042-.156.205.037.028.249-.325-.155.052.066-.117-.133.057.028-.167-.047-.007-.034.209z" fill="#000"/><path d="M33.538 21.594s.03.068.054.118l-.086-.034.253.447.032-.041-.05.13.043.018.109-.28-.04-.023-.088.112-.153-.27.07.028-.07-.154.095.06v-.167h-.046v.082l-.155-.097.032.071zM33.379 22.155l.019.043c.068-.03.124-.034.167-.014.05.024.065.076.066.076l.045-.012a.178.178 0 00-.09-.106c-.055-.026-.125-.022-.207.013zM33.537 22.384l.038.244.046-.007-.038-.245-.046.008zM33.849 22.401l.062.187.045-.015-.063-.187-.044.015zM33.988 22.54l.047.187.045-.012-.047-.187-.045.012z" fill="#000"/><path d="M24.688 28.344s-.206-.093-.3-.025c-.093.069-.08.168-.16.162 0 0 .31.069.379-.012.068-.081.08-.106.08-.106" fill="#00AD50"/><path d="M24.688 28.344s-.206-.093-.3-.025c-.093.069-.08.168-.16.162 0 0 .31.069.379-.012.068-.081.08-.106.08-.106" stroke="#000" stroke-width=".052" stroke-miterlimit="4.8"/><path d="M24.726 28.43s-.136.18-.089.287c.047.106.147.115.123.192 0 0 .134-.289.07-.373a.751.751 0 00-.086-.101" fill="#00AD50"/><path d="M24.726 28.43s-.136.18-.089.287c.047.106.147.115.123.192 0 0 .134-.289.07-.373a.751.751 0 00-.086-.101" stroke="#000" stroke-width=".052" stroke-miterlimit="4.8"/><path d="M24.498 27.93s-.216.067-.24.18c-.025.113.051.18-.013.228 0 0 .277-.155.275-.261-.003-.106-.01-.133-.01-.133" fill="#00AD50"/><path d="M24.498 27.93s-.216.067-.24.18c-.025.113.051.18-.013.228 0 0 .277-.155.275-.261-.003-.106-.01-.133-.01-.133" stroke="#000" stroke-width=".052" stroke-miterlimit="4.8"/><path d="M24.624 28.005s.103-.202.038-.298c-.064-.097-.164-.088-.154-.169 0 0-.082.308-.005.38a.767.767 0 00.103.085" fill="#00AD50"/><path d="M24.624 28.005s.103-.202.038-.298c-.064-.097-.164-.088-.154-.169 0 0-.082.308-.005.38a.767.767 0 00.103.085" stroke="#000" stroke-width=".052" stroke-miterlimit="4.8"/><path d="M24.413 27.932s.005-.225-.095-.284c-.1-.059-.186-.008-.212-.085 0 0 .06.313.16.344.102.03.13.032.13.032" fill="#00AD50"/><path d="M24.413 27.932s.005-.225-.095-.284c-.1-.059-.186-.008-.212-.085 0 0 .06.313.16.344.102.03.13.032.13.032" stroke="#000" stroke-width=".052" stroke-miterlimit="4.8"/><path d="M24.781 28.307s.237-.081.255.174c.019.255-.012.168-.012.168s-.125-.274-.261-.318l.018-.024z" fill="#00AD50" stroke="#000" stroke-width=".052" stroke-miterlimit="4.8"/><path d="M24.721 28.434l.025.199.033-.005-.025-.193.081-.424-.033-.006-.08.43z" fill="#000"/><path d="M24.506 28.372l-.01.031c.113.04.27-.084.277-.09l-.021-.026c-.002.001-.15.119-.245.085zM24.274 27.855l.529.268.02-.042-.528-.268-.021.042z" fill="#000"/><path d="M24.386 28.03l.033.032.106-.105-.033-.033-.106.105zM24.492 27.768l.112.243.043-.02-.112-.242-.043.02zM24.76 28.308l.004.047c.144-.01.179.083.18.084l.045-.01c-.006-.026-.063-.132-.228-.12z" fill="#000"/><path d="M27.187 28.416c.176-.099.211-.445.211-.445-.042.127-.366.254-.366.254.24-.148.529-.818.529-.818-.078.24-.706.437-1.108.663-.402.226-.19.875-.19.875-.113-.078-.332-.423-.374-.727-.042-.303-.162-.423-.437-.458-.276-.036-.438.275-.438.275l-.409.211.416.014s.297.1.297.332c0 .233-.261 1.164.169 1.686.3.363 1.404.571 1.404.571" fill="#fff"/><path d="M27.187 28.416c.176-.099.211-.445.211-.445-.042.127-.366.254-.366.254.24-.148.529-.818.529-.818-.078.24-.706.437-1.108.663-.402.226-.19.875-.19.875-.113-.078-.332-.423-.374-.727-.042-.303-.162-.423-.437-.458-.276-.036-.438.275-.438.275l-.409.211.416.014s.297.1.297.332c0 .233-.261 1.164.169 1.686.3.363 1.404.571 1.404.571" stroke="#000" stroke-width=".067" stroke-miterlimit="4.8"/><path d="M26.376 29.135s.084-.416.36-.402c.275.014.352-.31.514-.36.163-.049 1.002-.275 1.094-.677 0 0-.078.663-.846.995 0 0 .62-.205.69-.339 0 0-.274.593-.944.684 0 0 .627-.049.719-.218 0 0-.282.374-.748.423 0 0 .43.176.544.028 0 0-.233.275-.523.296l.078.021s-.275.325-.578.106c-.303-.218-.31.057-.31.057" fill="#fff"/><path d="M26.376 29.135s.084-.416.36-.402c.275.014.352-.31.514-.36.163-.049 1.002-.275 1.094-.677 0 0-.078.663-.846.995 0 0 .62-.205.69-.339 0 0-.274.593-.944.684 0 0 .627-.049.719-.218 0 0-.282.374-.748.423 0 0 .43.176.544.028 0 0-.233.275-.523.296l.078.021s-.275.325-.578.106c-.303-.218-.31.057-.31.057" stroke="#000" stroke-width=".067" stroke-miterlimit="4.8"/><path d="M27.002 29.762s.354.593.39.91c0 0 .677.748.93.79 0 0-.12.05-.338-.134 0 0 .183.19.219.198.035.007-.148-.014-.177-.064 0 0 .078.113.127.127l-.049-.014s-.092-.014-.134-.05c-.042-.034-.014.092-.014.092s-.106-.028-.141-.063c-.036-.035.014.078.014.078l-.092-.022-.063.043s-.007.042-.05.007c-.042-.035-.12 0-.12 0s-.056.05-.084.014c-.028-.035-.135.136-.135.136l-.444-1.072" fill="#fff"/><path d="M27.002 29.762s.354.593.39.91c0 0 .677.748.93.79 0 0-.12.05-.338-.134 0 0 .183.19.219.198.035.007-.148-.014-.177-.064 0 0 .078.113.127.127l-.049-.014s-.092-.014-.134-.05c-.042-.034-.014.092-.014.092s-.106-.028-.141-.063c-.036-.035.014.078.014.078l-.092-.022-.063.043s-.007.042-.05.007c-.042-.035-.12 0-.12 0s-.056.05-.084.014c-.028-.035-.135.136-.135.136l-.444-1.072" stroke="#000" stroke-width=".067" stroke-miterlimit="4.8"/><path d="M26.862 30.639l.562 1.068.059-.03-.562-1.07-.059.032zM26.954 30.56l.96 1.075.05-.044-.96-1.076-.05.045zM27.037 30.519l1.096 1.021.046-.049-1.096-1.02-.046.048zM25.387 28.1s-.072-.128-.134-.08c-.062.049-.098.057-.109.054 0 0 .063.003.098-.03.036-.034.096-.013.145.056zM25 28.042l.04.083c-.005 0-.045.13-.045.13l.032.01.044-.142c0-.012-.041-.095-.041-.095l-.03.014z" fill="#000"/><path d="M25.37 28.08s-.053.063-.126.045l-.073-.018.103.006c.041.002.094-.02.096-.032z" fill="#000"/><path d="M25.353 28.093s-.066-.069-.11-.05c0 0 .078-.024.122.043l-.012.008z" fill="#000"/><path d="M25.342 28.08s-.075.052-.157-.004l-.005-.004.01-.004s.104.043.152.013z" fill="#000"/><path d="M25.278 28.09a.022.022 0 100-.044.022.022 0 000 .044zM25.338 30.038s-.058.107-.027.171c.03.064.168.097.186.183.018.086.064.085.128.073a2.24 2.24 0 00.077-.015s-.27-.144-.34-.375l-.024-.037z" fill="#000"/><path d="M34.022 27.869s.49-.645.923-.476c.433.17.715.251.715.251s.008.434-.222.434-.45-.433-.66-.304c-.21.128-.383.305-.397.365-.013.061-.555.075-.359-.27h0z" fill="#862633" stroke="#000" stroke-width=".032" stroke-miterlimit="4.8"/><path d="M32.166 30.978s-.135.142-.074.176c.061.034.183-.007.183-.054 0-.048-.081-.136-.109-.122z" fill="#862633" stroke="#000" stroke-width=".052" stroke-miterlimit="4.8"/><path d="M32.058 31.113s-.25-.143-.447.196c-.197.339-.36.888-.474.962-.115.075 1.117-.542 1.131-.8 0 0 .081-.331-.047-.325-.13.008-.136.021-.163-.033h0z" fill="#862633" stroke="#000" stroke-width=".052" stroke-miterlimit="4.8"/><path d="M35.66 27.644s-.39.137-.323.408l.324-.408z" fill="#862633"/><path d="M35.66 27.644s-.39.137-.323.408" stroke="#000" stroke-width=".032" stroke-miterlimit="4.8"/><path d="M32.654 28.437s.013-.928.772-.887c.143.013.075.183.075.183s.164-.115.239.067c0 0 .239-.108.266.13 0 0 .26-.035.225.175 0 0 .178-.04.172.109 0 0 .204-.082.184.129 0 0 .225-.15.191.121 0 0 .232-.162.314.109.082.27-.232.846-.54.995" fill="#FEDD00"/><path d="M32.654 28.437s.013-.928.772-.887c.143.013.075.183.075.183s.164-.115.239.067c0 0 .239-.108.266.13 0 0 .26-.035.225.175 0 0 .178-.04.172.109 0 0 .204-.082.184.129 0 0 .225-.15.191.121 0 0 .232-.162.314.109.082.27-.232.846-.54.995" stroke="#000" stroke-width=".032" stroke-miterlimit="4.8"/><path d="M32.207 29.562s-.129-.86.386-1.131c0 0 .095-.02.149.101 0 0 .271-.115.278.115 0 0 .135-.108.17.04 0 0 .29-.06.236.157 0 0 .244-.068.224.142 0 0 .244-.088.203.095 0 0 .257-.061.196.149 0 0 .319-.034.224.19 0 0 .237-.061.183.122 0 0 .311.054.169.25s-.501.495-.853.623" fill="#00AD50"/><path d="M32.207 29.562s-.129-.86.386-1.131c0 0 .095-.02.149.101 0 0 .271-.115.278.115 0 0 .135-.108.17.04 0 0 .29-.06.236.157 0 0 .244-.068.224.142 0 0 .244-.088.203.095 0 0 .257-.061.196.149 0 0 .319-.034.224.19 0 0 .237-.061.183.122 0 0 .311.054.169.25s-.501.495-.853.623" stroke="#000" stroke-width=".032" stroke-miterlimit="4.8"/><path d="M31.929 30.429s-.21-.718.19-.901c0 0 .074-.02.088.054 0 0 .088-.115.156-.013 0 0 .203-.095.25.054 0 0 .136-.116.204.054 0 0 .128-.054.128.081 0 0 .176-.075.176.088 0 0 .17-.068.136.115 0 0 .257.04.183.163 0 0 .23.06.142.156 0 0 .25-.027.115.142 0 0 .19-.061.081.15-.108.209-.447.44-.684.466" fill="#00AD50"/><path d="M31.929 30.429s-.21-.718.19-.901c0 0 .074-.02.088.054 0 0 .088-.115.156-.013 0 0 .203-.095.25.054 0 0 .136-.116.204.054 0 0 .128-.054.128.081 0 0 .176-.075.176.088 0 0 .17-.068.136.115 0 0 .257.04.183.163 0 0 .23.06.142.156 0 0 .25-.027.115.142 0 0 .19-.061.081.15-.108.209-.447.44-.684.466" stroke="#000" stroke-width=".032" stroke-miterlimit="4.8"/><path d="M32.18 30.997s-.448-.433-.237-.562c0 0 .094.027.128.122 0 0 .108-.156.17.007 0 0 .162-.054.162.054l.129.095s.149-.014.122.081c0 0 .162-.02.156.068 0 0 .142.007.128.102 0 0 .244.04.136.162 0 0-.427.088-.725-.034 0 0-.156-.054-.17-.095h0z" fill="#00AD50" stroke="#000" stroke-width=".032" stroke-miterlimit="4.8"/><path d="M22.793 15.5v11.914c0 3.897 7.041 6.211 7.041 6.211s7.041-2.314 7.041-6.21V15.5H22.793z" stroke="#000" stroke-width=".28" stroke-miterlimit="4.8"/></g><defs><clipPath id="clip0"><path fill="#fff" d="M0 0h40v40H0z"/></clipPath></defs></svg>