<svg xmlns="http://www.w3.org/2000/svg" version="1.1" xmlns:xlink="http://www.w3.org/1999/xlink" xmlns:svgjs="http://svgjs.com/svgjs" width="512" height="512" x="0" y="0" viewBox="0 0 512 512" style="enable-background:new 0 0 512 512" xml:space="preserve" class=""><g>
<rect xmlns="http://www.w3.org/2000/svg" style="" width="512" height="512" fill="#f0f0f0" data-original="#f0f0f0" class=""></rect>
<g xmlns="http://www.w3.org/2000/svg">
	<rect y="341.337" style="" width="512" height="170.663" fill="#d80027" data-original="#d80027"></rect>
	<polygon style="" points="332.8,219.64 332.8,194.04 341.334,194.04 341.334,176.973 324.267,176.973    324.267,185.507 307.2,185.507 307.2,176.973 290.134,176.973 290.134,194.04 298.667,194.04 298.667,219.64 281.6,219.64    281.6,159.908 290.134,159.908 290.134,142.841 273.066,142.841 273.066,151.373 264.534,151.373 264.534,142.841 247.466,142.841    247.466,151.373 238.934,151.373 238.934,142.841 221.866,142.841 221.866,159.908 230.4,159.908 230.4,219.64 213.333,219.64    213.333,194.04 221.866,194.04 221.866,176.973 204.8,176.973 204.8,185.507 187.733,185.507 187.733,176.973 170.666,176.973    170.666,194.04 179.199,194.04 179.199,219.64 162.133,219.64 162.133,287.908 349.867,287.908 349.867,219.64  " fill="#d80027" data-original="#d80027"></polygon>
</g>
<path xmlns="http://www.w3.org/2000/svg" style="" d="M256,279.374c-14.138,0-25.6,11.462-25.6,25.6c0,11.145,7.125,20.624,17.066,24.137v35.596h-25.6  v34.134h42.667v-69.73c9.942-3.514,17.066-12.993,17.066-24.137C281.6,290.836,270.138,279.374,256,279.374z M256,313.508  c-4.714,0-8.534-3.821-8.534-8.534c0-4.714,3.82-8.534,8.534-8.534c4.713,0,8.534,3.82,8.534,8.534  C264.534,309.687,260.713,313.508,256,313.508z" fill="#ffda44" data-original="#ffda44"></path>
<g xmlns="http://www.w3.org/2000/svg">
</g>
<g xmlns="http://www.w3.org/2000/svg">
</g>
<g xmlns="http://www.w3.org/2000/svg">
</g>
<g xmlns="http://www.w3.org/2000/svg">
</g>
<g xmlns="http://www.w3.org/2000/svg">
</g>
<g xmlns="http://www.w3.org/2000/svg">
</g>
<g xmlns="http://www.w3.org/2000/svg">
</g>
<g xmlns="http://www.w3.org/2000/svg">
</g>
<g xmlns="http://www.w3.org/2000/svg">
</g>
<g xmlns="http://www.w3.org/2000/svg">
</g>
<g xmlns="http://www.w3.org/2000/svg">
</g>
<g xmlns="http://www.w3.org/2000/svg">
</g>
<g xmlns="http://www.w3.org/2000/svg">
</g>
<g xmlns="http://www.w3.org/2000/svg">
</g>
<g xmlns="http://www.w3.org/2000/svg">
</g>
</g></svg>