<svg xmlns="http://www.w3.org/2000/svg" version="1.1" xmlns:xlink="http://www.w3.org/1999/xlink" xmlns:svgjs="http://svgjs.com/svgjs" width="512" height="512" x="0" y="0" viewBox="0 0 512 512" style="enable-background:new 0 0 512 512" xml:space="preserve"><g>
<rect y="0.006" style="" width="512" height="511.989" fill="#f0f0f0" data-original="#f0f0f0"></rect>
<g>
	<rect style="" width="512" height="170.663" fill="#338af3" data-original="#338af3"></rect>
	<rect y="341.337" style="" width="512" height="170.663" fill="#338af3" data-original="#338af3"></rect>
	<polygon style="" points="182.158,183.827 189.714,207.077 214.158,207.077 194.382,221.446 201.936,244.695 
		182.158,230.325 162.381,244.695 169.935,221.446 150.158,207.077 174.603,207.077 	" fill="#338af3" data-original="#338af3"></polygon>
	<polygon style="" points="182.158,267.305 189.714,290.556 214.158,290.556 194.382,304.924 201.936,328.173 
		182.158,313.804 162.381,328.173 169.935,304.924 150.158,290.556 174.603,290.556 	" fill="#338af3" data-original="#338af3"></polygon>
	<polygon style="" points="329.842,183.827 337.397,207.077 361.842,207.077 342.065,221.446 349.619,244.695 
		329.842,230.325 310.064,244.695 317.618,221.446 297.842,207.077 322.286,207.077 	" fill="#338af3" data-original="#338af3"></polygon>
	<polygon style="" points="329.842,267.305 337.397,290.556 361.842,290.556 342.065,304.924 349.619,328.173 
		329.842,313.804 310.064,328.173 317.618,304.924 297.842,290.556 322.286,290.556 	" fill="#338af3" data-original="#338af3"></polygon>
	<polygon style="" points="256,225.566 263.555,248.816 288,248.816 268.223,263.185 275.778,286.434 256,272.065 
		236.222,286.434 243.777,263.185 224,248.816 248.445,248.816 	" fill="#338af3" data-original="#338af3"></polygon>
</g>
<g>
</g>
<g>
</g>
<g>
</g>
<g>
</g>
<g>
</g>
<g>
</g>
<g>
</g>
<g>
</g>
<g>
</g>
<g>
</g>
<g>
</g>
<g>
</g>
<g>
</g>
<g>
</g>
<g>
</g>
</g></svg>