<svg width="40" height="40" fill="none" xmlns="http://www.w3.org/2000/svg"><path d="M0 0h40v40H0V0Z" fill="#CF142B"/><path d="M26.597 10.999a2.794 2.794 0 0 0-.362.24c.006.01-.273.919-.279.908-.006-.01-.22-.734-.241-.718-.02.015-.725.19-.735.198-.01.007.52-.815.52-.815l-.085-.804.58.176s.604-.588.615-.595c.01-.008-.15.721-.15.721l.315.434s-.17.218-.178.255Z" fill="#F9DD16"/><path d="M20.301 19.701c.445.267 2.945.58 3.334.618a4.457 4.457 0 0 1 1.701.107c.509.197 1.01.162 1.325-.12.436-.282.569-.732.744-1.137a.803.803 0 0 0-.05-.614c-.181-.382-.098-.482-.146-.701.458-1.293.46-2.773.51-3.87-.065-.635-.037-1.125.02-1.325.26-.482.674-.698.883-.794l2.352-.76c.603-.266.164-.682.038-.637-.42-.041-.439-.504-2.345.075l-1.26-.102s-.258-.19-.282-.174c-.685-.095-.75.364-.69.634l.139.591s-.175.906-.159.93c-.562.748-1.306 3.093-1.331 3.537.003.417-.154.35-.083.75.026.316-.025.121.127.766.04.194-.193.19-.33.14-1.188-.676-2.017-.977-3.248-1.566l-1.866 1.246.617 2.406Z" fill="#fff"/><path d="M29.295 11.646c-.02.004-.806-1.049-.806-1.049s.38-.342.433-.31l1.025 1.178-.652.181ZM25.916 19.991c-.12-.225-.262-.817-.266-.825l-.324-.472c-.15-.047-.003-.076-.09-.094-.19-.043-.618-.006-.76-.04-.144-.09.14-.66.136-.668.181-.58.808-.418.833-.401.284.143.317.184.26.361-.083.188-.13.252-.13.38.003.244.274.646.277.654.004.008.182.192.182.192.085.091.144.074.3.136.098.18.23.137.194.573-.123.194-.505.38-.612.204ZM21.633 26.866c.01-.04.013-.448.001-.449-.012 0-.592-.734-.58-.734.012 0 .708.198.707.171-.001-.026.236-.744.236-.757-.001-.014.375.898.375.898l.692.355-.453.42s.148.85.149.863c0 .013-.5-.52-.5-.52l-.518.048s-.084-.268-.11-.295Z" fill="#F9DD16"/><path d="M17.996 16.625c-.454.251-2.047 2.3-2.287 2.624a4.913 4.913 0 0 1-1 1.45c-.43.345-.672.808-.615 1.239-.008.538.283.896.515 1.268a.72.72 0 0 0 .52.285c.405.044.44.172.643.246.793 1.099 1.981 1.894 2.837 2.525.546.283.925.57 1.054.729.25.487.2.97.165 1.207l-.651 2.492c-.111.677.459.51.49.375.26-.35.641-.119 1.2-2.118l.76-1.064s.29-.126.29-.156c.444-.556.11-.86-.14-.95l-.55-.195s-.634-.64-.663-.639c-.298-.899-1.784-2.814-2.128-3.075-.337-.22-.198-.323-.559-.475-.267-.146-.083-.086-.683-.297-.177-.07-.05-.274.064-.368 1.182-.69 1.87-1.265 3.004-2.04v-2.322l-2.266-.741Z" fill="#fff"/><path d="M19.664 28.892c.008-.02 1.276-.152 1.276-.152s.07.52.017.55l-1.497.277.204-.675ZM14.73 21.446c.245.013.798.203.806.204l.554-.036c.118-.108.063.038.124-.03.137-.145.337-.543.442-.651.149-.08.454.476.463.477.369.47-.1.939-.127.952-.268.175-.319.182-.43.038-.106-.174-.132-.25-.235-.318-.197-.128-.667-.103-.675-.104-.008 0-.252.06-.252.06-.119.025-.138.087-.272.192-.197-.01-.233.13-.564-.134-.09-.212-.034-.65.165-.65ZM11.202 14.773c.029.027.375.22.381.209.006-.01.907-.201.9-.19-.005.01-.504.554-.48.565.022.01.52.558.532.564.011.005-.943-.072-.943-.072l-.631.467-.142-.607s-.794-.257-.806-.262c-.011-.006.68-.215.68-.215l.206-.495s.268.046.303.036Z" fill="#F9DD16"/><path d="M21.614 16.172c.002-.53-.984-2.925-1.146-3.293a4.864 4.864 0 0 1-.76-1.58c-.088-.551-.367-.984-.76-1.13-.455-.256-.898-.156-1.325-.117a.74.74 0 0 0-.49.343c-.23.349-.355.322-.514.473-1.313.216-2.554.932-3.498 1.42-.5.367-.924.58-1.12.625-.534.002-.921-.265-1.107-.407l-1.81-1.742c-.524-.413-.653.184-.553.275.175.397-.203.638 1.233 2.069l.544 1.182s-.03.323-.005.337c.262.66.679.495.875.31l.427-.41s.845-.284.858-.31c.907.142 3.243-.329 3.629-.522.347-.206.369-.031.67-.29.251-.176.113-.036.578-.485.143-.13.256.08.282.228.026 1.394.188 2.286.308 3.676l1.976 1.07 1.708-1.722Z" fill="#fff"/><path d="M10.417 12c.014.017-.48 1.24-.48 1.24s-.479-.177-.479-.24l.48-1.5.479.5Z" fill="#F9DD16"/><path d="M18.563 12.5c1.437 2 .958 4.5.958 4.5M25.15 19.423c-2.39.187-4.15-1.58-4.15-1.58M15.728 21.192c.936-2.301 3.25-3.123 3.25-3.123" stroke="#000" stroke-width=".1"/><path d="M19.042 10.953c-.129.22-.556.636-.56.643l-.234.523c.036.159-.063.04-.033.127.059.193.305.56.348.707-.003.173-.625.195-.63.202-.58.119-.759-.527-.756-.558-.023-.326-.005-.377.172-.412.2-.016.277-.004.385-.066.204-.122.406-.563.41-.57.006-.007.07-.258.07-.258.035-.12-.01-.166-.036-.338.103-.175 0-.273.384-.453.225.017.574.27.48.453ZM20.332 20c-.205-.115-.361-.138-.436-.082-.12-.73-.224-1.462-.377-2.19-1.26-.578-1.526-.71-1.94-.907.193-.138.29-.276.283-.375.635.252 1.264.519 1.914.738 1.085-.912 1.322-1.1 1.684-1.395.013.253.073.414.154.457-.516.479-1.04.944-1.538 1.454.176 1.488.205 1.808.256 2.3Z" fill="#F9DD16"/></svg>