<svg xmlns="http://www.w3.org/2000/svg" version="1.1" xmlns:xlink="http://www.w3.org/1999/xlink" width="512" height="512" x="0" y="0" viewBox="0 0 512 512" style="enable-background:new 0 0 512 512" xml:space="preserve" class=""><g><path d="M0 .279h512v170.48H0z" style="" fill="#fe6c36" data-original="#fab446" class=""></path><path d="M0 341.241h512v170.48H0z" style="" fill="#0e6f40" data-original="#73af00"></path><path d="M0 170.761h512v170.48H0z" style="" fill="#f5f5f5" data-original="#f5f5f5"></path><path d="M256 314.451c-32.229 0-58.448-26.219-58.448-58.448s26.219-58.448 58.448-58.448 58.448 26.219 58.448 58.448-26.219 58.448-58.448 58.448zm0-106.022c-26.235 0-47.574 21.339-47.574 47.574s21.339 47.574 47.574 47.574 47.574-21.339 47.574-47.574-21.339-47.574-47.574-47.574z" style="" fill="#0a0288" data-original="#0a0288"></path><circle cx="256" cy="256.001" r="6.626" style="" fill="#0a0288" data-original="#0a0288"></circle><path d="m256 256.997-16.839 1.7-36.172-1.7v-1.988l36.172-1.7 16.839 1.7z" style="" fill="#0a0288" data-original="#0a0288"></path><path d="m256 256.997 16.839 1.7 36.172-1.7v-1.988l-36.172-1.7-16.839 1.7z" style="" fill="#0a0288" data-original="#0a0288"></path><path d="m255.006 256.003-1.7-16.839 1.7-36.172h1.988l1.7 36.172-1.7 16.839zM255.006 256.003l-1.7 16.839 1.7 36.172h1.988l1.7-36.172-1.7-16.839z" style="" fill="#0a0288" data-original="#0a0288"></path><path d="m255.297 256.706-13.109-10.705-24.375-26.78 1.405-1.405 26.78 24.375 10.705 13.109zM255.297 256.706l10.705 13.109 26.78 24.375 1.405-1.405-24.375-26.78-13.109-10.705z" style="" fill="#0a0288" data-original="#0a0288"></path><path d="m255.297 255.3 10.705-13.109 26.78-24.375 1.405 1.405-24.375 26.78-13.109 10.705z" style="" fill="#0a0288" data-original="#0a0288"></path><path d="m255.297 255.3-13.109 10.705-24.375 26.78 1.405 1.405 26.78-24.375 10.705-13.109z" style="" fill="#0a0288" data-original="#0a0288"></path><path d="m256.38 256.921-14.906 8.015-34.07 12.272-.76-1.837 32.768-15.413 16.208-4.873z" style="" fill="#0a0288" data-original="#0a0288"></path><path d="m256.38 256.921 16.208-4.873 32.768-15.413-.76-1.837-34.07 12.272-14.906 8.015z" style="" fill="#0a0288" data-original="#0a0288"></path><path d="m255.082 256.383-8.015-14.906-12.272-34.07 1.837-.76 15.413 32.768 4.873 16.208zM255.082 256.383l4.873 16.208 15.413 32.768 1.837-.76-12.272-34.07-8.015-14.906z" style="" fill="#0a0288" data-original="#0a0288"></path><path d="m255.62 256.921-16.208-4.873-32.768-15.413.76-1.837 34.07 12.272 14.906 8.015z" style="" fill="#0a0288" data-original="#0a0288"></path><path d="m255.62 256.921 14.906 8.015 34.07 12.272.76-1.837-32.768-15.413-16.208-4.873z" style="" fill="#0a0288" data-original="#0a0288"></path><path d="m255.082 255.623 4.873-16.208 15.413-32.768 1.837.76-12.272 34.07-8.015 14.906zM255.082 255.623l-8.015 14.906-12.272 34.07 1.837.76 15.413-32.768 4.873-16.208z" style="" fill="#0a0288" data-original="#0a0288"></path><circle cx="256" cy="256.001" r="7.257" style="" fill="#f5f5f5" data-original="#f5f5f5"></circle><circle cx="256" cy="256.001" r="5.359" style="" fill="#0a0288" data-original="#0a0288"></circle></g></svg>