<svg width="40" height="40" viewBox="0 0 40 40" fill="none" xmlns="http://www.w3.org/2000/svg">
<path d="M40 12.5H0V27.5H40V12.5Z" fill="white"/>
<path d="M40 0H0V12.5H40V0Z" fill="#FF9933"/>
<path d="M40 27.5H0V40H40V27.5Z" fill="#128807"/>
<path d="M20 25.625C23.1066 25.625 25.625 23.1066 25.625 20C25.625 16.8934 23.1066 14.375 20 14.375C16.8934 14.375 14.375 16.8934 14.375 20C14.375 23.1066 16.8934 25.625 20 25.625Z" stroke="#223049" stroke-width="1.25"/>
<path d="M20 21C20.5523 21 21 20.5523 21 20C21 19.4477 20.5523 19 20 19C19.4477 19 19 19.4477 19 20C19 20.5523 19.4477 21 20 21Z" stroke="#223049" stroke-width="1.25"/>
</svg>
