<svg xmlns="http://www.w3.org/2000/svg" version="1.1" xmlns:xlink="http://www.w3.org/1999/xlink" xmlns:svgjs="http://svgjs.com/svgjs" width="512" height="512" x="0" y="0" viewBox="0 0 512 512" style="enable-background:new 0 0 512 512" xml:space="preserve"><g>
<rect xmlns="http://www.w3.org/2000/svg" y="0.006" style="" width="512" height="511.989" fill="#f0f0f0" data-original="#f0f0f0"></rect>
<rect xmlns="http://www.w3.org/2000/svg" style="" width="512" height="170.663" fill="#6da544" data-original="#6da544"></rect>
<rect xmlns="http://www.w3.org/2000/svg" y="341.337" style="" width="512" height="170.663" fill="#d80027" data-original="#d80027"></rect>
<g xmlns="http://www.w3.org/2000/svg">
	<rect x="44.522" y="155.826" style="" width="22.261" height="30.049" fill="#f0f0f0" data-original="#f0f0f0"></rect>
	<rect y="155.826" style="" width="22.261" height="30.049" fill="#f0f0f0" data-original="#f0f0f0"></rect>
	<rect x="89.043" y="155.826" style="" width="22.261" height="30.049" fill="#f0f0f0" data-original="#f0f0f0"></rect>
	<rect x="133.565" y="155.826" style="" width="22.261" height="30.049" fill="#f0f0f0" data-original="#f0f0f0"></rect>
	<rect x="178.087" y="155.826" style="" width="22.261" height="30.049" fill="#f0f0f0" data-original="#f0f0f0"></rect>
	<rect x="222.609" y="155.826" style="" width="22.261" height="30.049" fill="#f0f0f0" data-original="#f0f0f0"></rect>
	<rect x="267.13" y="155.826" style="" width="22.261" height="30.049" fill="#f0f0f0" data-original="#f0f0f0"></rect>
	<rect x="311.652" y="155.826" style="" width="22.261" height="30.049" fill="#f0f0f0" data-original="#f0f0f0"></rect>
	<rect x="356.174" y="155.826" style="" width="22.261" height="30.049" fill="#f0f0f0" data-original="#f0f0f0"></rect>
	<rect x="400.696" y="155.826" style="" width="22.261" height="30.049" fill="#f0f0f0" data-original="#f0f0f0"></rect>
	<rect x="445.217" y="155.826" style="" width="22.261" height="30.049" fill="#f0f0f0" data-original="#f0f0f0"></rect>
	<rect x="489.739" y="155.826" style="" width="22.261" height="30.049" fill="#f0f0f0" data-original="#f0f0f0"></rect>
	<rect x="44.522" y="326.678" style="" width="22.261" height="29.492" fill="#f0f0f0" data-original="#f0f0f0"></rect>
	<rect y="326.678" style="" width="22.261" height="29.492" fill="#f0f0f0" data-original="#f0f0f0"></rect>
	<rect x="89.043" y="326.678" style="" width="22.261" height="29.492" fill="#f0f0f0" data-original="#f0f0f0"></rect>
	<rect x="133.565" y="326.678" style="" width="22.261" height="29.492" fill="#f0f0f0" data-original="#f0f0f0"></rect>
	<rect x="178.087" y="326.678" style="" width="22.261" height="29.492" fill="#f0f0f0" data-original="#f0f0f0"></rect>
	<rect x="222.609" y="326.678" style="" width="22.261" height="29.492" fill="#f0f0f0" data-original="#f0f0f0"></rect>
	<rect x="267.13" y="326.678" style="" width="22.261" height="29.492" fill="#f0f0f0" data-original="#f0f0f0"></rect>
	<rect x="311.652" y="326.678" style="" width="22.261" height="29.492" fill="#f0f0f0" data-original="#f0f0f0"></rect>
	<rect x="356.174" y="326.678" style="" width="22.261" height="29.492" fill="#f0f0f0" data-original="#f0f0f0"></rect>
	<rect x="400.696" y="326.678" style="" width="22.261" height="29.492" fill="#f0f0f0" data-original="#f0f0f0"></rect>
	<rect x="445.217" y="326.678" style="" width="22.261" height="29.492" fill="#f0f0f0" data-original="#f0f0f0"></rect>
	<rect x="489.739" y="326.678" style="" width="22.261" height="29.492" fill="#f0f0f0" data-original="#f0f0f0"></rect>
</g>
<path xmlns="http://www.w3.org/2000/svg" style="" d="M319.746,204.8h-25.679c0.213,2.822,0.333,5.669,0.333,8.534c0,18.986-4.745,37.388-13.018,50.488  c-2.552,4.04-6.841,9.746-12.582,13.595V204.8h-25.6v72.615c-5.74-3.849-10.03-9.553-12.582-13.595  c-8.273-13.099-13.018-31.501-13.018-50.488c0-2.864,0.121-5.712,0.333-8.534h-25.679c-0.165,2.808-0.254,5.652-0.254,8.534  c0,52.636,28.112,93.866,64,93.866s64-41.23,64-93.866C320,210.452,319.911,207.608,319.746,204.8z" fill="#d80027" data-original="#d80027"></path>
<g xmlns="http://www.w3.org/2000/svg">
</g>
<g xmlns="http://www.w3.org/2000/svg">
</g>
<g xmlns="http://www.w3.org/2000/svg">
</g>
<g xmlns="http://www.w3.org/2000/svg">
</g>
<g xmlns="http://www.w3.org/2000/svg">
</g>
<g xmlns="http://www.w3.org/2000/svg">
</g>
<g xmlns="http://www.w3.org/2000/svg">
</g>
<g xmlns="http://www.w3.org/2000/svg">
</g>
<g xmlns="http://www.w3.org/2000/svg">
</g>
<g xmlns="http://www.w3.org/2000/svg">
</g>
<g xmlns="http://www.w3.org/2000/svg">
</g>
<g xmlns="http://www.w3.org/2000/svg">
</g>
<g xmlns="http://www.w3.org/2000/svg">
</g>
<g xmlns="http://www.w3.org/2000/svg">
</g>
<g xmlns="http://www.w3.org/2000/svg">
</g>
</g></svg>