<svg width="40" height="40" fill="none" xmlns="http://www.w3.org/2000/svg"><g clip-path="url(#a)"><path d="M40 0H0v40h40V0Z" fill="#fff"/><path d="m-.147 0 40 40-40-40Zm0 40 40-40Z" fill="#000"/><path fill-rule="evenodd" clip-rule="evenodd" d="M17.261 20-.833 1.906.539-1.906l19.314 19.314L39.167-1.906l1.372 1.281v2.53L22.444 20 40.54 38.094l.294 2.531-1.666 1.28-19.314-19.314L.539 41.907l-1.372-3.812L17.26 20Z" fill="#CF142B"/><path d="M18.532 4.334c-.584.376-.836.765-1.145 1.424-.575 1.226-.453 2.243 0 3.53.511 1.452 1.154 2.818 2.577 2.818s2.056-1.37 2.577-2.818c.475-1.325.654-2.414 0-3.644-.333-.625-.616-.966-1.198-1.31-.966-.57-1.864-.608-2.81 0Z" fill="#CF142B"/><rect x="18.012" y="7.067" width="3.956" height=".911" rx=".455" fill="#F8EE46"/><rect x="18.012" y="8.605" width="3.956" height=".911" rx=".455" fill="#F8EE46"/><rect x="19.521" y="10.597" width=".937" height=".911" rx=".455" fill="#F8EE46"/><path d="m17.023 3.224 1.77.854h2.264l1.588-.854h-1.822L21.057 2 19.73 3.224 18.558 2l.235 1.224h-1.77Z" fill="#F8EE46"/></g><defs><clipPath id="a"><path fill="#fff" d="M0 0h40v40H0z"/></clipPath></defs></svg>