<svg xmlns="http://www.w3.org/2000/svg" version="1.1" xmlns:xlink="http://www.w3.org/1999/xlink" xmlns:svgjs="http://svgjs.com/svgjs" width="512" height="512" x="0" y="0" viewBox="0 0 512 512" style="enable-background:new 0 0 512 512" xml:space="preserve"><g>
<rect xmlns="http://www.w3.org/2000/svg" y="0.008" style="" width="512" height="511.989" fill="#0052b4" data-original="#0052b4"></rect>
<rect xmlns="http://www.w3.org/2000/svg" y="0.002" style="" width="512" height="128" fill="#ffda44" data-original="#ffda44"></rect>
<rect xmlns="http://www.w3.org/2000/svg" y="128" style="" width="512" height="128" fill="#f0f0f0" data-original="#f0f0f0"></rect>
<rect xmlns="http://www.w3.org/2000/svg" y="256" style="" width="512" height="128" fill="#d80027" data-original="#d80027"></rect>
<polygon xmlns="http://www.w3.org/2000/svg" style="" points="256,256.008 0,512 0,0 " fill="#6da544" data-original="#6da544"></polygon>
<g xmlns="http://www.w3.org/2000/svg">
	<path style="" d="M65.192,256c0-30.638,21.532-56.232,50.286-62.512c-4.42-0.965-9.005-1.488-13.714-1.488   c-35.347,0-64,28.653-64,64s28.653,64,64,64c4.71,0,9.295-0.523,13.714-1.488C86.725,312.232,65.192,286.638,65.192,256z" fill="#f0f0f0" data-original="#f0f0f0"></path>
	<polygon style="" points="114.773,201.143 118.177,211.62 129.192,211.62 120.28,218.094 123.685,228.571    114.773,222.097 105.86,228.571 109.265,218.094 100.352,211.62 111.368,211.62  " fill="#f0f0f0" data-original="#f0f0f0"></polygon>
	<polygon style="" points="114.773,228.571 118.177,239.048 129.192,239.048 120.28,245.523 123.685,256    114.773,249.525 105.86,256 109.265,245.523 100.352,239.048 111.368,239.048  " fill="#f0f0f0" data-original="#f0f0f0"></polygon>
	<polygon style="" points="114.773,256 118.177,266.477 129.192,266.477 120.28,272.952 123.685,283.429    114.773,276.954 105.86,283.429 109.265,272.952 100.352,266.477 111.368,266.477  " fill="#f0f0f0" data-original="#f0f0f0"></polygon>
	<polygon style="" points="114.773,283.429 118.177,293.906 129.192,293.906 120.28,300.38 123.685,310.857    114.773,304.382 105.86,310.857 109.265,300.38 100.352,293.906 111.368,293.906  " fill="#f0f0f0" data-original="#f0f0f0"></polygon>
</g>
<g xmlns="http://www.w3.org/2000/svg">
</g>
<g xmlns="http://www.w3.org/2000/svg">
</g>
<g xmlns="http://www.w3.org/2000/svg">
</g>
<g xmlns="http://www.w3.org/2000/svg">
</g>
<g xmlns="http://www.w3.org/2000/svg">
</g>
<g xmlns="http://www.w3.org/2000/svg">
</g>
<g xmlns="http://www.w3.org/2000/svg">
</g>
<g xmlns="http://www.w3.org/2000/svg">
</g>
<g xmlns="http://www.w3.org/2000/svg">
</g>
<g xmlns="http://www.w3.org/2000/svg">
</g>
<g xmlns="http://www.w3.org/2000/svg">
</g>
<g xmlns="http://www.w3.org/2000/svg">
</g>
<g xmlns="http://www.w3.org/2000/svg">
</g>
<g xmlns="http://www.w3.org/2000/svg">
</g>
<g xmlns="http://www.w3.org/2000/svg">
</g>
</g></svg>