<svg xmlns="http://www.w3.org/2000/svg" version="1.1" xmlns:xlink="http://www.w3.org/1999/xlink" xmlns:svgjs="http://svgjs.com/svgjs" width="512" height="512" x="0" y="0" viewBox="0 0 512 512" style="enable-background:new 0 0 512 512" xml:space="preserve"><g>
<rect xmlns="http://www.w3.org/2000/svg" x="0.002" y="0.002" style="" width="511.998" height="511.998" fill="#2e52b2" data-original="#2e52b2"></rect>
<circle xmlns="http://www.w3.org/2000/svg" style="" cx="383.998" cy="181.793" r="29.681" fill="#6da544" data-original="#6da544"></circle>
<rect xmlns="http://www.w3.org/2000/svg" x="332.053" y="174.38" style="" width="103.88" height="44.522" fill="#d80027" data-original="#d80027"></rect>
<path xmlns="http://www.w3.org/2000/svg" style="" d="M435.94,255.999v-0.001V255.999z" fill="#496e2d" data-original="#496e2d"></path>
<path xmlns="http://www.w3.org/2000/svg" style="" d="M332.056,285.68v29.681h15.616c9.364,9.176,22.18,14.84,36.326,14.84  c14.147,0,26.962-5.664,36.326-14.84h0.776h14.84V285.68H332.056z" fill="#ffda44" data-original="#ffda44"></path>
<path xmlns="http://www.w3.org/2000/svg" style="" d="M332.056,211.477v44.522c0,39.759,51.942,51.942,51.942,51.942s51.942-12.182,51.942-51.942v-44.522  H332.056z" fill="#338af3" data-original="#338af3"></path>
<g xmlns="http://www.w3.org/2000/svg">
	<path style="" d="M383.995,235.259c-12.985,0-12.985,11.873-25.969,11.873c-12.985,0-12.985-11.873-25.969-11.873   v20.777c12.985,0,12.985,11.873,25.969,11.873c12.985,0,12.985-11.873,25.969-11.873c12.986,0,12.986,11.873,25.973,11.873   c12.986,0,12.986-11.873,25.973-11.873v-20.777c-12.986,0-12.986,11.873-25.973,11.873   C396.982,247.131,396.982,235.259,383.995,235.259z" fill="#f3f3f3" data-original="#f3f3f3"></path>
	<path style="" d="M383.995,193.669c-12.985,0-12.985,11.873-25.969,11.873c-12.985,0-12.985-11.873-25.969-11.873   v20.777c12.985,0,12.985,11.873,25.969,11.873c12.985,0,12.985-11.873,25.969-11.873c12.986,0,12.986,11.873,25.973,11.873   c12.986,0,12.986-11.873,25.973-11.873v-20.777c-12.986,0-12.986,11.873-25.973,11.873   C396.982,205.542,396.982,193.669,383.995,193.669z" fill="#f3f3f3" data-original="#f3f3f3"></path>
</g>
<polygon xmlns="http://www.w3.org/2000/svg" style="" points="255.999,0 255.999,48.896 215.852,89.043 255.999,89.043 255.999,166.956 203.463,166.956   255.999,219.491 255.999,255.999 232.28,255.999 166.956,190.664 166.956,255.999 89.043,255.999 89.043,178.275 11.331,255.999   0,255.999 0,207.103 40.147,166.956 0,166.956 0,89.043 52.535,89.043 0,36.508 0,0 23.719,0 89.043,65.335 89.043,0 166.956,0   166.956,77.723 244.668,0 " fill="#f0f0f0" data-original="#f0f0f0"></polygon>
<polygon xmlns="http://www.w3.org/2000/svg" style="" points="0,152 104,152 104,255.999 152,255.999 152,152 255.999,152 255.999,104 152,104 152,0   104,0 104,104 0,104 " fill="#d80027" data-original="#d80027"></polygon>
<polygon xmlns="http://www.w3.org/2000/svg" style="" points="166.956,166.956 255.999,255.999 255.999,230.819 192.136,166.956 " fill="#0052b4" data-original="#0052b4"></polygon>
<polygon xmlns="http://www.w3.org/2000/svg" style="" points="166.956,166.956 255.999,255.999 255.999,230.819 192.136,166.956 " fill="#f0f0f0" data-original="#f0f0f0"></polygon>
<g xmlns="http://www.w3.org/2000/svg">
	<polygon style="" points="166.956,166.956 255.999,255.999 255.999,230.819 192.136,166.956  " fill="#d80027" data-original="#d80027"></polygon>
	<polygon style="" points="63.862,166.958 0,230.82 0,255.999 0,255.999 89.041,166.958  " fill="#d80027" data-original="#d80027"></polygon>
</g>
<polygon xmlns="http://www.w3.org/2000/svg" style="" points="89.043,89.043 0,0 0,25.18 63.863,89.043 " fill="#0052b4" data-original="#0052b4"></polygon>
<polygon xmlns="http://www.w3.org/2000/svg" style="" points="89.043,89.043 0,0 0,25.18 63.863,89.043 " fill="#f0f0f0" data-original="#f0f0f0"></polygon>
<g xmlns="http://www.w3.org/2000/svg">
	<polygon style="" points="89.043,89.043 0,0 0,25.18 63.863,89.043  " fill="#d80027" data-original="#d80027"></polygon>
	<polygon style="" points="192.137,89.041 255.999,25.179 255.999,0 255.999,0 166.958,89.041  " fill="#d80027" data-original="#d80027"></polygon>
</g>
<g xmlns="http://www.w3.org/2000/svg">
</g>
<g xmlns="http://www.w3.org/2000/svg">
</g>
<g xmlns="http://www.w3.org/2000/svg">
</g>
<g xmlns="http://www.w3.org/2000/svg">
</g>
<g xmlns="http://www.w3.org/2000/svg">
</g>
<g xmlns="http://www.w3.org/2000/svg">
</g>
<g xmlns="http://www.w3.org/2000/svg">
</g>
<g xmlns="http://www.w3.org/2000/svg">
</g>
<g xmlns="http://www.w3.org/2000/svg">
</g>
<g xmlns="http://www.w3.org/2000/svg">
</g>
<g xmlns="http://www.w3.org/2000/svg">
</g>
<g xmlns="http://www.w3.org/2000/svg">
</g>
<g xmlns="http://www.w3.org/2000/svg">
</g>
<g xmlns="http://www.w3.org/2000/svg">
</g>
<g xmlns="http://www.w3.org/2000/svg">
</g>
</g></svg>