<svg xmlns="http://www.w3.org/2000/svg" version="1.1" xmlns:xlink="http://www.w3.org/1999/xlink" xmlns:svgjs="http://svgjs.com/svgjs" width="512" height="512" x="0" y="0" viewBox="0 0 512 512" style="enable-background:new 0 0 512 512" xml:space="preserve" class=""><g>
<rect xmlns="http://www.w3.org/2000/svg" y="0.004" style="" width="512" height="46.545" fill="#df343e" data-original="#ff4b55"></rect>
<rect xmlns="http://www.w3.org/2000/svg" y="46.549" style="" width="512" height="46.545" fill="#f5f5f5" data-original="#f5f5f5"></rect>
<rect xmlns="http://www.w3.org/2000/svg" y="93.091" style="" width="512" height="46.545" fill="#df343e" data-original="#ff4b55"></rect>
<rect xmlns="http://www.w3.org/2000/svg" y="139.641" style="" width="512" height="46.545" fill="#f5f5f5" data-original="#f5f5f5"></rect>
<path xmlns="http://www.w3.org/2000/svg" style="" d="M512,232.731H8c-4.418,0-8-3.582-8-8v-38.545h512V232.731z" fill="#df343e" data-original="#ff4b55"></path>
<polygon xmlns="http://www.w3.org/2000/svg" style="" points="512,279.277 0,279.277 0,215.582 13.471,215.582 13.474,232.731 512,232.731 " fill="#f5f5f5" data-original="#f5f5f5"></polygon>
<rect xmlns="http://www.w3.org/2000/svg" y="279.271" style="" width="512" height="46.545" fill="#df343e" data-original="#ff4b55"></rect>
<rect xmlns="http://www.w3.org/2000/svg" y="325.821" style="" width="512" height="46.545" fill="#f5f5f5" data-original="#f5f5f5"></rect>
<rect xmlns="http://www.w3.org/2000/svg" y="372.361" style="" width="512" height="46.545" fill="#df343e" data-original="#ff4b55"></rect>
<rect xmlns="http://www.w3.org/2000/svg" y="418.911" style="" width="512" height="46.545" fill="#f5f5f5" data-original="#f5f5f5"></rect>
<rect xmlns="http://www.w3.org/2000/svg" y="465.451" style="" width="512" height="46.545" fill="#df343e" data-original="#ff4b55"></rect>
<rect xmlns="http://www.w3.org/2000/svg" y="0.004" style="" width="229.05" height="232.73" fill="#333aa1" data-original="#41479b" class=""></rect>
<path xmlns="http://www.w3.org/2000/svg" style="" d="M110.677,60.234L97.813,98.805L57.155,99.12c-3.899,0.03-5.516,5.006-2.379,7.322l32.708,24.153  L75.22,169.36c-1.176,3.717,3.056,6.793,6.229,4.525l33.078-23.643l33.078,23.643c3.172,2.267,7.405-0.808,6.229-4.525  l-12.264-38.765l32.708-24.153c3.137-2.316,1.52-7.292-2.379-7.322l-40.658-0.315l-12.865-38.571  C117.142,56.535,111.91,56.535,110.677,60.234z" fill="#f5f5f5" data-original="#f5f5f5"></path>
<g xmlns="http://www.w3.org/2000/svg">
</g>
<g xmlns="http://www.w3.org/2000/svg">
</g>
<g xmlns="http://www.w3.org/2000/svg">
</g>
<g xmlns="http://www.w3.org/2000/svg">
</g>
<g xmlns="http://www.w3.org/2000/svg">
</g>
<g xmlns="http://www.w3.org/2000/svg">
</g>
<g xmlns="http://www.w3.org/2000/svg">
</g>
<g xmlns="http://www.w3.org/2000/svg">
</g>
<g xmlns="http://www.w3.org/2000/svg">
</g>
<g xmlns="http://www.w3.org/2000/svg">
</g>
<g xmlns="http://www.w3.org/2000/svg">
</g>
<g xmlns="http://www.w3.org/2000/svg">
</g>
<g xmlns="http://www.w3.org/2000/svg">
</g>
<g xmlns="http://www.w3.org/2000/svg">
</g>
<g xmlns="http://www.w3.org/2000/svg">
</g>
</g></svg>