<svg xmlns="http://www.w3.org/2000/svg" version="1.1" xmlns:xlink="http://www.w3.org/1999/xlink" xmlns:svgjs="http://svgjs.com/svgjs" width="512" height="512" x="0" y="0" viewBox="0 0 512 512" style="enable-background:new 0 0 512 512" xml:space="preserve"><g>
<rect xmlns="http://www.w3.org/2000/svg" y="0.007" width="512" height="511.989" fill="#000000" data-original="#000000"></rect>
<rect xmlns="http://www.w3.org/2000/svg" y="0.001" style="" width="512" height="170.663" fill="#d80027" data-original="#d80027"></rect>
<rect xmlns="http://www.w3.org/2000/svg" y="341.336" style="" width="512" height="170.663" fill="#496e2d" data-original="#496e2d"></rect>
<g xmlns="http://www.w3.org/2000/svg">
	<polygon style="" points="290.723,228.72 302.961,245.586 322.783,239.16 310.525,256.011 322.763,272.877    302.947,266.426 290.689,283.277 290.701,262.439 270.887,255.988 290.709,249.56  " fill="#f0f0f0" data-original="#f0f0f0"></polygon>
	<path style="" d="M257.318,298.157c-23.283,0-42.158-18.875-42.158-42.158s18.875-42.158,42.158-42.158   c7.26,0,14.09,1.835,20.054,5.067c-9.355-9.148-22.15-14.796-36.269-14.796c-28.655,0-51.886,23.231-51.886,51.887   s23.23,51.886,51.887,51.886c14.119,0,26.913-5.648,36.269-14.796C271.409,296.321,264.578,298.157,257.318,298.157z" fill="#f0f0f0" data-original="#f0f0f0"></path>
</g>
<g xmlns="http://www.w3.org/2000/svg">
</g>
<g xmlns="http://www.w3.org/2000/svg">
</g>
<g xmlns="http://www.w3.org/2000/svg">
</g>
<g xmlns="http://www.w3.org/2000/svg">
</g>
<g xmlns="http://www.w3.org/2000/svg">
</g>
<g xmlns="http://www.w3.org/2000/svg">
</g>
<g xmlns="http://www.w3.org/2000/svg">
</g>
<g xmlns="http://www.w3.org/2000/svg">
</g>
<g xmlns="http://www.w3.org/2000/svg">
</g>
<g xmlns="http://www.w3.org/2000/svg">
</g>
<g xmlns="http://www.w3.org/2000/svg">
</g>
<g xmlns="http://www.w3.org/2000/svg">
</g>
<g xmlns="http://www.w3.org/2000/svg">
</g>
<g xmlns="http://www.w3.org/2000/svg">
</g>
<g xmlns="http://www.w3.org/2000/svg">
</g>
</g></svg>