<svg xmlns="http://www.w3.org/2000/svg" version="1.1" xmlns:xlink="http://www.w3.org/1999/xlink" xmlns:svgjs="http://svgjs.com/svgjs" width="512" height="512" x="0" y="0" viewBox="0 0 512 512" style="enable-background:new 0 0 512 512" xml:space="preserve"><g>
<rect xmlns="http://www.w3.org/2000/svg" style="" width="512" height="512" fill="#067662" data-original="#496e2d"></rect>
<path xmlns="http://www.w3.org/2000/svg" style="" d="M294.273,248.16c-5.402,0-10.53,1.077-15.293,2.79c2.609-5.815,4.358-12.285,4.358-19.193  c0-27.337-27.337-47.841-27.337-47.841s-27.337,20.503-27.337,47.841c0,6.909,1.749,13.378,4.358,19.193  c-4.763-1.713-9.892-2.79-15.293-2.79c-27.337,0-47.841,27.337-47.841,27.337s20.503,27.339,47.841,27.339  c16.028,0,29.698-9.394,38.273-17.17c8.575,7.776,22.245,17.17,38.273,17.17c27.337,0,47.841-27.339,47.841-27.339  S321.611,248.16,294.273,248.16z" fill="#f0f0f0" data-original="#f0f0f0"></path>
<g xmlns="http://www.w3.org/2000/svg">
	<polygon style="" points="256,123.382 261.648,140.761 279.92,140.761 265.138,151.502 270.782,168.881 256,158.139    241.218,168.881 246.862,151.502 232.08,140.761 250.352,140.761  " fill="#ffda44" data-original="#ffda44"></polygon>
	<polygon style="" points="186.513,153.778 197.376,163.56 210.037,156.25 204.092,169.604 214.954,179.388    200.416,177.859 194.47,191.213 191.43,176.915 176.892,175.387 189.551,168.076  " fill="#ffda44" data-original="#ffda44"></polygon>
	<polygon style="" points="135.644,204.646 149.944,207.686 157.253,195.025 158.782,209.563 173.08,212.605    159.726,218.551 161.254,233.087 151.472,222.225 138.118,228.171 145.427,215.511  " fill="#ffda44" data-original="#ffda44"></polygon>
	<polygon style="" points="325.487,153.778 314.624,163.56 301.964,156.25 307.909,169.604 297.047,179.388    311.584,177.859 317.53,191.213 320.571,176.915 335.11,175.387 322.449,168.076  " fill="#ffda44" data-original="#ffda44"></polygon>
	<polygon style="" points="376.356,204.646 362.057,207.686 354.747,195.025 353.219,209.563 338.921,212.605    352.275,218.551 350.747,233.087 360.529,222.225 373.884,228.171 366.574,215.511  " fill="#ffda44" data-original="#ffda44"></polygon>
</g>
<g xmlns="http://www.w3.org/2000/svg">
	<path style="" d="M256,379.382c21.715,0,41.731-7.245,57.788-19.436H198.213   C214.269,372.136,234.285,379.382,256,379.382z" fill="#f0f0f0" data-original="#f0f0f0"></path>
	<path style="" d="M168.288,321.972c3.037,6.951,6.888,13.462,11.412,19.436h152.602   c4.523-5.974,8.375-12.484,11.412-19.436H168.288z" fill="#f0f0f0" data-original="#f0f0f0"></path>
</g>
<g xmlns="http://www.w3.org/2000/svg">
</g>
<g xmlns="http://www.w3.org/2000/svg">
</g>
<g xmlns="http://www.w3.org/2000/svg">
</g>
<g xmlns="http://www.w3.org/2000/svg">
</g>
<g xmlns="http://www.w3.org/2000/svg">
</g>
<g xmlns="http://www.w3.org/2000/svg">
</g>
<g xmlns="http://www.w3.org/2000/svg">
</g>
<g xmlns="http://www.w3.org/2000/svg">
</g>
<g xmlns="http://www.w3.org/2000/svg">
</g>
<g xmlns="http://www.w3.org/2000/svg">
</g>
<g xmlns="http://www.w3.org/2000/svg">
</g>
<g xmlns="http://www.w3.org/2000/svg">
</g>
<g xmlns="http://www.w3.org/2000/svg">
</g>
<g xmlns="http://www.w3.org/2000/svg">
</g>
<g xmlns="http://www.w3.org/2000/svg">
</g>
</g></svg>