<svg xmlns="http://www.w3.org/2000/svg" version="1.1" xmlns:xlink="http://www.w3.org/1999/xlink" xmlns:svgjs="http://svgjs.com/svgjs" width="512" height="512" x="0" y="0" viewBox="0 0 512 512" style="enable-background:new 0 0 512 512" xml:space="preserve"><g>
<rect y="0.019" style="" width="512" height="511.978" fill="#f0f0f0" data-original="#f0f0f0"></rect>
<rect y="356.173" style="" width="512" height="155.815" fill="#ffda44" data-original="#ffda44"></rect>
<rect y="0.003" style="" width="512" height="156.761" fill="#496e2d" data-original="#496e2d"></rect>
<rect y="188.304" width="512" height="134.478" fill="#000000" data-original="#000000"></rect>
<polygon style="" points="256,256.007 0,511.994 0,0.003 " fill="#a2001d" data-original="#a2001d"></polygon>
<polygon style="" points="83.477,187.194 100.555,239.755 155.826,239.755 111.113,272.244 128.19,324.807 
	83.477,292.321 38.763,324.807 55.844,272.244 11.13,239.755 66.399,239.755 " fill="#ffda44" data-original="#ffda44"></polygon>
<rect x="33.503" y="255.999" style="" width="99.962" height="45.869" fill="#f0f0f0" data-original="#f0f0f0"></rect>
<polygon points="152.395,203.412 136.176,187.194 83.478,239.892 30.78,187.194 14.562,203.412 67.307,256.063 14.562,308.808 
	30.78,324.807 83.478,272.204 136.176,324.807 152.395,308.808 99.65,256.063 " fill="#000000" data-original="#000000"></polygon>
<g>
</g>
<g>
</g>
<g>
</g>
<g>
</g>
<g>
</g>
<g>
</g>
<g>
</g>
<g>
</g>
<g>
</g>
<g>
</g>
<g>
</g>
<g>
</g>
<g>
</g>
<g>
</g>
<g>
</g>
</g></svg>