<svg xmlns="http://www.w3.org/2000/svg" version="1.1" xmlns:xlink="http://www.w3.org/1999/xlink" xmlns:svgjs="http://svgjs.com/svgjs" width="512" height="512" x="0" y="0" viewBox="0 0 512 512" style="enable-background:new 0 0 512 512" xml:space="preserve" class=""><g>
<rect x="0" width="512" height="512" fill="#000000" data-original="#000000"></rect>
<polyline style="" points="0,0 512,0 512,511.996 " fill="#cf0025" data-original="#a2001d" class=""></polyline>
<g>
	<polygon style="" points="192.64,350.815 196.225,361.852 207.831,361.852 198.441,368.672 202.029,379.709 
		192.64,372.887 183.251,379.709 186.837,368.672 177.449,361.852 189.053,361.852 	" fill="#f0f0f0" data-original="#f0f0f0"></polygon>
	<polygon style="" points="163.002,244.867 168.98,263.264 188.32,263.264 172.672,274.63 178.649,293.025 
		163.002,281.657 147.355,293.025 153.333,274.63 137.683,263.264 157.025,263.264 	" fill="#f0f0f0" data-original="#f0f0f0"></polygon>
	<polygon style="" points="163.002,379.709 168.978,398.104 188.32,398.104 172.671,409.472 178.649,427.866 
		163.002,416.498 147.355,427.866 153.331,409.472 137.683,398.104 157.024,398.104 	" fill="#f0f0f0" data-original="#f0f0f0"></polygon>
	<polygon style="" points="219.551,293.025 225.529,311.421 244.87,311.421 229.222,322.788 235.198,341.182 
		219.551,329.814 203.904,341.182 209.882,322.788 194.234,311.421 213.574,311.421 	" fill="#f0f0f0" data-original="#f0f0f0"></polygon>
	<polygon style="" points="106.451,293.025 112.43,311.421 131.77,311.421 116.122,322.788 122.099,341.182 
		106.451,329.814 90.803,341.182 96.782,322.788 81.134,311.421 100.474,311.421 	" fill="#f0f0f0" data-original="#f0f0f0"></polygon>
</g>
<path style="" d="M376.525,204.164c-7.628-7.628-17.537-12.133-28.188-12.908l31.88-24.795
	c-12.698-12.698-29.714-18.431-46.319-17.218c-1.988-7.145-5.778-13.892-11.396-19.511l-12.593,25.186
	c-0.826-1.506-1.872-2.923-3.148-4.197c-7.245-7.245-18.991-7.244-26.234,0s-7.245,18.99,0,26.234
	c1.276,1.276,2.692,2.322,4.197,3.148l-25.186,12.593c5.62,5.62,12.371,9.412,19.519,11.399
	c-1.217,16.605,4.511,33.619,17.209,46.317l27.854-35.812c2.096-2.064,4.862-3.202,7.807-3.202c2.973,0,5.768,1.158,7.87,3.26
	c2.103,2.103,3.26,4.897,3.26,7.87c0,2.974-1.158,5.768-3.26,7.87l10.494,10.494c4.905-4.905,7.607-11.428,7.607-18.364
	c0-5.675-1.81-11.071-5.153-15.534c4.871,1.3,9.474,3.849,13.288,7.663c11.573,11.572,11.573,30.403,0,41.975l10.494,10.494
	c8.409-8.409,13.04-19.59,13.04-31.482C389.565,223.754,384.934,212.573,376.525,204.164z" fill="#ffda44" data-original="#ffda44"></path>
<g>
</g>
<g>
</g>
<g>
</g>
<g>
</g>
<g>
</g>
<g>
</g>
<g>
</g>
<g>
</g>
<g>
</g>
<g>
</g>
<g>
</g>
<g>
</g>
<g>
</g>
<g>
</g>
<g>
</g>
</g></svg>