<svg width="40" height="40" viewBox="0 0 40 40" fill="none" xmlns="http://www.w3.org/2000/svg">
<rect width="40" height="40" fill="white"/>
<rect x="8" width="32" height="40" fill="#01411C"/>
<path fill-rule="evenodd" clip-rule="evenodd" d="M33.5926 22.8345C31.9945 25.3391 29.1912 27 26 27C21.0294 27 17 22.9705 17 18C17 14.8088 18.6609 12.0055 21.1654 10.4074C17.0231 11.6295 14 15.4617 14 20C14 25.5228 18.4772 30 24 30C28.5383 30 32.3705 26.9768 33.5926 22.8345Z" fill="white"/>
<path d="M27.7057 9.72333L30.0267 11.4723L32.4073 9.8054L31.4611 12.5532L33.7821 14.3022L30.8763 14.2515L29.9302 16.9993L29.0805 14.2201L26.1748 14.1694L28.5554 12.5025L27.7057 9.72333Z" fill="white"/>
</svg>
