<svg xmlns="http://www.w3.org/2000/svg" version="1.1" xmlns:xlink="http://www.w3.org/1999/xlink" xmlns:svgjs="http://svgjs.com/svgjs" width="512" height="512" x="0" y="0" viewBox="0 0 512 512" style="enable-background:new 0 0 512 512" xml:space="preserve"><g>
<rect y="0.001" style="" width="512" height="511.978" fill="#f0f0f0" data-original="#f0f0f0"></rect>
<rect y="0.005" style="" width="512" height="170.663" fill="#d80027" data-original="#d80027"></rect>
<rect y="341.336" style="" width="512" height="170.663" fill="#0052b4" data-original="#0052b4"></rect>
<path style="" d="M311.092,190.768l-20.659,20.659c8.812,8.813,14.263,20.986,14.263,34.433
	c0,26.894-21.801,48.696-48.696,48.696s-48.696-21.801-48.696-48.696c0-13.447,5.451-25.62,14.263-34.433l-20.659-20.659
	c-14.1,14.099-22.821,33.577-22.821,55.092c0,43.03,34.883,77.913,77.913,77.913s77.913-34.883,77.913-77.913
	C333.913,224.346,325.192,204.867,311.092,190.768z" fill="#6da544" data-original="#6da544"></path>
<polygon style="" points="256,216.643 263.253,238.964 286.721,238.964 267.735,252.758 274.987,275.078 256,261.283 
	237.013,275.078 244.265,252.758 225.279,238.964 248.747,238.964 " fill="#ffda44" data-original="#ffda44"></polygon>
<g>
</g>
<g>
</g>
<g>
</g>
<g>
</g>
<g>
</g>
<g>
</g>
<g>
</g>
<g>
</g>
<g>
</g>
<g>
</g>
<g>
</g>
<g>
</g>
<g>
</g>
<g>
</g>
<g>
</g>
</g></svg>