<svg xmlns="http://www.w3.org/2000/svg" width="40" height="40" viewBox="0 0 40 40" xml:space="preserve"><style>.st0{fill:#ed2939}.st1{fill:#fff}</style><path class="st0" d="M0 0h40v20H0V0z"/><path class="st1" d="M0 20h40v20H0V20zM19 10.5c0 4.2-3.4 7.5-7.5 7.5S4 14.6 4 10.5 7.3 3 11.5 3 19 6.3 19 10.5z"/><path class="st1" d="M18.1 7.1l2.5.3s.1-.1.5 1.3c.4 1.2-.6 5.9-1.7 6.6-1.1.7-2.7 1.8-2.7 1.8L15 14.5l.7-4.3 2.4-3.1z"/><path class="st0" d="M14.3 3.4c-3.9 0-7.1 3.2-7.1 7.1s3.2 7.1 7.1 7.1 7.1-3.2 7.1-7.1-3.2-7.1-7.1-7.1zM9.7 8.6H11l.4-1.3.4 1.3h1.3l-1 .8.4 1.3-1-.8-1 .8.4-1.3-1.2-.8zm3.8 5.6l.4 1.3-1-.8-1 .8.4-1.3-1-.8h1.3l.4-1.3.4 1.3h1.3l-1.2.8zm.9-6.5l.4-1.3-1-.8h1.3l.4-1.3.4 1.3h1.3l-1 .8.4 1.3-1-.8-1.2.8zm4.1 6.5l.4 1.3-1-.8-1 .8.4-1.3-1-.8h1.3l.4-1.3.4 1.3h1.3l-1.2.8zm.9-4.3l-1 .8.4-1.3-1-.8h1.3l.4-1.3.4 1.3h1.3l-1 .8.4 1.3-1.2-.8z"/></svg>