<svg xmlns="http://www.w3.org/2000/svg" version="1.1" xmlns:xlink="http://www.w3.org/1999/xlink" xmlns:svgjs="http://svgjs.com/svgjs" width="512" height="512" x="0" y="0" viewBox="0 0 512 512" style="enable-background:new 0 0 512 512" xml:space="preserve"><g>
<rect style="" width="512" height="512" fill="#f0f0f0" data-original="#f0f0f0"></rect>
<g>
	<rect style="" width="512" height="170.663" fill="#0052b4" data-original="#0052b4"></rect>
	<rect y="341.337" style="" width="512" height="170.663" fill="#0052b4" data-original="#0052b4"></rect>
</g>
<polygon style="" points="219.049,264.001 256,200.001 292.951,264.001 " fill="#ffda44" data-original="#ffda44"></polygon>
<polygon style="" points="304,285.132 256,309.132 208,285.132 208,253.132 304,253.132 " fill="#6da544" data-original="#6da544"></polygon>
<path style="" d="M301.255,202.745l-16.971,16.971c7.238,7.239,11.716,17.239,11.716,28.285
	c0,22.092-17.909,40.001-40.001,40.001s-40.001-17.909-40.001-40.001c0-11.045,4.478-21.045,11.716-28.285l-16.971-16.971
	C199.162,214.327,192,230.327,192,248.001c0,35.346,28.654,64,64,64s64-28.654,64-64C320,230.327,312.836,214.327,301.255,202.745z" fill="#ffda44" data-original="#ffda44"></path>
<g>
</g>
<g>
</g>
<g>
</g>
<g>
</g>
<g>
</g>
<g>
</g>
<g>
</g>
<g>
</g>
<g>
</g>
<g>
</g>
<g>
</g>
<g>
</g>
<g>
</g>
<g>
</g>
<g>
</g>
</g></svg>