<svg width="40" height="40" fill="none" xmlns="http://www.w3.org/2000/svg"><path d="M40 0H0v40h40V0Z" fill="#00843D"/><path d="M29.788 4.436a4.979 4.979 0 0 1-1.961 9.552 4.957 4.957 0 0 1-3.225-1.187 4.978 4.978 0 0 0 5.186-8.365ZM25.041 8.095l.564-1.736-1.476 1.073h1.824l-1.476-1.073.564 1.736Z" fill="#fff"/><path d="M18 0H7.2v40H18V0Z" fill="#D22630"/><path d="m11.271.516-1.243.699h-.65l-.797.48v.674l-.866.53v1.243l.866.53v.678l.794.48h.653l1.243.699h2.656l1.243-.7h.653l.798-.48v-.677l.865-.53V2.899l-.865-.53v-.674l-.798-.48h-.653l-1.243-.7H11.27Zm.074.257h2.511l1.243.7h.65l.603.363v.675l.87.53V4l-.87.53v.674l-.603.363h-.65l-1.243.7h-2.51l-1.244-.7h-.65l-.607-.363V4.53L7.98 4v-.96l.865-.53v-.674l.608-.364h.65l1.242-.699Z" fill="#00843D"/><path d="M11.437 8.146v.389h-1.066v.388H9.304v.388H8.238v3.457h1.066v.389h1.067v.388h1.066v.389h2.327v-.389h1.067v-.388h1.066v-.389h1.066V9.311h-1.066v-.388h-1.066v-.388h-1.067v-.389h-2.327Zm.283.283h1.762v.388h1.066v.389h1.066v.388h1.067v2.892h-1.067v.388h-1.066v.389h-1.066v.388H11.72v-.388h-1.067v-.389H9.587v-.388H8.52V9.594h1.066v-.388h1.066v-.389h1.067V8.43Z" fill="#FFC72C"/><path d="m11.716 10.063-1 .654H9.305v.187h-.47v.272h.47v.187h1.413l1 .657h1.768l.996-.657h1.416v-.187h.47v-.272h-.47v-.187h-1.416l-.996-.654h-1.769Zm.021.096h1.724l.914.6v.092h1.02v.381h-1.02v.092l-.914.597h-1.724l-.91-.597v-.092H9.801v-.381h1.024v-.092l.911-.6Z" fill="#D22630"/><path d="M9.802 16.105v.615h-.837v3.679h.837v.614H15.4V20.4h.837v-3.68h-.837v-.614H9.802Zm.36.237h4.877v.593l.201.148H16v2.956h-.763l-.198.145v.596h-4.877v-.593l-.2-.148h-.764v-2.956h.76l.204-.148v-.593Z" fill="#FFC72C"/><path d="M10.19 16.37v.544l.735-.544h-.734Zm4.083 0 .734.544v-.544h-.734Zm-5.043.742v.508l.692-.508H9.23Zm6.045 0 .696.512v-.512h-.696Zm.696 2.383-.696.516h.696v-.516Zm-6.74.003v.513h.691l-.692-.512Zm.96.71v.54h.73l-.73-.54Zm4.816 0-.73.54h.73v-.54ZM10.64 16.769v.314h-.51v2.956h.51v.314h.416l-.83-.696v-2.192l.83-.696h-.417Zm3.505 0 .827.696v2.192l-.826.696h.416v-.314h.505v-2.956h-.505v-.314h-.416ZM9.176 23.582v.781h-.744v.709h-.754v2.017h.754v.708h.744v.781h2.707l.476.286-.229.138h-.965l-.083-.094h.874l-.246-.248h-1.251l.567.59h1.173l.4-.24.402.24h1.173l.567-.59H13.49l-.247.248h.875l-.084.094h-.965l-.228-.138.476-.286h2.706v-.78h.744v-.71h.755v-2.016h-.755v-.709h-.744v-.781h-2.706l-.476-.286.228-.137h.965l.084.094h-.875l.247.248h1.25l-.566-.59H13l-.401.24-.401-.24h-1.173l-.567.59h1.251l.246-.248h-.874l.083-.094h.965l.229.137-.476.286H9.176Z" fill="#D22630"/><path d="M13.309 28.549h2.687v-.78h.741v-.71h.756v-1.96h-.756v-.706h-.741v-.78h-2.687l-1.116-.675h-1.155l-.512.533h1.172l.191-.19h-.872l.134-.152h.989l1.264.762h2.31v.78h.744v.71h.756v1.399h-.756v.71h-.745v.78h-2.309l-1.264.759h-.989l-.134-.148h.872l-.19-.191h-1.173l.512.533h1.155l1.116-.674Zm-1.515-.28h-2.31v-.78h-.741v-.71h-.756v-1.398h.756v-.71h.741v-.78h2.31l1.268-.762h.985l.134.151h-.869l.19.191h1.173l-.512-.533h-1.155l-1.115.674H9.206v.78H8.46v.707h-.755v1.96h.755v.71h.746v.78h2.687l1.115.674h1.155l.512-.533h-1.172l-.19.19h.868l-.134.149h-.986l-1.267-.76Z" fill="#FFC72C"/><path d="m11.324 30.477-2.782 1.497v2.45l2.782 1.498h2.553l2.783-1.498v-2.45l-2.783-1.497h-2.553Zm.05.201h2.454l2.634 1.416v2.214l-2.634 1.416h-2.456l-2.634-1.416v-2.214l2.636-1.416Z" fill="#00843D"/></svg>