<svg width="40" height="40" viewBox="0 0 40 40" fill="none" xmlns="http://www.w3.org/2000/svg">
<path fill-rule="evenodd" clip-rule="evenodd" d="M0 0H40V40H0V0Z" fill="#E30A17"/>
<path fill-rule="evenodd" clip-rule="evenodd" d="M28.5 22.6434L26.9549 24L27.5 21.7267L26 20.2918L27.882 20.2434L28.5 18L29.118 20.2434L31 20.2918L29.5 21.7267L30.0451 24L28.5 22.6434Z" fill="white"/>
<path fill-rule="evenodd" clip-rule="evenodd" d="M27 11.1437C25.8755 10.6489 24.6377 10.375 23.3377 10.375C18.1814 10.375 14.0013 14.6843 14.0013 20C14.0013 25.3157 18.1814 29.625 23.3377 29.625C24.6377 29.625 25.8755 29.3511 27 28.8563C25.2292 30.2036 23.0399 31 20.6702 31C14.7772 31 10 26.0751 10 20C10 13.9249 14.7772 9 20.6702 9C23.0399 9 25.2292 9.79638 27 11.1437Z" fill="white"/>
</svg>
