<svg xmlns="http://www.w3.org/2000/svg" version="1.1" xmlns:xlink="http://www.w3.org/1999/xlink" xmlns:svgjs="http://svgjs.com/svgjs" width="512" height="512" x="0" y="0" viewBox="0 0 512 512" style="enable-background:new 0 0 512 512" xml:space="preserve"><g>
<rect style="" width="512" height="512" fill="#d80027" data-original="#d80027"></rect>
<rect style="" width="256" height="256" fill="#0052b4" data-original="#0052b4"></rect>
<polygon style="" points="211.478,128 177.368,144.046 195.532,177.08 158.493,169.994 153.799,207.411 128,179.891 
	102.201,207.411 97.508,169.994 60.467,177.079 78.631,144.043 44.522,128 78.632,111.955 60.467,78.921 97.507,86.006 
	102.201,48.589 128,76.109 153.799,48.589 158.493,86.006 195.533,78.921 177.369,111.957 " fill="#f0f0f0" data-original="#f0f0f0"></polygon>
<circle style="" cx="128" cy="128" r="51.989" fill="#0052b4" data-original="#0052b4"></circle>
<path style="" d="M128,155.703c-15.274,0-27.703-12.427-27.703-27.703s12.427-27.703,27.703-27.703
	c15.274,0,27.703,12.427,27.703,27.703S143.274,155.703,128,155.703z" fill="#f0f0f0" data-original="#f0f0f0"></path>
<g>
</g>
<g>
</g>
<g>
</g>
<g>
</g>
<g>
</g>
<g>
</g>
<g>
</g>
<g>
</g>
<g>
</g>
<g>
</g>
<g>
</g>
<g>
</g>
<g>
</g>
<g>
</g>
<g>
</g>
</g></svg>