<svg width="40" height="40" viewBox="0 0 40 40" fill="none" xmlns="http://www.w3.org/2000/svg">
<rect width="40" height="40" fill="white"/>
<rect width="40" height="3" fill="#C1012B"/>
<rect y="6" width="40" height="3" fill="#C1012B"/>
<rect y="12" width="40" height="3" fill="#C1012B"/>
<rect y="18" width="40" height="3" fill="#C1012B"/>
<rect y="24" width="40" height="3" fill="#C1012B"/>
<rect y="30" width="40" height="3" fill="#C1012B"/>
<rect y="36" width="40" height="3" fill="#C1012B"/>
<rect width="24" height="21" fill="#00256A"/>
<path fill-rule="evenodd" clip-rule="evenodd" d="M1.95106 1.5L2.17557 2.19098H2.90211L2.31433 2.61803L2.53884 3.30902L1.95106 2.88197L1.36327 3.30902L1.58779 2.61803L1 2.19098H1.72654L1.95106 1.5ZM1.95106 5.5L2.17557 6.19098H2.90211L2.31433 6.61803L2.53884 7.30902L1.95106 6.88197L1.36327 7.30902L1.58779 6.61803L1 6.19098H1.72654L1.95106 5.5ZM2.17557 10.191L1.95106 9.5L1.72654 10.191H1L1.58779 10.618L1.36327 11.309L1.95106 10.882L2.53884 11.309L2.31433 10.618L2.90211 10.191H2.17557ZM1.95106 13.5L2.17557 14.191H2.90211L2.31433 14.618L2.53884 15.309L1.95106 14.882L1.36327 15.309L1.58779 14.618L1 14.191H1.72654L1.95106 13.5ZM2.17557 18.191L1.95106 17.5L1.72654 18.191H1L1.58779 18.618L1.36327 19.309L1.95106 18.882L2.53884 19.309L2.31433 18.618L2.90211 18.191H2.17557Z" fill="white"/>
<path fill-rule="evenodd" clip-rule="evenodd" d="M4.23607 4.19098L4 3.5L3.76393 4.19098H3L3.61803 4.61803L3.38197 5.30902L4 4.88197L4.61803 5.30902L4.38197 4.61803L5 4.19098H4.23607ZM4.23607 8.19098L4 7.5L3.76393 8.19098H3L3.61803 8.61803L3.38197 9.30902L4 8.88197L4.61803 9.30902L4.38197 8.61803L5 8.19098H4.23607ZM4 11.5L4.23607 12.191H5L4.38197 12.618L4.61803 13.309L4 12.882L3.38197 13.309L3.61803 12.618L3 12.191H3.76393L4 11.5ZM4.23607 16.191L4 15.5L3.76393 16.191H3L3.61803 16.618L3.38197 17.309L4 16.882L4.61803 17.309L4.38197 16.618L5 16.191H4.23607Z" fill="white"/>
<path fill-rule="evenodd" clip-rule="evenodd" d="M5.95106 1.5L6.17557 2.19098H6.90211L6.31433 2.61803L6.53884 3.30902L5.95106 2.88197L5.36327 3.30902L5.58779 2.61803L5 2.19098H5.72654L5.95106 1.5ZM5.95106 5.5L6.17557 6.19098H6.90211L6.31433 6.61803L6.53884 7.30902L5.95106 6.88197L5.36327 7.30902L5.58779 6.61803L5 6.19098H5.72654L5.95106 5.5ZM6.17557 10.191L5.95106 9.5L5.72654 10.191H5L5.58779 10.618L5.36327 11.309L5.95106 10.882L6.53884 11.309L6.31433 10.618L6.90211 10.191H6.17557ZM5.95106 13.5L6.17557 14.191H6.90211L6.31433 14.618L6.53884 15.309L5.95106 14.882L5.36327 15.309L5.58779 14.618L5 14.191H5.72654L5.95106 13.5ZM6.17557 18.191L5.95106 17.5L5.72654 18.191H5L5.58779 18.618L5.36327 19.309L5.95106 18.882L6.53884 19.309L6.31433 18.618L6.90211 18.191H6.17557Z" fill="white"/>
<path fill-rule="evenodd" clip-rule="evenodd" d="M8.23607 4.19098L8 3.5L7.76393 4.19098H7L7.61803 4.61803L7.38197 5.30902L8 4.88197L8.61803 5.30902L8.38197 4.61803L9 4.19098H8.23607ZM8.23607 8.19098L8 7.5L7.76393 8.19098H7L7.61803 8.61803L7.38197 9.30902L8 8.88197L8.61803 9.30902L8.38197 8.61803L9 8.19098H8.23607ZM8 11.5L8.23607 12.191H9L8.38197 12.618L8.61803 13.309L8 12.882L7.38197 13.309L7.61803 12.618L7 12.191H7.76393L8 11.5ZM8.23607 16.191L8 15.5L7.76393 16.191H7L7.61803 16.618L7.38197 17.309L8 16.882L8.61803 17.309L8.38197 16.618L9 16.191H8.23607Z" fill="white"/>
<path fill-rule="evenodd" clip-rule="evenodd" d="M9.95106 1.5L10.1756 2.19098H10.9021L10.3143 2.61803L10.5388 3.30902L9.95106 2.88197L9.36327 3.30902L9.58779 2.61803L9 2.19098H9.72654L9.95106 1.5ZM9.95106 5.5L10.1756 6.19098H10.9021L10.3143 6.61803L10.5388 7.30902L9.95106 6.88197L9.36327 7.30902L9.58779 6.61803L9 6.19098H9.72654L9.95106 5.5ZM10.1756 10.191L9.95106 9.5L9.72654 10.191H9L9.58779 10.618L9.36327 11.309L9.95106 10.882L10.5388 11.309L10.3143 10.618L10.9021 10.191H10.1756ZM9.95106 13.5L10.1756 14.191H10.9021L10.3143 14.618L10.5388 15.309L9.95106 14.882L9.36327 15.309L9.58779 14.618L9 14.191H9.72654L9.95106 13.5ZM10.1756 18.191L9.95106 17.5L9.72654 18.191H9L9.58779 18.618L9.36327 19.309L9.95106 18.882L10.5388 19.309L10.3143 18.618L10.9021 18.191H10.1756Z" fill="white"/>
<path fill-rule="evenodd" clip-rule="evenodd" d="M12.2361 4.19098L12 3.5L11.7639 4.19098H11L11.618 4.61803L11.382 5.30902L12 4.88197L12.618 5.30902L12.382 4.61803L13 4.19098H12.2361ZM12.2361 8.19098L12 7.5L11.7639 8.19098H11L11.618 8.61803L11.382 9.30902L12 8.88197L12.618 9.30902L12.382 8.61803L13 8.19098H12.2361ZM12 11.5L12.2361 12.191H13L12.382 12.618L12.618 13.309L12 12.882L11.382 13.309L11.618 12.618L11 12.191H11.7639L12 11.5ZM12.2361 16.191L12 15.5L11.7639 16.191H11L11.618 16.618L11.382 17.309L12 16.882L12.618 17.309L12.382 16.618L13 16.191H12.2361Z" fill="white"/>
<path fill-rule="evenodd" clip-rule="evenodd" d="M13.9511 1.5L14.1756 2.19098H14.9021L14.3143 2.61803L14.5388 3.30902L13.9511 2.88197L13.3633 3.30902L13.5878 2.61803L13 2.19098H13.7265L13.9511 1.5ZM13.9511 5.5L14.1756 6.19098H14.9021L14.3143 6.61803L14.5388 7.30902L13.9511 6.88197L13.3633 7.30902L13.5878 6.61803L13 6.19098H13.7265L13.9511 5.5ZM14.1756 10.191L13.9511 9.5L13.7265 10.191H13L13.5878 10.618L13.3633 11.309L13.9511 10.882L14.5388 11.309L14.3143 10.618L14.9021 10.191H14.1756ZM13.9511 13.5L14.1756 14.191H14.9021L14.3143 14.618L14.5388 15.309L13.9511 14.882L13.3633 15.309L13.5878 14.618L13 14.191H13.7265L13.9511 13.5ZM14.1756 18.191L13.9511 17.5L13.7265 18.191H13L13.5878 18.618L13.3633 19.309L13.9511 18.882L14.5388 19.309L14.3143 18.618L14.9021 18.191H14.1756Z" fill="white"/>
<path fill-rule="evenodd" clip-rule="evenodd" d="M16.2361 4.19098L16 3.5L15.7639 4.19098H15L15.618 4.61803L15.382 5.30902L16 4.88197L16.618 5.30902L16.382 4.61803L17 4.19098H16.2361ZM16.2361 8.19098L16 7.5L15.7639 8.19098H15L15.618 8.61803L15.382 9.30902L16 8.88197L16.618 9.30902L16.382 8.61803L17 8.19098H16.2361ZM16 11.5L16.2361 12.191H17L16.382 12.618L16.618 13.309L16 12.882L15.382 13.309L15.618 12.618L15 12.191H15.7639L16 11.5ZM16.2361 16.191L16 15.5L15.7639 16.191H15L15.618 16.618L15.382 17.309L16 16.882L16.618 17.309L16.382 16.618L17 16.191H16.2361Z" fill="white"/>
<path fill-rule="evenodd" clip-rule="evenodd" d="M17.9511 1.5L18.1756 2.19098H18.9021L18.3143 2.61803L18.5388 3.30902L17.9511 2.88197L17.3633 3.30902L17.5878 2.61803L17 2.19098H17.7265L17.9511 1.5ZM17.9511 5.5L18.1756 6.19098H18.9021L18.3143 6.61803L18.5388 7.30902L17.9511 6.88197L17.3633 7.30902L17.5878 6.61803L17 6.19098H17.7265L17.9511 5.5ZM18.1756 10.191L17.9511 9.5L17.7265 10.191H17L17.5878 10.618L17.3633 11.309L17.9511 10.882L18.5388 11.309L18.3143 10.618L18.9021 10.191H18.1756ZM17.9511 13.5L18.1756 14.191H18.9021L18.3143 14.618L18.5388 15.309L17.9511 14.882L17.3633 15.309L17.5878 14.618L17 14.191H17.7265L17.9511 13.5ZM18.1756 18.191L17.9511 17.5L17.7265 18.191H17L17.5878 18.618L17.3633 19.309L17.9511 18.882L18.5388 19.309L18.3143 18.618L18.9021 18.191H18.1756Z" fill="white"/>
<path fill-rule="evenodd" clip-rule="evenodd" d="M20.2361 4.19098L20 3.5L19.7639 4.19098H19L19.618 4.61803L19.382 5.30902L20 4.88197L20.618 5.30902L20.382 4.61803L21 4.19098H20.2361ZM20.2361 8.19098L20 7.5L19.7639 8.19098H19L19.618 8.61803L19.382 9.30902L20 8.88197L20.618 9.30902L20.382 8.61803L21 8.19098H20.2361ZM20 11.5L20.2361 12.191H21L20.382 12.618L20.618 13.309L20 12.882L19.382 13.309L19.618 12.618L19 12.191H19.7639L20 11.5ZM20.2361 16.191L20 15.5L19.7639 16.191H19L19.618 16.618L19.382 17.309L20 16.882L20.618 17.309L20.382 16.618L21 16.191H20.2361Z" fill="white"/>
<path fill-rule="evenodd" clip-rule="evenodd" d="M21.9511 1.5L22.1756 2.19098H22.9021L22.3143 2.61803L22.5388 3.30902L21.9511 2.88197L21.3633 3.30902L21.5878 2.61803L21 2.19098H21.7265L21.9511 1.5ZM21.9511 5.5L22.1756 6.19098H22.9021L22.3143 6.61803L22.5388 7.30902L21.9511 6.88197L21.3633 7.30902L21.5878 6.61803L21 6.19098H21.7265L21.9511 5.5ZM22.1756 10.191L21.9511 9.5L21.7265 10.191H21L21.5878 10.618L21.3633 11.309L21.9511 10.882L22.5388 11.309L22.3143 10.618L22.9021 10.191H22.1756ZM21.9511 13.5L22.1756 14.191H22.9021L22.3143 14.618L22.5388 15.309L21.9511 14.882L21.3633 15.309L21.5878 14.618L21 14.191H21.7265L21.9511 13.5ZM22.1756 18.191L21.9511 17.5L21.7265 18.191H21L21.5878 18.618L21.3633 19.309L21.9511 18.882L22.5388 19.309L22.3143 18.618L22.9021 18.191H22.1756Z" fill="white"/>
</svg>
