<svg xmlns="http://www.w3.org/2000/svg" version="1.1" xmlns:xlink="http://www.w3.org/1999/xlink" xmlns:svgjs="http://svgjs.com/svgjs" width="512" height="512" x="0" y="0" viewBox="0 0 512.006 512.006" style="enable-background:new 0 0 512 512" xml:space="preserve"><g>
<rect xmlns="http://www.w3.org/2000/svg" x="0.003" y="0.007" style="" width="511.999" height="511.999" fill="#f0f0f0" data-original="#f0f0f0"></rect>
<g xmlns="http://www.w3.org/2000/svg">
	<rect x="0.003" style="" width="511.999" height="64" fill="#338af3" data-original="#338af3"></rect>
	<rect x="0.003" y="128" style="" width="511.999" height="64" fill="#338af3" data-original="#338af3"></rect>
	<rect x="0.003" y="383.999" style="" width="511.999" height="64" fill="#338af3" data-original="#338af3"></rect>
	<rect x="0.003" y="255.999" style="" width="511.999" height="64" fill="#338af3" data-original="#338af3"></rect>
</g>
<rect xmlns="http://www.w3.org/2000/svg" x="0.003" y="0.004" style="" width="255.999" height="255.999" fill="#f0f0f0" data-original="#f0f0f0"></rect>
<polygon xmlns="http://www.w3.org/2000/svg" style="" points="197.568,128.002 169.143,141.373 184.28,168.902 153.414,162.997 149.503,194.178   128.003,171.245 106.504,194.178 102.593,162.997 71.728,168.901 86.863,141.372 58.438,128.002 86.864,114.632 71.728,87.103   102.592,93.007 106.505,61.827 128.003,84.759 149.504,61.827 153.414,93.007 184.281,87.103 169.144,114.632 " fill="#ffda44" data-original="#ffda44"></polygon>
<g xmlns="http://www.w3.org/2000/svg">
</g>
<g xmlns="http://www.w3.org/2000/svg">
</g>
<g xmlns="http://www.w3.org/2000/svg">
</g>
<g xmlns="http://www.w3.org/2000/svg">
</g>
<g xmlns="http://www.w3.org/2000/svg">
</g>
<g xmlns="http://www.w3.org/2000/svg">
</g>
<g xmlns="http://www.w3.org/2000/svg">
</g>
<g xmlns="http://www.w3.org/2000/svg">
</g>
<g xmlns="http://www.w3.org/2000/svg">
</g>
<g xmlns="http://www.w3.org/2000/svg">
</g>
<g xmlns="http://www.w3.org/2000/svg">
</g>
<g xmlns="http://www.w3.org/2000/svg">
</g>
<g xmlns="http://www.w3.org/2000/svg">
</g>
<g xmlns="http://www.w3.org/2000/svg">
</g>
<g xmlns="http://www.w3.org/2000/svg">
</g>
</g></svg>