<svg xmlns="http://www.w3.org/2000/svg" version="1.1" xmlns:xlink="http://www.w3.org/1999/xlink" xmlns:svgjs="http://svgjs.com/svgjs" width="512" height="512" x="0" y="0" viewBox="0 0 512 512" style="enable-background:new 0 0 512 512" xml:space="preserve"><g>
<rect xmlns="http://www.w3.org/2000/svg" style="" width="512" height="512" fill="#d80027" data-original="#d80027"></rect>
<rect xmlns="http://www.w3.org/2000/svg" y="0.007" style="" width="512" height="181.793" fill="#338af3" data-original="#338af3"></rect>
<rect xmlns="http://www.w3.org/2000/svg" y="330.207" style="" width="512" height="181.793" fill="#6da544" data-original="#6da544"></rect>
<g xmlns="http://www.w3.org/2000/svg">
	<path style="" d="M173.389,115.322c0-19.617,13.787-36.006,32.198-40.027c-2.829-0.618-5.766-0.954-8.781-0.954   c-22.634,0.001-40.98,18.347-40.98,40.981s18.346,40.98,40.98,40.98c3.016,0,5.951-0.335,8.781-0.954   C187.176,151.328,173.389,134.94,173.389,115.322z" fill="#f0f0f0" data-original="#f0f0f0"></path>
	<polygon style="" points="229.808,133.95 232.583,142.487 241.56,142.487 234.297,147.765 237.072,156.302    229.808,151.027 222.545,156.302 225.32,147.765 218.056,142.487 227.034,142.487  " fill="#f0f0f0" data-original="#f0f0f0"></polygon>
	<polygon style="" points="258.462,133.95 261.236,142.487 270.214,142.487 262.951,147.765 265.725,156.302    258.462,151.027 251.198,156.302 253.973,147.765 246.711,142.487 255.687,142.487  " fill="#f0f0f0" data-original="#f0f0f0"></polygon>
	<polygon style="" points="287.115,133.95 289.89,142.487 298.867,142.487 291.604,147.765 294.379,156.302    287.115,151.027 279.853,156.302 282.626,147.765 275.364,142.487 284.341,142.487  " fill="#f0f0f0" data-original="#f0f0f0"></polygon>
	<polygon style="" points="315.768,133.95 318.543,142.487 327.521,142.487 320.257,147.765 323.032,156.302    315.768,151.027 308.506,156.302 311.28,147.765 304.017,142.487 312.994,142.487  " fill="#f0f0f0" data-original="#f0f0f0"></polygon>
	<polygon style="" points="344.422,133.95 347.196,142.487 356.174,142.487 348.911,147.765 351.685,156.302    344.422,151.027 337.159,156.302 339.933,147.765 332.671,142.487 341.648,142.487  " fill="#f0f0f0" data-original="#f0f0f0"></polygon>
	<polygon style="" points="258.462,104.146 261.236,112.683 270.214,112.683 262.951,117.96 265.725,126.498    258.462,121.222 251.198,126.498 253.973,117.96 246.711,112.683 255.687,112.683  " fill="#f0f0f0" data-original="#f0f0f0"></polygon>
	<polygon style="" points="287.115,104.146 289.89,112.683 298.867,112.683 291.604,117.96 294.379,126.498    287.115,121.222 279.853,126.498 282.626,117.96 275.364,112.683 284.341,112.683  " fill="#f0f0f0" data-original="#f0f0f0"></polygon>
	<polygon style="" points="315.768,104.146 318.543,112.683 327.521,112.683 320.257,117.96 323.032,126.498    315.768,121.222 308.506,126.498 311.28,117.96 304.017,112.683 312.994,112.683  " fill="#f0f0f0" data-original="#f0f0f0"></polygon>
	<polygon style="" points="344.422,104.146 347.196,112.683 356.174,112.683 348.911,117.96 351.685,126.498    344.422,121.222 337.159,126.498 339.933,117.96 332.671,112.683 341.648,112.683  " fill="#f0f0f0" data-original="#f0f0f0"></polygon>
	<polygon style="" points="287.115,74.342 289.89,82.881 298.867,82.881 291.604,88.156 294.379,96.696    287.115,91.418 279.853,96.696 282.626,88.156 275.364,82.881 284.341,82.881  " fill="#f0f0f0" data-original="#f0f0f0"></polygon>
	<polygon style="" points="315.768,74.342 318.543,82.881 327.521,82.881 320.257,88.156 323.032,96.696    315.768,91.418 308.506,96.696 311.28,88.156 304.017,82.881 312.994,82.881  " fill="#f0f0f0" data-original="#f0f0f0"></polygon>
	<polygon style="" points="344.422,74.342 347.196,82.881 356.174,82.881 348.911,88.156 351.685,96.696    344.422,91.418 337.159,96.696 339.933,88.156 332.671,82.881 341.648,82.881  " fill="#f0f0f0" data-original="#f0f0f0"></polygon>
	<rect y="200.348" style="" width="512" height="111.304" fill="#f0f0f0" data-original="#f0f0f0"></rect>
</g>
<g xmlns="http://www.w3.org/2000/svg">
</g>
<g xmlns="http://www.w3.org/2000/svg">
</g>
<g xmlns="http://www.w3.org/2000/svg">
</g>
<g xmlns="http://www.w3.org/2000/svg">
</g>
<g xmlns="http://www.w3.org/2000/svg">
</g>
<g xmlns="http://www.w3.org/2000/svg">
</g>
<g xmlns="http://www.w3.org/2000/svg">
</g>
<g xmlns="http://www.w3.org/2000/svg">
</g>
<g xmlns="http://www.w3.org/2000/svg">
</g>
<g xmlns="http://www.w3.org/2000/svg">
</g>
<g xmlns="http://www.w3.org/2000/svg">
</g>
<g xmlns="http://www.w3.org/2000/svg">
</g>
<g xmlns="http://www.w3.org/2000/svg">
</g>
<g xmlns="http://www.w3.org/2000/svg">
</g>
<g xmlns="http://www.w3.org/2000/svg">
</g>
</g></svg>