<svg xmlns="http://www.w3.org/2000/svg" version="1.1" xmlns:xlink="http://www.w3.org/1999/xlink" xmlns:svgjs="http://svgjs.com/svgjs" width="512" height="512" x="0" y="0" viewBox="0 0 512 512" style="enable-background:new 0 0 512 512" xml:space="preserve"><g>
<rect style="" width="512" height="512" fill="#d80027" data-original="#d80027"></rect>
<rect y="144.685" style="" width="512" height="222.62" fill="#0052b4" data-original="#0052b4"></rect>
<g>
	<polygon style="" points="422.957,300.778 410.908,310.192 416.137,324.558 403.459,316.01 391.411,325.423 
		395.625,310.725 382.949,302.173 398.229,301.641 402.445,286.944 407.676,301.312 	" fill="#f0f0f0" data-original="#f0f0f0"></polygon>
	<polygon style="" points="392.103,247.341 384.002,260.309 393.83,272.019 378.994,268.324 370.891,281.288 
		369.822,266.036 354.986,262.335 369.165,256.608 368.1,241.353 377.928,253.068 	" fill="#f0f0f0" data-original="#f0f0f0"></polygon>
	<polygon style="" points="344.834,207.677 341.656,222.633 354.897,230.279 339.691,231.881 336.512,246.834 
		330.292,232.868 315.086,234.464 326.449,224.231 320.23,210.265 333.472,217.909 	" fill="#f0f0f0" data-original="#f0f0f0"></polygon>
	<polygon style="" points="286.851,186.574 288.981,201.716 304.038,204.37 290.295,211.075 292.423,226.217 
		281.803,215.217 268.058,221.92 275.238,208.419 264.615,197.422 279.674,200.075 	" fill="#f0f0f0" data-original="#f0f0f0"></polygon>
	<polygon style="" points="225.148,186.574 232.328,200.075 247.383,197.418 236.763,208.421 243.94,221.922 
		230.199,215.217 219.576,226.214 221.706,211.075 207.962,204.374 223.021,201.716 	" fill="#f0f0f0" data-original="#f0f0f0"></polygon>
	<polygon style="" points="167.165,207.677 178.53,217.909 191.768,210.265 185.552,224.236 196.913,234.466 
		181.708,232.868 175.486,246.834 172.311,231.878 157.104,230.282 170.346,222.635 	" fill="#f0f0f0" data-original="#f0f0f0"></polygon>
	<polygon style="" points="119.896,247.341 134.076,253.068 143.901,241.357 142.838,256.612 157.013,262.34 
		142.177,266.039 141.109,281.288 133.009,268.324 118.172,272.022 128.001,260.309 	" fill="#f0f0f0" data-original="#f0f0f0"></polygon>
	<polygon style="" points="89.043,300.778 104.328,301.312 109.555,286.945 113.774,301.644 129.053,302.179 
		116.376,310.728 120.59,325.426 108.543,316.012 95.866,324.561 101.096,310.192 	" fill="#f0f0f0" data-original="#f0f0f0"></polygon>
</g>
<rect style="" width="512" height="144.685" fill="#ffda44" data-original="#ffda44"></rect>
<g>
</g>
<g>
</g>
<g>
</g>
<g>
</g>
<g>
</g>
<g>
</g>
<g>
</g>
<g>
</g>
<g>
</g>
<g>
</g>
<g>
</g>
<g>
</g>
<g>
</g>
<g>
</g>
<g>
</g>
</g></svg>