<svg xmlns="http://www.w3.org/2000/svg" version="1.1" xmlns:xlink="http://www.w3.org/1999/xlink" xmlns:svgjs="http://svgjs.com/svgjs" width="512" height="512" x="0" y="0" viewBox="0 0 512 512" style="enable-background:new 0 0 512 512" xml:space="preserve"><g>
<rect xmlns="http://www.w3.org/2000/svg" width="512" height="512" fill="#000000" data-original="#000000"></rect>
<polygon xmlns="http://www.w3.org/2000/svg" style="" points="512,256 512,512 0,512 215.185,256 " fill="#6da544" data-original="#6da544"></polygon>
<polygon xmlns="http://www.w3.org/2000/svg" style="" points="512,0 512,256 215.185,256 0,0 " fill="#d80027" data-original="#d80027"></polygon>
<polygon xmlns="http://www.w3.org/2000/svg" points="221.001,230.957 26.868,0 8.956,0 217.124,247.652 512,247.652 512,230.957 " fill="#000000" data-original="#000000"></polygon>
<polygon xmlns="http://www.w3.org/2000/svg" points="8.956,512 26.868,512 221.001,281.043 512,281.043 512,264.348 217.124,264.348 " fill="#000000" data-original="#000000"></polygon>
<polygon xmlns="http://www.w3.org/2000/svg" points="0,10.655 0,31.964 188.317,256 0,480.036 0,501.345 206.229,256 " fill="#000000" data-original="#000000"></polygon>
<g xmlns="http://www.w3.org/2000/svg">
	<polygon style="" points="8.956,0 0,0 0,10.655 206.229,256 0,501.345 0,512 8.956,512 217.124,264.348 512,264.348    512,247.652 217.124,247.652  " fill="#ffda44" data-original="#ffda44"></polygon>
	<path style="" d="M55.76,320v-25.147c25.095,0,45.509-20.417,45.509-45.509c0-17.754-14.444-32.198-32.198-32.198   c-12.094,0-21.935,9.839-21.935,21.936c0,7.733,6.292,14.027,14.028,14.027c4.372,0,7.929-3.56,7.929-7.93h25.146   c0,18.239-14.838,33.077-33.075,33.077c-21.602,0-39.174-17.574-39.174-39.174c0-25.962,21.121-47.083,47.081-47.083   c31.619,0,57.345,25.725,57.345,57.345C126.416,288.303,94.72,320,55.76,320z" fill="#ffda44" data-original="#ffda44"></path>
</g>
<g xmlns="http://www.w3.org/2000/svg">
</g>
<g xmlns="http://www.w3.org/2000/svg">
</g>
<g xmlns="http://www.w3.org/2000/svg">
</g>
<g xmlns="http://www.w3.org/2000/svg">
</g>
<g xmlns="http://www.w3.org/2000/svg">
</g>
<g xmlns="http://www.w3.org/2000/svg">
</g>
<g xmlns="http://www.w3.org/2000/svg">
</g>
<g xmlns="http://www.w3.org/2000/svg">
</g>
<g xmlns="http://www.w3.org/2000/svg">
</g>
<g xmlns="http://www.w3.org/2000/svg">
</g>
<g xmlns="http://www.w3.org/2000/svg">
</g>
<g xmlns="http://www.w3.org/2000/svg">
</g>
<g xmlns="http://www.w3.org/2000/svg">
</g>
<g xmlns="http://www.w3.org/2000/svg">
</g>
<g xmlns="http://www.w3.org/2000/svg">
</g>
</g></svg>