<svg xmlns="http://www.w3.org/2000/svg" version="1.1" xmlns:xlink="http://www.w3.org/1999/xlink" xmlns:svgjs="http://svgjs.com/svgjs" width="512" height="512" x="0" y="0" viewBox="0 0 512 512" style="enable-background:new 0 0 512 512" xml:space="preserve"><g><path d="M0 0h512v512H0z" fill="#000000" data-original="#000000"></path><path d="M0 73.302h512v73.301H0zM0 366.512h512v73.302H0z" style="" fill="#ffda44" data-original="#ffda44"></path><path d="M0 0h512v73.302H0z" style="" fill="#6da544" data-original="#6da544"></path><path d="M0 146.608h512v73.301H0zM0 293.207h512v73.301H0z" style="" fill="#d80027" data-original="#d80027"></path><path d="M0 439.806h512v72.188H0z" style="" fill="#6da544" data-original="#6da544"></path><path d="M276.992 255.998 106.329 511.989H0V.006h106.329z" style="" fill="#f0f0f0" data-original="#f0f0f0"></path><path d="M256 255.998 85.334 511.994h20.987l170.667-255.996L106.321 0H85.334z" fill="#000000" data-original="#000000"></path><path d="m102.463 171.313 21.019 64.69h68.027l-55.032 39.986 21.019 64.694-55.033-39.983-55.032 39.983 21.022-64.694-55.031-39.986h68.022z" style="" fill="#d80027" data-original="#d80027"></path><path d="m160.28 261.29-54.778-19.407s-4.048-37.97-4.292-39.257c-1.859-9.795-10.465-17.2-20.799-17.2-11.693 0-21.171 9.479-21.171 21.171 0 1.939.283 3.807.77 5.592l-15.359 15.462H71.96c0 28.346-21.152 28.346-21.152 56.574l11.733 28.228h70.571l11.764-28.228h-.007a28.21 28.21 0 0 0 2.189-8.293c10.139-4.1 13.222-14.642 13.222-14.642z" style="" fill="#ffda44" data-original="#ffda44"></path></g></svg>