<svg height="422" viewBox="-1329.306 77.55 4114.261 682.85" width="2500" xmlns="http://www.w3.org/2000/svg"><path d="m2768.327 242.459c-26.668-48.33-84.154-84.985-146.594-84.985-54.916 0-103.219 22.491-103.219 80.808 0 49.106 60.807 82.414 124.104 123.246 69.08 43.296 140.73 96.552 140.73 189.034 0 120.756-117.41 194.843-253.16 194.843-55.8 0-114.062-10.817-179.85-35.798l10.791-160.732c31.675 64.153 90.822 114.92 178.19 114.92 67.473 0 117.41-32.452 117.41-89.109 0-48.302-40.833-78.264-90.742-108.225-104.96-63.27-171.523-114.117-171.523-205.688 0-137.437 114.893-183.223 233.963-183.223 69.08 0 112.429 12.504 156.528 12.504zm-582.04 144.024c-15.048 25.008-34.112 59.093-45.84 84.128-9.96 47.446-14.967 110.77-14.967 180.68 0 29.158 5.007 68.276 18.314 81.61h-174.012c30.765-29.131 43.295-208.124 41.662-264.78-23.321-80.755-55.023-158.215-103.299-252.33-30.738-59.093-66.59-114.947-89.081-125.737 39.118-3.294 89.081-5.81 113.26-5.81 43.268 0 54.969 5.81 81.637 64.126 41.555 94.115 72.374 164.829 90.715 217.335 44.152-69.133 74.944-116.58 114.92-181.536 9.986-15.824 18.313-35.799 18.313-54.97 0-15.02-2.517-31.648-9.157-39.145h172.38c-33.309 7.497-183.224 243.173-214.845 296.429m-605.39-145.658-103.217 223.949h168.176zm202.368 497.887c-54.996 0-59.12-1.634-103.272-153.182l-15.797-55.8c-26.615 12.478-74.141 18.315-149.888 18.315h-76.604l-13.334 28.301c-19.145 42.52-44.956 92.402-44.956 127.45 0 8.328.83 17.458 4.177 29.132h-454.671c25.838-29.131 34.165-123.22 46.642-293.966l2.49-40.778c6.668-97.436 11.728-172.38 10.845-224.806-.83-43.295-5.007-70.793-16.655-83.27h175.726c-25.008 19.17-34.192 122.39-45.812 293.135l-3.347 40.779c-4.177 63.297-12.477 128.227-12.477 191.523 0 29.105 11.647 35.772 41.662 35.772 106.539 0 133.234-2.49 181.483-34.968 29.961-54.97 64.153-124.104 97.408-195.7l45.036-95.75c42.44-89.937 84.048-181.562 84.048-199.02 0-12.53-3.32-24.151-8.274-35.825h139.874s56.603 209.864 69.107 254.793l27.445 101.612c47.446 170.72 77.46 253.964 117.436 286.442-33.362 4.177-80.807 5.81-98.292 5.81m-1133.263 6.694c-165.712 0-261.487-136.554-261.487-289.762 0-213.158 115.722-378.093 336.404-378.093 69.107 0 101.612 12.504 157.358 12.504l-16.627 164.052c-31.648-57.46-83.298-96.605-152.378-96.605-137.384 0-193.184 148.254-193.184 275.651 0 138.214 77.461 213.961 180.68 213.961 55.8 0 104.905-14.994 187.373-72.427-33.308 106.62-110.77 170.72-238.139 170.72m-574.544-577.062c-15.824 0-35.022 0-49.962 1.66-5.007 27.471-9.184 74.944-15.021 151.521l-3.347 45.01c8.38 1.686 19.17 2.543 29.185 2.543 79.897 0 134.894-48.356 134.894-121.587 0-50.016-34.969-79.147-95.749-79.147m232.276 592.056c-47.446 0-59.12-7.524-74.918-29.186l-179.876-249.813c-14.164-19.144-24.981-34.968-47.446-34.968h-4.176l-3.294 48.302c-4.204 65.787-6.694 118.293-6.694 157.412.83 43.296 5.837 69.91 17.511 80.754h-174.039c24.955-22.49 34.085-97.435 48.276-293.965l2.517-40.78c6.667-96.578 11.674-171.548 10.817-223.974-.857-45.813-5.81-74.141-18.341-84.128h237.31c77.433 0 184.026 13.36 184.026 139.07 0 103.22-69.134 159.876-154.869 186.49 8.328 7.524 23.295 26.669 32.479 38.343l130.717 173.209c81.61 107.422 88.251 112.402 117.436 127.397-36.655 4.15-85.761 5.837-117.436 5.837m-810.97-519.575-104.154 223.949h169.032zm202.287 497.887c-54.916 0-59.093-1.634-103.218-153.182l-15.824-55.8c-26.695 12.478-74.141 18.315-149.915 18.315h-76.604l-13.307 28.301c-13.335 30.015-45.813 91.652-44.983 127.45 0 8.328.83 16.655 4.177 29.132h-154.038c44.126-44.126 99.925-146.541 177.36-312.253l44.982-95.748c40.778-86.592 84.1-184.857 84.1-199.021 0-12.53-3.292-24.151-8.326-35.825h139.927s36.575 139.07 69.08 254.793l27.472 101.612c47.472 170.72 77.434 253.964 117.41 286.442-35.799 4.15-80.781 5.784-98.293 5.784m-792.735-571.197c-12.504 0-29.131 0-44.956 1.687-6.667 44.955-10.844 88.25-14.137 135.697 0 0-2.517 40.778-2.517 39.118h16.654c81.611 0 156.582-28.301 156.582-103.192 0-43.349-35.825-73.31-111.626-73.31m-20.778 254.793h-45.785l-6.667 94.919c-3.32 41.662-5.007 76.604-5.837 118.24 0 5.863 18.314 18.34 61.583 18.34 89.938 0 149.085-44.956 149.085-119.096 0-82.441-67.474-112.403-152.379-112.403m9.988 310.593h-224.832c28.328-25.008 35.825-122.416 48.302-293.965l2.49-39.95c6.694-97.434 11.674-172.378 10.844-224.804-.83-44.983-5.837-74.141-18.34-84.128h251.473c59.95 0 179.876 3.347 179.876 128.227 0 83.27-77.461 134.893-148.228 153.261 99.925 9.987 174.87 58.263 174.87 161.509-.027 111.572-104.933 199.85-276.455 199.85" fill="#00aeef"/><path d="m19.741 489.332c-.832 0-1.004.145-1.274.446a5.089 5.089 0 0 0 -.333-.009c-.64 0-1.462.094-2.163.563-.677.447-.999 1.238-.638 1.817 0 0 .242-.355 1.038-.355.112 0 .236.012.368.023 1.1.13 1.914.709 1.815 2.238-.088 1.528-.661 3.232-3.005 3.252 0 0-.302 0-.624-.03-1.091-.119-1.434-.804-1.434-.804s.943-.256.951-1.453c-.008-.814-.717-1.559-1.74-1.86a3.883 3.883 0 0 0 -1.086-.146c-1.206 0-2.56.505-3.473 1.697-2.07 2.733-2.238 6.717-1.733 10.422.508 3.713 2.863 7.152 2.932 7.246.05.066.095.102.146.102a.13.13 0 0 0 .081-.035c1.017-.987 1.987-2.336 2.402-3.238.444.354.212 1.107-.032 1.911-.232.822-.796 1.913-1 2.265-.197.344-.461.744-.106.953a.26.26 0 0 0 .137.034c.456 0 1.529-.795 2.726-2.391 1.34-1.796 2.02-3.39 2.02-3.39.098.022.262.188.235.64-.018.459-.49 2.167-1.409 3.757-.929 1.589-1.787 2.583-1.96 2.809-.107.131-.016.213.053.266.068.046 1.711 1.58 4.098 2.876 2.828 1.507 4.082 1.778 4.082 1.778s1.251-.264 4.079-1.77c2.386-1.298 4.036-2.839 4.097-2.891.069-.047.157-.121.053-.265-.163-.216-1.024-1.215-1.951-2.804-.916-1.579-1.406-3.298-1.413-3.751-.019-.457.135-.608.229-.646 0 0 .687 1.604 2.027 3.39 1.203 1.598 2.266 2.391 2.724 2.391a.276.276 0 0 0 .142-.034c.344-.209.088-.615-.114-.955-.188-.35-.76-1.434-1.003-2.263-.233-.813-.475-1.565-.023-1.911.416.902 1.379 2.258 2.399 3.231a.124.124 0 0 0 .088.042c.045 0 .093-.035.135-.096.075-.1 2.434-3.533 2.938-7.252.506-3.713.339-7.688-1.733-10.422-.907-1.195-2.271-1.703-3.485-1.703-.379 0-.741.049-1.072.144-1.031.31-1.737 1.062-1.731 1.868 0 1.197.948 1.453.948 1.453s-.317.668-1.447.804a5.012 5.012 0 0 1 -.612.038c-.85 0-1.566-.27-2.226-1.202-.64-.897-.619-2.744-.656-3.36-.029-.625-.163-2.027-.82-2.599-.655-.587-1.453-.784-2.448-.823-.073.002-.138.002-.199.002" fill="#00afe9" transform="matrix(26.77527 0 0 26.77527 -2363.919 -13101.943)"/></svg>