<svg height="2038" viewBox="0 0 83.401 67.256" width="2500" xmlns="http://www.w3.org/2000/svg"><path d="m0 48.974h83.401v-.261h-83.401zm0-.251h83.401v-.261h-83.401z" fill="#1a171b"/><path d="m64.085.453c-.194 3.366-2.96 5.632-4.416 8.472-.62 1.695-2.102 2.696-3.151 4.226a27.78 27.78 0 0 0 -2.671 3.146c.143.792.977 1.003 1.456 1.578 1.072.644 1.192 1.861 2.124 2.6.547 0 .547.811 1.146.717 1.262 1.358 2.288 2.768 3.337 4.246.17.526.43 1.052.887 1.433.835 1.218 1.524 2.507 2.384 3.748.12 1.384 1.287 2.314 1.648 3.604.524.692.739 1.502 1.215 2.193.74 1.624 1.241 3.319 2.125 4.87.166.358-.049.717-.24.979-.334.261-.596-.216-.978-.145-1.956-.714-3.818-1.741-5.63-2.837-1.865-1.505-3.916-2.58-5.755-4.154-.715-.19-1-1.026-1.668-1.36-1.765-1.098-3.173-2.674-4.964-3.7-.811-.619-1.623-1.217-2.435-1.86-.62-.073-.835-.788-1.433-1.003-1.335-.812-2.55-1.933-3.912-2.697-.119.192 0 .477-.119.67-.906.881-.667 2.242-1.311 3.221-.026 1.406-1.002 2.434-1.41 3.673-1.121 2.004-2.101 4.06-3.269 6.04-1.551 2.052-2.386 4.532-4.582 6.18-.48.596-1.027.907-1.623 1.29-.262-.073-.645-.025-.716-.36-.261-.502.071-1.266-.287-1.72.312-.69.12-1.477.262-2.24l-.119-.334c.024-1.052.548-1.934.338-3.008.283-.667.402-1.41.472-2.148.336-.907.623-1.887.719-2.863.309-.572.43-1.312.356-1.981.241-.621.286-1.36.931-1.814.095-.404 0-.812.073-1.242.644-1.957 1.432-3.84 1.932-5.847 0-.141-.142-.19-.239-.213-1.407-.074-2.72.213-4.034-.144-2.147-.024-4.317-.311-6.37-.74-.836-.166-1.84-.072-2.603-.548-.499.024-1.072.118-1.551-.142-.977-.479-2.171-.408-3.15-.931-.739.093-1.265-.383-1.931-.454-.645.046-1.003-.501-1.454-.86v-.214c1.191-1.624 3.1-2.076 4.817-2.699 1.697-.523 3.58-.57 5.348-.93 1.12-.191 2.336.119 3.457-.071 2.03.047 3.988.38 5.993.43.667.096 1.287.406 1.955.381l-.024-.285-1.885-2.577c-.716-1.67-2.026-3.08-2.481-4.847-.43-.525-.024-1.31-.358-1.885-.024-.263.193-.453.31-.668.405-.168.86.12 1.264-.142 1.219.284 2.34.717 3.556.954 1.265.503 2.554 1.003 3.676 1.838 1.408 1.001 3.1 1.646 4.2 3.196.287.265.74.312 1.122.217.335-.05.406-.453.713-.573 1.48-.932 3.153-1.457 4.61-2.483.595-.596 1.55-.668 1.908-1.48.453-.212.86-.501 1.336-.621.835-.596 1.67-1.239 2.578-1.716.476-.049.857-.312 1.24-.575 1.481-.81 3.031-1.477 4.438-2.41.312-.834 1.242-.644 1.91-.834.334.072.788.024.933.452" fill="#0097d4"/><path d="m28.693 23.53c.476.334.452 1.003.883 1.338l.213 1.479-1.075 1.575c-1.358.713-3.387 1.025-4.653-.122-.714-.64-.905-1.575-.714-2.503l.501-1.36c.286-.193.666-.24.86-.574.668-.43 1.526-.334 2.29-.501.573.192 1.433-.12 1.695.668" fill="#fab913"/><path d="m25.16 32.241c.431 0 .74.309 1.145.239.573.215.5.906 1.098 1.072.454.908.74 1.888.98 2.865-.17.574.31.908.142 1.432l.168.096c.021.549-.049 1.169-.264 1.695.095 1-.407 1.837-.837 2.696-.308.191-.451.74-.881.644-.764.24-.834 1.386-1.767 1.242-.597.452-1.408.19-2.123.214-.408-.214-.978-.167-1.265-.524-.715-.287-1.361-.812-1.98-1.338-.24-.525-.788-.762-.86-1.36.215-.715-.238-1.36-.047-2.075l-.144-1.194.454-2.051c.762-.407.549-1.338 1.311-1.625.478-1.098 1.623-1.335 2.508-1.884.334-.071.737.119 1-.191.48-.072.931.428 1.361.047" fill="#e85426"/><path d="m83.283 66.635c-.601-.18-1.324-.822-1.585-1.122l-3.029-3.552 1.545-1.625c.481-.5 1.144-.963 1.865-1.163v-.402c-.501.04-1.004.06-1.504.06-.542 0-1.103-.02-1.645-.06v.402c.18.08.36.32.36.522 0 .22-.1.521-.52.943l-1.646 1.623v-9.448h-.441c-.721.542-1.665.963-2.667 1.225v.46c.5 0 .962.482 1.002 1.305.06.762.16 2.267.16 3.43v6.5c0 .44-.16.802-.761.902v.401c.54-.04 1.062-.06 1.604-.06.602 0 1.183.06 1.786.06v-.4c-.482-.1-.683-.342-.683-.943v-2.75h.04l2.068 2.268c.34.382.58.843.58 1.063 0 .201-.14.361-.32.361v.401c.682 0 1.364-.06 2.046-.06.581 0 1.164.04 1.745.06m-18.411-7.096c.603 0 .883.34.883.922 0 .641.1 1.726.1 2.889v1.966c0 .683-.24.763-.742.943v.402c.562 0 1.143-.061 1.705-.061.582 0 1.144.04 1.725.061v-.402c-.54-.06-.742-.22-.742-.943v-1.645c0-1.565.04-2.687.04-3.451 0-.741 1.284-.943 1.685-.943 1.425 0 1.645 1.485 1.645 2.57v3.47c0 .682-.16.822-.721.942v.402c.64 0 1.263-.061 1.905-.061.5 0 .982.04 1.485.061v-.402c-.562-.16-.723-.3-.723-.943v-4.252c0-1.705-.782-2.89-2.769-2.89-.84 0-1.745.5-2.446.963.02-.34.02-.662.039-1.003h-.401c-.762.482-1.484.783-2.668 1.003m-15.933-5.36c0-.382.24-.402.802-.402 2.166 0 2.99 1.164 2.99 2.93 0 1.744-1.204 2.848-2.99 2.848-.26 0-.541-.02-.902-.041zm-2.247 11.172c0 .863-.26 1.163-1.143 1.264v.361h3.45c.28 0 .56.02.822.04.281.02.563.04.823.04 2.187 0 4.775-.842 4.775-3.43 0-2.086-1.264-3.15-3.15-3.67v-.04c1.505-.482 2.908-1.586 2.908-3.29 0-2.61-2.687-3.57-4.933-3.57-.483 0-.944.08-1.847.08-.802 0-1.625-.08-2.627-.08v.44c.541.08.861.26.861 1.023 0 1.805.061 4.352.061 6.76zm2.147-4.975c.42 0 .742-.02 1.082-.02 1.926 0 3.05 1.364 3.05 3.19 0 1.544-1.024 2.788-2.749 2.788-1.243 0-1.383-.2-1.383-1.283m-11.085-4.245v-1.91a9.12 9.12 0 0 1 2.593-.361c1.788 0 3.315.482 3.315 2.492 0 .724-.06 1.77-.08 2.915v.703c0 .924.16 1.185.603 1.185.1 0 .281-.039.421-.08l.303.301-1.51 1.206c-.76-.1-1.364-.482-1.606-.986-.683.504-1.326.986-2.21.986-1.368 0-2.714-.845-2.714-2.33 0-2.13 2.028-2.955 3.858-2.955.323 0 .664.06.947.06 0-1.085-.082-2.29-1.448-2.29-.985 0-1.487.32-1.99 1.064zm3.92 1.949a5.612 5.612 0 0 0 -.965-.1c-.925 0-1.89.482-1.89 1.769 0 .925.726 1.627 1.567 1.627.623 0 1.026-.141 1.348-.341m-13.825.947c.645-.1 1.065-.602 1.329-.943l1.947-2.493-2.31-3.135c-.383-.501-.523-.644-1.106-.904v-.402c.605.02 1.228.061 1.829.061.603 0 1.206-.041 1.809-.061v.402c-.24.119-.423.162-.423.463 0 .14.063.401.24.642l1.106 1.507.984-1.307c.203-.281.303-.522.303-.662 0-.383-.24-.524-.564-.643v-.402c.544.02 1.067.061 1.609.061.522 0 1.065-.041 1.587-.061v.402c-.783.18-1.205.663-1.646 1.225l-1.709 2.17 2.17 3.015c.301.403.764.905 1.267 1.065v.404c-.604-.021-1.187-.062-1.788-.062-.604 0-1.189.04-1.79.062v-.404a.469.469 0 0 0 .401-.442c0-.119-.158-.443-.321-.684l-1.084-1.547-1.086 1.467c-.121.181-.281.565-.281.744 0 .321.16.421.422.462v.404c-.522-.021-1.066-.062-1.587-.062-.442 0-.865.04-1.308.062m-1.864-8.502c0 .844.08 2.611.08 4.26v2.934c0 .683.322.783.785.904v.403c-.604 0-1.206-.061-1.81-.061-.541 0-1.084.041-1.626.061v-.403c.48-.12.702-.22.702-.904v-2.49c0-1.45-.119-2.254-.281-2.675-.161-.402-.363-.542-.844-.623v-.401c.925-.222 1.989-.603 2.593-1.005zm-.985-3.398c.584 0 1.105.424 1.105 1.027s-.521 1.023-1.105 1.023c-.583 0-1.105-.42-1.105-1.023s.522-1.027 1.105-1.027m-9.442 5.645v-1.91a9.118 9.118 0 0 1 2.593-.361c1.787 0 3.316.482 3.316 2.492 0 .724-.061 1.77-.08 2.915v.703c0 .924.16 1.185.602 1.185.1 0 .28-.039.422-.08l.3.301-1.505 1.206c-.765-.1-1.368-.482-1.608-.986-.682.504-1.327.986-2.21.986-1.367 0-2.712-.845-2.712-2.33 0-2.13 2.029-2.955 3.856-2.955.322 0 .664.06.945.06 0-1.085-.08-2.29-1.446-2.29-.985 0-1.488.32-1.99 1.064zm3.92 1.949a5.612 5.612 0 0 0 -.966-.1c-.924 0-1.889.482-1.889 1.769 0 .925.727 1.627 1.568 1.627.622 0 1.025-.141 1.348-.341m-6.313-9.967h-.865c-.636-1.934-2.654-2.695-4.422-2.695-3.58 0-5.063 2.88-5.063 6.337 0 5.801 4.198 6.789 5.905 6.789 1.668 0 3.169-.72 4.075-2.16l.639.267-.639 2.283c-1.645.309-2.675.475-4.011.475-6.134 0-8.829-3.788-8.829-7.49 0-4.238 3.273-7.366 7.883-7.366 2.672 0 3.702.452 5.162.823m48.254 12.707c-.32.2-.72.34-1.343.34-.843 0-1.564-.702-1.564-1.625 0-1.284.962-1.765 1.886-1.765.36 0 .741.06.961.1zm-3.49-4.895c.502-.742 1.004-1.064 1.987-1.064 1.363 0 1.443 1.204 1.443 2.288-.28 0-.621-.061-.942-.061-1.825 0-3.851.823-3.851 2.95 0 1.483 1.343 2.326 2.707 2.326.883 0 1.525-.481 2.208-.983.24.502.842.883 1.603.983l1.505-1.204-.3-.3c-.14.039-.32.08-.42.08-.442 0-.603-.261-.603-1.184v-.7c.02-1.145.08-2.188.08-2.91 0-2.006-1.524-2.488-3.31-2.488a9.09 9.09 0 0 0 -2.588.36v1.907" fill="#1a171b"/></svg>