<svg version="1.2" xmlns="http://www.w3.org/2000/svg" viewBox="0 0 1543 1544" width="1543" height="1544">
	<title>CFG_BIG copy-svg</title>
	<style>
		.s0 { fill: #3a8359 } 
	</style>
	<path id="Layer" fill-rule="evenodd" class="s0" d="m374 797.2c11.9 0 24.5 1.9 36.5 5.1 12 3.8 23.4 9.4 33.5 16.4 10 6.9 19.5 15.1 27.1 24.6q11.3 15.1 18.9 32.1 11.3 30.3 29 57.4 17.7 27.7 40.4 50.4 23.3 23.4 50.4 41 27.1 17.7 57.4 29 18 6.6 32.1 18.9c9.5 7.6 18.3 17.1 25.3 27.1 6.9 10.1 12 21.5 15.7 33.5 3.8 11.9 5.1 23.9 5.1 36.5v249.7c0 16.4-3.2 32.8-9.5 47.9-6.3 15.2-15.7 29-27.1 40.4-12 11.3-25.2 20.1-40.4 26.5-15.7 6.3-31.5 9.4-47.9 8.8-16.4 1.2-32.8-1.3-47.9-7-15.8-6.3-29.6-15.1-41-27.1-11.3-11.3-20.8-25.8-25.8-40.9-5.7-15.2-8.2-32.2-7-48.6v-199.2l-286.9 287.5c-12 11.3-25.2 20.1-40.4 26.5-14.5 6.3-30.9 9.4-46.6 9.4q-24.6 0-47.3-9.4c-15.2-6.4-28.4-15.2-40.4-26.5v-0.7c-11.3-11.9-20.2-25.2-26.5-40.3-5.7-15.1-8.8-30.9-8.8-47.3 0-15.8 3.1-32.2 8.8-46.7 6.3-15.1 15.2-29 26.5-40.3l287.6-287.5h-199.9c-16.4 0.6-32.8-1.3-48-6.9-15.1-5.7-29.6-14.5-41-25.9-11.9-12-20.8-25.8-26.4-41-6.3-15.1-8.9-31.5-7.6-47.9-0.6-16.4 2.5-32.8 8.8-47.9 6.3-15.1 15.2-29 26.5-41 11.4-11.3 25.2-20.8 40.4-27.1q22.7-9.5 47.3-9.5zm1044.9 0.7c16.4 0 32.8 3.1 47.9 9.4 14.5 6.3 28.4 15.8 39.7 27.1 12 12 20.9 25.3 27.2 41 5.6 15.2 8.8 30.9 8.8 47.3 0.6 16.4-1.9 32.8-7.6 48.6-5.7 15.1-15.1 29-26.5 40.3-11.9 11.4-25.8 20.8-41.6 26.5-15.1 5.7-31.5 7.6-47.9 6.3h-199.3l287.6 288.1c10.7 11.4 20.2 25.2 25.8 39.7 6.3 15.2 9.5 31.6 9.5 47.3q0 24.6-9.5 47.3c-5.6 14.5-15.1 28.4-25.8 39.7-12 11.4-25.3 20.2-40.4 26.5-15.1 5.7-30.9 8.8-47.3 8.8-15.7 0-31.5-3.1-46.6-8.8-15.2-6.3-28.4-15.1-40.4-26.5l-287.6-288.1v199.9c1.3 16.4-0.6 32.8-6.3 48.5-5.6 15.2-14.5 29-25.8 41-11.4 11.4-25.3 20.8-41 26.5-15.2 6.3-31.5 8.2-47.9 7.5-16.4 0-32.2-3.1-48-8.8-15.1-6.3-29-15.1-40.3-26.5-12-11.9-20.8-25.2-27.1-40.3-6.4-15.1-9.5-31.5-9.5-47.9v-248.4c0-12.6 1.3-25.3 5-36.6 3.8-12 8.9-23.3 15.8-34.1 6.9-10 15.1-18.9 25.2-27.1 9.5-7.5 20.2-13.8 32.2-18.3q30.3-11.9 57.4-29.6 27.1-17.6 49.8-40.3 23.3-23.4 41-50.5 17.6-27.1 29-57.3 7.6-18 18.9-32.2c7.6-10.1 17-18.3 27.1-25.2 10.1-7 21.5-12 33.4-15.8 12-3.8 24.6-5 36.6-5zm-799.6-797.6c16.4 0 32.8 3.2 47.9 8.8 15.2 6.3 29 15.2 40.4 27.1 11.3 11.4 20.8 25.3 27.1 40.4 6.3 14.5 9.5 30.9 9.5 47.3v248.4c0 12.6-1.3 25.2-5.1 36.6-3.8 11.9-8.8 23.3-15.7 34-7 10.1-15.2 18.9-25.3 27.1-9.4 7.6-20.1 13.9-31.5 18.3q-30.9 12-58 29.6-27.1 17.7-49.8 40.4-23.4 23.3-41 50.4-17.7 27.1-29 58c-5.1 11.4-11.4 22.1-18.9 31.6-7.6 10-17.1 18.2-27.2 25.2-10.1 6.9-21.4 12-33.4 15.7-12 3.8-23.9 5.1-36.6 5.1h-249.1q-24.5 0-47.2-9.5c-15.2-6.3-29.1-15.7-40.4-27.1-11.4-12-20.2-25.2-26.5-40.3-5.7-15.8-8.8-31.6-8.2-48-1.3-16.3 1.3-32.7 6.9-47.9 5.7-15.7 15.2-29.6 26.5-41 12-11.3 25.9-20.1 41-25.8 15.2-5.7 31.6-8.2 47.9-6.9h200l-287.6-288.2c-10.7-11.3-20.2-25.2-25.9-39.7q-9.4-22.7-9.4-47.3 0-24.6 9.4-47.3c5.7-14.5 15.2-28.3 25.9-39.7h1.9c12-11.3 25.2-20.2 40.3-25.8 15.2-6.3 30.9-9.5 46.7-9.5q24.6 0 47.3 9.5c15.1 5.6 28.4 14.5 40.4 25.8l287.5 288.1-2.5-199.8c-1.3-16.4 1.3-32.8 6.9-48.6 5.7-15.1 14.5-29 25.9-40.9 11.3-11.4 25.2-20.9 41-26.5 15.1-5.7 31.5-8.2 47.9-7.6zm887.9 35.3c11.4 12 20.2 25.2 26.5 40.4 5.7 15.1 8.8 30.9 8.8 47.3 0 15.7-3.1 32.1-8.8 46.6-6.3 15.1-15.1 29-26.5 40.4l-287.5 288.1h199.2c16.4-1.3 32.8 0.6 48.6 6.3 15.1 5.7 29 14.5 41 25.8 11.3 11.4 20.8 25.3 26.5 41 6.3 15.2 8.8 31.6 7.5 47.9 0 16.4-2.5 32.8-8.8 48-6.3 15.1-15.1 29-26.5 40.3-11.3 12-25.2 20.8-40.3 27.1-15.2 6.3-31.6 9.5-48 9.5h-247.8c-12.6 0.6-25.2-1.3-36.6-5.1-12-3.1-23.3-8.8-34-15.7-10.1-7-19-15.2-27.2-25.2-7.5-9.5-13.8-20.2-18.2-31.6q-12-30.9-29.7-58-17.6-27.1-40.3-50.4-22.7-22.7-50.5-40.4-27.1-17.6-57.4-29.6c-11.3-4.4-22-10.7-32.1-18.3-9.5-8.2-17.7-17-24.6-27.1-7-10.7-12.6-22.1-16.4-34-3.2-11.4-5.1-24-5.1-36.6v-248.4c0-16.4 3.2-32.8 9.5-47.9 6.3-15.2 15.8-28.4 27.1-40.4 12-11.3 25.9-20.2 41-26.5 15.1-5.6 31.5-8.8 47.9-8.8 16.4-0.6 32.8 1.9 48 7.6 15.1 5.6 29 15.1 40.3 26.5 12 11.9 20.8 25.8 25.9 41.6 5.6 15.1 8.2 31.5 6.9 47.9v199.8l287.6-288.1c11.3-11.3 25.2-20.2 39.7-25.8q22.7-9.5 47.3-9.5c15.8 0 32.1 3.2 46.7 9.5 15.1 5.6 29 14.5 40.3 25.8z"/>
</svg>