<svg xmlns="http://www.w3.org/2000/svg" width="2500" height="280" viewBox="18.051 35 1569.95 175.996"><g fill="#00A777"><path d="M24.2 209c-5.301-3.2-7.601-11.1-5.2-17.5.5-1.4 8.399-10 17.5-19L53 156H39.9c-14.8 0-17.699-.9-20.3-6.4-3-6.399-1.399-14.3 3.9-18.399 2.6-2.101 3.8-2.2 22.1-2.2 19.2 0 19.2 0 22.3 2.6 1.7 1.4 4.2 4.9 5.7 7.7 3.4 7 9.8 13.4 15.9 16.2 5.6 2.5 8.8 5.6 10.399 9.8C100.5 166.9 101 175.1 101 183.8c0 13-.3 16.3-1.8 19.2-3.5 7.1-11.801 9.9-19.7 6.6-5.4-2.3-6.5-5.6-6.5-20.3v-12.8l-16.2 16.2c-9 8.8-17.3 16.6-18.5 17.2-3.5 1.8-10.4 1.3-14.1-.9zM113.3 209.5c-1.8-.8-4.2-2.9-5.3-4.7-1.8-3-2-5-2-21.3 0-21.4.5-22.7 9.8-27.4 7.4-3.699 13.6-9.899 17.3-17.3 4.7-9.399 6-9.8 27.7-9.8 20.2 0 22.3.5 25.6 6.2 2.2 3.6 2.301 10.6.2 14.6-2.899 5.601-4.7 6.2-19.5 6.2h-13.5l17.101 17.3C188.9 191.8 190 193.5 188 200.9c-1.5 5.6-5.9 9.3-11.7 9.8-2.6.3-5.8.1-7.1-.4-1.2-.5-9.7-8.2-18.7-17.2L134 176.7v11.7c0 13.5-1.2 17.5-6.2 20.6-3.8 2.3-9.9 2.5-14.5.5zM444.8 202.9c-11.5-1.7-18.4-8-20.7-19-.7-3-1.1-18.801-1.1-38.9v-34h-20V88h19V70.5c0-9.6.3-17.5.6-17.5s6.5-1.6 13.8-3.5 13.8-3.5 14.5-3.5c.8 0 1.101 6 1.101 21v21h28v23H451.8l.399 29.3c.4 31.5.801 34 6 36.8 2.301 1.2 11.7 1.4 18 .4l3.801-.7v24l-2.7.601c-11.9 2.499-22.5 2.999-32.5 1.499zM704.5 202.9c-22.5-3.3-36.9-16.1-41.4-36.9-2.2-10-2.5-24.7-.7-35 3.4-19.3 13.3-33.1 29.2-40.7 7.2-3.4 8.5-3.7 19.2-4.1 7.1-.3 13.6 0 17.1.8 16.7 3.6 28.8 16.5 32.601 34.7 1.5 6.899 2 21.899.899 26.1l-.6 2.2h-70l.6 4.8c1.8 12.3 6.4 19 16 23.3 9.101 4 30 2.5 43.3-3.199l4.2-1.801.5 2.7c.3 1.5 1 6.7 1.7 11.5 1.5 10.4 2.1 9.7-9.8 12.601-14.5 3.699-30.5 4.799-42.8 2.999zm27.9-78.1c-1.5-10.5-8.8-16.8-19.3-16.8-8.7 0-15.1 4.4-19 13-3.8 8.4-4.8 8 18.4 8H733l-.6-4.2zM920.1 202.9c-4.7-.5-8.5-1-8.6-1.2-.101-.101.1-5.7.3-12.5.399-10.9.6-12.3 2.1-11.7 4.5 1.8 21.2 3.7 26.2 3.1 9.6-1.199 15.7-6.6 14.5-12.899-1-5.3-4.6-8.101-16.3-12.7-5.9-2.3-12.8-5.4-15.101-6.8C906.5 138.6 904.3 113.8 918.8 98.7c4.3-4.5 15.3-10 23.399-11.7 5.101-1.2 35.301-1 36.101.1.1.2.1 5.7-.101 12.3l-.399 11.8-3.101-.6c-17-3.5-27.8-2.6-32.199 2.5-4.801 5.8-2.5 12.3 5.699 16.2 2.9 1.4 9.7 4.4 15.101 6.7 10.7 4.6 16.8 9.6 20.2 16.5 1.6 3.2 2 6.1 2 14 0 9.2-.2 10.4-2.9 15.3-5.4 9.8-15.2 16.7-27.8 19.7-8.2 2-24.2 2.6-34.7 1.4zM1193 202.6c-11.7-2.6-18.4-8.5-21.5-18.899-5.301-18 3.899-35.8 22.8-44.101 7.6-3.399 20.8-6.399 31.5-7.199l9.2-.7V126.1c0-7-2.4-11.899-7-14.6-3-1.7-5.2-2-15-2-12.301.1-19.2 1.5-28.2 6-2.7 1.4-4.8 2.3-4.9 2.2-.6-2.4-2.5-24.4-2-24.9 1.101-1.1 14.4-4.7 22.101-5.9 4.399-.7 13.699-.9 22.5-.7 13.6.4 15.6.7 22 3.3 11.199 4.6 17.5 12.2 19.5 23.7.5 2.9 1.1 24.1 1.199 47.1l.301 41.7H1238v-16.2l-4.601 5.101c-5.399 6-14.3 10.699-22.899 12.1-7.5 1.199-10.5 1.199-17.5-.401zm26.6-23.5c8.6-3.899 15.4-14.5 15.4-24.199 0-3.9 0-4-3.2-3.5-1.8.3-5.9.8-9.2 1.1-13.3 1.5-21.5 6.1-23.7 13.5-1 3.2-.899 4.4.7 7.7 3.4 6.799 11.8 9.099 20 5.399zM270.1 202c-26-5.4-43-21.7-49.1-47.1-3.9-16.101-3.601-38.7.6-55.4.8-3.3 3.5-10.2 6-15.3 7.9-16.3 22.2-28.3 40.9-34.2 9.899-3.1 33.8-3.9 48.5-1.6 5.699.9 10.5 1.8 10.699 2 .301.3-2.6 26.9-3 27.3-.1.1-4.5-.8-9.699-1.9-14-2.9-31.3-2.3-39.2 1.4-11.9 5.5-19.3 15.7-22.8 31.5-5.8 26.1 2 52.2 18.399 61.8 10.5 6.1 29 7 45.601 2.2 4.699-1.4 8.6-2.5 8.6-2.4.1.101.9 6 1.8 13.101 1.4 10.5 1.5 13.1.4 13.699-.7.5-5.3 1.801-10.3 3.101-7.2 1.7-12.5 2.2-26 2.399-9.3.2-19-.1-21.4-.6zM354 145V88h30v114h-30v-57zM506 145V88h30v114h-30v-57zM561 191.3c0-11.899-.5-10.399 8.699-23.8 2.7-3.8 10.101-14.6 16.4-24 6.4-9.3 13.5-19.7 15.8-23l4.2-6-22-.3L562 114V88h80v22l-7.301 10.7c-10.8 15.8-24.3 35.7-30.399 44.7-2.9 4.3-5.3 8-5.3 8.199 0 .2 9.899.4 22 .4h22v28h-82V191.3zM786 145V88H814.3l-.7 8.6-.6 8.5 5.399-5.8c3.601-3.9 7.8-7.1 12.3-9.3 6.7-3.5 6.9-3.5 19.801-3.5 12.699 0 13.1.1 18.5 3.1 6.5 3.7 11.3 9.5 13.699 16.7 1.4 4.5 1.7 11.2 2.101 50.5l.399 45.2H855v-40c0-43.5-.101-44.6-5.5-48.8-3.301-2.6-10.801-3-15.801-.8-3.899 1.7-10.3 7.8-12.399 11.9-5.4 10.5-5.601 12.3-6.101 46L814.8 202H786v-57zM1048 125.2V48.3l6.8-.6c13.2-1.3 55.6-.8 63.5.7 14 2.7 25.6 10.4 30.1 20 4.4 9.3 4.4 22.9 0 32.1-2.5 5.4-10.1 13.3-15.8 16.6-2.8 1.6-4.3 2.9-3.3 2.9 3.5 0 11.3 4.5 15.899 9.2 10.7 11 12.601 31.5 4.2 46.8-3.5 6.4-12.5 15-19.3 18.4-11.9 6.1-17.7 6.899-51.3 7.399l-30.8.4V125.2zm62.199 48.6c12.5-5.8 16.2-20.8 7.7-31.1-4.6-5.601-11.8-7.9-27.1-8.5l-12.8-.5v21.1c0 15.9.3 21.2 1.3 21.601.6.3 6.6.399 13.2.3 10.601-.201 12.7-.601 17.7-2.901zm-5.099-64.7c5.8-1.8 12.4-8.3 13.9-13.6 1.5-5.4.699-11.6-2.101-16.1-3.7-6.1-16.6-9.3-31.5-7.9l-7.399.7v39l11.8-.5c6.399-.2 13.3-1 15.3-1.6zM1294 145V88H1322.3l-.601 9.1-.699 9.2 2.899-4c3.8-5.2 9.2-9.6 16.101-13 5.1-2.6 6.399-2.7 18.5-2.8 10.899 0 13.6.3 17 2 6.199 3.1 12 9.3 14.6 16 2.4 6 2.4 6.2 2.7 51.8l.3 45.7H1363v-40.2c0-37.7-.2-40.6-2-44.6-1.2-2.6-2.9-4.6-4.5-5.2-4.2-1.6-11.301-1.2-15.4 1-5.3 2.7-11.6 10.1-14.3 16.9-2.2 5.399-2.3 7-2.601 38.899l-.3 33.2H1294V145zM1422 118.5V35h29l.199 49.4.301 49.5 4.199-6.2c3.7-5.3 11.7-16.8 24.5-34.9l3.301-4.7 18.3-.1h18.399l-3.399 4.4c-1.8 2.5-7.2 9.5-12 15.8-19.2 25-23.8 31.2-23.8 31.899 0 .4 2 3.5 4.399 7 2.5 3.5 7.4 10.7 11 15.9 3.601 5.2 9.101 13.1 12.2 17.5s7.1 10.3 9 13.2c1.8 2.8 3.8 5.399 4.4 5.8 3.3 2-.4 2.5-17.7 2.3l-18.601-.3-17.1-27.1-17.1-27.2-.301 27.399L1451 202h-29v-83.5zM1553.9 121.2c-3.399-1.7-6.5-4.4-8.399-7.1-2.601-3.7-3-5.3-3.301-12-.5-9.4 1.5-14.1 8.101-19.5 7.5-6.1 17.8-7 26.2-2.1 8.1 4.7 11.5 10.7 11.5 20.5-.001 17.8-18.201 28.5-34.101 20.2zm16.7-1.7c2.8-.8 6.1-2.6 7.4-4l2.3-2.5h-3.601c-3.1 0-4.199-.7-7.8-5-2.3-2.7-5-5-6.1-5-1.5 0-1.8.8-1.8 5 0 4.7-.2 5-2.5 5h-2.5V88h7.5c6.699 0 7.899.3 10 2.5 3.199 3.1 3.199 5.9-.101 9.1l-2.5 2.6 4.3 4.8c2.4 2.6 4.601 4.8 4.9 4.9 1.9.3 4.2-5.8 4.2-11.2 0-4.8-.5-6.5-2.9-10-5.6-7.9-13-11-21.2-8.8-10.8 2.9-17.399 13.9-14.3 24 1.7 5.8 7.5 11.8 12.9 13.5 6.002 1.9 5.901 1.9 11.802.1zm-1.8-21.7c3.1-3.1.8-5.8-4.9-5.8-2.7 0-2.899.3-2.899 3.5 0 3.3.199 3.5 3.3 3.5 1.799 0 3.799-.5 4.499-1.2zM22.5 119.7c-5.8-5.8-5.9-15.1-.4-20.7l3.101-3H52.8L36.4 79.6c-9-9-16.8-17.6-17.4-19.1-2.4-6.4-.1-14.3 5.2-17.5 3.699-2.2 10.699-2.7 14.1-.8 1.2.6 9.4 8.3 18.2 17l16 15.9.5-13.3c.6-15.1 1.6-17.9 7.7-19.9 8-2.6 15.899.6 18.899 7.8 1.7 4 1.9 32.7.3 37-1.5 4-4.699 7.1-9.6 9.3-6 2.6-13.5 10-16.6 16.4-1.5 2.9-4.101 6.6-5.801 8l-3.1 2.6H25.8l-3.3-3.3zM139.3 121c-2-1.2-4.4-4.2-6.2-7.8-3.7-7.4-9.899-13.6-17.3-17.3-9.3-4.7-9.8-6-9.8-27.4 0-16.3.2-18.3 2-21.3 3.7-6 13.399-8.1 19.8-4.2 5 3.1 6.2 7.1 6.2 20.7v11.8l17-17 17-17h6.399c5.801 0 6.801.3 9.601 3 1.6 1.6 3.5 4.6 4.1 6.8 1.9 7 .2 9.7-17.899 28L153.6 96H181.3l3.3 3.6c6 6.3 4.601 17.5-2.6 21.8-2.3 1.3-6 1.6-21.2 1.6-16.4 0-18.6-.2-21.5-2zM358.9 76.2c-10.8-7-10.2-23 1.101-29 3.699-2 5.5-2.3 10.3-1.9 9.899.9 15.7 7 15.7 16.7 0 10-6.101 16.2-16.4 16.8-5.402.3-6.601 0-10.701-2.6zM513.5 77.6c-7.1-3.1-11.7-12.5-9.6-19.6 3.3-11.2 15-16.1 25.7-10.9 11.8 5.6 12 23.5.4 29.6-4.9 2.6-11.801 3-16.5.9z"/></g></svg>