<?xml version="1.0" encoding="UTF-8" standalone="no"?>
<!-- Created with Inkscape (http://www.inkscape.org/) -->
<svg
   xmlns:svg="http://www.w3.org/2000/svg"
   xmlns="http://www.w3.org/2000/svg"
   version="1.0"
   width="602.36218"
   height="183.15353"
   id="svg3533">
  <defs
     id="defs3535" />
  <g
     transform="translate(-609.76334,-141.33675)"
     id="layer1">
    <g
       transform="matrix(6.6736802,0,0,-6.6736802,-7639.4047,575.24068)"
       id="g3529">
      <path
         d="M 125.6875,450.1875 C 125.21625,450.45125 123.8575,451.21376 123.6875,451.3125 L 123.6875,473.75 L 125.6875,473.75 L 125.6875,471.40625 L 126.0625,471.875 C 127.38875,473.40375 128.85125,474.125 130.6875,474.125 C 134.47,474.125 136.90625,470.51501 136.90625,464.96875 C 136.90625,459.52625 134.7725,456.40626 131.03125,456.40625 C 129.1625,456.40625 127.535,457.22375 126.0625,458.84375 L 125.6875,459.25 L 125.6875,450.1875 z M 174.8125,450.1875 C 174.34125,450.45125 172.98876,451.21376 172.8125,451.3125 L 172.8125,473.75 L 174.8125,473.75 L 174.8125,468.875 L 178.03125,464.375 C 178.03125,464.375 182.31875,473.50499 182.4375,473.75 L 184.59375,473.75 C 184.30625,473.15375 179.28125,462.71875 179.28125,462.71875 C 179.28125,462.71875 183.1325,457.40376 183.59375,456.78125 L 181.40625,456.78125 C 180.77875,457.6825 175.90375,464.78875 175.90625,464.78125 L 174.8125,466.46875 L 174.8125,450.1875 z M 108.4375,451.375 L 105,453.21875 L 105,456.6875 L 102.03125,456.6875 L 102.03125,459.90625 L 105,459.90625 L 105,469.53125 C 105,472.15376 106.55125,473.95375 108.875,474 C 110.4475,474.03001 111.39125,473.55875 111.96875,473.21875 L 112,473.1875 L 112.84375,469.90625 L 112.65625,470.03125 C 111.7225,470.59999 110.8425,470.875 110.0625,470.875 C 108.93375,470.875 108.4375,470.29625 108.4375,468.96875 L 108.4375,459.90625 L 111.96875,459.90625 L 111.96875,456.6875 L 108.4375,456.6875 L 108.4375,451.375 z M 87.34375,456.40625 C 84.908749,456.40625 82.7,457.20875 81.09375,458.6875 C 79.349997,460.28876 78.40625,462.54375 78.40625,465.21875 C 78.406253,467.89501 79.35,470.1775 81.09375,471.78125 C 82.699997,473.265 84.90875,474.0625 87.34375,474.0625 C 89.771249,474.06251 91.76,473.135 93.40625,471.1875 L 93.46875,471.125 L 91.46875,468.71875 L 91.40625,468.8125 C 90.166249,470.0725 88.7275,470.71875 87.25,470.71875 C 84.173754,470.71876 81.9375,468.405 81.9375,465.21875 C 81.937499,462.04001 84.17375,459.75 87.25,459.75 C 88.727504,459.75 90.16625,460.39375 91.40625,461.65625 L 91.46875,461.75 L 93.46875,459.34375 L 93.40625,459.28125 C 91.760003,457.33876 89.77125,456.40625 87.34375,456.40625 z M 146.15625,456.40625 C 144.2,456.40625 142.27251,456.86626 140.71875,457.6875 C 140.8475,457.975 141.30625,459.00874 141.4375,459.3125 C 142.92,458.47375 144.36376,458.06249 145.96875,458.0625 C 148.575,458.0625 149.90625,459.42376 149.90625,462.125 L 149.90625,464.5625 L 149.5625,464.375 C 148.46375,463.76 146.9725,463.40626 145.4375,463.40625 C 142.3875,463.40625 139.12501,464.80626 139.125,468.75 C 139.125,473.58 142.76876,474.125 144.34375,474.125 C 146.35125,474.125 148.0625,473.30626 149.53125,471.6875 L 149.90625,471.28125 L 149.90625,473.75 L 151.90625,473.75 L 151.90625,461.84375 C 151.90625,458.1975 150.0325,456.40626 146.15625,456.40625 z M 162.9375,456.40625 C 161.055,456.40625 159.435,457.27624 158.40625,458.8125 L 158,459.40625 L 158,456.78125 L 156,456.78125 L 156,473.75 L 158,473.75 L 158,463.78125 C 158,460.24125 159.655,458.12501 162.4375,458.125 C 165.34125,458.125 166.68751,459.92001 166.6875,463.78125 L 166.6875,473.75 L 168.6875,473.75 L 168.6875,463.34375 C 168.6875,458.80375 166.70375,456.40626 162.9375,456.40625 z M 95.46875,456.6875 L 95.46875,473.75 L 98.9375,473.75 L 98.9375,456.6875 L 95.46875,456.6875 z M 115.53125,456.6875 L 115.53125,473.75 L 119.03125,473.75 L 119.03125,456.6875 L 115.53125,456.6875 z M 130.40625,458.125 C 133.2925,458.125 134.93751,460.65375 134.9375,465.03125 C 134.9375,469.92875 133.44875,472.40624 130.5,472.40625 C 128.595,472.40625 126.79125,471.39 125.6875,469.6875 L 125.6875,469.625 L 125.6875,460.78125 L 125.71875,460.71875 C 127.08375,458.99375 128.65375,458.12501 130.40625,458.125 z M 145.28125,464.96875 C 147.2025,464.96875 148.5025,465.245 149.78125,465.96875 L 149.90625,466.03125 L 149.90625,469.75 L 149.875,469.8125 C 148.62375,471.55625 146.81749,472.53124 144.78125,472.53125 C 142.4,472.53125 141.06251,471.13001 141.0625,468.59375 C 141.0625,466.31625 142.64501,464.96874 145.28125,464.96875 z"
         transform="matrix(0.8,0,0,-0.8,1176.0045,419.52802)"
         id="path3245"
         style="fill:#000066;fill-opacity:1;fill-rule:nonzero;stroke:none" />
      <path
         d="M 1272.8678,56.5822 C 1270.3118,60.2042 1266.0678,62.3622 1261.7508,62.3622 C 1257.4358,62.3622 1253.1898,60.2042 1250.6408,56.5822 L 1250.5098,56.3972 L 1253.7268,56.3972 L 1253.7628,56.4342 C 1255.9548,58.6942 1258.8078,59.8892 1261.7508,59.8892 C 1264.6918,59.8892 1267.5508,58.6942 1269.7438,56.4342 L 1269.7818,56.3972 L 1272.9968,56.3972 L 1272.8678,56.5822 z"
         id="path3257"
         style="fill:#ff0000;fill-opacity:1;fill-rule:nonzero;stroke:none" />
    </g>
  </g>
</svg>
