<svg xmlns="http://www.w3.org/2000/svg" width="2500" height="556" viewBox="0 12.52 283.289 63.033"><path fill="#003662" d="M125.421 51.118h-18.676v4.242l.58-.061.014-.07c.125-.627 1.248-1.827 2.631-1.827h4.171l.002 21.766h4.075l-.024-21.75h4.267c1.409 0 2.333.773 2.49 1.5l.018.079.591-.018-.04-3.861h-.099zM4.251 49.659l.07.068-.07-.068C1.549 52.469 0 56.319 0 60.228c0 4.349 1.754 8.303 4.941 11.133 3.044 2.704 7.114 4.192 11.461 4.192 2.277 0 6.742-.388 11.05-2.982l.167-.101.513-6.124-.805-.104-.119.25c-3.163 6.614-8.143 6.614-10.018 6.614-8.398 0-12.224-6.966-12.224-13.438 0-6.26 3.789-12.578 12.254-12.578 2.596 0 7.316.85 9.772 6.527l.136.314.79-.242-.516-6.383-.21-.091c-3.945-1.721-7.127-2.486-10.316-2.486-5.154 0-9.52 1.705-12.625 4.93zM32.147 51.115h-.1l.007.556.051.026c.341.182.722 1.107.722 2.145l-.001 21.325h4.001l-.016-10.958 1.75.045c1.572.088 2.192 1.129 2.978 2.447l.098.163.503.849c.855 1.443 2.027 3.423 3.245 5.23.875 1.301 1.968 2.048 3.34 2.285.979.17 2.934.104 3.67-.122l.881-.229.334-.086-1.215-.375c-.49-.15-1.262-.489-2.3-1.688-.643-.742-1.683-2.401-3.257-4.914l-1.56-2.482-.03-.044c-.417-.609-1.115-1.598-2.288-2.226 2.253-.737 4.465-2.79 4.465-5.849 0-.867-.223-2.533-1.712-3.944-1.51-1.432-3.862-2.156-6.992-2.156l-6.574.002zm6.845 2.168c4.104.173 4.222 3.644 4.222 4.037 0 3.492-2.579 4.731-4.787 4.731l-1.604-.034V53.32a17.85 17.85 0 0 1 2.169-.037zM73.085 51.115h-.111l.075.596.047.023c.349.174.678 1.035.678 1.772l-.024 21.66h6.857c4.527 0 8.274-1.409 10.835-4.072a12.126 12.126 0 0 0 3.347-8.33c0-1.862-.628-4.675-2.391-6.981-2.364-3.097-6.112-4.667-11.142-4.667l-8.171-.001zm4.742 2.308l2.146.006c.571.008 2.013.043 3.026.196 6.737 1.021 7.464 6.731 7.464 9.14 0 1.973-.352 4.78-2.027 6.952-1.643 2.132-4.219 3.212-7.658 3.212-.82 0-1.84-.002-2.952-.054l.001-19.452zM103.072 51.115h-4.7l.016.582.053.027c.433.215.713.997.713 1.991l-.001 21.45h4.012l.006-24.052-.099.002zM183.885 51.115h-4.729l.047.541.049.025c.426.213.713 1.029.713 2.034v21.45h4.012l.006-24.052-.098.002zM67.9 51.115H54.454l.076.564.046.022c.367.182.747 1.032.747 2.139l-.002 21.325H68.75l.976-4.262-.541-.194-.152.237c-1.111 1.747-2.239 1.979-6.135 1.979-1.388.028-2.742-.093-3.59-.172v-9.814h6.793v-2.168l-6.793-.001v-7.482l5.507.063c1.241 0 2.605 1.188 2.725 1.904l.015.084.55-.013-.108-4.215H67.9v.004zM239.801 51.115h-13.402l.027.615.053.024c.361.182.746.975.746 2.086l-.002 21.325h13.428l.978-4.266-.606-.188-.15.235c-1.111 1.747-2.227 1.979-6.07 1.979-1.389.028-2.742-.093-3.59-.172v-9.814h6.793v-2.168l-6.793-.001v-7.482l5.508.063c1.52 0 2.662 1.158 2.662 1.91v.104l.625-.041-.107-4.211-.1.002zM137.108 46.618c-1.415 1.018-3.108 2.887-3.141 6.026v.092c0 3.859 2.459 5.887 6.421 7.896l-.014-.039c.102.084.447.262 1.523.81 3.309 1.661 5.699 2.862 5.699 6.239 0 1.159-.439 2.83-1.664 4.044-1.021 1.011-2.394 1.515-4.08 1.497-5.051-.053-6.839-4.48-7.373-6.384l-.092-.329-.849.141.235 6.286.183.104c1.612.938 4.31 2.506 8.173 2.545 2.737.027 5.512-1.087 7.424-2.98 1.68-1.662 2.566-3.769 2.566-6.091 0-5.1-3.652-7.013-7.525-9.04l-.727-.382c-3.965-1.991-5.831-3.203-5.805-5.703.018-1.698 1.297-4.383 4.655-4.349 3.904.039 6.061 2.978 6.501 4.818l.08.334.841-.108-.287-5.441-.156-.106c-2.313-1.559-5.213-1.753-6.354-1.764-2.262-.023-4.536.663-6.234 1.884zM190.361 57.197c-.033 3.332 1.967 5.02 5.207 6.664l1.223.622c2.551 1.282 4.238 2.128 4.238 4.523 0 .418-.086 1.868-1.199 2.971-.771.764-1.842 1.144-3.178 1.13-3.826-.038-5.23-3.014-5.728-4.784l-.094-.33-.812.134.189 5.066.184.104c1.275.742 3.408 1.982 6.476 2.015 2.176.022 4.383-.863 5.903-2.371 1.338-1.324 2.045-3.002 2.045-4.854 0-4.212-2.914-5.737-5.998-7.354l-.545-.286c-3.313-1.664-4.469-2.411-4.45-4.268.012-1.304.989-3.231 3.625-3.205 3.223.032 4.631 2.364 4.926 3.594l.078.335.812-.105-.232-4.4-.158-.105c-1.84-1.24-4.141-1.395-5.047-1.402-3.588-.039-7.422 2.161-7.465 6.306zM208.369 57.197c-.033 3.331 1.967 5.02 5.209 6.665l1.221.621c2.553 1.282 4.238 2.129 4.238 4.523 0 .418-.088 1.868-1.199 2.971-.771.764-1.842 1.144-3.178 1.13-3.824-.038-5.23-3.014-5.727-4.784l-.095-.33-.812.134.189 5.065.184.105c1.275.742 3.41 1.982 6.476 2.015 2.177.022 4.383-.863 5.903-2.371 1.339-1.324 2.046-3.002 2.046-4.854 0-4.212-2.912-5.737-5.998-7.354l-.545-.286c-3.313-1.663-4.47-2.411-4.451-4.268a3.265 3.265 0 0 1 .969-2.248c.647-.638 1.568-.969 2.658-.957 3.224.032 4.629 2.364 4.922 3.595l.082.334.81-.105-.232-4.4-.158-.105c-1.84-1.24-4.143-1.395-5.045-1.402-3.588-.039-7.424 2.161-7.467 6.306zM173.906 51.095l-3.16.021.051.541.049.024c.158.079.678.456.678 1.976l.019 13.671c0 2.648-.972 5.807-5.599 5.807-4.371 0-5.268-2.614-5.268-6.54l.004-15.479h-5l.037.536.047.025c.32.169.859.804.859 2.103v12.814c0 7.96 5.232 8.881 9.17 8.881 1.922 0 8.195-.583 8.195-8.088l.018-16.293-.1.001zM274.314 44.245c2.828.908 5.828 2.182 8.975 3.94-7.725-12.761-21.545-26.659-35.104-35.665 3.496 3.46 9.168 11.077 10.639 19.245 5.555 3.958 10.797 8.17 15.49 12.48zM274.305 44.24c-6.627-2.132-12.275-2.238-16.467-1.807 1.475-3.457 1.625-7.104.99-10.65-10.262-7.311-21.572-13.771-32.447-18.383 7.98 5.403 16.777 20.989 20.469 37.708 7.865-2.329 19.979-3.936 35.594 1.319-2.456-2.741-5.19-5.483-8.139-8.187z"/><path fill="none" d="M258.824 31.766c.641 3.551.49 7.204-.986 10.668 4.193-.433 9.846-.325 16.477 1.811-4.694-4.31-9.936-8.522-15.491-12.479z"/></svg>