<svg height="731" viewBox="35.433 35.357 1062.992 260.939" width="2500" xmlns="http://www.w3.org/2000/svg"><path d="m636.605 223.1v51.655c-28.684 14.364-55.957 21.541-83.212 21.541-75.317 0-120.52-44.485-120.52-100.46 0-60.295 51.654-110.511 117.645-110.511 16.494 0 28.693 2.857 41.61 7.186 9.334 2.857 15.066 6.45 20.797 6.45 5.03 0 6.468-8.615 7.187-13.636h7.177l6.46 69.602h-8.616c-3.602-13.628-10.034-25.117-18.667-33.005-13.619-13.627-32.277-20.814-53.792-20.814-45.195 0-71.74 35.888-71.74 89.707 0 53.091 32.285 89.706 75.324 89.706 12.927 0 24.39-2.874 38.745-9.333v-53.118c0-17.23-2.874-23.68-27.264-23.68v-7.878h91.109v7.878c-22.944 0-22.243 7.17-22.243 28.71m-250.365-84.675v154.287h-12.19l-154.261-159.318c.718 4.303.718 7.905.718 12.2v96.884c0 30.12 0 40.9 27.274 40.9v7.879h-72.451v-7.879c27.247 0 27.247-12.909 27.247-40.9v-110.503c0-16.512 0-34.451-28.684-34.451v-7.888h68.156l126.979 130.581c-.727-3.566-.727-5.731-.727-10.744v-71.048c0-28.71.727-40.901-26.546-40.901v-7.888h72.468v7.888c-26.546 0-27.983 11.48-27.983 40.9m-350.807 152.833v-7.879c17.23 0 29.411-1.437 29.411-26.554v-132.746c0-25.844-9.324-26.554-29.411-26.554v-7.888h101.88v7.888c-20.806 0-29.42.71-29.42 26.554v132.746c0 25.117 10.761 26.554 29.42 26.554v7.879z" fill="#003671"/><path d="m710.385 292.019h290.853l12.966-21.964 8.008-44.01-15.337-47.696-20.31-29.344-10.35-3.34-8.355 3.665-3.325 13.342-40.05 6-20.988-15.67-18.692-46.7-11.325-32.358-2.35-13.328-5.334-6.346-29.027-4.669-17.664 8.666-21.35-8.666-18.677-.665-6.99 11.68-4.343 8.334-6.007 15.012-4.994 21.676 3.665 34.686 2.016 25.688-1.352 14.997 6.34 24.683-6.672 20.006-10.336 26.36-6.678 3.34-9.67-4.345-10.336 5.674-11.008 4.337-6.672 10.003.998 15.337zm302.355-197.374-7.963-7.019-20.538-4.514-.946-7.52 14.044-4.012 8.836 7.011 7.957 1.507 4.196.495 13.099 16.549z" fill="#fff"/><path d="m841.845 133.616v-4.02h-7.366l-.657 1.33zm-37.434-4.02c-2.002-2.001-4.662 0-8.009-.672 0 .673-.665 2.682 1.33 4.005 2.682-2.002 5.992-3.332 6.679-3.332m46.107-38.1s1.33 0 0-.672l-15.374-1.337c-2.002 1.337-4.676 1.337-5.341 3.354l-1.337.665c1.337 5.356 1.337 11.363 1.337 17.369 2.674.672 6.006 2.682 6.006 6.693 2.682 1.338 6.036 1.995 8.023 4.005 1.337-.665 2.675-2.667 3.34-4.67-3.34-3.346-9.36-1.337-9.36-7.35l-3.99-2.003c0-4.033 0-8.03-1.345-10.705l1.345-1.337c0 1.337.657 2.002 1.987 3.354 2.682 0 6.036.658 8.023-1.352 1.337-.665 1.337-4.004 3.34-4.004.672 0 2.674 0 3.346-2.01m-40.759 1.345c0-1.344-1.337-2.682-3.346-3.354h-16.704c0 2.01 2.01 4.02 4.011 4.02 0 2.001 2.017 3.338 3.347 4.003 1.33 1.352 2.682 1.352 4.677 0 1.98 1.352 2.667-2.002 3.339 0 0 4.012 0 6.007-.672 9.36-.687 4.677-5.342 4.005-8.009 6.687-.665 1.322-2.682 5.349-.665 7.35 1.995-1.344 4.012-2.001 6.672-3.339 0-2.002 2.674-4.011 5.334-6.02 0-6.014 2.016-12.028 2.016-18.707m6.014-16.039c-1.995-1.352-6.014.658-8.03 2.002-2.66.665-5.334 2.66-5.334 4.677h8.015c1.33-2.017 3.354-4.677 5.35-6.679m23.382 6.679c0-2.017-.665-2.017-1.345-2.667-3.332 0-3.332-5.364-5.999-4.012-2.01 0-3.346-1.352-4.669 0-.68.658 0 .658.665.658 4.004 0 1.995 5.349 4.67 6.02zm23.382-4.012c1.352-4.019 2.025-10.025-.665-14.03-2.002-2.001-5.348-4.011-8.688-6.02l-5.341 2.009c-2.675 2.01-4.012 4.012-4.012 8.016 4.684 2.01 10.033 7.358 12.028 12.02h2.002c2.01-1.995 4.011 0 4.676-1.995m-62.124-10.025c-.665-6.686-8.696-8.016-12.692-10.025h-2.01c-6.014 1.337-7.358 7.343-8.023 12.034 2.01 6.007 6.013 1.995 9.345 6.007 2.675-2.01 10.033-6.679 13.38-8.016m-82.184 204.518c-.672 0-2.681-2.01-4.669-2.01-2.024 4.005 0 7.359 0 12.02 0 1.352-.672 4.042-.672 4.042-1.352 0-4.02-3.37-5.349-5.364v-11.355l6.671-8.03c4.02 2.666 5.35 6.685 4.02 10.697m18.705-8.03c0 3.331-.665 6.02-2.674 8.03-.665-2.667-2.667-6.021-6.014-6.021-2.667 5.334-3.346 7.336-.672 16.031-1.995 1.352-4.012 2.032-6.021 4.042-1.323-3.37-1.995-8.046-1.995-10.713 0-4.676 1.323-9.36 2.66-13.372 1.344-2.652 3.361-6.006 5.356-8.03l7.358-.65c-2.674.65-2.674 4.018-2.674 6.028 1.337.65 4.676 1.308 4.676 4.654m24.048 4.02c0 6.006-8.688 14.021-8.688 14.021 0-4.004 1.344-8.015 2.01-12.02 0 0-2.675-2.689-6.014-2.689-2.003.687-2.003 2.69-2.668 4.699-2.009 4.012-6.02 7.994-7.343 12.042-.658 0-.658-.68-.658-.68 0-6.013.658-18.728 5.327-23.397 4.02-4.004 6.006-4.004 10.018-4.684l4.019.68-2.682 4.004c2.682 1.337 6.679 4.004 6.679 8.023m112.923 2.002-1.995 2.01c-2.009-2.01-.687-8.03-4.018-8.703-3.332 0-6.022-3.332-7.351-3.982l1.994-1.352s2.025-.658 3.347 0c1.345 1.352 2.674 2.002 2.674 4.004 1.345 1.33 3.354 0 4.677 1.33.672 2.01 1.337 4.691.672 6.693m24.062-10.025c-.68 2.002-1.344 5.341-2.016 8.023-1.995-4.019-3.34-10.025-8.016-10.025-.665-2.682-1.33-4.677-4.012-6.029l-6.006-.664c.665 2.016 4.676 2.667 2.682 6.693 1.994 2.002 4.661 2.002 6.006 5.334 1.33 2.01 0 4.691.665 6.693l-4.677 2.01c0-4.012 1.33-10.033-4.011-12.035-4.012 1.337-4.677-4.004-7.359-6.028-1.322-.65-1.322-4.005-3.331-2.003-3.332 2.003-8.024 0-11.37 2.003l3.346-6.007c2.667-2.002 6.014-.672 8.688-2.002l5.35-.672c6.02 0 10.69 2.674 16.046 4.676 2.66 2.002 4.004 4.005 4.004 7.373 1.995.658 4.684.658 4.011 2.66m108.21-.65c-1.337 1.987-1.95 2.652-2.644 3.982 0-3.332-4.02-5.334-6.664-11.363l2.645-4.676c2.696.672 4.713 2.674 4.713 6.028 0 .65-.694 2.675 0 4.02 0 .657 1.95.657 1.95 2.009m-225.817 1.987-2.01 6.686-4.668-12.027c-6.014-6.029-12.02-6.694-16.04-8.703-2.002-1.33-2.002.672-4.004 0 0-2.002.665-4.004 2.675-6.006h4.004l4.004 2.002c2.675 2.002 7.351 2.002 7.351 6.013 0 1.345-.657 2.003.68 4.02l7.343 2.674zm204.46-7.365c0 .68-1.33 2.024-1.33 2.024-3.325-2.024-6-3.34-10.026-3.34 0-2.009-1.33-5.363-2.667-5.363-4.677 0-4.019 2.01-7.344 2.01l6.022-6.014c.642-1.33 1.322-1.33 2.66-1.33 1.994 1.33 2.659 2.002 4.676 2.002 0 1.33 0 2.002-.65 4.004 1.33 1.337 3.324 0 4.654 1.337 2.01.665 4.004 2.003 4.004 4.67m-78.843 4.026h-.658c-1.344-2.002-1.994-4.026-3.346-4.026 2.002-8.009-2.002-14.03-3.332-20.716l-.673-1.987c2.653 3.332 8.009 6.67 7.351 10.69.658 6.006 1.338 11.362.658 16.039m-114.926-6.693-4.676 4.69c-1.323-2.023 0-6.028-2.675-8.03 0-.672 2.01-2.002 1.352-2.674-1.352-1.33-9.36-4.004-9.36-4.004-3.34-2.01-6.021-4.02-8.695-7.351-3.332-.68-5.334 1.344-8.689 2.002-.664-.658-.664-2.002-.664-2.002 2.016-2.017 2.016-6.007 6.02-6.007 2.003 0 4.677 0 6.672 1.988 2.682 0 4.026 2.689 6.006 3.339 3.354 4.012 6.029 4.684 8.71 6.686-.687 2.017.658 3.347 1.98 4.019 4.02 0 2.675 4.004 4.02 7.344m219.84-10.69c0 4.018 0 5.348-2.002 8.687l-4.662-6.013c1.95-2.002 1.95-5.35 3.99-8.009.672 0 2.674 4.662 2.674 5.334m-118.937 4.677c-3.34-2.002-7.359-2.002-9.36-5.349-1.995-.665-4.677-.665-8.024-.665-2.66.665-6.014.665-8.688.665-.665 0 0-.665-1.322-2.002-4.02 2.002-8.703 2.002-12.715 6.021l3.347-8.023c2.667 0 4.676-2.002 6.678-2.002 2.017-.68 4.684-.68 6.686-.68v.68c8.031 0 16.704-.68 22.725 6.006zm100.238-6.014c0 2.682-.665 3.332-1.33 6.686-5.37-.672-4.676-6.02-6.043-6.686-2.674-3.997-8.008-1.337-12.02-1.337-.665-4.004 1.33-4.004 1.33-6.021 2.032 0 4.026-2.002 6.036-.65 3.324-1.352 5.326 1.987 8.68 1.987 1.33 2.024 2.682 4.684 3.347 6.021m-197.802-10.018c0 2.01-.673 10.683-.673 10.683-1.337-5.341-4.676-10.025-8.666-10.025-2.681-1.988-4.69-4.005-5.356-6.007-2.01-2.002-4.004-.672-6.678-2.002-2.682 0-6.021 0-9.353 1.33v-1.33l4.676-6.028c5.342 1.337 11.355 0 13.365 4.011 2.66 2.017 6.014 3.347 7.336 5.334v2.025c1.345.68 4.019 1.344 5.349 2.01m29.403-1.33c-2.681 1.987-5.356 1.987-8.023 1.33l-4.019-6.022c2.667.672 6.686.672 10.04 0zm116.958 3.339c0 3.332-4.707 8.008-6.014 10.69 1.307-4.02 1.987-10.69 0-10.69-1.352-.68-4.049.65-4.049-1.352 0-1.988.68-4.692.68-6.679 0-1.995-2.002-3.347-2.002-5.334 0-4.026 4.676-4.691 6.021-7.366 1.337 2.675.657 6.014.657 8.688.68 2.017 2.003 6 .68 9.368 0 1.995 4.027.665 4.027 2.675m-50.8 0c-3.346 0-6.028 0-8.023-3.34-.68 0-2.002-2.017-3.346-.68-2.667 2.668-6.672-2.024-10.69-1.337-2.01 2.017-4.692 3.347-7.351 4.005l-.673-.658c0-2.01 2.002-4.034 4.02-6.02 4.668 1.986 8.022-7.36 12.699-1.996 1.33.665 4.012.665 5.341.665 4.677 1.33 6.007 6.021 8.024 9.36m-47.453-4.018h-.657c-1.352 0-6.036-2.025-7.366-4.012-.657-1.33-.657-3.347-.657-3.347 1.987 0 3.339-.665 5.334-.665zm151.688 4.019c-4.684 0-1.995-9.36-12.042-9.36-2.66 0-3.99 3.316-6.664 4.003 0-.687.68-4.669.68-4.669 0-2.017.65-4.026 3.324-6.02 5.334 0 4.004 1.994 8.016 3.331 2.674.672 4.026 2.69 6.686 2.69zm-70.17-7.359c0 4.02-1.995 8.009-2.682 12.028 0-4.67-1.315-8.009-3.997-10.713 0-1.315 2.003-1.987.673-3.317 0 0-4.012-2.017-4.012-4.691 0-3.34 2.675-5.356 4.012-7.366 0-.65 2.66 1.367 2.66 5.371 0 1.33 0 2.682-.65 4.67-.68 2.016 3.996 2.016 3.996 4.018m32.75-13.372c0 2.675-1.344 4.684-.657 7.366-2.017-4.026-4.049-8.053-6.029-12.042-.672 0-1.322 0-1.322-.665l1.965-1.337c1.337 0 3.369 0 3.369 1.337 1.33 1.345 2.674 3.332 2.674 5.341m40.76 5.342c-2.032-.658-6.665-1.345-6.665-3.332 0-2.697-1.359-3.347-4.676-3.347-3.362 0-5.371.65-9.375 2.017 0 0-2.017-2.69-2.682-5.356 1.352-.665 6.686-2.69 9.36-2.69 4.706 0 10.018 0 10.018 2.69 0 2.002 4.02 3.34 4.02 10.018m-175.086-14.022c-.65 4.004-2.66 5.334-6.006 10.003-2.66 1.352-6.679 2.017-10.69 4.019.665-2.002 2.674-2.667 4.011-4.662 1.995-2.017 4.02-5.356 4.662-8.045 3.37-1.315 5.364-1.315 8.023-1.315m124.316 9.36c0 4.004-.687 9.36-.687 14.007-1.995 0-1.995-1.987-1.995-3.982-1.33-4.026-2.002-8.03-3.324-12.042-2.025-6.028-5.364-10.683-8.031-16.719-.672-3.331-4.034-4.676-6.686-6.678 3.332 0 6.686.665 9.353 2.682 0 2.002.657 2.674 2.66 4.684 4.698 0 4.026 5.998 8.023 9.353 0 .65-1.315.65-1.995 2.016-1.33 0-2.002 2.653-2.002 2.653 2.002 1.337 3.997 2.01 4.684 4.026m-137-15.381c-2.017 4.019-4.012 8.023-8.016 10.025-2.675 0-6.007 1.33-10.026 0 2.002-2.002 4.02-2.69 6.679-4.004l6.014-6.021zm40.086 10.025c-2.002 1.33-6.014 2.002-8.001 2.002-5.364-2.667-5.364-8.008-10.033-10.018-.68-.68-1.344-2.01-1.344-2.674l11.377 1.994c-.68 2.002.657 2.69 1.987 2.69 2.01 2.002 4.012 4.004 6.014 6.006m78.843 0c-.65 1.33-2.002 2.002-2.652 2.002 0 0-3.354-3.325-4.012-6.006-.687-3.34 1.33-8.024 1.33-8.024.665 0 1.33 1.338 2.682 1.338.65.665 0 2.674.65 4.684 1.352 2.002 3.354 4.004 2.002 6.006m-137.636-12.028-3.331 10.026c-3.355 3.332-8.024 2.002-12.028 2.002 6.014-2.002 10.018-8.016 12.028-12.028 1.322-.664 1.987 0 3.331 0m82.855 8.024h-1.995c-8.023 2.002-14.051-2.69-20.065-6.686 4.012-1.338 7.358-1.338 10.025-2.002h2.017l2.667 3.996c2.002.68 5.356 2.69 7.351 4.692m129.628-.673c-4.647 0-9.346-2.017-10.026-4.019-1.315-1.33-.65-3.996-3.332-3.996-1.98 0-3.332 2.002-3.332 2.002-2.024.665-6.028-2.002-6.028 0 0 3.346-3.325 4.684-6.021 4.684-1.995 0-2.66 0-4.677-.688v-6.686c9.368 0 8.696-3.331 12.707-3.331 2.667 0 4.677 2.01 7.351 2.01 3.332 0 1.352-1.33 4.684-1.33 3.362 0 4.655 2.651 7.351 3.339 0 2.002 1.323 4.676 1.323 8.015m-221.828-16.046c0 2.667-2.01 6.686-5.364 10.033-.65.665-2.66 1.994-2.66 1.994 0-3.996 2.01-8.015 2.01-11.362 1.995-.665 4.004-2.01 6.014-.665m104.242 8.695c-3.354 0-8.03 0-10.69-2.01-4.034-2.673-5.356-4.018-7.365-6.02 2.689-2.01 6.013-2.01 8.023-2.667 2.002 2.667 5.334 8.023 10.032 10.697m33.394-3.346c0 1.994-1.33 2.682-2.667 4.011 0 0-2.675-3.339-2.675-5.348 0-2.01 0-4.012.665-6.014 2.01 2.002 4.677 4.669 4.677 7.35m30.74 1.338c-6.006-4.02-10.01-10.033-15.344-16.032 5.334 0 7.336 5.327 11.333 6 1.352 1.344 2.689 2.001 4.011 4.01zm-124.293-16.711c0 4.69-.672 10.69-5.327 12.692l-2.024-6.686c2.675-1.315 4.691-3.325 7.351-6.006m-14.694 10.69c-4.012-4.012-7.373-8.009-7.373-12.013 2.024 0 4.019 0 6.035 2.002 0 3.34 1.995 6 1.338 10.01m191.116-.664c-6.02-2.674-14.71-5.334-19.386-5.334-2.66 0-10.69 3.332-14.022 6.664l-1.33-6.664c4.662-.672 4.662-4.012 7.322-4.012 2.017 0 4.691-.68 6.715-.68 1.98 0 3.31-2.001 4.677-2.001 2.66 0 1.315 4.004 3.99 4.004 2.016 0 2.681-1.323 4.683-1.323 3.362 0 6.679 5.327 7.351 9.346m-161.048.665c-3.354-2.01-9.353-2.667-8.688-6.671 2.002-3.34 4.004-4.02 5.334-6.021.68 4.683 1.345 8.68 3.354 12.692m61.482-4.012-3.34 1.345c-7.35 0-11.37-2.017-14.709-5.342 2.675 0 6.686-2.681 6.686-2.681 3.347 2.681 8.024 6.006 11.363 6.678m-130.292-6.678c-2.682 2.681-6.029 4.69-8.03 8.68 0-2.002-.658-3.99-1.33-5.999.672-2.002 2.674-4.004 4.004-4.683 1.344.68 3.339.68 5.356 2.002m85.507 8.023c-2.667.657-7.344 2.002-9.346-1.345-4.019-5.999-1.344-12.027.665-16.682 1.337 3.997 2.01 8.002 2.667 12.006.68 2.689 4.677 4.004 6.014 6.02m52.793-11.362c-2.674 1.338-8.008 2.017-12.012-.672l5.334-3.332c2.002 1.995 4.684 3.332 6.678 4.004m75.534-2.01c-4.041 0-5.371-.657-8.696-.657-2.696 0-6.693 1.995-9.367 4.684-1.345-2.017-.65-4.026 0-6.02 1.994-2.018 5.341-4.677 8.688-4.677 4.698 0 9.375 4.004 9.375 6.67m-197.145 7.352c-4.677-1.323-9.346-5.342-11.355-9.346-1.345-2.66-1.995-6.021-1.995-8.703 2.66.673 4.67 2.682 6.014 4.027v.65c2.66 4.026 6.671 8.03 7.336 13.372m8.688-11.363-1.33 9.36c-2.682-4.011-4.684-8.015-5.349-13.364zm68.825 8.038c-4.019 1.323-6.686-2.017-9.36-4.026-2.002-4.012-2.002-8.016-3.332-10.698 3.332 2.682 8.673 2.682 8.008 8.703 0 1.995 2.69 4.004 4.684 6.021m16.04-8.038c-4.012 0-8.689 2.017-10.684-2.01 1.323-.65 2.66-2.652 4.677-4.003zm104.25-6.686c-4.7-1.322-8.031-2.667-12.05-2.667-1.995 0-8.016 1.345-8.674 2.667-2.024-2.002 1.352-7.993 3.997-9.338 2.682-1.337 4.677-.665 6.044 0 0 4.012 4.654 2.01 7.328 3.332 1.33 1.995 2.697 4.004 3.354 6.006m-91.543-3.332c-1.344 2.01-3.346 0-4.69 0h-6.015c-.672-1.994-1.337-2.674-2.002-3.997 3.354-.664 5.342-2.01 7.359-.664 2.002 1.987 2.66 4.661 5.348 4.661m-57.492-10.683c-.65 4.012-2.002 10.683-5.999 12.693 0-2.01-2.01-4.004-3.346-6.007-.658 0 0 2.003-.658 2.003 0 1.994-.665 4.004-.665 7.35-2.024.658-4.699 2.003-7.358.658v-2.01c-1.345-1.994-1.345-4.004-1.345-5.998l-.65-.68c-1.352.68-1.352 2.674-1.352 4.004-.665.68-2.66 2.675-2.66 4.684-2.024 0-4.019-.658-6.035-2.01v-6.678c0-1.323 0-1.323-.658-1.323l-3.361 3.997c-2.638-2.674-3.31-8.016-3.31-12.035 11.34-6.006 24.705-4.004 33.408-.642 1.322.642 2.66.642 3.99 1.994m52.143-5.356c-4.005 0-6.029-2.002-8.024-6.013 0-1.995-.68-4.684 0-8.016.665 2.002 1.33 4.011 2.667 5.334 2.675-1.323 2.675 2.002 3.34 2.682.68 2.009 2.017 4.011 2.017 6.013m-14.695-32.758c0 .688-1.352 6.014-1.352 6.014l-5.349 2.024 3.354-15.381c1.323 2.667 3.347 5.349 3.347 7.343m-106.244-11.355-2.689 4.012c.673 7.343-2.66 12.035-2.66 18.041l-3.346-10.698c.665-3.331 1.345-6.006 3.347-9.345zm104.893 42.111c-8.023-4.691-17.383-8.016-27.401-8.695 0 2.002 0 4.004-.665 4.684 8.023 4.011 16.031 8.015 22.717 14.036v6.022c-6.686-6.687-14.694-14.045-24.062-16.047-.665 1.337-2.652 3.34-4.004 5.364-4.684-3.362-10.025-6.029-16.024-7.366-2.025 0-2.675-2.69-2.675-4.691l-.68-3.332c3.355-.673 6.03-3.347 6.694-6.679.658.665 1.995.665 3.325.665 1.344-.665 1.344-2.01 1.344-4.019 0-3.997-8.68-3.997-12.692-3.997-4.677 0-8.03-.687-11.363 2.002-1.337 0-.68 1.995-.68 3.34 0 .665 2.017 2.01 2.017 2.01 1.995 0 2.675-1.345 4.02-1.345-.688 4.011 1.33 6.678 4.661 8.023l-.65 6.014c-2.017 2.009-5.356.664-8.03 2.009-4.012 2.002-8.016 4.004-12.028 6.006-1.995-2.002-3.34-4.004-4.67-6.006-6.685 2.002-10.69 6.006-17.368 10.025-2.01 1.337-5.356 4.012-5.356 4.012-.665-.665 0-2.675 0-4.677 6.006-6.02 14.03-8.023 20.715-12.05v-5.333c-2.674-.673-5.341 0-8.68 0-6.029 1.33-12.035 4.019-16.704 7.343 0-2.01-1.345-4.011.657-5.334 7.359-4.011 16.047-6.686 25.392-6.02v-2.668c-.665-1.344-.665-3.354-2.01-3.354-3.996-4.684-8-10.01-8-14.694l1.994-1.352c-1.33-3.997-1.994-14.03 0-18.699-4.004-1.337-8.008-5.349-9.338-8.016-1.344-3.354-2.689-5.349-3.346-9.36 1.337-4.004 3.346-6.014 5.326-10.026 1.345 0 3.354-.664 4.02-2.01 3.338-.664 6.013-4.01 10.025-2.001 2.674 0 5.348 1.337 7.343 2.002 0 1.345 0 2.01 2.017 3.347 3.975.665 3.975 4.684 5.999 8.008 1.995.68 4.011.68 6.006.68 4.02 1.33 6.686 1.33 8.71 3.34 5.327-3.34 11.348-4.02 17.347-3.34.68-2.675 2.024-4.684 2.682-8.023 1.352 1.337.672-.665 2.01-.665 3.339-2.002 6.678-5.35 11.362-4.012 3.332 2.01 8.008.665 10.025 4.677 2.667 2.009 4.005 6.02 6.014 10.025-2.01 4.004 0 10.025-4.019 12.02l-4.012 4.026c-1.33 0-2.002 1.323-4.011 1.323 2.01 4.684.672 12.05-1.337 16.704 1.337-.658 3.346-.658 4.019-2.66.665.665 0 2.002 0 2.66-.673 1.352-.673 2.017-.673 2.017.673 4.019-2.01 7.343-4.676 10.032-1.33 3.997-4.677 9.353-9.353 10.018v2.01c10.018 0 18.72 2.002 28.066 7.336zm150.328-44.113c-2.01-2.002-4.004-4.011-6.678-4.011-1.988-2.675-4.64-6.007-7.359-6.007 2.025-.672 4.692-2.01 8.031-2.01 2.002 3.333 3.997 6.007 4.677 8.017zm-256.565-8.016-4.677 1.995.673-3.997c1.33-2.01 2.002-4.026 4.004-6.02zm235.214-6.678c-2.674 0-4.661.65-7.387 0-1.308-1.345-3.303 0-4.633.65-1.359 0-2.667-.65-4.676-1.995 3.99 0 6.006-2.667 9.309-4.019 2.726 2.01 5.363 3.354 7.387 5.364m-147.69 193.148c0-2.667-2.01-4.012-4.677-4.012-2.002 0-4.676 2.675-4.676 4.012 0 2.682-2.01 18.041-2.01 18.041h5.35c2.009-6.679 6.013-14.702 6.013-18.041m-15.36-.687h-.68l-5.333-5.334h-.68c-1.33 1.322-2.01 3.354-3.34 5.334 0 6.036 2.01 12.73 3.34 18.728h6.014c0-6.679.68-12.692.68-18.728m107.589-8.016-6.671.672c1.994 2.01 1.994 4.684 1.994 6.021 0 2.01-.672 4.005-1.994 5.35-2.025-1.345-2.025-3.34-3.37-5.35-1.337 0-1.994 3.325-1.994 4.692 0 6.678 2.66 11.37 4.684 15.36h6.686c-.687-6-2.002-10.699-2.002-16.727 0-3.325 2.002-7.336 2.667-10.018m151-64.164c0-28.066-9.345-58.135-34.752-83.527-4.049-4.011-9.339-8.703-14.71-12.034-10.025-6.672-19.348-16.047-24.727-26.065-3.339-4.019-6.006-6.02-10.032-8.016.687 1.995 2.002 3.997 2.674 6.007h-.672c-3.982 0-7.314-2.01-10.026-4.012l2.712-2.667c-.673-1.337-2.712-1.337-4.049-1.337-11.983-2.002-22.016 4.004-32.706 6.006v1.352c6.679 2.667 8.03 10.69 12.013 14.695h4.048c1.98 0 3.997 2.01 5.312 1.344 0-1.344-1.315-3.354-1.315-4.019 1.315-1.33 2.667-1.33 3.997 0 3.325 2.002 8.651-1.33 11.318 4.02-3.974 0-7.993.664-11.318 1.994 0 .672 2.032 2.674 1.337 4.026-3.34-1.352-7.35 0-9.33-3.354l-.695 1.337c4.691 4.677 10.72 8.689 16.726 10.705 9.33 2.003 17.347-2.681 26.042-.68 10.033 4.677 18.034 10.698 24.72 17.384 22.053 23.39 30.09 48.103 30.09 70.155 0 27.41-8.037 46.795-20.057 58.823-7.373 7.373-16.719 14.036-28.082 14.036-2.66 0-8.023-.672-11.355-3.339 1.995-8.03 3.332-16.711 3.332-29.396 0-7.38 0-26.744-9.338-49.47-2.024-4.676-9.383-19.392-18.72-29.395-7.352-7.359-16.04-14.045-24.698-14.045-4.027 0-8.038.673-11.393 3.362-3.324 3.324-5.334 8.68-4.654 12.677-6.021 3.332-14.716 6.014-22.067 6.014-8.681 0-18.027-4.684-26.065-10.01v-10.04c-4.676-2.003-6.006-4.005-6.664-8.016l.658-.68c2.002.68 3.361 2.01 4.676 2.689-.664-4.691-1.315-10.025-3.996-14.037-2.01 0-4.012-.665-6.036-2.01-2.653-2.009-3.997-4.669-3.997-8.015 2.017 3.346 5.349 2.01 7.35 4.011-3.353-8.015-2.001-12.034-8.022-24.727-1.995-6.028-8.016-9.36-12.028-13.372-1.995-2.01-2.674-4.019-6.006-4.019-2.002-.672-2.002-3.997-2.66-6.006 1.33 0 2.66 1.337 3.997 2.01-3.34-10.026-6.679-20.059-16.054-26.072l-1.33 1.344c-4.011.65-8.008.65-11.355.65 1.33-1.994 4.005-2.66 6.679-3.99-2.674-2.009-4.67-2.68-8.68-2.68-1.345.671-4.685 2.68-7.352 2.68h-.672c0-2.009-.658-4.698 3.34-6.02-3.998-.68-7.352-.68-12.02 0-.68 3.34-3.347 5.349-3.347 8.016-2.003 1.994-2.675 4.004-4.67 6.013 0-4.669 1.995-8.68 2.667-12.707-2.667.673-5.999 2.69-8.023 2.69-5.349-2.69-12.027-6.022-14.716-6.022 4.019 3.332 2.024 8.03 2.689 12.02l-2.69-1.994c-1.314-2.667-3.974-4.677-5.326-8.016-4.004 0-6.679 1.322-10.018 3.34l-.657.671c2.667 0 5.34 2.01 6.67 4.005-4.683 0-8.015-1.995-12.684-1.995 0 0 0-.672-1.345-.672-2.01.672-4.019 2.667-5.356 4.011-4.67 3.997-8.008 8.016-10.683 14.03 1.345 0 3.347 0 4.02.672-2.018 1.33-4.02 4.012-6.68 5.334v10.04c-2.002 2.667-4.676 4.662-6.02 8.016-3.347 12.027-4.012 24.735-4.012 38.764-1.337 2.002-2.675 2.667-3.99 3.347v12.027s4.655-4.684 6.664-6.028c0 2.682-.665 6.693-.665 9.368-2.01 0-4.684 2.689-4.684 5.348 0 2.675.665 5.357.665 8.024 0 1.315 0 1.994.673 3.324.672-1.33 2.002-3.324 3.346-4.004.665 0 2.002-1.323 4.005-1.323-1.33 2.003-2.003 5.327-3.34 8.002l-2.01 2.009s-.664 1.345-.664 1.995c2.01 14.051 6.678 27.416 12.035 41.453-4.684 9.338-9.36 19.378-11.37 26.722-2.002 5.349-4.655 16.046-4.655 16.046-3.346-3.332-8.038-4.004-12.05-4.004-4.668.672-8.68 2.002-12.027 6.006-4.004-2.002-9.353-1.337-12.027 2.002-6.006 5.371-6.006 8.031-6.006 12.035-2.01 2.01-4.684 5.364-4.684 10.026 0 6.693 1.344 10.682 4.684 16.046h106.222c-1.33-2.002-2.674-4.676-4.011-6.679-1.995-4.019-.658-9.367-.658-13.372 1.995-4.011 4.67-8.023 6.693-12.027.643-2.002 0-2.002 1.33-2.682l4.677-1.995c2.66 0 4.684-1.352 8.023-1.352 2.66 3.347 2.66-2.667 6.014-4.004 8.023-.672 14.694 0 18.706 6.007 0 1.344 1.337 1.344 1.337 2.024h-3.347c-4.011-2.024-9.353-4.027-14.037-2.024 0 2.024-.672 2.024-.672 4.026v3.34c2.682.664 4.684 2.666 7.358 4.676 1.33-2.682 5.35-4.677 8.681-4.677 3.347 0 8.696 1.995 8.696 8.03 0 2.668-.673 5.35-.673 8.017 2.667 1.994 6.686 2.645 10.033 4.661-1.345 2.032-3.347 2.032-5.341 2.032h-6.029c-.672-.68-2.01-.68-2.01-2.032-2.001 2.032-3.339 5.357-4.676 8.031h81.54c-1.337-2.674-2.697-4.676-3.347-6.679-2.002-4.019-1.352-9.367-2.002-13.372l8.008-10.675c4.027 0 8.031-1.352 15.375-2.01 1.322-2.024 0-3.368 5.999-4.019 5.341 0 8.702 1.995 10.054 2.675.65 1.344.65 1.344 0 2.682-1.352 1.322-4.019-1.338-6.028-.68-1.33 1.352.672 2.002.672 3.34 1.337 1.33-6.006-1.338-6.006-1.338s-2.017 4.004-2.682 6.014c0 0 3.34 2.01 3.99 4.011 1.352 2.01-1.308 4.005-1.308 6.022-2.017-.673-4.049-2.697-4.691-2.017-1.338 5.348 0 10.047-.695 16.046h7.373l1.337-12.035c.68-6.693 8.689-19.363 13.365-19.363 3.362 0 4.691 1.322 7.366 3.324 1.98 2.002 4.654 4.012 4.654 5.334 0 .687-1.995 2.032-5.334 2.032-1.33 0-1.995-2.032-3.324-3.354l-4.027 4.011s4.677 4.005 4.677 7.359c0 2.645-.65 4.661-3.347 6.013l-3.99-8.023c-2.002 0-5.378 4.004-5.378 6.671s-1.337 4.042-1.337 8.031h43.418c4.714 0 8.71-1.352 13.402-3.99h8.673c12.05 0 27.417-2.009 43.426-17.398 25.4-24.055 26.744-56.827 26.744-69.52m-270.617 90.908c-3.34-6.679-4.012-16.046-4.012-18.041 0-4.012 0-8.703 1.995-12.035l-8 2.002c-1.353 2.002-2.018 4.012-2.018 5.334l2.667-1.322c1.345 0 2.024 1.322 2.675 2.01-.65 4.01-4.677 4.01-6.694 5.326-1.987 6.679 4.02 10.727 5.364 16.726z" fill="#eb6606"/></svg>