<?xml version="1.0" encoding="utf-8"?>
<!-- Generator: Adobe Illustrator 22.1.0, SVG Export Plug-In . SVG Version: 6.00 Build 0)  -->
<svg version="1.1" id="Layer_1" xmlns="http://www.w3.org/2000/svg" xmlns:xlink="http://www.w3.org/1999/xlink" x="0px" y="0px"
	 viewBox="0 0 2500 497.6" style="enable-background:new 0 0 2500 497.6;" xml:space="preserve">
<style type="text/css">
	.st0{fill:#000100;}
	.st1{fill:#0082C0;}
	.st2{fill:#FFFFFF;}
</style>
<path class="st0" d="M468.5,188.4c0-31.7,31.1-38.3,56.8-38.3c36.5,0,58.6,13.8,70.6,48.5l81.3-26.9
	c-25.1-71.2-83.8-96.3-155.5-96.3c-37.7,0-73,8.4-102.9,33.5c-29.3,24.5-44.3,58-44.3,96.3c0,89.7,71.8,111.3,144.8,126.2
	c25.1,5.4,71.8,11.9,71.8,46c0,34.1-36.5,44.3-64,44.3c-42.5,0-73.6-15-85.5-58L353.1,384c18.6,80.1,88.5,113.6,165.7,113.6
	c41.3,0,86.1-7.8,119-33.5c31.7-24.5,50.8-62.8,50.8-102.9c0-40.7-20.3-74.8-53.8-96.9c-28.7-19.1-73.6-27.5-107.1-34.7
	C504.4,225.5,468.5,218.3,468.5,188.4 M886.7,416.9c-10.2,15.6-26.4,25.1-44.3,25.1c-24.5,0-38.9-16.2-38.9-40.1
	c0-44.3,61.6-52.1,95.1-55.7v12C898.6,379.8,899.2,397.7,886.7,416.9 M988.3,446.2V304.4c0-36.4,3-70-28.1-95.1
	c-24.5-20.4-65.2-27.5-96.3-27.5c-64,0-135.8,21.5-144.8,95.1l83.2,7.8c0-29.9,24.5-44.3,52.6-44.3c13.2,0,28.1,4.2,35.9,14.3
	c9,11.3,7.8,26.9,7.8,40.1v7.2c-37.1,3.6-85.6,6-120.2,19.2c-40.1,14.9-68.2,45.4-68.2,90.3c0,57.4,41.9,86.1,95.7,86.1
	c45.5,0,71.8-17.3,96.9-53.2c-0.6,15.6,0.6,31.7,4.2,47.3h87.3C989.5,476.7,988.3,461.7,988.3,446.2 M1222.9,339.7
	c0,32.9,0,96.3-49.7,96.3c-16.1,0-28.7-7.8-37.1-21c-9.6-15-10.2-34.1-10.2-50.8v-43.7c0-32.3,6-78.3,48.5-78.3
	C1222.9,242.2,1222.9,305.6,1222.9,339.7 M1314.3,339.7c0-71.8-26.3-157.9-113-157.9c-34.1,0-59.2,14.3-74.2,44.2h-2.4V81.3h-87.9
	v410.3h47.8c5.4-16.1,9-33.5,19.7-46.6c22.2,36.5,43.1,52.6,86.7,52.6C1282.7,497.6,1314.3,419.2,1314.3,339.7 M1508.8,416.9
	c-10.2,15.6-26.3,25.1-44.3,25.1c-24.5,0-38.9-16.2-38.9-40.1c0-44.3,61.6-52.1,95.1-55.7v12
	C1520.8,379.8,1521.4,397.7,1508.8,416.9 M1610.5,446.2V304.4c0-36.4,3-70-28.2-95.1c-24.5-20.4-65.2-27.5-96.3-27.5
	c-64,0-135.8,21.5-144.8,95.1l83.2,7.8c0-29.9,24.5-44.3,52.7-44.3c13.2,0,28.2,4.2,35.9,14.3c9,11.3,7.8,26.9,7.8,40.1v7.2
	c-37.1,3.6-85.5,6-120.3,19.2c-40.1,14.9-68.2,45.4-68.2,90.3c0,57.4,41.9,86.1,95.7,86.1c45.4,0,71.8-17.3,96.9-53.2
	c-0.6,15.6,0.6,31.7,4.2,47.3h87.3C1611.7,476.7,1610.5,461.7,1610.5,446.2 M1830.6,364.9c0,14.9-0.6,31.1-7.8,44.9
	c-7.2,13.8-22.1,24.5-38.3,24.5c-43.7,0-48.4-55.7-48.4-88.5c0-36.5,1.8-102.3,52-102.3c40.1,0,42.5,50.3,42.5,79.6L1830.6,364.9
	L1830.6,364.9z M1834.8,491.6h83.7V81.3h-87.9v138.8c-19.2-28.1-41.9-38.3-76-38.3c-88.5,0-111.3,89.1-111.3,161.5
	c0,70.6,23.9,154.3,109.4,154.3c38.9,0,64.1-20.9,80.8-53.2h1.2L1834.8,491.6z M2153.6,302.6h-107.7c3-34.7,18-63.4,56.9-63.4
	C2141.1,239.2,2151.8,269.7,2153.6,302.6 M2046.5,354.7h195c0.6-41.3-5.9-84.4-31-119c-25.1-34.7-68.8-53.8-111.3-53.8
	c-94.5,0-147.7,72.4-147.7,162.1c0,90.3,59.2,153.8,150.1,153.8c102.9,0,138.2-89.7,138.2-104.7l-81.4-6c0,28.1-26.9,47.9-53.8,47.9
	c-38.3,0-58.6-29.3-58.6-65.2L2046.5,354.7z M2280.4,491.6h87.9V81.3h-87.9V491.6z M2500,81.3h-88v410.3h88L2500,81.3z"/>
<path class="st1" d="M325.6,162.8C325.6,72.9,252.7,0,162.8,0C72.9,0,0,72.9,0,162.8s72.9,162.8,162.8,162.8
	C252.7,325.5,325.6,252.7,325.6,162.8"/>
<path class="st2" d="M193.4,193.5c0,6.6-3.1,13.3-8.5,16.8c-5.9,4-14.7,3.6-21.6,3.6h-26.4v-39.2h28c6.2,0,13.8,0,19.2,3.1
	C189.6,181,193.4,187.4,193.4,193.5 M189.8,127.3c0,5.5-2.4,11.4-6.9,14.7c-5.7,4.3-13.5,3.8-20.2,3.8h-25.9v-35.6h23
	c6.4,0,16.4-0.7,21.8,2.4C186.9,115.7,189.8,121.4,189.8,127.3 M228.9,124c0-15.4-6.9-27.3-19.9-35.6c-11.1-7.1-24.4-7.1-37.2-7.1
	H98.9v162.8h72.9c14,0,29.9,0,41.8-8.8c11.4-8.3,19.9-20.9,19.9-35.1c0-21.1-13.8-36.5-33.9-40.6v-0.5
	C216.6,154.9,228.9,142.5,228.9,124"/>
</svg>
