<svg version="1.1" id="Layer_1" xmlns:x="ns_extend;" xmlns:i="ns_ai;" xmlns:graph="ns_graphs;" xmlns="http://www.w3.org/2000/svg" xmlns:xlink="http://www.w3.org/1999/xlink" x="0px" y="0px" viewBox="0 0 69.5 50" style="enable-background:new 0 0 69.5 50;" xml:space="preserve">
 <style type="text/css">
  .st0{fill-rule:evenodd;clip-rule:evenodd;}
	.st1{fill-rule:evenodd;clip-rule:evenodd;fill:#006DFF;}
 </style>
 <metadata>
  <sfw xmlns="ns_sfw;">
   <slices>
   </slices>
   <sliceSourceBounds bottomLeftOrigin="true" height="50" width="69.5" x="-108.7" y="-0.2">
   </sliceSourceBounds>
  </sfw>
 </metadata>
 <g>
  <g>
   <g>
    <path class="st0" d="M68.4,17.2c-2.5-7.2-8.5-9.7-15.7-9.7c-3.8,0-7.4,0.8-10.4,3.4c-3,2.5-4.5,5.8-4.5,9.7
				c0,9,7.2,11.2,14.6,12.7c2.5,0.5,7.2,1.2,7.2,4.6c0,3.4-3.7,4.4-6.5,4.4c-4.3,0-7.4-1.5-8.6-5.8l-8.9,2
				C37.5,46.6,44.6,50,52.4,50c4.2,0,8.7-0.8,12-3.4c3.2-2.5,5.1-6.3,5.1-10.3c0-4.1-2.1-7.5-5.4-9.7c-2.9-1.9-7.4-2.8-10.8-3.5
				c-2.4-0.4-6-1.1-6-4.1c0-3.2,3.1-3.9,5.7-3.9c3.7,0,5.9,1.4,7.1,4.9L68.4,17.2z">
    </path>
    <path class="st1" d="M16.4,0c9.1,0,16.4,7.3,16.4,16.4c0,9-7.4,16.4-16.4,16.4C7.4,32.7,0,25.4,0,16.4C0,7.3,7.4,0,16.4,0z
				 M17.3,8.2H10v16.4l7.6,0c1.3,0,2.8-0.1,3.9-0.9c1.2-0.8,2-2.1,2-3.5c0-2.1-1.4-3.7-3.4-4.1v0c1.7-0.4,3-1.7,3-3.5
				c0-1.6-0.7-2.7-2-3.6C20,8.2,18.6,8.2,17.3,8.2z M16.6,17.6c0.6,0,1.4,0,1.9,0.3c0.6,0.3,0.9,0.9,0.9,1.6c0,0.7-0.3,1.3-0.9,1.7
				c-0.6,0.4-1.5,0.4-2.2,0.4h-2.7v-3.9H16.6z M16.1,11.1c0.6,0,1.7-0.1,2.2,0.2c0.5,0.3,0.8,0.9,0.8,1.5c0,0.6-0.2,1.1-0.7,1.5
				c-0.6,0.4-1.4,0.4-2,0.4h-2.6v-3.6H16.1z">
    </path>
   </g>
  </g>
 </g>
</svg>