<svg width="48" height="48" viewBox="0 0 48 48" fill="none" xmlns="http://www.w3.org/2000/svg">
<path d="M41.4433 28.0552C40.6016 24.7857 36.3609 19.9509 32.5 16.4587C32.1174 16.5978 31.7181 16.4587 31.2937 16.4587H16.7059C16.2816 16.4587 15.3826 16.5978 15 16.4587C11.1391 19.9509 7.39809 24.7857 6.55635 28.0552C4.28853 36.89 6.56338 42.5 24.0033 42.5C41.4433 42.5 43.7111 36.89 41.4433 28.0552ZM31.4329 28.9178L29.0329 31.2552L29.5964 34.5526C29.8537 36.0413 28.2955 37.1683 26.9668 36.4657L24.0033 34.9074L21.0329 36.4657C19.7042 37.1683 18.1459 36.0413 18.4033 34.5526L18.9668 31.2552L16.5668 28.9178C15.4955 27.8674 16.0868 26.0378 17.5755 25.8222L20.8937 25.3422L22.3755 22.337C23.0364 20.9874 24.9633 20.9874 25.6311 22.337L27.1129 25.3422L30.4242 25.8222C31.9129 26.0378 32.5042 27.8674 31.4329 28.9178Z" fill="black"/>
<path d="M32.35 14.25H15.15L11 6H36.45L32.35 14.25Z" fill="black"/>
</svg>
