<svg xmlns="http://www.w3.org/2000/svg" version="1.1" xmlns:xlink="http://www.w3.org/1999/xlink" xmlns:svgjs="http://svgjs.com/svgjs" width="512" height="512" x="0" y="0" viewBox="0 0 512 512" style="enable-background:new 0 0 512 512" xml:space="preserve"><g>
<rect xmlns="http://www.w3.org/2000/svg" style="" width="512" height="512" fill="#d80027" data-original="#d80027"></rect>
<rect xmlns="http://www.w3.org/2000/svg" width="170.663" height="512" fill="#000000" data-original="#000000"></rect>
<rect xmlns="http://www.w3.org/2000/svg" x="341.337" style="" width="170.663" height="512" fill="#496e2d" data-original="#496e2d"></rect>
<g xmlns="http://www.w3.org/2000/svg">
	<path style="" d="M256,183.652c-39.956,0-72.348,32.392-72.348,72.348s32.392,72.348,72.348,72.348   s72.348-32.392,72.348-72.348S295.956,183.652,256,183.652z M256,301.217c-24.973,0-45.217-20.244-45.217-45.217   s20.244-45.217,45.217-45.217s45.217,20.244,45.217,45.217S280.973,301.217,256,301.217z" fill="#ffda44" data-original="#ffda44"></path>
	<path style="" d="M256,228.87c-9.99,0-18.087,8.097-18.087,18.087v27.13h36.174v-27.13   C274.087,236.967,265.99,228.87,256,228.87z" fill="#ffda44" data-original="#ffda44"></path>
</g>
<g xmlns="http://www.w3.org/2000/svg">
</g>
<g xmlns="http://www.w3.org/2000/svg">
</g>
<g xmlns="http://www.w3.org/2000/svg">
</g>
<g xmlns="http://www.w3.org/2000/svg">
</g>
<g xmlns="http://www.w3.org/2000/svg">
</g>
<g xmlns="http://www.w3.org/2000/svg">
</g>
<g xmlns="http://www.w3.org/2000/svg">
</g>
<g xmlns="http://www.w3.org/2000/svg">
</g>
<g xmlns="http://www.w3.org/2000/svg">
</g>
<g xmlns="http://www.w3.org/2000/svg">
</g>
<g xmlns="http://www.w3.org/2000/svg">
</g>
<g xmlns="http://www.w3.org/2000/svg">
</g>
<g xmlns="http://www.w3.org/2000/svg">
</g>
<g xmlns="http://www.w3.org/2000/svg">
</g>
<g xmlns="http://www.w3.org/2000/svg">
</g>
</g></svg>