<svg xmlns="http://www.w3.org/2000/svg" version="1.1" xmlns:xlink="http://www.w3.org/1999/xlink" xmlns:svgjs="http://svgjs.com/svgjs" width="512" height="512" x="0" y="0" viewBox="0 0 512 512" style="enable-background:new 0 0 512 512" xml:space="preserve"><g>
<rect xmlns="http://www.w3.org/2000/svg" width="512" height="512" fill="#000000" data-original="#000000"></rect>
<rect xmlns="http://www.w3.org/2000/svg" style="" width="512" height="256" fill="#d80027" data-original="#d80027"></rect>
<g xmlns="http://www.w3.org/2000/svg">
	<polygon style="" points="232.598,221.075 247.067,231.574 241.554,248.579 256.01,238.063 270.48,248.563    264.944,231.563 279.402,221.046 261.525,221.057 255.99,204.058 250.475,221.064  " fill="#ffda44" data-original="#ffda44"></polygon>
	<path style="" d="M298.666,182.099c-13.449-7.765-28.153-11.43-42.666-11.404v22.255   c10.728-0.019,21.595,2.688,31.536,8.427c30.119,17.389,40.476,56.04,23.086,86.158c-17.388,30.119-56.04,40.476-86.158,23.087   c-8.774-5.065-15.858-11.944-21.08-19.882l-18.584,12.27c7.066,10.739,16.662,20.037,28.533,26.891   c40.75,23.526,93.04,9.515,116.567-31.234C353.427,257.918,339.416,205.626,298.666,182.099z" fill="#ffda44" data-original="#ffda44"></path>
	<path style="" d="M206.792,241.16c-5.9,10.786-1.939,24.313,8.846,30.214l72.299,39.506   c-4.916,8.988-2.306,19.927,6.682,24.843l19.531,10.683c8.988,4.917,20.261,1.616,25.178-7.372l10.683-19.529L206.792,241.16z" fill="#ffda44" data-original="#ffda44"></path>
</g>
<g xmlns="http://www.w3.org/2000/svg">
</g>
<g xmlns="http://www.w3.org/2000/svg">
</g>
<g xmlns="http://www.w3.org/2000/svg">
</g>
<g xmlns="http://www.w3.org/2000/svg">
</g>
<g xmlns="http://www.w3.org/2000/svg">
</g>
<g xmlns="http://www.w3.org/2000/svg">
</g>
<g xmlns="http://www.w3.org/2000/svg">
</g>
<g xmlns="http://www.w3.org/2000/svg">
</g>
<g xmlns="http://www.w3.org/2000/svg">
</g>
<g xmlns="http://www.w3.org/2000/svg">
</g>
<g xmlns="http://www.w3.org/2000/svg">
</g>
<g xmlns="http://www.w3.org/2000/svg">
</g>
<g xmlns="http://www.w3.org/2000/svg">
</g>
<g xmlns="http://www.w3.org/2000/svg">
</g>
<g xmlns="http://www.w3.org/2000/svg">
</g>
</g></svg>