<svg xmlns="http://www.w3.org/2000/svg" version="1.1" xmlns:xlink="http://www.w3.org/1999/xlink" xmlns:svgjs="http://svgjs.com/svgjs" width="512" height="512" x="0" y="0" viewBox="0 0 512 512" style="enable-background:new 0 0 512 512" xml:space="preserve"><g>
<path xmlns="http://www.w3.org/2000/svg" style="" d="M21.858,0H0v13.62l4.499,13.833l27.548-0.017L9.765,43.63l8.525,26.21L0,56.558V512h450.359  l-21.591-15.678l27.548-0.018l8.508-26.21l8.525,26.21l27.548-0.017L479.275,512H512v-21.857L21.858,0z M20.612,116.742l8.49-26.193  l-22.3-16.191l27.548-0.018l8.508-26.21l8.525,26.21l27.548-0.017L56.649,90.515l8.526,26.21l-22.299-16.193L20.612,116.742z   M67.497,163.627l8.491-26.193L53.69,121.242l27.548-0.018l8.508-26.209l8.525,26.209l27.548-0.017L103.535,137.4l8.526,26.21  l-22.299-16.193L67.497,163.627z M114.382,210.512l8.491-26.192l-22.3-16.193l27.548-0.018l8.508-26.21l8.525,26.21l27.548-0.017  l-22.282,16.193l8.525,26.21l-22.299-16.193L114.382,210.512z M161.267,257.397l8.49-26.193l-22.299-16.193l27.548-0.018  l8.508-26.21l8.525,26.21l27.548-0.017l-22.282,16.193l8.526,26.21l-22.299-16.193L161.267,257.397z M208.151,304.282l8.491-26.193  l-22.299-16.193l27.548-0.018l8.508-26.209l8.525,26.209l27.548-0.017l-22.282,16.193l8.526,26.21l-22.299-16.193L208.151,304.282z   M255.037,351.166l8.491-26.192l-22.3-16.193l27.548-0.018l8.508-26.21l8.525,26.21l27.548-0.017l-22.282,16.193l8.525,26.21  l-22.299-16.193L255.037,351.166z M301.922,398.052l8.49-26.193l-22.299-16.193l27.548-0.018l8.508-26.21l8.525,26.21l27.548-0.017  l-22.282,16.193l8.526,26.21l-22.299-16.193L301.922,398.052z M348.807,444.937l8.491-26.193l-22.299-16.193l27.548-0.018  l8.508-26.209l8.525,26.209l27.548-0.017l-22.282,16.193l8.526,26.21l-22.299-16.193L348.807,444.937z M440.255,491.805  l-22.299-16.193l-22.265,16.209l8.491-26.192l-22.3-16.193l27.548-0.018l8.508-26.21l8.525,26.21l27.548-0.017l-22.282,16.193  L440.255,491.805z" fill="#001e96" data-original="#0052b4"></path>
<polygon xmlns="http://www.w3.org/2000/svg" style="" points="512,0 21.857,0 21.858,0 512,490.143 " fill="#ffda44" data-original="#ffda44"></polygon>
<g xmlns="http://www.w3.org/2000/svg">
	<polygon style="" points="9.765,43.63 32.047,27.438 4.499,27.454 0,13.621 0,56.558 18.291,69.84  " fill="#f0f0f0" data-original="#f0f0f0"></polygon>
	<polygon style="" points="56.649,90.515 78.933,74.322 51.385,74.339 42.859,48.129 34.351,74.339 6.803,74.357    29.103,90.549 20.612,116.742 42.877,100.532 65.175,116.725  " fill="#f0f0f0" data-original="#f0f0f0"></polygon>
	<polygon style="" points="103.535,137.4 125.817,121.207 98.269,121.224 89.745,95.015 81.235,121.224    53.689,121.242 75.987,137.434 67.497,163.627 89.761,147.417 112.06,163.61  " fill="#f0f0f0" data-original="#f0f0f0"></polygon>
	<polygon style="" points="150.42,184.285 172.702,168.092 145.154,168.109 136.629,141.9 128.121,168.109    100.573,168.126 122.872,184.319 114.382,210.512 136.646,194.302 158.945,210.494  " fill="#f0f0f0" data-original="#f0f0f0"></polygon>
	<polygon style="" points="197.305,231.17 219.587,214.978 192.039,214.994 183.514,188.784 175.006,214.994    147.458,215.012 169.757,231.204 161.267,257.397 183.531,241.188 205.831,257.38  " fill="#f0f0f0" data-original="#f0f0f0"></polygon>
	<polygon style="" points="244.189,278.055 266.473,261.862 238.925,261.879 230.399,235.67 221.891,261.879    194.344,261.897 216.643,278.089 208.151,304.282 230.417,288.072 252.715,304.265  " fill="#f0f0f0" data-original="#f0f0f0"></polygon>
	<polygon style="" points="291.075,324.94 313.357,308.747 285.81,308.764 277.285,282.555 268.777,308.764    241.229,308.782 263.527,324.974 255.037,351.166 277.301,334.957 299.6,351.15  " fill="#f0f0f0" data-original="#f0f0f0"></polygon>
	<polygon style="" points="337.96,371.824 360.242,355.633 332.694,355.65 324.169,329.44 315.661,355.65    288.113,355.666 310.412,371.859 301.922,398.052 324.186,381.842 346.485,398.034  " fill="#f0f0f0" data-original="#f0f0f0"></polygon>
	<polygon style="" points="384.845,418.71 407.127,402.518 379.579,402.534 371.054,376.324 362.546,402.534    334.998,402.552 357.298,418.744 348.807,444.937 371.072,428.727 393.371,444.919  " fill="#f0f0f0" data-original="#f0f0f0"></polygon>
	<polygon style="" points="426.464,449.419 417.94,423.209 409.431,449.419 381.883,449.437 404.183,465.629    395.691,491.822 417.957,475.612 440.255,491.805 431.729,465.595 454.012,449.402  " fill="#f0f0f0" data-original="#f0f0f0"></polygon>
	<polygon style="" points="473.35,496.304 464.825,470.095 456.316,496.304 428.769,496.322 450.359,512 479.275,512    500.897,496.287  " fill="#f0f0f0" data-original="#f0f0f0"></polygon>
</g>
<g xmlns="http://www.w3.org/2000/svg">
</g>
<g xmlns="http://www.w3.org/2000/svg">
</g>
<g xmlns="http://www.w3.org/2000/svg">
</g>
<g xmlns="http://www.w3.org/2000/svg">
</g>
<g xmlns="http://www.w3.org/2000/svg">
</g>
<g xmlns="http://www.w3.org/2000/svg">
</g>
<g xmlns="http://www.w3.org/2000/svg">
</g>
<g xmlns="http://www.w3.org/2000/svg">
</g>
<g xmlns="http://www.w3.org/2000/svg">
</g>
<g xmlns="http://www.w3.org/2000/svg">
</g>
<g xmlns="http://www.w3.org/2000/svg">
</g>
<g xmlns="http://www.w3.org/2000/svg">
</g>
<g xmlns="http://www.w3.org/2000/svg">
</g>
<g xmlns="http://www.w3.org/2000/svg">
</g>
<g xmlns="http://www.w3.org/2000/svg">
</g>
</g></svg>