<svg xmlns="http://www.w3.org/2000/svg" version="1.1" xmlns:xlink="http://www.w3.org/1999/xlink" xmlns:svgjs="http://svgjs.com/svgjs" width="512" height="512" x="0" y="0" viewBox="0 0 512 512" style="enable-background:new 0 0 512 512" xml:space="preserve"><g>
<rect xmlns="http://www.w3.org/2000/svg" style="" width="512" height="512" fill="#ffda44" data-original="#ffda44"></rect>
<g xmlns="http://www.w3.org/2000/svg">
	<rect style="" width="170.663" height="512" fill="#0052b4" data-original="#0052b4"></rect>
	<rect x="341.337" style="" width="170.663" height="512" fill="#0052b4" data-original="#0052b4"></rect>
</g>
<path xmlns="http://www.w3.org/2000/svg" d="M307.942,189.217l9.955,4.978L307.942,189.217l-9.955-4.978c-0.6,1.201-13.599,27.649-15.723,68.05H267.13v-63.073  L256,174.377l-11.13,14.84v63.073h-15.133c-2.124-40.401-15.123-66.849-15.723-68.05l-19.911,9.955  c0.137,0.273,13.666,27.81,13.666,69.226v11.13h37.101v63.073h22.261v-63.073h37.101v-11.13c0-21.413,3.705-39.068,6.813-50.109  c3.389-12.04,6.831-19.072,6.865-19.141L307.942,189.217z" fill="#000000" data-original="#000000"></path>
<g xmlns="http://www.w3.org/2000/svg">
</g>
<g xmlns="http://www.w3.org/2000/svg">
</g>
<g xmlns="http://www.w3.org/2000/svg">
</g>
<g xmlns="http://www.w3.org/2000/svg">
</g>
<g xmlns="http://www.w3.org/2000/svg">
</g>
<g xmlns="http://www.w3.org/2000/svg">
</g>
<g xmlns="http://www.w3.org/2000/svg">
</g>
<g xmlns="http://www.w3.org/2000/svg">
</g>
<g xmlns="http://www.w3.org/2000/svg">
</g>
<g xmlns="http://www.w3.org/2000/svg">
</g>
<g xmlns="http://www.w3.org/2000/svg">
</g>
<g xmlns="http://www.w3.org/2000/svg">
</g>
<g xmlns="http://www.w3.org/2000/svg">
</g>
<g xmlns="http://www.w3.org/2000/svg">
</g>
<g xmlns="http://www.w3.org/2000/svg">
</g>
</g></svg>