<svg width="40" height="40" fill="none" xmlns="http://www.w3.org/2000/svg"><path d="M40 0H0v40h40V0Z" fill="#F7E017"/><path d="M0 2.778v17.778l40 8.333v-9.445L0 2.778Z" fill="#fff"/><path d="M0 12.222v8.334l40 16.666V28.89L0 12.222Z" fill="#000"/><path d="M20.212 26.949c-.826-.11-1.583-.373-2.11-.733a1.18 1.18 0 0 0-.212-.127c-.015 0-.028.078-.028.174 0 .271-.109.409-.384.48-.263.068-.664-.07-.989-.34-.337-.279-.725-.492-1.054-.578a1.703 1.703 0 0 0-1.197.155.37.37 0 0 1-.118.054c-.046 0-.04-.293.009-.386.064-.123.22-.243.403-.31.092-.034.168-.077.168-.096a.58.58 0 0 0-.07-.156c-.123-.216-.073-.426.143-.592.221-.168.595-.197.926-.072.083.032.161.058.173.058.043 0 .017-.061-.103-.236-.139-.202-.166-.302-.149-.542a.628.628 0 0 1 .575-.576c.248-.018.403.065.77.414 1.094 1.044 2.284 1.62 3.672 1.775.35.04 1.055.018 1.469-.044 1.249-.188 2.507-.816 3.49-1.742.272-.256.403-.324.626-.325.194 0 .33.062.47.216.126.14.17.274.156.488a.612.612 0 0 1-.113.337c-.12.196-.1.214.138.121.322-.125.718-.067.932.136.188.179.206.358.06.6a1.062 1.062 0 0 0-.097.185c0 .025.04.036.236.068.256.04.402.23.402.52 0 .088-.01.159-.024.159-.013 0-.11-.036-.215-.08-.298-.122-.467-.154-.815-.152-.265.002-.357.014-.541.075a2.455 2.455 0 0 0-.832.49c-.272.243-.443.319-.708.317-.246-.003-.414-.074-.503-.214-.047-.075-.054-.121-.042-.29.007-.111.006-.202-.003-.202-.01 0-.105.06-.213.135a3.437 3.437 0 0 1-.788.42c-.99.391-2.417.56-3.51.416Z" fill="#CF1126"/><path d="M20.665 25.048c-1.646-.158-3.221-1.016-4.18-2.375-1.04-1.418-1.367-3.29-1.05-5.003.17-.78.51-1.56 1.09-2.114-.462.981-.619 2.106-.372 3.17.384 2.123 2.178 3.92 4.324 4.23.85.247 1.728-.013 2.539-.276 1.79-.63 3.153-2.33 3.319-4.228a5.22 5.22 0 0 0-.478-3.026c.263.14.596.686.793 1.054.683 1.323.714 2.909.312 4.32-.546 1.796-1.919 3.37-3.734 3.942-.824.27-1.7.351-2.563.306ZM12.373 22.69c-.108-.017-.227.089-.186.2.078.112.212.167.333.22.29.117.605.162.916.155h.077c.246 0 .491-.044.723-.127.129-.046.293-.087.345-.23.052-.092-.041-.185-.136-.166-.13.028-.253.088-.383.122-.28.079-.576.11-.866.086a2.317 2.317 0 0 1-.615-.177c-.068-.03-.132-.074-.208-.084Z" fill="#CF1126"/><path d="M12.493 22.247c-.11-.017-.203.109-.158.209.084.122.225.186.357.243.23.092.478.13.724.123h.067c.21 0 .418-.041.611-.121.119-.046.264-.09.313-.22.038-.072.009-.177-.081-.182-.082-.004-.153.048-.23.072a1.89 1.89 0 0 1-.88.137 1.804 1.804 0 0 1-.531-.172c-.064-.03-.12-.078-.192-.09Z" fill="#CF1126"/><path d="M12.64 21.822c-.093-.011-.158.094-.142.178.014.074.08.124.135.17.228.166.516.237.795.227-.108 0 .146.002.068 0 .177 0 .352-.044.51-.12.107-.047.232-.1.268-.222.017-.056.027-.137-.036-.169-.067-.037-.133.02-.194.044a1.451 1.451 0 0 1-.662.16c-.198.007-.385-.076-.557-.166-.063-.032-.114-.088-.185-.102Z" fill="#CF1126"/><path d="M11.072 15.555c-.139.14-.033.396-.04.578.072.561.161 1.13.37 1.659.258.516.803.792 1.133 1.248.118.22.076.485.101.726.02.655.014 1.311.002 1.967.296.149.618.298.958.241.202-.048.577-.078.619-.28-.017-1.13-.027-2.261-.042-3.392-.115-.346-.467-.525-.731-.747a6.628 6.628 0 0 1-.605-.687c-.112-.188-.55-.256-.391.072.092.284.33.495.388.793.013.164.209.465.042.56a1.047 1.047 0 0 0-.456-.425c-.19-.141-.502-.2-.57-.449-.05-.353-.231-.673-.464-.938.06-.317 0-.714-.275-.917l-.039-.009Z" fill="#CF1126"/><path d="M11.495 15.619c-.127.02-.122.181-.064.266.063.183.08.382.046.572.225.263.399.578.451.923.001.13.138.173.227.237.208.133.441.229.626.394.04.042.069.087.041.002-.029-.109-.044-.229-.129-.311a.877.877 0 0 0-.432-.276c-.014-.175-.098-.336-.175-.492-.086-.148-.175-.307-.322-.404.006-.26.002-.533-.11-.773-.033-.061-.082-.135-.159-.138Z" fill="#CF1126"/><path d="M11.849 15.722c-.088.026-.072.135-.044.202.043.184.05.374.046.562.161.128.263.314.355.494.058.121.112.246.135.379.13.043.246.125.348.216-.04-.123-.131-.218-.192-.33a1.32 1.32 0 0 1-.158-.37.625.625 0 0 1-.168-.51.827.827 0 0 0-.196-.569c-.035-.034-.076-.071-.126-.074Z" fill="#CF1126"/><path d="M12.251 15.78c-.048.008-.077.054-.102.091-.01.037.035.077.043.118.056.14.077.294.06.445a.558.558 0 0 0 .089.301.165.165 0 0 1 .144-.121c.025-.004.06.008.046-.03a2.274 2.274 0 0 0-.12-.602.435.435 0 0 0-.118-.188c-.012-.009-.026-.016-.042-.014ZM21.063 22.949a1.52 1.52 0 0 1-1.273-1.024c.01-.095.128.053.183.063a.807.807 0 0 0 .338.113c.152.065.246.215.39.293.068.052.306.155.262-.011-.056-.087-.094-.198-.046-.297.08-.178.205-.332.33-.48.091-.03.153.151.219.212.09.14.2.31.147.484-.052.065-.087.258.053.193.171-.075.312-.202.454-.32.125-.087.284-.094.415-.17.06-.015.186-.136.212-.07a1.91 1.91 0 0 1-.319.522 1.373 1.373 0 0 1-.802.465 2.207 2.207 0 0 1-.563.027Z" fill="#CF1126"/><path d="M21.74 22.276a.567.567 0 0 0-.073-.338c-.09-.185-.219-.349-.343-.51-.118-.07-.183.156-.262.22-.121.183-.274.37-.282.6-.068.106-.196-.088-.251-.152-.106-.149-.185-.325-.172-.511-.013-.3.045-.6.154-.879.083-.238.217-.47.203-.73.01-.195-.03-.412-.189-.543-.15-.119.098-.144.177-.082.135.009.208.232.332.177.05-.117.059-.256.16-.347.1-.137.204.058.238.149.07.08-.004.277.11.283.137-.096.234-.258.41-.293.07-.04.192-.005.098.076-.13.122-.24.274-.264.454-.04.227.017.456.116.66.19.401.337.854.24 1.3a.835.835 0 0 1-.342.483c-.02.013-.053.012-.06-.017Z" fill="#CF1126"/><path d="M21.535 19.264a.898.898 0 0 0-.242-.298c-.102 0-.165.128-.233.195-.049.09-.108.24-.227.123-.19-.11-.223-.353-.222-.553-.012-.324.119-.626.235-.921.073-.185.055-.393.01-.582-.057-.217-.23-.368-.365-.537.009-.066.18-.03.245-.018.143.037.23.164.336.253.076-.023.045-.176.08-.249.003-.101.138-.235.194-.09.084.093-.003.276.105.334.103-.038.154-.15.25-.202a.34.34 0 0 1 .333-.021c.036.095-.113.173-.156.255a.87.87 0 0 0-.16.773c.059.207.163.401.199.616.043.241.042.494-.02.732-.038.144-.163.24-.292.3-.032-.029-.049-.072-.07-.11Z" fill="#CF1126"/><path d="M20.89 16.587c-.144-.105-.191-.205-.191-.403a.36.36 0 0 1 .086-.25c.098-.136.08-.179-.06-.139-.224.065-.33.006-.338-.185-.004-.094.016-.133.142-.284.1-.122.137-.185.117-.205-.02-.02-.139.083-.383.332a5.275 5.275 0 0 1-.487.45c-.42.284-.821.328-1.004.11-.094-.112-.09-.174.02-.242.05-.03.133-.101.186-.157.126-.131.502-.402.688-.496.15-.076.186-.127.088-.127-.127 0-.535.265-.844.55-.091.083-.222.177-.29.207-.155.068-.459.093-.594.049-.095-.032-.268-.196-.268-.254 0-.015.04-.05.088-.075.048-.026.134-.089.192-.139.247-.217.716-.44 1.088-.519.118-.024.075-.084-.057-.078-.256.011-.763.249-1.066.499-.355.292-.89.265-1.063-.055-.03-.055-.047-.107-.039-.115.008-.008.114-.04.235-.07.13-.033.389-.14.636-.264.389-.194.504-.235.771-.278.12-.02.127-.078.01-.092-.15-.018-.381.058-.79.258-.523.258-.67.303-.946.286-.252-.015-.394-.08-.598-.273-.134-.127-.323-.448-.286-.485.009-.01.07 0 .136.019.074.022.284.036.538.036.354.001.448-.008.637-.063a3.599 3.599 0 0 0 1.024-.52c.55-.41.999-.576 1.57-.578.529-.003.864.12 1.162.421.1.102.186.168.2.154.014-.013.028-.191.032-.396 0 0 .156-.015.189.028 0 .333.003.359.052.359.031 0 .065-.033.086-.083.045-.109.212-.258.391-.348.386-.196 1.055-.202 1.591-.015.226.08.477.221.716.406.24.184.73.43 1.02.513.293.083.81.104 1.075.044.11-.025.212-.045.228-.045.098 0-.069.325-.264.516-.357.35-.822.347-1.476-.005-.407-.22-.895-.34-.895-.22 0 .025.026.042.064.042.142 0 .415.095.797.276.412.196.644.279.781.279.1 0 .103.062.01.198-.099.146-.266.218-.502.217-.226 0-.351-.05-.553-.218-.338-.28-1.179-.594-1.146-.426.006.033.047.053.133.067.293.044.637.208.988.472.108.081.221.161.25.178.048.028.049.037.01.108-.062.118-.222.21-.394.227-.223.023-.417-.043-.618-.211-.424-.355-.824-.612-.952-.612-.105 0-.058.057.127.155.242.128.491.302.675.47.086.08.184.16.216.178.077.04.074.1-.01.211-.086.113-.229.163-.414.143-.368-.039-.656-.217-1.108-.686-.177-.183-.334-.333-.35-.333-.06 0-.025.082.091.212.145.162.172.253.118.384-.048.116-.129.143-.293.098-.169-.045-.195-.004-.085.133.165.206.14.457-.061.63a.486.486 0 0 1-.147.097c-.017 0-.061-.046-.098-.102-.13-.197-.244-.195-.37.004-.044.07-.082.126-.083.125-.002 0-.06-.043-.131-.095Z" fill="#CF1126"/><path d="m21.532 12.582-.218.173-.197-.148v1.184l.415.005v-1.214Z" fill="#CF1126"/><path d="M20.176 11.354c-.043.56-.185.95-.383 1.38l.474-.439.33.392.356-.398.364.336.35-.35.363.425.316-.35.535.385c-.194-.431-.457-.796-.424-1.402-.518.386-1.75.455-2.28.021Z" fill="#CF1126"/><path d="M21.117 11.069c-.19.003-.39.006-.57.041a.857.857 0 0 0-.334.132c.015.364 1.75.516 2.214.007a.864.864 0 0 0-.348-.139 3.216 3.216 0 0 0-.548-.04v.3h-.413v-.301Z" fill="#CF1126"/><path d="m21.457 9.209-.27.002v2.107l.275.001-.005-2.11Z" fill="#CF1126"/><path d="m21.456 9.263-.102 1.009 1.037.506-.525-.702.717-.232-1.127-.581ZM21.34 9c-.157 0-.273.059-.273.129s.116.13.274.13c.157 0 .273-.06.273-.13S21.498 9 21.34 9Z" fill="#CF1126"/></svg>