<svg xmlns="http://www.w3.org/2000/svg" version="1.1" xmlns:xlink="http://www.w3.org/1999/xlink" xmlns:svgjs="http://svgjs.com/svgjs" width="512" height="512" x="0" y="0" viewBox="0 0 512 512" style="enable-background:new 0 0 512 512" xml:space="preserve"><g>
<rect style="" width="512" height="512" fill="#a2001d" data-original="#a2001d"></rect>
<rect x="150.261" y="345.043" style="" width="361.739" height="166.957" fill="#6da544" data-original="#6da544"></rect>
<g>
	<path style="" d="M19.478,461.52l27.826-49.692L75.13,461.52l27.826-49.692l27.826,49.692L102.96,512h47.303v-0.002
		V345.045v-22.261V0H102.96l27.825,49.688l-27.826,50.483L75.133,49.688l-27.826,50.483L19.48,49.688L47.303,0H0v345.045V512h47.303
		L19.478,461.52z M102.958,374.726l-27.826-50.483l-27.826,50.483l-27.826-50.483l27.826-49.692l27.826,49.692l27.826-49.692
		l27.826,49.692L102.958,374.726z M47.304,137.274l27.826,49.692l27.826-49.692l27.826,49.692l-27.826,50.483L75.13,186.966
		l-27.826,50.483l-27.826-50.483L47.304,137.274z" fill="#f0f0f0" data-original="#f0f0f0"></path>
	<polygon style="" points="75.132,461.52 47.307,512 102.955,512 	" fill="#f0f0f0" data-original="#f0f0f0"></polygon>
	<polygon style="" points="75.132,49.688 102.957,0 47.307,0 	" fill="#f0f0f0" data-original="#f0f0f0"></polygon>
</g>
<g>
	<polygon style="" points="130.784,186.966 102.958,137.274 75.132,186.966 102.958,237.449 	" fill="#a2001d" data-original="#a2001d"></polygon>
	<polygon style="" points="47.304,237.449 75.132,186.966 47.304,137.274 19.478,186.966 	" fill="#a2001d" data-original="#a2001d"></polygon>
	<polygon style="" points="102.958,274.551 75.132,324.244 102.958,374.726 130.784,324.244 	" fill="#a2001d" data-original="#a2001d"></polygon>
	<polygon style="" points="19.478,324.244 47.304,374.726 75.132,324.244 47.304,274.551 	" fill="#a2001d" data-original="#a2001d"></polygon>
	<polygon style="" points="130.784,461.52 102.958,411.828 75.132,461.52 102.955,512 102.96,512 	" fill="#a2001d" data-original="#a2001d"></polygon>
	<polygon style="" points="75.132,461.52 47.304,411.828 19.478,461.52 47.303,512 47.307,512 	" fill="#a2001d" data-original="#a2001d"></polygon>
	<polygon style="" points="75.132,49.688 102.958,100.172 130.784,49.688 102.96,0 102.957,0 	" fill="#a2001d" data-original="#a2001d"></polygon>
	<polygon style="" points="19.478,49.688 47.304,100.172 75.132,49.688 47.307,0 47.303,0 	" fill="#a2001d" data-original="#a2001d"></polygon>
</g>
<g>
</g>
<g>
</g>
<g>
</g>
<g>
</g>
<g>
</g>
<g>
</g>
<g>
</g>
<g>
</g>
<g>
</g>
<g>
</g>
<g>
</g>
<g>
</g>
<g>
</g>
<g>
</g>
<g>
</g>
</g></svg>