<svg width="40" height="40" viewBox="0 0 40 40" fill="none" xmlns="http://www.w3.org/2000/svg">
<rect width="40" height="40" fill="#DE2910"/>
<path d="M9.23369 8.37848L11.838 16.3938L5.01978 11.4401H13.4476L6.62935 16.3938L9.23369 8.37848Z" fill="#FFDE00"/>
<path d="M17.1962 7.01932L16.9496 9.81775L15.5042 7.40881L18.0895 8.50812L15.3518 9.13834L17.1962 7.01932Z" fill="#FFDE00"/>
<path d="M20.6323 10.304L19.3191 12.7874L18.9218 10.0064L20.8779 12.0227L18.1102 11.5412L20.6323 10.304Z" fill="#FFDE00"/>
<path d="M20.9597 15.2567L18.7476 16.9883L19.5194 14.2871L20.4827 16.9261L18.1522 15.3574L20.9597 15.2567Z" fill="#FFDE00"/>
<path d="M17.1395 17.335L17.0091 20.1412L15.4651 17.7943L18.0937 18.7855L15.3846 19.5287L17.1395 17.335Z" fill="#FFDE00"/>
</svg>
