<svg xmlns="http://www.w3.org/2000/svg" version="1.1" xmlns:xlink="http://www.w3.org/1999/xlink" xmlns:svgjs="http://svgjs.com/svgjs" width="512" height="512" x="0" y="0" viewBox="0 0 512 512" style="enable-background:new 0 0 512 512" xml:space="preserve"><g>
<rect style="" width="512" height="512" fill="#0052b4" data-original="#0052b4"></rect>
<rect y="322.783" style="" width="512" height="22.261" fill="#d80027" data-original="#d80027"></rect>
<g>
	<rect y="300.522" style="" width="512" height="22.261" fill="#f0f0f0" data-original="#f0f0f0"></rect>
	<rect y="345.043" style="" width="512" height="22.261" fill="#f0f0f0" data-original="#f0f0f0"></rect>
</g>
<g>
	<polygon style="" points="180.384,261.278 183.388,270.526 193.113,270.526 185.246,276.242 188.251,285.49 
		180.384,279.775 172.517,285.49 175.522,276.242 167.656,270.526 177.38,270.526 	" fill="#ffda44" data-original="#ffda44"></polygon>
	<polygon style="" points="180.384,382.337 183.388,391.584 193.113,391.584 185.246,397.3 188.251,406.548 
		180.384,400.833 172.517,406.548 175.522,397.3 167.656,391.584 177.38,391.584 	" fill="#ffda44" data-original="#ffda44"></polygon>
	<polygon style="" points="124.033,341.395 127.037,350.643 136.762,350.643 128.896,356.359 131.9,365.607 
		124.033,359.891 116.166,365.607 119.171,356.359 111.304,350.643 121.029,350.643 	" fill="#ffda44" data-original="#ffda44"></polygon>
	<polygon style="" points="145.557,273.383 148.561,282.632 158.286,282.632 150.42,288.347 153.424,297.596 
		145.557,291.88 137.69,297.596 140.695,288.347 132.828,282.632 142.553,282.632 	" fill="#ffda44" data-original="#ffda44"></polygon>
	<polygon style="" points="111.304,311.467 121.027,311.469 124.032,302.219 127.037,311.467 136.762,311.466 
		128.895,317.183 131.9,326.432 124.032,320.717 116.166,326.43 119.17,317.183 	" fill="#ffda44" data-original="#ffda44"></polygon>
	<polygon style="" points="137.69,392.676 140.695,383.43 132.827,377.714 142.552,377.714 145.557,368.465 
		148.562,377.712 158.286,377.712 150.419,383.429 153.423,392.677 145.556,386.962 	" fill="#ffda44" data-original="#ffda44"></polygon>
	<polygon style="" points="236.714,341.395 233.71,350.643 223.986,350.643 231.851,356.359 228.847,365.607 
		236.714,359.891 244.581,365.607 241.576,356.359 249.443,350.643 239.718,350.643 	" fill="#ffda44" data-original="#ffda44"></polygon>
	<polygon style="" points="215.19,273.383 212.186,282.632 202.461,282.632 210.327,288.347 207.323,297.596 
		215.19,291.88 223.057,297.596 220.052,288.347 227.919,282.632 218.194,282.632 	" fill="#ffda44" data-original="#ffda44"></polygon>
	<polygon style="" points="249.443,311.467 239.721,311.469 236.715,302.219 233.71,311.467 223.986,311.466 
		231.853,317.183 228.847,326.432 236.715,320.717 244.581,326.43 241.577,317.183 	" fill="#ffda44" data-original="#ffda44"></polygon>
	<polygon style="" points="223.057,392.676 220.052,383.43 227.919,377.714 218.195,377.714 215.19,368.465 
		212.185,377.712 202.461,377.712 210.328,383.429 207.324,392.677 215.191,386.962 	" fill="#ffda44" data-original="#ffda44"></polygon>
</g>
<g>
</g>
<g>
</g>
<g>
</g>
<g>
</g>
<g>
</g>
<g>
</g>
<g>
</g>
<g>
</g>
<g>
</g>
<g>
</g>
<g>
</g>
<g>
</g>
<g>
</g>
<g>
</g>
<g>
</g>
</g></svg>