<svg xmlns="http://www.w3.org/2000/svg" version="1.1" xmlns:xlink="http://www.w3.org/1999/xlink" xmlns:svgjs="http://svgjs.com/svgjs" width="512" height="512" x="0" y="0" viewBox="0 0 512.006 512.006" style="enable-background:new 0 0 512 512" xml:space="preserve"><g>
<rect x="0.003" y="0.017" style="" width="512" height="511.989" fill="#f0f0f0" data-original="#f0f0f0"></rect>
<rect x="0.003" y="322.794" style="" width="211.478" height="189.206" fill="#d80027" data-original="#d80027"></rect>
<rect x="0.003" style="" width="211.478" height="189.229" fill="#0052b4" data-original="#0052b4"></rect>
<rect x="300.525" style="" width="211.478" height="189.229" fill="#d80027" data-original="#d80027"></rect>
<rect x="300.525" y="322.794" style="" width="211.478" height="189.206" fill="#0052b4" data-original="#0052b4"></rect>
<path style="" d="M320.003,256.006c0,35.347-28.653,64-64,64c-35.346,0-64-28.653-64-64s64-64,64-64
	S320.003,220.659,320.003,256.006z" fill="#496e2d" data-original="#496e2d"></path>
<path style="" d="M192.003,256.006c0-35.347,28.654-64,64-64c35.347,0,64,28.653,64,64" fill="#0052b4" data-original="#0052b4"></path>
<path style="" d="M220.003,224.006v40.001c0,19.882,16.118,36,36,36s36-16.118,36-36v-40.001L220.003,224.006
	L220.003,224.006z" fill="#d80027" data-original="#d80027"></path>
<g>
</g>
<g>
</g>
<g>
</g>
<g>
</g>
<g>
</g>
<g>
</g>
<g>
</g>
<g>
</g>
<g>
</g>
<g>
</g>
<g>
</g>
<g>
</g>
<g>
</g>
<g>
</g>
<g>
</g>
</g></svg>