<svg xmlns="http://www.w3.org/2000/svg" version="1.1" xmlns:xlink="http://www.w3.org/1999/xlink" xmlns:svgjs="http://svgjs.com/svgjs" width="512" height="512" x="0" y="0" viewBox="0 0 512 512" style="enable-background:new 0 0 512 512" xml:space="preserve"><g>
<rect y="0.001" style="" width="512" height="511.978" fill="#ffda44" data-original="#ffda44"></rect>
<rect y="0.005" style="" width="512" height="170.663" fill="#6da544" data-original="#6da544"></rect>
<rect y="341.336" style="" width="512" height="170.663" fill="#d80027" data-original="#d80027"></rect>
<circle style="" cx="256" cy="255.999" r="128" fill="#0052b4" data-original="#0052b4"></circle>
<g>
	<polygon style="" points="255.973,156.88 279.08,227.993 353.972,227.993 293.36,271.945 316.647,343.271 
		255.973,299.109 195.391,343.189 218.585,271.945 158.028,227.993 232.865,227.993 	" fill="#ffda44" data-original="#ffda44"></polygon>
	<polygon style="" points="348.13,273.698 274.826,249.879 320.129,187.527 301.302,173.847 255.998,236.201 
		210.698,173.848 191.869,187.526 237.171,249.882 163.87,273.697 171.061,295.832 244.363,272.015 244.363,349.089 
		267.637,349.089 267.637,272.014 340.936,295.832 	" fill="#ffda44" data-original="#ffda44"></polygon>
</g>
<g>
</g>
<g>
</g>
<g>
</g>
<g>
</g>
<g>
</g>
<g>
</g>
<g>
</g>
<g>
</g>
<g>
</g>
<g>
</g>
<g>
</g>
<g>
</g>
<g>
</g>
<g>
</g>
<g>
</g>
</g></svg>