<svg xmlns="http://www.w3.org/2000/svg" version="1.1" xmlns:xlink="http://www.w3.org/1999/xlink" xmlns:svgjs="http://svgjs.com/svgjs" width="512" height="512" x="0" y="0" viewBox="0 0 512 512" style="enable-background:new 0 0 512 512" xml:space="preserve"><g>
<rect xmlns="http://www.w3.org/2000/svg" style="" width="512" height="512" fill="#0052b4" data-original="#0052b4"></rect>
<polygon xmlns="http://www.w3.org/2000/svg" style="" points="413.681,293.101 413.681,300.522 354.318,300.522 354.318,293.101 332.058,293.101   332.058,322.783 346.899,322.783 346.899,330.203 421.101,330.203 421.101,322.783 435.942,322.783 435.942,293.101 " fill="#ffda44" data-original="#ffda44"></polygon>
<path xmlns="http://www.w3.org/2000/svg" style="" d="M332.058,181.797v81.623c0,39.759,51.942,51.942,51.942,51.942s51.942-12.182,51.942-51.942v-81.623  L332.058,181.797L332.058,181.797z" fill="#338af3" data-original="#338af3"></path>
<g xmlns="http://www.w3.org/2000/svg">
	<path style="" d="M383.997,242.68c-12.985,0-12.985,11.873-25.97,11.873s-12.985-11.873-25.97-11.873v20.777   c12.985,0,12.985,11.873,25.97,11.873s12.985-11.873,25.97-11.873c12.986,0,12.986,11.873,25.973,11.873   c12.986,0,12.986-11.873,25.973-11.873V242.68c-12.986,0-12.986,11.873-25.973,11.873   C396.984,254.552,396.984,242.68,383.997,242.68z" fill="#f3f3f3" data-original="#f3f3f3"></path>
	<path style="" d="M383.997,201.09c-12.985,0-12.985,11.873-25.97,11.873s-12.985-11.873-25.97-11.873v20.777   c12.985,0,12.985,11.873,25.97,11.873s12.985-11.873,25.97-11.873c12.986,0,12.986,11.873,25.973,11.873   c12.986,0,12.986-11.873,25.973-11.873V201.09c-12.986,0-12.986,11.873-25.973,11.873   C396.984,212.962,396.984,201.09,383.997,201.09z" fill="#f3f3f3" data-original="#f3f3f3"></path>
</g>
<polygon xmlns="http://www.w3.org/2000/svg" style="" points="256,0 256,48.896 215.853,89.043 256,89.043 256,166.957 203.464,166.957 256,219.492   256,256 232.281,256 166.957,190.664 166.957,256 89.043,256 89.043,178.276 11.331,256 0,256 0,207.104 40.147,166.957 0,166.957   0,89.043 52.536,89.043 0,36.508 0,0 23.719,0 89.043,65.336 89.043,0 166.957,0 166.957,77.724 244.669,0 " fill="#f0f0f0" data-original="#f0f0f0"></polygon>
<polygon xmlns="http://www.w3.org/2000/svg" style="" points="0,152.001 103.999,152.001 103.999,256 151.999,256 151.999,152.001 256,152.001   256,104.001 151.999,104.001 151.999,0 103.999,0 103.999,104.001 0,104.001 " fill="#d80027" data-original="#d80027"></polygon>
<polygon xmlns="http://www.w3.org/2000/svg" style="" points="166.957,166.957 256,256 256,230.82 192.137,166.957 " fill="#0052b4" data-original="#0052b4"></polygon>
<polygon xmlns="http://www.w3.org/2000/svg" style="" points="166.957,166.957 256,256 256,230.82 192.137,166.957 " fill="#f0f0f0" data-original="#f0f0f0"></polygon>
<g xmlns="http://www.w3.org/2000/svg">
	<polygon style="" points="166.957,166.957 256,256 256,230.82 192.137,166.957  " fill="#d80027" data-original="#d80027"></polygon>
	<polygon style="" points="63.862,166.959 0,230.821 0,256 0,256 89.041,166.959  " fill="#d80027" data-original="#d80027"></polygon>
</g>
<polygon xmlns="http://www.w3.org/2000/svg" style="" points="89.043,89.043 0,0 0,25.18 63.863,89.043 " fill="#0052b4" data-original="#0052b4"></polygon>
<polygon xmlns="http://www.w3.org/2000/svg" style="" points="89.043,89.043 0,0 0,25.18 63.863,89.043 " fill="#f0f0f0" data-original="#f0f0f0"></polygon>
<g xmlns="http://www.w3.org/2000/svg">
	<polygon style="" points="89.043,89.043 0,0 0,25.18 63.863,89.043  " fill="#d80027" data-original="#d80027"></polygon>
	<polygon style="" points="192.138,89.041 256,25.179 256,0 256,0 166.959,89.041  " fill="#d80027" data-original="#d80027"></polygon>
</g>
<g xmlns="http://www.w3.org/2000/svg">
</g>
<g xmlns="http://www.w3.org/2000/svg">
</g>
<g xmlns="http://www.w3.org/2000/svg">
</g>
<g xmlns="http://www.w3.org/2000/svg">
</g>
<g xmlns="http://www.w3.org/2000/svg">
</g>
<g xmlns="http://www.w3.org/2000/svg">
</g>
<g xmlns="http://www.w3.org/2000/svg">
</g>
<g xmlns="http://www.w3.org/2000/svg">
</g>
<g xmlns="http://www.w3.org/2000/svg">
</g>
<g xmlns="http://www.w3.org/2000/svg">
</g>
<g xmlns="http://www.w3.org/2000/svg">
</g>
<g xmlns="http://www.w3.org/2000/svg">
</g>
<g xmlns="http://www.w3.org/2000/svg">
</g>
<g xmlns="http://www.w3.org/2000/svg">
</g>
<g xmlns="http://www.w3.org/2000/svg">
</g>
</g></svg>