<svg width="40" height="40" fill="none" xmlns="http://www.w3.org/2000/svg"><path d="M0 0h40v40H0V0Z" fill="#fff"/><path d="M15 0h11v40H15V0Z" fill="#E8112D"/><path d="M0 16h40v9.524H0V16Z" fill="#E8112D"/><path d="M19.523 10h1.904v20.953h-1.904V10Z" fill="#F9DD16"/><path fill-rule="evenodd" clip-rule="evenodd" d="m20.476 29.047 1.904 1.904h-3.809l1.905-1.904Z" fill="#F9DD16"/><path d="M10 19.523h20.953v1.904H10v-1.904Z" fill="#F9DD16"/><path fill-rule="evenodd" clip-rule="evenodd" d="M20.476 11.904 22.38 10h-3.809l1.905 1.904Zm-8.572 8.572L10 18.57v3.809l1.904-1.904Zm17.143 0 1.904-1.905v3.809l-1.904-1.904Z" fill="#F9DD16"/></svg>