<svg xmlns="http://www.w3.org/2000/svg" version="1.1" xmlns:xlink="http://www.w3.org/1999/xlink" xmlns:svgjs="http://svgjs.com/svgjs" width="512" height="512" x="0" y="0" viewBox="0 0 512 512" style="enable-background:new 0 0 512 512" xml:space="preserve"><g>
<rect xmlns="http://www.w3.org/2000/svg" style="" width="512" height="512" fill="#d80027" data-original="#d80027"></rect>
<polygon xmlns="http://www.w3.org/2000/svg" style="" points="373.008,256 325.198,278.488 350.657,324.793 298.739,314.86 292.162,367.304   255.999,328.735 219.838,367.304 213.259,314.86 161.346,324.792 186.803,278.486 138.994,256 186.804,233.513 161.346,187.207   213.258,197.141 219.841,144.696 255.999,183.266 292.164,144.696 298.739,197.141 350.659,187.207 325.199,233.515 " fill="#ffda44" data-original="#ffda44"></polygon>
<circle xmlns="http://www.w3.org/2000/svg" style="" cx="256" cy="256" r="72.815" fill="#d80027" data-original="#d80027"></circle>
<g xmlns="http://www.w3.org/2000/svg">
	<path style="" d="M219.592,256c-1.753,0-3.485,0.089-5.195,0.26c0.062,10.085,3.712,19.316,9.737,26.487   c3.216-8.652,8.015-16.541,14.068-23.292C232.42,257.231,226.148,256,219.592,256z" fill="#ffda44" data-original="#ffda44"></path>
	<path style="" d="M242.005,295.189c4.374,1.563,9.084,2.42,13.995,2.42c4.912,0,9.621-0.857,13.995-2.42   c-2.384-9.357-7.307-17.711-13.995-24.274C249.312,277.479,244.389,285.833,242.005,295.189z" fill="#ffda44" data-original="#ffda44"></path>
	<path style="" d="M292.033,235.202c-7.195-12.436-20.63-20.811-36.033-20.811c-15.401,0-28.838,8.375-36.033,20.811   c13.117,0.067,25.415,3.633,36.033,9.79C266.617,238.835,278.915,235.268,292.033,235.202z" fill="#ffda44" data-original="#ffda44"></path>
	<path style="" d="M273.796,259.456c6.053,6.751,10.853,14.64,14.069,23.292c6.026-7.171,9.675-16.402,9.738-26.487   c-1.71-0.17-3.442-0.26-5.195-0.26C285.852,256,279.58,257.231,273.796,259.456z" fill="#ffda44" data-original="#ffda44"></path>
</g>
<g xmlns="http://www.w3.org/2000/svg">
</g>
<g xmlns="http://www.w3.org/2000/svg">
</g>
<g xmlns="http://www.w3.org/2000/svg">
</g>
<g xmlns="http://www.w3.org/2000/svg">
</g>
<g xmlns="http://www.w3.org/2000/svg">
</g>
<g xmlns="http://www.w3.org/2000/svg">
</g>
<g xmlns="http://www.w3.org/2000/svg">
</g>
<g xmlns="http://www.w3.org/2000/svg">
</g>
<g xmlns="http://www.w3.org/2000/svg">
</g>
<g xmlns="http://www.w3.org/2000/svg">
</g>
<g xmlns="http://www.w3.org/2000/svg">
</g>
<g xmlns="http://www.w3.org/2000/svg">
</g>
<g xmlns="http://www.w3.org/2000/svg">
</g>
<g xmlns="http://www.w3.org/2000/svg">
</g>
<g xmlns="http://www.w3.org/2000/svg">
</g>
</g></svg>