<svg width="40" height="40" viewBox="0 0 40 40" fill="none" xmlns="http://www.w3.org/2000/svg">
<rect width="40" height="40" fill="white"/>
<path fill-rule="evenodd" clip-rule="evenodd" d="M10.2072 4.25739L10.9143 4.96449L5.96451 9.91424L5.25741 9.20713L10.2072 4.25739ZM11.6214 5.6716L12.3285 6.37871L7.37873 11.3285L6.67162 10.6213L11.6214 5.6716ZM13.7427 7.79292L13.0356 7.08581L8.08583 12.0356L8.79294 12.7427L13.7427 7.79292Z" fill="black"/>
<path fill-rule="evenodd" clip-rule="evenodd" d="M26.2573 7.79291L26.9644 7.0858L29.0858 9.20712L28.3786 9.91423L26.2573 7.79291ZM29.0858 10.6213L29.7929 9.91423L31.9142 12.0355L31.2071 12.7427L29.0858 10.6213ZM28.3786 5.67159L27.6715 6.37869L32.6213 11.3284L33.3284 10.6213L28.3786 5.67159ZM29.0858 4.96448L29.7929 4.25737L31.9142 6.37869L31.2071 7.0858L29.0858 4.96448ZM32.6213 7.0858L31.9142 7.79291L34.0355 9.91423L34.7426 9.20712L32.6213 7.0858Z" fill="black"/>
<path fill-rule="evenodd" clip-rule="evenodd" d="M5.96443 30.0858L5.25732 30.7929L10.2071 35.7427L10.9142 35.0355L5.96443 30.0858ZM7.37864 28.6716L6.67154 29.3787L8.79286 31.5L9.49996 30.7929L7.37864 28.6716ZM9.49996 32.2071L10.2071 31.5L12.3284 33.6213L11.6213 34.3284L9.49996 32.2071ZM8.79286 27.2574L8.08575 27.9645L13.0355 32.9142L13.7426 32.2071L8.79286 27.2574Z" fill="black"/>
<path fill-rule="evenodd" clip-rule="evenodd" d="M31.9141 27.9645L31.207 27.2574L29.0857 29.3787L29.7928 30.0858L31.9141 27.9645ZM29.0857 30.7929L28.3786 30.0858L26.2573 32.2071L26.9644 32.9142L29.0857 30.7929ZM32.6212 28.6716L33.3284 29.3787L31.207 31.5L30.4999 30.7929L32.6212 28.6716ZM34.7426 30.7929L34.0355 30.0858L31.9141 32.2071L32.6212 32.9142L34.7426 30.7929ZM31.207 32.9142L31.9141 33.6213L29.7928 35.7427L29.0857 35.0356L31.207 32.9142ZM30.4999 32.2071L29.7928 31.5L27.6715 33.6213L28.3786 34.3285L30.4999 32.2071Z" fill="black"/>
<path d="M20.0007 27.9989C24.4186 27.9989 28.0001 24.4174 28.0001 19.9994C28.0001 15.5815 24.4186 12 20.0007 12C15.5827 12 12.0012 15.5815 12.0012 19.9994C12.0012 24.4174 15.5827 27.9989 20.0007 27.9989Z" fill="#CD2E3A"/>
<path d="M13.3442 15.562C12.1187 17.3997 12.6157 19.8832 14.4534 21.1088C16.2912 22.3343 18.7747 21.8372 20.0002 19.9995C21.2257 18.1618 23.7088 17.6647 25.547 18.8902C27.3853 20.1158 27.8818 22.5988 26.6563 24.4371C24.2058 28.1131 19.2392 29.1066 15.5632 26.6556C11.8872 24.2045 10.8937 19.238 13.3442 15.562Z" fill="#0047A0"/>
</svg>
