<svg xmlns="http://www.w3.org/2000/svg" version="1.1" xmlns:xlink="http://www.w3.org/1999/xlink" xmlns:svgjs="http://svgjs.com/svgjs" width="512" height="512" x="0" y="0" viewBox="0 0 512 512" style="enable-background:new 0 0 512 512" xml:space="preserve"><g>
<rect xmlns="http://www.w3.org/2000/svg" style="" width="512" height="512" fill="#338af3" data-original="#338af3"></rect>
<path xmlns="http://www.w3.org/2000/svg" style="" d="M360.727,266.662H151.273c0,14.461,12.594,26.182,27.054,26.182h-0.872  c0,14.461,11.721,26.182,26.182,26.182c0,14.461,11.721,26.182,26.182,26.182h52.363c14.461,0,26.182-11.721,26.182-26.182  c14.461,0,26.182-11.721,26.182-26.182h-0.872C348.132,292.844,360.727,281.122,360.727,266.662z" fill="#ffda44" data-original="#ffda44"></path>
<path xmlns="http://www.w3.org/2000/svg" style="" d="M328.504,232.423c0,40.042-32.461,72.504-72.504,72.504s-72.504-32.461-72.504-72.504" fill="#338af3" data-original="#338af3"></path>
<polygon xmlns="http://www.w3.org/2000/svg" style="" points="327.871,225.638 298.504,237.528 314.142,262.008 282.253,256.757 278.212,284.484   256,264.092 233.787,284.484 229.747,256.757 197.858,262.007 213.495,237.527 184.129,225.638 213.496,213.749 197.858,189.27   229.747,194.52 233.788,166.793 256,187.185 278.213,166.793 282.253,194.52 314.143,189.27 298.505,213.75 " fill="#ffda44" data-original="#ffda44"></polygon>
<g xmlns="http://www.w3.org/2000/svg">
</g>
<g xmlns="http://www.w3.org/2000/svg">
</g>
<g xmlns="http://www.w3.org/2000/svg">
</g>
<g xmlns="http://www.w3.org/2000/svg">
</g>
<g xmlns="http://www.w3.org/2000/svg">
</g>
<g xmlns="http://www.w3.org/2000/svg">
</g>
<g xmlns="http://www.w3.org/2000/svg">
</g>
<g xmlns="http://www.w3.org/2000/svg">
</g>
<g xmlns="http://www.w3.org/2000/svg">
</g>
<g xmlns="http://www.w3.org/2000/svg">
</g>
<g xmlns="http://www.w3.org/2000/svg">
</g>
<g xmlns="http://www.w3.org/2000/svg">
</g>
<g xmlns="http://www.w3.org/2000/svg">
</g>
<g xmlns="http://www.w3.org/2000/svg">
</g>
<g xmlns="http://www.w3.org/2000/svg">
</g>
</g></svg>