<svg width="40" height="40" fill="none" xmlns="http://www.w3.org/2000/svg"><path fill="#fff" d="M0 0h40v40H0z"/><path fill="#1028AA" d="M0 0h40v12.5H0z"/><path fill="#42A554" d="M0 27.5h40V40H0z"/><path fill-rule="evenodd" clip-rule="evenodd" d="M20.5 20.147c1.489 0 2.695-1.152 2.695-2.573C23.195 16.151 21.99 15 20.5 15c-1.489 0-2.695 1.152-2.695 2.573 0 1.422 1.206 2.574 2.695 2.574Zm0-1.225c.78 0 1.412-.604 1.412-1.349 0-.744-.632-1.348-1.412-1.348-.78 0-1.412.604-1.412 1.348 0 .745.632 1.349 1.412 1.349Z" fill="#000"/><path d="M20.07 19.311a.527.527 0 0 1 .86 0l2.988 4.402a.458.458 0 0 1-.198.684c-.745.332-2.17.897-3.22.897-1.05 0-2.475-.565-3.22-.897a.458.458 0 0 1-.198-.684l2.987-4.402Z" fill="#000"/></svg>