<svg xmlns="http://www.w3.org/2000/svg" version="1.1" xmlns:xlink="http://www.w3.org/1999/xlink" xmlns:svgjs="http://svgjs.com/svgjs" width="512" height="512" x="0" y="0" viewBox="0 0 512 512" style="enable-background:new 0 0 512 512" xml:space="preserve"><g>
<rect xmlns="http://www.w3.org/2000/svg" x="0.007" style="" width="511.989" height="512" fill="#ffda44" data-original="#ffda44"></rect>
<rect xmlns="http://www.w3.org/2000/svg" x="0.001" style="" width="170.663" height="512" fill="#0052b4" data-original="#0052b4"></rect>
<rect xmlns="http://www.w3.org/2000/svg" x="341.336" style="" width="170.663" height="512" fill="#d80027" data-original="#d80027"></rect>
<path xmlns="http://www.w3.org/2000/svg" style="" d="M322.781,215.063h-45.913c0-11.526-9.344-20.87-20.87-20.87c-11.526,0-20.87,9.344-20.87,20.87  h-45.913c0,11.347,9.885,20.548,21.232,20.548h-0.683c0,11.349,9.199,20.549,20.549,20.549c0,10.047,7.216,18.397,16.747,20.182  l-16.191,36.557c7.758,3.154,16.238,4.906,25.13,4.906c8.891,0,17.371-1.753,25.129-4.906l-16.191-36.557  c9.531-1.784,16.747-10.134,16.747-20.182c11.35,0,20.548-9.2,20.548-20.549h-0.685  C312.897,235.611,322.781,226.412,322.781,215.063z" fill="#ff9811" data-original="#ff9811"></path>
<polygon xmlns="http://www.w3.org/2000/svg" style="" points="255.999,243.478 228.868,256 228.868,281.043 255.999,297.739 283.129,281.043 283.129,256   " fill="#0052b4" data-original="#0052b4"></polygon>
<rect xmlns="http://www.w3.org/2000/svg" x="228.863" y="230.957" style="" width="54.261" height="25.043" fill="#d80027" data-original="#d80027"></rect>
<g xmlns="http://www.w3.org/2000/svg">
</g>
<g xmlns="http://www.w3.org/2000/svg">
</g>
<g xmlns="http://www.w3.org/2000/svg">
</g>
<g xmlns="http://www.w3.org/2000/svg">
</g>
<g xmlns="http://www.w3.org/2000/svg">
</g>
<g xmlns="http://www.w3.org/2000/svg">
</g>
<g xmlns="http://www.w3.org/2000/svg">
</g>
<g xmlns="http://www.w3.org/2000/svg">
</g>
<g xmlns="http://www.w3.org/2000/svg">
</g>
<g xmlns="http://www.w3.org/2000/svg">
</g>
<g xmlns="http://www.w3.org/2000/svg">
</g>
<g xmlns="http://www.w3.org/2000/svg">
</g>
<g xmlns="http://www.w3.org/2000/svg">
</g>
<g xmlns="http://www.w3.org/2000/svg">
</g>
<g xmlns="http://www.w3.org/2000/svg">
</g>
</g></svg>