<svg xmlns="http://www.w3.org/2000/svg" version="1.1" xmlns:xlink="http://www.w3.org/1999/xlink" xmlns:svgjs="http://svgjs.com/svgjs" width="512" height="512" x="0" y="0" viewBox="0 0 512 512" style="enable-background:new 0 0 512 512" xml:space="preserve"><g>
<rect x="0" style="" width="512" height="512" fill="#ffda44" data-original="#ffda44"></rect>
<g>
	<polygon style="" points="443.729,511.996 256,255.998 295.384,511.996 	" fill="#d80027" data-original="#d80027"></polygon>
	<polygon style="" points="68.269,0 256,255.998 216.615,0 	" fill="#d80027" data-original="#d80027"></polygon>
	<polygon style="" points="216.614,511.996 256,255.998 68.269,511.996 	" fill="#d80027" data-original="#d80027"></polygon>
	<polygon style="" points="0,216.613 256,255.998 0,68.264 	" fill="#d80027" data-original="#d80027"></polygon>
	<polygon style="" points="0,443.729 256,255.998 0,295.382 	" fill="#d80027" data-original="#d80027"></polygon>
	<polygon style="" points="512,68.265 256,255.998 512,216.613 	" fill="#d80027" data-original="#d80027"></polygon>
	<polygon style="" points="295.385,0 256,255.998 443.729,0 	" fill="#d80027" data-original="#d80027"></polygon>
	<polygon style="" points="512,295.383 256,255.998 512,443.73 	" fill="#d80027" data-original="#d80027"></polygon>
	<circle style="" cx="256" cy="255.998" r="83.478" fill="#d80027" data-original="#d80027"></circle>
</g>
<circle style="" cx="256" cy="255.998" r="62.609" fill="#ffda44" data-original="#ffda44"></circle>
<g>
</g>
<g>
</g>
<g>
</g>
<g>
</g>
<g>
</g>
<g>
</g>
<g>
</g>
<g>
</g>
<g>
</g>
<g>
</g>
<g>
</g>
<g>
</g>
<g>
</g>
<g>
</g>
<g>
</g>
</g></svg>