<svg width="41" height="41" viewBox="0 0 41 41" fill="none" xmlns="http://www.w3.org/2000/svg">
<g clip-path="url(#clip0)">
<rect x="1" width="40" height="40" fill="white"/>
<mask id="path-2-inside-1" fill="white">
<path fill-rule="evenodd" clip-rule="evenodd" d="M31.0198 18.9687L0.980225 0.03125L1.01982 19.0312L1.03476 19.0312L1.06252 40.0624L31.0625 39.9999L10.0035 19.0125L31.0198 18.9687Z"/>
</mask>
<path fill-rule="evenodd" clip-rule="evenodd" d="M31.0198 18.9687L0.980225 0.03125L1.01982 19.0312L1.03476 19.0312L1.06252 40.0624L31.0625 39.9999L10.0035 19.0125L31.0198 18.9687Z" fill="#DC143C"/>
<path d="M0.980225 0.03125L1.51352 -0.814682L-0.0235597 -1.78368L-0.0197732 0.0333339L0.980225 0.03125ZM31.0198 18.9687L31.0218 19.9687L34.4698 19.9615L31.553 18.1228L31.0198 18.9687ZM1.01982 19.0312L0.0198202 19.0333L0.0219039 20.0333L1.02186 20.0312L1.01982 19.0312ZM1.03476 19.0312L2.03476 19.0299L2.03344 18.0291L1.03272 18.0312L1.03476 19.0312ZM1.06252 40.0624L0.0625166 40.0637L0.0638375 41.0645L1.0646 41.0624L1.06252 40.0624ZM31.0625 39.9999L31.0645 40.9999L33.4774 40.9949L31.7684 39.2916L31.0625 39.9999ZM10.0035 19.0125L10.0014 18.0125L7.58849 18.0175L9.29757 19.7208L10.0035 19.0125ZM0.446934 0.877182L30.4865 19.8146L31.553 18.1228L1.51352 -0.814682L0.446934 0.877182ZM2.01982 19.0291L1.98022 0.0291661L-0.0197732 0.0333339L0.0198202 19.0333L2.01982 19.0291ZM1.03272 18.0312L1.01778 18.0312L1.02186 20.0312L1.0368 20.0312L1.03272 18.0312ZM2.06251 40.0611L2.03476 19.0299L0.0347601 19.0325L0.0625166 40.0637L2.06251 40.0611ZM31.0604 38.9999L1.06043 39.0624L1.0646 41.0624L31.0645 40.9999L31.0604 38.9999ZM9.29757 19.7208L30.3565 40.7082L31.7684 39.2916L10.7094 18.3042L9.29757 19.7208ZM31.0177 17.9687L10.0014 18.0125L10.0056 20.0125L31.0218 19.9687L31.0177 17.9687Z" fill="#003893" mask="url(#path-2-inside-1)"/>
<path d="M6.06232 27.4148L3.55764 27.1064L5.07634 29.1157L2.75391 30.1064L5.07634 31.0877L3.55764 33.097L6.06232 32.7886L5.75391 35.298L7.76325 33.7793L8.75391 36.1064L9.73521 33.7793L11.7539 35.3026L11.4455 32.798L13.9502 33.1111L12.4315 31.1017L14.7539 30.1204L12.4315 29.1297L13.9502 27.1204L11.4455 27.4241L11.7539 24.9195L9.74456 26.4382L8.75391 24.1064L7.7726 26.4288L5.75391 24.9101L6.06232 27.4148Z" fill="white"/>
<path d="M7.99791 15.8393C10.7606 15.8393 13 13.5998 13 10.8372C12.5605 11.9548 11.7652 12.8799 10.7522 13.4826L10.3252 13.1645L11.1624 12.5366L10.1494 12.2771L10.6852 11.3688L9.63876 11.5195L9.79364 10.4814L8.88531 11.0255L8.62579 10L7.99791 10.8372L7.37003 10L7.10632 11.0213L6.20218 10.4856L6.35705 11.532L5.31059 11.3771L5.85475 12.2855L4.8334 12.545L5.67057 13.1729L5.25199 13.4952C4.25994 12.9092 3.45207 12.005 3 10.8497C3 13.6124 5.23943 15.8518 8.00209 15.8518L7.99791 15.8393Z" fill="white"/>
</g>
<defs>
<clipPath id="clip0">
<rect width="40.0198" height="40.0624" fill="white" transform="translate(0.980225)"/>
</clipPath>
</defs>
</svg>
