<svg width="40" height="40" viewBox="0 0 40 40" fill="none" xmlns="http://www.w3.org/2000/svg">
<rect width="40" height="40" fill="white"/>
<rect width="40" height="20" fill="#0038A8"/>
<rect y="20" width="40" height="20" fill="#CE1126"/>
<path fill-rule="evenodd" clip-rule="evenodd" d="M0 0L20 20L0 40V0Z" fill="white"/>
<path d="M1.29049 11L1.93905 11.5605L2.68996 11.1471L2.35734 11.9371L2.98252 12.5235L2.1284 12.4513L1.76387 13.2271L1.56861 12.3925L0.71814 12.2855L1.45159 11.8419L1.29049 11Z" fill="#FCD116"/>
<path d="M15.8912 18.7688L15.9086 19.6258L16.7183 19.9072L15.9086 20.1887L15.8912 21.0457L15.3733 20.3626L14.5529 20.6108L15.0425 19.9072L14.5529 19.2036L15.3733 19.4519L15.8912 18.7688Z" fill="#FCD116"/>
<path d="M1.76387 26.5873L2.1284 27.3631L2.98252 27.2909L2.35734 27.8773L2.68996 28.6673L1.93905 28.2539L1.29049 28.8144L1.45159 27.9725L0.71814 27.5289L1.56861 27.4219L1.76387 26.5873Z" fill="#FCD116"/>
<path d="M6.91633 15.3585L6.63658 15.6383L6.77532 17.7571C6.72815 17.7601 6.68146 17.7647 6.63516 17.7707L6.38044 15.8373L6.15215 16.0655L6.49586 17.7938C6.21313 17.8497 5.95036 17.9608 5.71918 18.1156L4.74037 16.6506H4.41741L5.60461 18.198C5.56736 18.2267 5.53128 18.2566 5.49601 18.2876L4.0956 16.6907H3.69987V17.0864L5.29672 18.4869C5.26573 18.5222 5.23583 18.5584 5.20717 18.5957L3.65978 17.4083V17.7312L5.12501 18.7103C4.97024 18.9414 4.85884 19.204 4.80291 19.4867L3.07471 19.143L2.84642 19.3713L4.77988 19.626C4.77385 19.6723 4.76928 19.719 4.76624 19.7662L2.64742 19.6274L2.36768 19.9072L2.64742 20.1869L4.76624 20.0482C4.7693 20.0954 4.77385 20.1423 4.77988 20.1886L2.84642 20.4431L3.07471 20.6713L4.80291 20.3276C4.85885 20.6103 4.96989 20.8731 5.12473 21.1043L3.65978 22.0831V22.4061L5.20717 21.2189C5.23581 21.2562 5.26576 21.2922 5.29672 21.3275L3.69986 22.7279V23.1236H4.0956L5.49601 21.5268C5.53133 21.5578 5.56759 21.5876 5.60489 21.6163L4.41741 23.1637H4.74037L5.71947 21.6985C5.95055 21.8534 6.21317 21.9649 6.49586 22.0209L6.15215 23.7488L6.38044 23.9771L6.63516 22.0436C6.68144 22.0496 6.72815 22.0542 6.77532 22.0573L6.63658 24.1761L6.91633 24.4558L7.19607 24.1761L7.05733 22.0573C7.10451 22.0542 7.15119 22.0496 7.19749 22.0436L7.45221 23.9771L7.6805 23.7488L7.33679 22.0206C7.61952 21.9646 7.88229 21.8536 8.11347 21.6988L9.09228 23.1637H9.41524L8.22804 21.6163C8.26529 21.5877 8.30137 21.5577 8.33664 21.5268L9.73706 23.1236H10.1328V22.7279L8.53593 21.3275C8.56693 21.2922 8.59682 21.2559 8.62548 21.2186L10.1729 22.4061V22.0831L8.70764 21.104C8.86241 20.8729 8.97381 20.6103 9.02974 20.3276L10.7579 20.6713L10.9862 20.4431L9.05277 20.1883C9.0588 20.142 9.06337 20.0953 9.06641 20.0482L11.1852 20.1869L11.465 19.9072L11.1852 19.6274L9.06641 19.7662C9.0634 19.719 9.0588 19.6723 9.05277 19.626L10.9862 19.3713L10.7579 19.143L9.02974 19.4867C8.9738 19.204 8.86274 18.9412 8.70792 18.71L10.1729 17.7312V17.4083L8.62548 18.5955C8.59685 18.5582 8.56689 18.5221 8.53593 18.4869L10.1328 17.0864V16.6907H9.73706L8.33664 18.2876C8.30133 18.2566 8.26506 18.2267 8.22776 18.198L9.41524 16.6506H9.09228L8.11319 18.1159C7.88205 17.9611 7.61945 17.8497 7.33679 17.7938L7.6805 16.0656L7.45221 15.8373L7.19749 17.7707C7.15119 17.7647 7.10449 17.7601 7.05733 17.7571L7.19607 15.6383L6.91633 15.3585Z" fill="#FCD116"/>
</svg>
