<svg xmlns="http://www.w3.org/2000/svg" version="1.1" xmlns:xlink="http://www.w3.org/1999/xlink" xmlns:svgjs="http://svgjs.com/svgjs" width="512" height="512" x="0" y="0" viewBox="0 0 512 512" style="enable-background:new 0 0 512 512" xml:space="preserve" class=""><g>
<rect xmlns="http://www.w3.org/2000/svg" style="" width="512" height="512" fill="#0052b4" data-original="#0052b4" class=""></rect>
<rect xmlns="http://www.w3.org/2000/svg" style="" width="512" height="170.663" fill="#d80027" data-original="#d80027"></rect>
<rect xmlns="http://www.w3.org/2000/svg" y="341.337" style="" width="512" height="170.663" fill="#f0f0f0" data-original="#f0f0f0"></rect>
<path xmlns="http://www.w3.org/2000/svg" style="" d="M101.787,155.826v122.386c0,69.616,90.947,90.948,90.947,90.948s90.947-21.331,90.947-90.948V155.826  H101.787z" fill="#d80027" data-original="#d80027"></path>
<g xmlns="http://www.w3.org/2000/svg">
	<polygon style="" points="139.401,177.16 246.067,177.16 246.067,134.493 224.733,145.16 192.733,113.16    160.733,145.16 139.401,134.493  " fill="#ffda44" data-original="#ffda44"></polygon>
	<polygon style="" points="262.348,295.251 193.014,225.918 123.681,295.251 146.308,317.879 193.014,271.172    239.721,317.879  " fill="#ffda44" data-original="#ffda44"></polygon>
</g>
<path xmlns="http://www.w3.org/2000/svg" style="" d="M262.348,230.493h-32.35c1.819-3.14,2.877-6.775,2.877-10.664c0-11.784-9.552-21.334-21.334-21.334  c-8.141,0-15.211,4.56-18.807,11.264c-3.597-6.703-10.666-11.264-18.807-11.264c-11.782,0-21.334,9.55-21.334,21.334  c0,3.889,1.059,7.525,2.877,10.664h-31.79c0,11.783,10.262,21.334,22.044,21.334h-0.71c0,11.783,9.551,21.334,21.334,21.334  c0,10.433,7.492,19.1,17.387,20.954l-16.809,37.953c8.055,3.275,16.858,5.093,26.09,5.093c9.232,0,18.035-1.819,26.09-5.093  l-16.809-37.953c9.894-1.854,17.387-10.522,17.387-20.954c11.783,0,21.334-9.551,21.334-21.334h-0.71  C252.085,251.826,262.348,242.275,262.348,230.493z" fill="#f0f0f0" data-original="#f0f0f0"></path>
<g xmlns="http://www.w3.org/2000/svg">
</g>
<g xmlns="http://www.w3.org/2000/svg">
</g>
<g xmlns="http://www.w3.org/2000/svg">
</g>
<g xmlns="http://www.w3.org/2000/svg">
</g>
<g xmlns="http://www.w3.org/2000/svg">
</g>
<g xmlns="http://www.w3.org/2000/svg">
</g>
<g xmlns="http://www.w3.org/2000/svg">
</g>
<g xmlns="http://www.w3.org/2000/svg">
</g>
<g xmlns="http://www.w3.org/2000/svg">
</g>
<g xmlns="http://www.w3.org/2000/svg">
</g>
<g xmlns="http://www.w3.org/2000/svg">
</g>
<g xmlns="http://www.w3.org/2000/svg">
</g>
<g xmlns="http://www.w3.org/2000/svg">
</g>
<g xmlns="http://www.w3.org/2000/svg">
</g>
<g xmlns="http://www.w3.org/2000/svg">
</g>
</g></svg>