<svg xmlns="http://www.w3.org/2000/svg" version="1.1" xmlns:xlink="http://www.w3.org/1999/xlink" xmlns:svgjs="http://svgjs.com/svgjs" width="512" height="512" x="0" y="0" viewBox="0 0 512 512" style="enable-background:new 0 0 512 512" xml:space="preserve"><g>
<rect style="" width="512" height="512" fill="#ffda44" data-original="#ffda44"></rect>
<rect width="512" height="135.869" fill="#000000" data-original="#000000"></rect>
<rect y="376.153" style="" width="512" height="135.847" fill="#0052b4" data-original="#0052b4"></rect>
<rect y="169.906" style="" width="512" height="172.199" fill="#a2001d" data-original="#a2001d"></rect>
<g>
	<rect x="89.043" y="244.87" style="" width="333.913" height="22.261" fill="#ffda44" data-original="#ffda44"></rect>
	<rect x="133.565" y="200.348" style="" width="244.87" height="22.261" fill="#ffda44" data-original="#ffda44"></rect>
</g>
<path style="" d="M380.025,256c0,0-57.243,66.783-124.025,66.783S189.217,256,189.217,256s0-66.783,66.783-66.783
	S380.025,256,380.025,256z" fill="#f0f0f0" data-original="#f0f0f0"></path>
<path d="M256,322.783c-66.783,0-124.025-66.783-124.025-66.783S189.217,189.217,256,189.217" fill="#000000" data-original="#000000"></path>
<rect x="211.478" y="233.739" style="" width="22.261" height="44.522" fill="#f0f0f0" data-original="#f0f0f0"></rect>
<rect x="278.261" y="233.739" width="22.261" height="44.522" fill="#000000" data-original="#000000"></rect>
<g>
	<circle style="" cx="89.043" cy="256" r="22.261" fill="#0052b4" data-original="#0052b4"></circle>
	<circle style="" cx="422.957" cy="256" r="22.261" fill="#0052b4" data-original="#0052b4"></circle>
</g>
<g>
</g>
<g>
</g>
<g>
</g>
<g>
</g>
<g>
</g>
<g>
</g>
<g>
</g>
<g>
</g>
<g>
</g>
<g>
</g>
<g>
</g>
<g>
</g>
<g>
</g>
<g>
</g>
<g>
</g>
</g></svg>