<svg xmlns="http://www.w3.org/2000/svg" version="1.1" xmlns:xlink="http://www.w3.org/1999/xlink" xmlns:svgjs="http://svgjs.com/svgjs" width="512" height="512" x="0" y="0" viewBox="0 0 512 512" style="enable-background:new 0 0 512 512" xml:space="preserve"><g>
<rect xmlns="http://www.w3.org/2000/svg" y="0.006" style="" width="512" height="511.989" fill="#d80027" data-original="#d80027"></rect>
<circle xmlns="http://www.w3.org/2000/svg" style="" cx="256" cy="255.999" r="128" fill="#f0f0f0" data-original="#f0f0f0"></circle>
<g xmlns="http://www.w3.org/2000/svg">
	<polygon style="" points="271.768,207.059 293.728,237.32 329.291,225.789 307.298,256.022 329.255,286.283    293.702,274.708 271.709,304.942 271.732,267.556 236.181,255.98 271.745,244.449  " fill="#d80027" data-original="#d80027"></polygon>
	<path style="" d="M285.09,331.637c-41.773,0-75.637-33.863-75.637-75.637s33.863-75.637,75.637-75.637   c13.025,0,25.279,3.293,35.979,9.091c-16.784-16.414-39.739-26.545-65.071-26.545c-51.411,0-93.09,41.678-93.09,93.091   s41.68,93.092,93.092,93.092c25.332,0,48.286-10.132,65.071-26.545C310.371,328.343,298.116,331.637,285.09,331.637z" fill="#d80027" data-original="#d80027"></path>
</g>
<g xmlns="http://www.w3.org/2000/svg">
</g>
<g xmlns="http://www.w3.org/2000/svg">
</g>
<g xmlns="http://www.w3.org/2000/svg">
</g>
<g xmlns="http://www.w3.org/2000/svg">
</g>
<g xmlns="http://www.w3.org/2000/svg">
</g>
<g xmlns="http://www.w3.org/2000/svg">
</g>
<g xmlns="http://www.w3.org/2000/svg">
</g>
<g xmlns="http://www.w3.org/2000/svg">
</g>
<g xmlns="http://www.w3.org/2000/svg">
</g>
<g xmlns="http://www.w3.org/2000/svg">
</g>
<g xmlns="http://www.w3.org/2000/svg">
</g>
<g xmlns="http://www.w3.org/2000/svg">
</g>
<g xmlns="http://www.w3.org/2000/svg">
</g>
<g xmlns="http://www.w3.org/2000/svg">
</g>
<g xmlns="http://www.w3.org/2000/svg">
</g>
</g></svg>