<svg xmlns="http://www.w3.org/2000/svg" version="1.1" xmlns:xlink="http://www.w3.org/1999/xlink" xmlns:svgjs="http://svgjs.com/svgjs" width="512" height="512" x="0" y="0" viewBox="0 0 512 512" style="enable-background:new 0 0 512 512" xml:space="preserve"><g>
<rect x="0" style="" width="512" height="512" fill="#d80027" data-original="#d80027"></rect>
<rect x="0" y="0.001" style="" width="256" height="255.989" fill="#0052b4" data-original="#0052b4"></rect>
<g>
	<polygon style="" points="187.973,145.805 192.394,159.411 206.699,159.411 195.125,167.818 199.546,181.423 
		187.973,173.015 176.4,181.423 180.821,167.818 169.248,159.411 183.552,159.411 	" fill="#f0f0f0" data-original="#f0f0f0"></polygon>
	<polygon style="" points="116.127,38.953 123.496,61.629 147.336,61.629 128.048,75.641 135.415,98.315 
		116.127,84.302 96.839,98.315 104.208,75.641 84.919,61.629 108.759,61.629 	" fill="#f0f0f0" data-original="#f0f0f0"></polygon>
	<polygon style="" points="187.362,62.698 194.73,85.374 218.571,85.374 199.283,99.386 206.65,122.061 
		187.362,108.046 168.074,122.061 175.442,99.386 156.153,85.374 179.995,85.374 	" fill="#f0f0f0" data-original="#f0f0f0"></polygon>
	<polygon style="" points="131.055,157.678 138.424,180.354 162.264,180.354 142.975,194.365 150.343,217.04 
		131.055,203.026 111.767,217.04 119.135,194.365 99.847,180.354 123.687,180.354 	" fill="#f0f0f0" data-original="#f0f0f0"></polygon>
	<polygon style="" points="68.638,98.315 76.005,120.991 99.847,120.991 80.558,135.003 87.926,157.678 
		68.638,143.664 49.35,157.678 56.717,135.003 37.429,120.991 61.27,120.991 	" fill="#f0f0f0" data-original="#f0f0f0"></polygon>
</g>
<g>
</g>
<g>
</g>
<g>
</g>
<g>
</g>
<g>
</g>
<g>
</g>
<g>
</g>
<g>
</g>
<g>
</g>
<g>
</g>
<g>
</g>
<g>
</g>
<g>
</g>
<g>
</g>
<g>
</g>
</g></svg>