<svg xmlns="http://www.w3.org/2000/svg" version="1.1" xmlns:xlink="http://www.w3.org/1999/xlink" xmlns:svgjs="http://svgjs.com/svgjs" width="512" height="512" x="0" y="0" viewBox="0 0 512 512" style="enable-background:new 0 0 512 512" xml:space="preserve"><g>
<rect style="" width="512" height="512" fill="#496e2d" data-original="#496e2d"></rect>
<path style="" d="M490.668,195.479h-48c0-8.836-7.164-16-16-16s-16,7.164-16,16h-48c0,8.836,7.697,16,16.533,16h-0.533
	c0,8.836,7.162,16,16,16c0,8.836,7.162,16,16,16h32c8.836,0,16-7.164,16-16c8.836,0,16-7.164,16-16h-0.533
	C482.972,211.479,490.668,204.316,490.668,195.479z" fill="#ff9811" data-original="#ff9811"></path>
<rect x="341.337" y="256" style="" width="56.888" height="256" fill="#d80027" data-original="#d80027"></rect>
<rect x="455.112" y="256" style="" width="56.888" height="256" fill="#ff9811" data-original="#ff9811"></rect>
<rect x="398.225" y="256" width="56.888" height="256" fill="#000000" data-original="#000000"></rect>
<g>
</g>
<g>
</g>
<g>
</g>
<g>
</g>
<g>
</g>
<g>
</g>
<g>
</g>
<g>
</g>
<g>
</g>
<g>
</g>
<g>
</g>
<g>
</g>
<g>
</g>
<g>
</g>
<g>
</g>
</g></svg>