<svg xmlns="http://www.w3.org/2000/svg" xmlns:xlink="http://www.w3.org/1999/xlink" data-name="Layer 1" width="667.4453125" height="589.48583984375" style=""><rect id="backgroundrect" width="100%" height="100%" x="0" y="0" fill="none" stroke="none"/><g class="currentLayer" style=""><title>Layer 1</title><path d="M516.95527625,377.6350751806641 a7.72132,7.72132 0 0 1 4.04472,-11.12741 l-0.3975600000000001,-27.43609 l12.016,7.67645 L531.15375625,371.624935180664 a7.763170000000001,7.763170000000001 0 0 1 -14.19848,6.01015 z" fill="#a0616a" id="svg_1"/><path d="M502.47391625,228.67913518066405 A15.63963,15.63963 0 0 0 489.55965625,243.73718518066408 c-0.17400000000000002,8.02961 2.50557,11.02363 6.29215,12.10551 c7,2 18.14816,42.44832 18.14816,42.44832 s1.1832500000000001,37.72571 3.09163,35.86286 s-0.25137000000000004,2.4842 0.32850000000000007,3.81067 s-2.74888,3.313 0.41550000000000004,4.81973 s1.16437,13.50674 1.16437,13.50674 l14,-1 s-2.32454,-9.77573 0.8377300000000001,-10.38786 s1.72534,-3.39426 0.4438100000000001,-5.5032 s2.2673200000000002,-5.11484 0.49289000000000005,-6.11189 s3.22557,-39.997 3.22557,-39.997 L518.45115625,235.77135518066405 a15.64187,15.64187 0 0 0 -15.977219999999999,-7.09223 z" fill="#0f3375" id="svg_2"/><polygon points="460 230.943 470.071 213.291 483.677 213.291 493.882 231.943 460 230.943" fill="#0f3375" id="svg_3"/><path d="M432.91143624999995,72.20599518066408 c-8.04694,-26.95441 -30.7807,-44.551 -58.25122,-48.41126 c-0.30219,-0.04260000000000001 -0.5890000000000001,0.013670000000000003 -0.8899000000000001,-0.005740000000000001 a8.68011,8.68011 0 0 0 -1.18756,-0.27349 c-37.778,-4.88251 -79.0177,3.86193 -111.84076,24.3988 c-31.46228,19.68549 -67.61309,30.793 -104.72552,30.5462 q-1.72879,-0.011450000000000002 -3.47113,0.07500000000000001 c-28.56079,1.42511 -53.76636,22.21533 -61.48755,49.5606 c-1.01331,3.58777 0.7524400000000001,6.79352 3.59186,8.82673 c4.98932,3.57348 8.3974,6.078 14.53607,7.37841 q16.43014,3.48075 32.9726,6.40137 V106.77368518066407 a15.70447,15.70447 0 0 1 15.68627,-15.68628 H373.31371624999997 a15.70448,15.70448 0 0 1 15.68628,15.68628 V161.48093518066406 a64.51829,64.51829 0 0 0 8.63245,-3.3978900000000003 a66.83714,66.83714 0 0 0 25.76849,-22.487 C435.87554624999996,117.49572518066407 439.17034624999997,93.16955518066408 432.91143624999995,72.20599518066408 z" fill="#ffffff" id="svg_4" class="" fill-opacity="0.2"/><path d="M342.18975624999996,329.2910151806641 H151.71265625 a16.59835,16.59835 0 0 1 -16.57911,-16.5791 V238.80145518066405 a172.96506,172.96506 0 0 0 -71.7163,-6.286 a8.68011,8.68011 0 0 0 -1.18756,0.27349 c-0.30085000000000006,0.019410000000000004 -0.5877100000000001,-0.036860000000000004 -0.8899000000000001,0.005740000000000001 c-27.47052,3.86029 -50.20428,21.45685 -58.25122,48.41126 c-6.25891,20.96356 -2.96411,45.28973 9.5105,63.39 a66.83714,66.83714 0 0 0 25.76849,22.487 c14.28736,6.8822600000000005 29.32532,7.39972 44.91919,7.88568 a1018.27653,1018.27653 0 0 0 140.261,-5.30163 q34.38208,-3.68766 68.47858,-9.63837 q17.4516,-3.0541 34.788,-6.72742 c6.13867,-1.30041 9.54675,-3.80493 14.53607,-7.37841 c2.83942,-2.03321 4.60517,-5.239 3.59186,-8.82673 A65.80907,65.80907 0 0 0 342.18975624999996,329.2910151806641 z" fill="#ffffff" id="svg_5" class="" fill-opacity="0.2"/><path d="M359.04696624999997,307.36401518066407 H172.11136625 a13.62481,13.62481 0 0 1 -13.609,-13.609 V120.03206518066406 a13.62481,13.62481 0 0 1 13.609,-13.609 h186.9356 a13.6248,13.6248 0 0 1 13.609,13.609 V293.75498518066405 A13.6248,13.6248 0 0 1 359.04696624999997,307.36401518066407 z" fill="#0f3375" id="svg_6" class="" fill-opacity="0.2"/><path d="M319.70248625,298.18453518066406 H181.29303625 a13.62481,13.62481 0 0 1 -13.609,-13.609 V129.21885518066404 a13.62481,13.62481 0 0 1 13.609,-13.609 H349.86748624999996 a13.62481,13.62481 0 0 1 13.609,13.609 V254.41050518066407 A43.82338,43.82338 0 0 1 319.70248625,298.18453518066406 z" fill="#ffffff" id="svg_7" class="" fill-opacity="0.2"/><circle cx="265.58026123046875" cy="206.89718627929688" r="61" fill="#0f3375" id="svg_8" class=""/><path d="M291.27685625000004,203.82812518066407 l-20.356,-24.75391 a6.00075,6.00075 0 0 0 -9.14014,-0.15136000000000002 l-21.76855,24.7539 a6.00029,6.00029 0 0 0 9.01172,7.92481 L260.28665624999996,198.79412518066408 v32.115 a6,6 0 0 0 12,0 V199.62823518066403 l9.72168,11.822 a6,6 0 0 0 9.26856,-7.62207 z" fill="#fff" id="svg_9" class=""/><polygon points="528.453 578.324 519.404 578.323 515.099 543.416 528.456 543.417 528.453 578.324" fill="#a0616a" id="svg_10"/><path d="M528.77238625,587.764435180664 l-27.82942,-0.0010000000000000002 v-0.35195000000000004 a10.83258,10.83258 0 0 1 10.832,-10.83181 h0.0006700000000000002 l5.0834,-3.85654 l9.4845,3.85712 l2.42932,0.00009000000000000003 z" fill="#2f2e41" id="svg_11"/><polygon points="460.453 578.324 451.404 578.323 447.099 543.416 460.456 543.417 460.453 578.324" fill="#a0616a" id="svg_12"/><path d="M460.77238624999995,587.764435180664 l-27.82942,-0.0010000000000000002 v-0.35195000000000004 a10.83258,10.83258 0 0 1 10.832,-10.83181 h0.0006700000000000002 l5.0834,-3.85654 l9.4845,3.85712 l2.42932,0.00009000000000000003 z" fill="#2f2e41" id="svg_13"/><path d="M531.33910625,549.4335351806641 c3.30164,-2.1576 1.3889200000000002,-2.01752 1.3889200000000002,-2.01752 s-7.383,-59.85993 -13,-78 l-6.4999400000000005,-88.33655 s-0.41266,1.76215 0,-2.52069 s3.41266,-1.28284 0.41266,-4.28284 s-5,-4.52868 -3,-6.76434 s7.51721,-6.75861 4.2586,-9.49713 s-9.67126,-20.59845 -9.67126,-20.59845 l-62.50006,0.5 l2.5,-0.5 s-7.80182,-2.89459 -4.228,0.8750000000000001 s-2,13 -4,22 c-1.65643,7.454 -6.57379,9.43207 0,11 c6.57379,1.56787 0.6247600000000001,6.01092 0.6247600000000001,6.01092 s-9.89673,47.11408 -2.39673,78.11408 c0,0 5.17413,76.67175 7.7933900000000005,83.26587 c2.61933,6.59405 3.61933,2.59405 2.61933,6.59405 s-3,-3 -1,4 a92.51269,92.51269 0 0 1 2.58728,11.14008 l13.56231,-1 s3.1496,-9.92743 0,-12.53375 s-0.9749099999999999,5 2.43775,-0.80316 s-0.5873400000000001,-3.80317 -1.5873400000000002,-11.80317 s8.17468,-45.2677 1.5873400000000002,-68.13385 l12.17328,-64.16278 l19.32666,66.43671 s10.25128,81.14014 13.582,84.00006 c3.33069,2.8598600000000003 1.9856,-4.08209 3.33069,2.8598600000000003 c1.35925,7.01508 4.44653,5.15515 4.35925,6.01508 c-0.93127,9.17242 15.33911,0.125 15.33911,0.125 a51.36513,51.36513 0 0 1 0,-6.9999400000000005 C531.64074625,552.2759351806641 528.03747625,551.591065180664 531.33910625,549.4335351806641 z" fill="#2f2e41" id="svg_14"/><path d="M448.99999625,358.2910151806641 c-4,0 -15,-5.41732 -13,-7.70866 s2,-9.89764 2,-12.09449 s9,-83.19685 9,-83.19685 l-0.6838800000000002,-19.83247 a8.86212,8.86212 0 0 1 8.85686,-9.16753 l8.827,-3 l25,-1 l12.46645,4 A7.22686,7.22686 0 0 1 507.90365625000004,236.80273518066406 l0,0 a65.07422,65.07422 0 0 1 9.55278,35.95453 c-0.2868200000000001,9.47129 -5.08528,21.038 -6.24161,31.73814 c-0.1015,0.93921 -0.17494000000000004,1.8717400000000002 -0.21480000000000002,2.79559 c-0.011120000000000001,0.25761 -2.05815,1.5414400000000001 -0.029070000000000006,0.7707200000000001 s-1.08747,1.9496700000000002 -0.029200000000000004,3.58947 s3.10929,0.6350000000000001 0.08378000000000002,2.63741 s3.63258,21.34431 2.97449,22.0024 c-2,2 -6,3 -3,6 s6,1 2,5 s-15.98425,11 -15.98425,11 z" fill="#3f3d56" id="svg_15"/><circle cx="475.73406982421875" cy="189.1555633544922" r="21.523189544677734" fill="#a0616a" id="svg_16"/><path d="M344.64380625,255.93493518066407 a7.72133,7.72133 0 0 1 10.62241,5.2291 l27.317,2.584 l-8.93584,11.11135 L349.07665625000004,270.70203518066404 a7.763170000000001,7.763170000000001 0 0 1 -4.43284,-14.76715 z" fill="#a0616a" id="svg_17"/><path d="M474.16356625000003,239.91309518066407 a15.63965,15.63965 0 0 0 -15.058,-12.91423 c-8.02961,-0.17400000000000002 -11.02364,2.50557 -12.10552,6.29215 c-2,7 -34.19685,31.60617 -34.19685,31.60617 l-27.65117,-2.9924299999999997 c-1.6627800000000001,-0.54016 -0.8742700000000001,-2.05438 -7.12586,-0.77115 c-3.07953,-2.01669 -5.07055,-1.6750000000000003 -6.785,-0.73428 l-10.24109,-1.10831 l1,16 s10.96343,-2.608 13,2 s1.57046,5.26992 6,2 s4,0 4,0 l32,8 l50.07135,-31.40068 a15.64187,15.64187 0 0 0 7.09222,-15.977219999999999 z" fill="#0f3375" id="svg_18"/><path d="M484.09002625000005,208.37093518066405 l1.4100000000000001,0.45 c-4.41,0.37000000000000005 -12.27,2.83 -11.5,1.47 s-2.14,-6.49 -0.7200000000000001,-7.14 a9.03069,9.03069 0 0 0 3.8200000000000003,-2.59 c0.9,-1.26 0.8800000000000001,-3.34 -0.47000000000000003,-4.11 c-1.31,-0.7600000000000001 -2.93,0.06000000000000001 -4.23,0.8300000000000001 c-1.31,0.7600000000000001 -3.73,-10.42 -3.11,-13.91 c-3.6500000000000004,-2 -8.07,1.83 -12.17,1.08 c-2.51,-0.46 -4.32,-2.52 -5.46,-4.86 a15.246,15.246 0 0 0 4.03,-6.42 a19.90965,19.90965 0 0 1 -5.52,1.83 a12.97091,12.97091 0 0 1 0.14,-5.48 a8.94283,8.94283 0 0 1 5.57,-6.34 a6.48235,6.48235 0 0 1 7.6,2.8200000000000003 a6.44436,6.44436 0 0 0 -4.08,-6.4 a6.77636,6.77636 0 0 1 9.75,4.61 a20.93429,20.93429 0 0 1 14.59,-1.56 c4.84,1.27 11.26,6.640000000000001 11.26,6.640000000000001 C505.91997625,171.70098518066408 505.40001625,213.22100518066406 484.09002625000005,208.37093518066405 z" fill="#2f2e41" id="svg_19"/><path d="M598.11640625,579.1827251806641 a1.2164000000000001,1.2164000000000001 0 0 0 0.8815700000000001,-2.10832 l-0.08335000000000001,-0.3313600000000001 l0.03312000000000001,-0.07954000000000001 a3.26656,3.26656 0 0 1 6.02555,0.022390000000000007 c0.9855099999999999,2.37356 2.24023,4.75117 2.54918,7.26082 a9.66393,9.66393 0 0 1 -0.16964000000000004,3.32354 a38.74392,38.74392 0 0 0 3.52438,-16.09157 a37.39746,37.39746 0 0 0 -0.232,-4.17178 q-0.19217,-1.70334 -0.53318,-3.3824300000000003 a39.19285,39.19285 0 0 0 -7.77228,-16.61089 A10.43034,10.43034 0 0 1 598.00185625,542.512935180664 a7.95618,7.95618 0 0 1 -0.72357,-2.17417 a9.819,9.819 0 0 0 0.6370000000000001,-3.3859 c0.29430000000000006,-0.44659000000000004 0.8210500000000001,-0.6685900000000001 1.14248,-1.10437 c1.59857,-2.16733 3.801,-1.78891 4.95074,1.15632 c2.45615,1.23962 2.47993,3.29545 0.97284,5.27269 c-0.95881,1.25793 -1.09055,2.96 -1.9318400000000002,4.30676 c0.08657000000000002,0.11080000000000001 0.17659000000000002,0.21813000000000002 0.26313,0.32893000000000006 a39.4457,39.4457 0 0 1 4.11715,6.52255 a16.39818,16.39818 0 0 1 0.979,-7.61655 c0.93706,-2.2605399999999998 2.69343,-4.16438 4.24012,-6.11862 a3.36576,3.36576 0 0 1 5.9948,1.6527100000000001 l0.009270000000000004,0.08640000000000002 q-0.3446000000000001,0.19440000000000004 -0.6746400000000002,0.41269 a1.6500000000000001,1.6500000000000001 0 0 0 0.6652300000000001,3.00262 l0.03364000000000001,0.0051800000000000014 a16.41807,16.41807 0 0 1 -0.43274,2.4546200000000002 c1.98421,7.67347 -2.29957,10.46831 -8.41623,10.59386 c-0.135,0.06923000000000003 -0.2666,0.13847 -0.40163,0.20427 a40.262,40.262 0 0 1 2.16725,10.19917 a38.18677,38.18677 0 0 1 -0.027700000000000006,6.1659 l0.010400000000000001,-0.07269000000000002 a10.09082,10.09082 0 0 1 3.44475,-5.82663 c2.65092,-2.17763 6.39617,-2.97954 9.256,-4.72993 a1.89376,1.89376 0 0 1 2.90049,1.84233 l-0.011690000000000002,0.07644000000000001 a11.08173,11.08173 0 0 0 -1.24287,0.5989000000000001 q-0.3446000000000001,0.19445000000000004 -0.6746500000000002,0.41269 a1.6500000000000001,1.6500000000000001 0 0 0 0.6652400000000002,3.00265 l0.03367000000000001,0.005170000000000001 l0.06920000000000003,0.01042 a16.43116,16.43116 0 0 1 -3.02234,4.73259 c-1.24068,6.69864 -6.5694099999999995,7.3342 -12.2695,5.3834800000000005 h-0.0034700000000000013 a40.251,40.251 0 0 1 -2.70387,7.89347 h-9.65909 c-0.03464000000000001,-0.10732000000000001 -0.06579000000000003,-0.21812 -0.09700000000000003,-0.3254500000000001 a10.97506,10.97506 0 0 0 2.67273,-0.15921000000000005 c-0.7166600000000001,-0.87938 -1.43329,-1.7656900000000002 -2.14994,-2.645 a0.60206,0.60206 0 0 1 -0.04500000000000001,-0.05194000000000001 c-0.36351000000000006,-0.45 -0.7304900000000001,-0.8966600000000001 -1.094,-1.34671 l-0.00020000000000000006,-0.0005500000000000001 a16.07543,16.07543 0 0 1 0.47100000000000003,-4.09507 z" fill="#f2f2f2" id="svg_20" class=""/><path d="M276.52898625,589.1785351806641 l389.72565,0.30734000000000006 a1.19068,1.19068 0 0 0 0,-2.38137 l-389.72565,-0.30733000000000005 a1.19068,1.19068 0 0 0 0,2.38136 z" fill="#000000" id="svg_21" class="" fill-opacity="1"/><path d="M60.61815625000003,306.2910151806641 A14.14575,14.14575 0 1 1 74.76365625,292.1455051806641 A14.16159,14.16159 0 0 1 60.61815625000003,306.2910151806641 zm0,-26.2915 a12.14575,12.14575 0 1 0 12.14551,12.146 A12.15941,12.15941 0 0 0 60.61815625000003,279.99951518066405 z" fill="#0f3375" id="svg_30" class="" fill-opacity="1"/><path d="M66.15579624999998,291.48393518066405 l-4.38677,-5.3345400000000005 a1.29319,1.29319 0 0 0 -1.9697200000000001,-0.03262000000000001 l-4.691190000000001,5.3345400000000005 a1.29308,1.29308 0 0 0 1.9420000000000002,1.7078200000000001 l2.42714,-2.7600000000000002 v6.92088 a1.2930000000000001,1.2930000000000001 0 0 0 2.5860000000000003,0 v-6.74113 l2.09505,2.54767 a1.2930000000000001,1.2930000000000001 0 0 0 1.9973999999999998,-1.6425800000000002 z" fill="#fff" id="svg_31" class=""/><path d="M66.15579624999998,291.48393518066405 l-4.38677,-5.3345400000000005 a1.29319,1.29319 0 0 0 -1.9697200000000001,-0.03262000000000002 l-4.6911900000000015,5.3345400000000005 a1.29308,1.29308 0 0 0 1.9420000000000002,1.7078200000000003 l2.42714,-2.7600000000000002 v6.92088 a1.2930000000000001,1.2930000000000001 0 0 0 2.5860000000000003,0 v-6.74113 l2.09505,2.54767 a1.2930000000000001,1.2930000000000001 0 0 0 1.9973999999999998,-1.6425800000000002 z" fill="#0f3375" class="" id="svg_34" fill-opacity="1"/><path d="M366.61815624999997,69.29101518066406 A14.14575,14.14575 0 1 1 380.76365625000005,55.14550518066406 A14.16159,14.16159 0 0 1 366.61815624999997,69.29101518066406 zm0,-26.2915 a12.14575,12.14575 0 1 0 12.14551,12.146 A12.15941,12.15941 0 0 0 366.61815624999997,42.999515180664076 z" fill="#0f3375" id="svg_32" class="" fill-opacity="1"/><path d="M372.15579625,54.483935180664076 l-4.38677,-5.3345400000000005 a1.29319,1.29319 0 0 0 -1.9697200000000001,-0.03262000000000001 l-4.691190000000001,5.3345400000000005 a1.29308,1.29308 0 0 0 1.9420000000000002,1.7078200000000001 l2.42714,-2.7600000000000002 v6.92088 a1.2930000000000001,1.2930000000000001 0 1 0 2.5860000000000003,0 v-6.74113 l2.09505,2.54767 a1.2930000000000001,1.2930000000000001 0 0 0 1.9973999999999998,-1.6425800000000002 z" fill="#0f3375" id="svg_33" class="" fill-opacity="1"/><path fill="#ffffff" fill-opacity="0.2" stroke="none" stroke-opacity="1" stroke-width="1" stroke-dasharray="none" stroke-linejoin="miter" stroke-linecap="butt" stroke-dashoffset="" fill-rule="nonzero" opacity="1" marker-start="" marker-mid="" marker-end="" id="svg_35" d="M-62.70004501266264,164.74043044243155 " style="color: rgb(255, 255, 255);"/></g></svg>