<svg xmlns="http://www.w3.org/2000/svg" version="1.1" xmlns:xlink="http://www.w3.org/1999/xlink" xmlns:svgjs="http://svgjs.com/svgjs" width="512" height="512" x="0" y="0" viewBox="0 0 60 60" style="enable-background:new 0 0 512 512" xml:space="preserve" class=""><g><path d="m59 38v9c0 2.209-5.373 4-12 4s-12-1.791-12-4v-9z" fill="#347584" data-original="#347584"></path><ellipse cx="47" cy="38" fill="#42838e" rx="12" ry="4" data-original="#42838e"></ellipse><path d="m59 25v9c0 2.209-5.373 4-12 4s-12-1.791-12-4v-9z" fill="#347584" data-original="#347584"></path><ellipse cx="47" cy="25" fill="#42838e" rx="12" ry="4" data-original="#42838e"></ellipse><path d="m59 12v9c0 2.209-5.373 4-12 4s-12-1.791-12-4v-9z" fill="#347584" data-original="#347584"></path><ellipse cx="47" cy="12" fill="#42838e" rx="12" ry="4" data-original="#42838e"></ellipse><path d="m40 41.25v4.75a1 1 0 0 1 -2 0v-5.35a17.038 17.038 0 0 0 2 .6z" fill="#51949b" data-original="#51949b"></path><path d="m40 28.25v9a17.038 17.038 0 0 1 -2-.6v-9a17.038 17.038 0 0 0 2 .6z" fill="#51949b" data-original="#51949b"></path><path d="m40 15.25v9a17.038 17.038 0 0 1 -2-.6v-9a17.038 17.038 0 0 0 2 .6z" fill="#51949b" data-original="#51949b"></path><path d="m54 41.25v4.75a1 1 0 0 0 2 0v-5.35a17.038 17.038 0 0 1 -2 .6z" fill="#266677" data-original="#266677"></path><path d="m54 28.25v9a17.038 17.038 0 0 0 2-.6v-9a17.038 17.038 0 0 1 -2 .6z" fill="#266677" data-original="#266677"></path><path d="m54 15.25v9a17.038 17.038 0 0 0 2-.6v-9a17.038 17.038 0 0 1 -2 .6z" fill="#266677" data-original="#266677"></path><g fill="#e25a44"><path d="m5 25h-4a1 1 0 0 0 0 2h1v6h-1a1 1 0 0 0 0 2h1a2 2 0 0 0 2-2v-6h1a1 1 0 0 0 0-2z" fill="#e25a44" data-original="#e25a44" class=""></path><path d="m10 29a1 1 0 1 1 .867-1.5 1 1 0 0 0 1.731-1 3 3 0 1 0 -2.598 4.5 1 1 0 1 1 -.867 1.5 1 1 0 0 0 -1.731 1 3 3 0 1 0 2.598-4.5z" fill="#e25a44" data-original="#e25a44" class=""></path><path d="m18 25a3 3 0 0 0 -3 3v4a3 3 0 0 0 6 0v-4a3 3 0 0 0 -3-3zm1 7a1 1 0 0 1 -2 0v-4a1 1 0 0 1 2 0z" fill="#e25a44" data-original="#e25a44" class=""></path><path d="m28 25a1 1 0 0 0 -1 1v3.764l-2.1-4.211a1 1 0 0 0 -1.9.447v8a1 1 0 0 0 2 0v-3.764l2.105 4.211a1 1 0 0 0 .895.553 1.051 1.051 0 0 0 .229-.026 1 1 0 0 0 .771-.974v-8a1 1 0 0 0 -1-1z" fill="#e25a44" data-original="#e25a44" class=""></path></g><path d="m1 20h25.586l-1.293 1.293a1 1 0 1 0 1.414 1.414l3-3a1 1 0 0 0 0-1.414l-3-3a1 1 0 0 0 -1.414 1.414l1.293 1.293h-25.586a1 1 0 0 0 0 2z" fill="#ccd0da" data-original="#ccd0da" class=""></path><path d="m29 40h-25.586l1.293-1.293a1 1 0 0 0 -1.414-1.414l-3 3a1 1 0 0 0 0 1.414l3 3a1 1 0 1 0 1.414-1.414l-1.293-1.293h25.586a1 1 0 0 0 0-2z" fill="#ccd0da" data-original="#ccd0da" class=""></path></g></svg>