<svg xmlns="http://www.w3.org/2000/svg" version="1.1" xmlns:xlink="http://www.w3.org/1999/xlink" xmlns:svgjs="http://svgjs.com/svgjs" width="512" height="512" x="0" y="0" viewBox="0 0 512 512" style="enable-background:new 0 0 512 512" xml:space="preserve"><g><path d="m401.096 71.862h-7.627c-7.412 0-13.42-6.009-13.42-13.42v-7.628c-.001-28.064-22.751-50.814-50.814-50.814h-221.307c-7.412 0-13.42 6.008-13.42 13.42v485.16c0 7.412 6.009 13.42 13.42 13.42h330.562c7.412 0 13.42-6.008 13.42-13.42v-375.904c0-28.064-22.75-50.814-50.814-50.814z" fill="#f9f6f9" data-original="#f9f6f9"></path><path d="m401.505 71.864c6.527 8.547 10.405 19.227 10.405 30.812v289.436c0 55.167-44.721 99.888-99.888 99.888h-217.514v6.58c0 7.412 6.009 13.42 13.42 13.42h330.562c7.412 0 13.42-6.009 13.42-13.42v-375.904c0-27.927-22.529-50.593-50.405-50.812z" fill="#efecef" data-original="#efecef"></path><path d="m451.91 116.163c0-64.155-52.008-116.163-116.164-116.163h-6.512c28.064 0 50.814 22.75 50.814 50.814v7.628c0 7.412 6.008 13.42 13.42 13.42h7.627c28.064 0 50.814 22.75 50.814 50.814z" fill="#e2dfe2" data-original="#e2dfe2"></path><path d="m197.653 62.5h-117.276c-11.204 0-20.287 9.083-20.287 20.287v75.136c0-11.203 9.082-20.285 20.285-20.285h117.278c11.204 0 20.287-9.083 20.287-20.287v-34.564c0-11.204-9.083-20.287-20.287-20.287z" fill="#a2f4c1" data-original="#a2f4c1"></path><path d="m94.508 178.208h-14.133c-11.203 0-20.285-9.082-20.285-20.285s9.082-20.285 20.285-20.285h14.133z" fill="#86f1a7" data-original="#86f1a7"></path><path d="m411.91 243.941v-39.35c0-5.523-4.477-10-10-10h-218.051v49.35z" fill="#80e29d" data-original="#80e29d"></path><path d="m183.859 194.591h-39.35c-5.523 0-10 4.477-10 10v39.35h49.35z" fill="#6ad394" data-original="#6ad394"></path><path d="m134.508 243.941v218.051c0 5.523 4.477 10 10 10h39.35v-228.051z" fill="#80e29d" data-original="#80e29d"></path><path d="m183.859 243.941v228.051h218.051c5.523 0 10-4.477 10-10v-218.051z" fill="#a2f4c1" data-original="#a2f4c1"></path><path d="m401.91 471.992c5.523 0 10-4.477 10-10v-69.85c-.012 32.647-15.686 61.632-39.916 79.85z" fill="#86f1a7" data-original="#86f1a7"></path><path d="m411.91 418.882h-68.517v-30.61h68.517v-15h-68.517v-30.61h68.517v-15h-68.517v-30.61h68.517v-15h-68.517v-38.11h-15v38.11h-61.017v-38.11h-15v38.11h-68.517v15h68.517v30.61h-68.517v15h68.517v30.61h-68.517v15h68.517v30.61h-68.517v15h68.517v38.11h15v-38.11h61.017v38.11h15v-38.11h68.517zm-83.517 0h-61.017v-30.61h61.017zm0-45.61h-61.017v-30.61h61.017zm0-45.611h-61.017v-30.61h61.017z" fill="#d3f9e2" data-original="#d3f9e2"></path><g fill="#a2f4c1"><path d="m402.779 433.882h9.131v-15h-3.63c-1.439 5.181-3.285 10.193-5.501 15z" fill="#a2f4c1" data-original="#a2f4c1"></path><path d="m134.508 327.661h49.35v15h-49.35z" fill="#a2f4c1" data-original="#a2f4c1"></path><path d="m134.508 418.882h49.35v15h-49.35z" fill="#a2f4c1" data-original="#a2f4c1"></path><path d="m134.508 373.272h49.35v15h-49.35z" fill="#a2f4c1" data-original="#a2f4c1"></path><path d="m134.508 282.051h49.35v15h-49.35z" fill="#a2f4c1" data-original="#a2f4c1"></path><path d="m252.375 194.591h15v49.35h-15z" fill="#a2f4c1" data-original="#a2f4c1"></path><path d="m328.393 194.591h15v49.35h-15z" fill="#a2f4c1" data-original="#a2f4c1"></path></g></g></svg>