<svg width="216" height="90" viewBox="0 0 216 90" fill="none" xmlns="http://www.w3.org/2000/svg">
<g id="empty_folder">
<path id="Vector" fill-rule="evenodd" clip-rule="evenodd" d="M46 82H137C137.515 82 138.017 81.944 138.5 81.839C138.983 81.944 139.485 82 140 82H192C195.866 82 199 78.866 199 75C199 71.134 195.866 68 192 68H186C182.134 68 179 64.866 179 61C179 57.134 182.134 54 186 54H205C208.866 54 212 50.866 212 47C212 43.134 208.866 40 205 40H183C186.866 40 190 36.866 190 33C190 29.134 186.866 26 183 26H119C122.866 26 126 22.866 126 19C126 15.134 122.866 12 119 12H62C58.134 12 55 15.134 55 19C55 22.866 58.134 26 62 26H22C18.134 26 15 29.134 15 33C15 36.866 18.134 40 22 40H47C50.866 40 54 43.134 54 47C54 50.866 50.866 54 47 54H7C3.134 54 0 57.134 0 61C0 64.866 3.134 68 7 68H46C42.134 68 39 71.134 39 75C39 78.866 42.134 82 46 82ZM209 82C212.866 82 216 78.866 216 75C216 71.134 212.866 68 209 68C205.134 68 202 71.134 202 75C202 78.866 205.134 82 209 82Z" fill="black" fill-opacity="0.03"/>
<path id="Vector_2" fill-rule="evenodd" clip-rule="evenodd" d="M119.098 60.955C119.098 66.502 114.129 72 108 72C101.871 72 96.902 66.502 96.902 60.955C96.902 60.775 96.908 59.596 96.918 59.419H76L84.161 39.5755C84.513 38.6338 85.489 38 86.587 38H129.413C130.511 38 131.487 38.6338 131.839 39.5755L140 59.419H119.082C119.092 59.596 119.098 60.775 119.098 60.955Z" fill="black" fill-opacity="0.1"/>
<path id="Vector_3" fill-rule="evenodd" clip-rule="evenodd" d="M68.25 59.512V86C68.25 86.966 69.0335 87.75 70 87.75H146C146.966 87.75 147.75 86.966 147.75 86V59.512L138.255 31.4393C138.015 30.7285 137.348 30.25 136.598 30.25H79.4023C78.6519 30.25 77.985 30.7285 77.7446 31.4393L68.25 59.512Z" stroke="black" stroke-width="2.5"/>
<path id="Vector_4" d="M81 59C84.937 59 89.185 59 93.745 59C95.621 59 95.621 60.319 95.621 61C95.621 67.627 101.117 73 107.897 73C114.677 73 120.173 67.627 120.173 61C120.173 60.319 120.173 59 122.05 59H147M73.5737 59H76" stroke="black" stroke-width="2.5" stroke-linecap="round" stroke-linejoin="round"/>
<path id="Vector_5" d="M133.1 6.3027L122 18.7559M107.1 2V18.7559M81 6.3027L92.1 18.7559" stroke="black" stroke-opacity="0.62" stroke-width="2.5" stroke-linecap="round" stroke-linejoin="round"/>
</g>
</svg>
