<svg width="167" height="88" viewBox="0 0 167 88" fill="none" xmlns="http://www.w3.org/2000/svg">
<g id="no_results">
<path id="Vector" fill-rule="evenodd" clip-rule="evenodd" d="M160 1C163.866 1 167 4.134 167 8C167 11.866 163.866 15 160 15H120C123.866 15 127 18.134 127 22C127 25.866 123.866 29 120 29H142C145.866 29 149 32.134 149 36C149 39.866 145.866 43 142 43H131.826C126.952 43 123 46.134 123 50C123 52.577 125 54.911 129 57C132.866 57 136 60.134 136 64C136 67.866 132.866 71 129 71H46C42.134 71 39 67.866 39 64C39 60.134 42.134 57 46 57H7C3.134 57 0 53.866 0 50C0 46.134 3.134 43 7 43H47C50.866 43 54 39.866 54 36C54 32.134 50.866 29 47 29H22C18.134 29 15 25.866 15 22C15 18.134 18.134 15 22 15H62C58.134 15 55 11.866 55 8C55 4.134 58.134 1 62 1H160ZM160 29C163.866 29 167 32.134 167 36C167 39.866 163.866 43 160 43C156.134 43 153 39.866 153 36C153 32.134 156.134 29 160 29Z" fill="black" fill-opacity="0.03"/>
<path id="Vector_2" d="M73.5 69C92.002 69 107 54.002 107 35.5C107 16.9985 92.002 2 73.5 2C54.998 2 40 16.9985 40 35.5C40 54.002 54.998 69 73.5 69Z" fill="black" fill-opacity="0.03" stroke="black" stroke-width="2.5"/>
<path id="Vector_3" d="M68.132 61.494C69.891 61.819 71.68 61.987 73.5 62C88.136 62 100 50.136 100 35.5C100 20.8645 88.136 9 73.5 9C69.74 9 66.164 9.7829 62.924 11.1946C57.294 13.6479 52.6816 17.9999 49.896 23.4419C48.0445 27.0589 47 31.1575 47 35.5C47 39.44 47.8599 43.179 49.4021 46.54C50.5032 48.94 51.9521 51.146 53.684 53.096" stroke="black" stroke-width="2.5" stroke-linecap="round"/>
<path id="Vector_4" d="M56.797 56.075C58.945 57.821 61.372 59.237 64.001 60.247" stroke="black" stroke-width="2.5" stroke-linecap="round"/>
<path id="Vector_5" d="M101 62L107 68" stroke="black" stroke-width="2.5"/>
<path id="Vector_6" fill-rule="evenodd" clip-rule="evenodd" d="M106.03 67.03C104.138 68.923 104.138 71.992 106.03 73.884L117.116 84.97C119.008 86.862 122.077 86.862 123.97 84.97C125.863 83.077 125.863 80.008 123.97 78.116L112.885 67.03C110.992 65.138 107.923 65.138 106.03 67.03Z" fill="black" fill-opacity="0.1" stroke="black" stroke-width="2.5"/>
<path id="Vector_7" fill-rule="evenodd" clip-rule="evenodd" d="M67 24C67 35.598 76.402 45 88 45C90.278 45 92.472 44.637 94.526 43.966C91.173 52.287 83.023 58.161 73.5 58.161C60.985 58.161 50.8394 48.015 50.8394 35.5C50.8394 24.1596 59.17 14.7648 70.045 13.1011C68.113 16.2793 67 20.0097 67 24Z" fill="black" fill-opacity="0.1"/>
<path id="Vector_8" d="M74 17C72.727 17 71.482 17.1253 70.279 17.3642M66.645 18.4761C59.804 21.3508 55 28.1144 55 36" stroke="black" stroke-opacity="0.62" stroke-width="2.5" stroke-linecap="round"/>
<path id="Vector_9" d="M127.176 35.7773H119M133.5 28H116.324M140.5 28H138.279" stroke="black" stroke-opacity="0.62" stroke-width="2.5" stroke-linecap="round" stroke-linejoin="round"/>
<path id="Vector_10" d="M37.1758 57.777H29M32.5 49H15.3242M9.5 49H5.2788" stroke="black" stroke-opacity="0.62" stroke-width="2.5" stroke-linecap="round" stroke-linejoin="round"/>
</g>
</svg>
