<svg xmlns="http://www.w3.org/2000/svg" xmlns:xlink="http://www.w3.org/1999/xlink" viewBox="0 0 500 500"><defs><style>.cls-1{fill:#ff5200;}.cls-2{fill:none;}.cls-3{clip-path:url(#clip-path);}</style><clipPath id="clip-path"><path class="cls-1" d="M302,219.52l-25.43,26.91L302,272.57a34.26,34.26,0,0,0,50.12,0c13.8-14.52,13.8-38.43,0-53C337.57,205,315.78,205,302,219.52ZM172.78,168.4A71.72,71.72,0,0,1,225,191.24l-26.87,28.28a34.26,34.26,0,0,0-50.12,0c-13.8,14.62-13.8,38.53,0,53a34.26,34.26,0,0,0,50.12,0l75.54-79.87,1.45-1.46c28.33-30.49,74.82-30.49,103.14,0,29.06,30.5,29.06,79.2.74,109.7-29.06,30.5-75.55,30.5-103.88,0l-2.91-2.9-22.51-24-22.52,24-2.18,2.9c-29,30.5-75.53,30.5-103.87,0s-28.32-79.2,0-109.7a70,70,0,0,1,51.67-22.85Z"/></clipPath></defs><g id="Camada_2" data-name="Camada 2"><g id="fundo"><rect class="cls-2" width="500" height="500" rx="250"/></g><g id="logos"><g id="g290"><path class="cls-1" d="M302,219.52l-25.43,26.91L302,272.57a34.26,34.26,0,0,0,50.12,0c13.8-14.52,13.8-38.43,0-53C337.57,205,315.78,205,302,219.52ZM172.78,168.4A71.72,71.72,0,0,1,225,191.24l-26.87,28.28a34.26,34.26,0,0,0-50.12,0c-13.8,14.62-13.8,38.53,0,53a34.26,34.26,0,0,0,50.12,0l75.54-79.87,1.45-1.46c28.33-30.49,74.82-30.49,103.14,0,29.06,30.5,29.06,79.2.74,109.7-29.06,30.5-75.55,30.5-103.88,0l-2.91-2.9-22.51-24-22.52,24-2.18,2.9c-29,30.5-75.53,30.5-103.87,0s-28.32-79.2,0-109.7a70,70,0,0,1,51.67-22.85Z"/><g class="cls-3"><g id="g292"><path id="path298" class="cls-1" d="M51.39,372.1H448v-252H51.39Z"/></g></g></g></g></g></svg>