<svg xmlns="http://www.w3.org/2000/svg" viewBox="0 0 500 500"><defs><style>.cls-1{fill:none;}.cls-2{fill:#01b1ec;}.cls-3{fill:#292c6f;}.cls-4{fill:#fff;}</style></defs><g id="Camada_2" data-name="Camada 2"><g id="fundo"><rect class="cls-1" width="500" height="500" rx="250"/></g><g id="logos"><path class="cls-2" d="M251.64,154.56c-78.87,0-142.8,40.91-142.8,91.36s63.93,91.36,142.8,91.36,142.8-40.9,142.8-91.36S330.51,154.56,251.64,154.56Z"/><path class="cls-3" d="M251.61,148.83c-82,0-148.51,43.62-148.51,97.14,0,1.38,0,5.2,0,5.69,0,56.77,58.12,102.75,148.51,102.75,91,0,148.54-46,148.54-102.74V246C400.13,192.45,333.63,148.83,251.61,148.83Zm0,188.45c-78.87,0-142.8-40.9-142.8-91.36s63.93-91.36,142.8-91.36,142.8,40.91,142.8,91.36S330.51,337.28,251.64,337.28Z"/><path class="cls-4" d="M394,238.6l-3.89.58-17.89-.87-38.06,4.52-34.34,12.5,1.94-50.84,7.57-21.2,7.14-.44,7.14-1.94,14.93-5.2,10.17-1.08,4.33-2-1.73-7.52L345.28,163l2.16-7.81L342,149.75,327.75,141h-3.89l-13.63,11.61-15.79,18.61-18.83,35.91-25.33,57.77-11.23-22.72-30.51-66.42-4.17-3.46L181.86,146,173.93,141l-5.48,1.59-14.86,11.39-.29,8.51-3,1.3-4.61,6.06,4.33,3.89,12.11,2,28.41,8.45,1.38.82,2.59,8,6.05,20.51v39.64l-5,1.08-10.16-3.9-36.14-9.08-17.95-1.52-22.62,1.3c.15,32.78,16.86,47.8,16.86,47.8l7.25-3.39,32.83,5.72L216.77,290l26.61-4.49,6.9-8.82,4.31,7.85L281,291.24h38.66l32.59-4,14.43-1.59,9.42,5.08C396.66,270.14,394,238.6,394,238.6Z"/><path class="cls-3" d="M247.35,278.75c-4.79,7-12.3,8.39-19.7,8.86-3.45.22-6.9.48-10.36.74-12.09.91-24.6,1.86-36.86.87l-1.17-.1c-13.11-1.05-26.67-2.14-39.54-5.05-6.14-1.39-9.4-.54-12.92,3.37-.42.47-2.67,2.85-3.09,4.31-.17.59.82.92,1,1.09.66.6,3.88-2.59,4.47-3.25,2.7-3,4.81-3.52,9.82-2.38,13.09,3,26.77,4.06,40,5.12l1.17.1c3.8.3,7.61.43,11.41.43,8.73,0,17.45-.66,26-1.3,3.44-.26,6.87-.52,10.31-.74,7.82-.5,16.58-2.1,22.15-10.25a1.61,1.61,0,0,0-2.65-1.82Z"/><path class="cls-3" d="M394.89,237.85a1.61,1.61,0,0,0-2.19-.62c-2.45,1.36-4.82.67-7.57-.13a17.8,17.8,0,0,0-6.23-1c-21.62,1.23-43.59,5.53-67.16,13.13-2.62.84-5.23,1.8-7.76,2.73l-2.24.81c.06-1.85.13-3.71.2-5.56.36-9.93.74-20.19.5-30.29-.24-10.6,2.95-20.22,6.52-30,.81-2.2,1.3-3.15,4.68-2.59,4.82.8,10.26-1.24,14.46-3.1,5.84-2.59,11.14-4.71,17.06-4.53,4.88.19,8-2.31,8.87-7,1.09-5.95-3.63-7.34-6.75-8.26a1.36,1.36,0,0,0-.2,0,34,34,0,0,0,2.24-5.72,1.62,1.62,0,0,0-.29-1.47c-3.43-4.25-8-7.2-12.46-10-1.66-1.06-3.37-2.17-5-3.31-3.6-2.57-8-2-12.33,1.56-19.09,15.69-34,36.68-45.48,64.19q-3.06,7.32-6,14.68c-5.55,13.57-11.3,27.56-17.86,41l-4.44-10.08q-5.26-11.94-10.57-23.88-2.72-6.08-5.39-12.16c-5-11.35-10.22-23.08-15.6-34.51C208,169.23,198.23,160,188.78,151.14c-3.24-3-6.58-6.19-9.7-9.41s-8-3-10-1.48c-1.65,1.27-3.48,2.43-5.25,3.54-3.75,2.37-7.62,4.83-10.51,8.6-2.39,3.11-2.83,6.48-1.47,9.33-3.09.83-6.18,2.44-7.31,7.7A1.61,1.61,0,0,0,145,171a16.93,16.93,0,0,1,1.28,1.33c1.37,1.53,2.93,3.27,5,3.36,5.65.24,10.84,2.06,16.34,4s11.29,4,17.46,4.15c3.44.1,4.94.91,5.72,3.1.38,1.07.77,2.14,1.15,3.2a91.41,91.41,0,0,1,4.35,14.26c1.43,7.62,1.2,15.52,1,23.16-.24,8.22-.48,16.71,1.31,25-2.34.65-4.1-.28-6.1-1.33a19.72,19.72,0,0,0-2.79-1.29c-17.76-6.11-36.8-12.07-57.13-12.07H132c-5.33,0-10.66,0-16,0h-7.33a1.61,1.61,0,0,0,0,3.22H116c5.34,0,10.67,0,16,0h.53c19.83,0,38.58,5.87,56.09,11.9A17.07,17.07,0,0,1,191,254,12.81,12.81,0,0,0,197,256a9.39,9.39,0,0,0,4.11-1,1.61,1.61,0,0,0,.88-1.84c-2-8.29-1.8-16.65-1.55-25.51.23-7.81.46-15.88-1-23.84A94.35,94.35,0,0,0,195,189c-.39-1.06-.77-2.12-1.15-3.18-1.59-4.46-5.46-5.15-8.65-5.24-5.67-.17-10.93-2-16.5-4s-11.14-3.91-17.26-4.17c-.69,0-1.91-1.39-2.71-2.29l-.84-.91c1-3.36,3.06-4.07,5.82-4.67a1.47,1.47,0,0,0,.22-.1c.18.17.33.34.53.5,3.54,2.8,10.83,8.54,19.08,2.87a39.92,39.92,0,0,0,9.12,8.58,1.69,1.69,0,0,0,.88.26,1.61,1.61,0,0,0,.87-3c-4.92-3.19-8.33-7.71-11.93-12.49-1.22-1.62-2.48-3.29-3.79-4.88a1.61,1.61,0,1,0-2.49,2c1.27,1.54,2.51,3.19,3.71,4.77l1.63,2.16c-5.14,3.43-9.62,1.45-15.09-2.87-3.68-2.92-1.95-6.34-.58-8.12,2.54-3.31,6-5.5,9.67-7.83,1.83-1.15,3.72-2.35,5.48-3.7.78-.59,3.76-.92,5.78,1.16,3.17,3.27,6.54,6.44,9.8,9.51,9.24,8.69,18.79,17.68,24.38,29.55,5.37,11.39,10.55,23.11,15.56,34.44,1.8,4.06,3.59,8.12,5.4,12.17q5.31,11.93,10.56,23.87l4.73,10.71a1.6,1.6,0,0,0,1.33.94,14.55,14.55,0,0,0,.08,10.18,21.84,21.84,0,0,0,10.56,12.34,32.91,32.91,0,0,0,11.92,3l2.3.18c12.18,1,24.66,1.94,37.14,1.94,4.63,0,9.26-.14,13.87-.46,11.53-.8,23.83-2,35.61-5.12,6.43-1.71,9.52.06,13,3.93.6.66,3,3.3,3.62,1.65,1-2.58-.62-3.13-1.21-3.79-4-4.47-8.27-7-16.2-4.89-11.52,3.06-23.63,4.22-35,5-16.81,1.18-34-.17-50.53-1.48l-2.31-.18a30.06,30.06,0,0,1-10.76-2.72,18.59,18.59,0,0,1-8.93-10.49c-1.08-3.18-1.06-6.17.06-8.41,7-14.15,13.12-29,19-43.34,2-4.89,4-9.78,6-14.66,11.3-27,25.88-47.6,44.55-62.95,2.21-1.81,5.46-3.54,8.43-1.42,1.67,1.19,3.42,2.31,5.11,3.4,4.17,2.68,8.12,5.21,11.15,8.71-1.66,5.24-3.88,8.48-6.76,9.9-2.65,1.3-6.15,1.18-10.65-.35,2.18-2.83,4.11-5.75,5.92-8.53a1.61,1.61,0,1,0-2.69-1.76c-4.36,6.68-9.31,14.25-17.16,18.8a1.61,1.61,0,0,0,.81,3,1.56,1.56,0,0,0,.8-.22,39.83,39.83,0,0,0,10.16-8.64c5.88,2.21,10.55,2.4,14.24.58a13.17,13.17,0,0,0,4.93-4.42,1.56,1.56,0,0,0,.79.56c3.67,1.09,5,1.77,4.49,4.61-.56,3.09-2.29,4.4-5.59,4.31-6.56-.25-12.26,2.05-18.48,4.81-3.49,1.55-8.6,3.54-12.62,2.86-5.11-.84-7,1.25-8.23,4.66-3.68,10-7,20-6.71,31.15.23,10-.15,20.22-.51,30.1q-.14,3.69-.26,7.38a9.45,9.45,0,0,1-.8.68,10.64,10.64,0,0,0-1.05.89,1.61,1.61,0,1,0,2.28,2.27,8.28,8.28,0,0,1,.75-.63,7.65,7.65,0,0,0,1.42-1.32,1.78,1.78,0,0,0,.45-.08l3.58-1.3c2.5-.92,5.08-1.86,7.64-2.69,23.3-7.52,45-11.76,66.36-13a15.83,15.83,0,0,1,5.14.92c3,.87,6.4,1.86,10-.15A1.61,1.61,0,0,0,394.89,237.85Z"/></g></g></svg>