<svg xmlns="http://www.w3.org/2000/svg" viewBox="0 0 500 500"><defs><style>.cls-1{fill:none;}.cls-2{fill:#cc092f;}</style></defs><g id="Camada_2" data-name="Camada 2"><g id="fundo"><rect class="cls-1" width="500" height="500" rx="250"/></g><g id="logos"><path class="cls-2" d="M241.85,169a330.7,330.7,0,0,0-54.4,4.72,103.35,103.35,0,0,1,81.6-39.57c24.45,0,48.9,9.22,65.36,22.93,3,2.48,5.26,2.7,7.54.45s2.06-4.49-.45-7.42c-21.49-25-53-41.82-90.28-41.15-48.68.9-90.05,31.71-105.82,74.43a207.53,207.53,0,0,0-39.31,16.42c-3.2,1.8-4.34,4-3.2,6.74,1.14,2.48,3.43,3.38,6.63,2.48,10-2.93,20.34-5.4,31.08-7.65a88,88,0,0,0-1.83,17.54c-.91,39.35,20.11,76.68,52.57,97.15,3.2,2,5.94,2,7.77-.45s1.6-4.73-1.14-7.2c-20.57-18.44-32-45.87-32-73.08a96.32,96.32,0,0,1,8-38.9c10.74-.9,22.4-1.58,35.2-1.58,83.19,0,153.35,27.43,153.35,63.41,0,18.22-23.08,36.43-50.51,48.58-6.63,2.92-7.31,4.94-6.4,7.87.92,2.69,3.89,3.59,7.32,2.47,48-15.74,84.33-41.6,84.33-72.86C397.26,201.85,328.7,169,241.85,169Z"/><path class="cls-2" d="M281.57,385.19V294.14c0-3.49-3.37-4.76-6.14-3.18l-23.15,13.32v85.3l24.86,0A4.43,4.43,0,0,0,281.57,385.19Z"/><path class="cls-2" d="M224.1,323.8v63a2.86,2.86,0,0,0,2.86,2.86h17.51V308.77L227,318.84A5.36,5.36,0,0,0,224.1,323.8Z"/></g></g></svg>