<svg xmlns="http://www.w3.org/2000/svg" viewBox="0 0 500 500"><defs><style>.cls-1{fill:none;}.cls-2{fill:#2360a5;}</style></defs><g id="Camada_2" data-name="Camada 2"><g id="fundo"><rect class="cls-1" width="500" height="500" rx="250"/></g><g id="logos"><polygon class="cls-2" points="114.74 352.33 143.55 333.13 172.36 352.33 114.74 390.76 114.74 352.33"/><polygon class="cls-2" points="391.33 152.6 362.52 171.8 333.71 152.6 391.33 114.16 391.33 152.6"/><polygon class="cls-2" points="391.33 298.55 253.04 390.76 114.74 298.55 278.98 189.08 307.79 208.29 175.25 296.64 255.92 350.43 293.37 325.46 264.56 306.24 333.71 260.13 391.33 298.55 391.33 298.55"/><polygon class="cls-2" points="114.74 206.38 253.05 114.2 391.35 206.38 227.11 315.86 198.3 296.64 330.84 208.29 250.16 154.52 212.71 179.49 241.52 198.69 172.36 244.81 114.74 206.38 114.74 206.38"/></g></g></svg>