<svg xmlns="http://www.w3.org/2000/svg" viewBox="0 0 500 500"><defs><style>.cls-1{fill:none;}.cls-2{fill:#820ad1;}</style></defs><g id="Camada_2" data-name="Camada 2"><g id="fundo"><rect class="cls-1" width="500" height="500" rx="250"/></g><g id="logos"><path id="path2" class="cls-2" d="M153.83,183.27a49.59,49.59,0,0,1,36.73-15.73c28.7,0,47.72,21,51.36,52.34,1.19,10.19,1.17,24.56,1.16,41.21v67.55H203.61V282.52s-.08-39.48-.32-46.85c-1.06-32.14-20.08-52.33-49.46-52.35-8.86,9.37-13.61,20.82-14.31,38.33-.1,2.44-.08,11.09,0,22.5,0,5.91,0,12.56,0,19.47,0,30.06,0,65,0,65H100.05v-71c0-2.43,0-4.88-.09-7.34-.09-5-.18-9.95.09-14.89.45-8.24,1.87-16.34,5.72-23.87a52.17,52.17,0,0,1,46.06-28.33c.67,0,1.34,0,2,0Z"/><path id="path4" class="cls-2" d="M398.63,264.57c.27-4.94.18-9.93.09-14.89-.05-2.46-.09-4.91-.09-7.34v-71H359.16s0,35,0,65c0,6.91,0,13.56,0,19.47,0,11.41.06,20.06,0,22.5-.7,17.51-5.45,29-14.31,38.33-29.38,0-48.4-20.21-49.46-52.34-.24-7.38-.34-25.69-.34-46.89V171.32l-39.44,0v67.55c0,16.65,0,31,1.15,41.21,3.64,31.39,22.66,52.34,51.36,52.34a49.59,49.59,0,0,0,36.73-15.73c.66,0,1.33,0,2,0a52.17,52.17,0,0,0,46.06-28.33c3.85-7.53,5.27-15.63,5.72-23.87Z"/></g></g></svg>