<svg xmlns="http://www.w3.org/2000/svg" viewBox="0 0 500 500"><defs><style>.cls-1{fill:none;}.cls-2{fill:#001e61;fill-rule:evenodd;}</style></defs><g id="Camada_2" data-name="Camada 2"><g id="fundo"><rect class="cls-1" width="500" height="500" rx="250"/></g><g id="logos"><path class="cls-2" d="M312.27,242.26l3.18-15.84H288.07V204.79l-19.22,3v64.61c0,22.33,8.57,29,31.94,29H311l3.18-15.69h-12c-10.64,0-14.1-2.69-14.1-14.56V242.26Z"/><path class="cls-2" d="M220.73,224c-7.47,0-15.63,1.55-21.16,5.94V194.19l-19.36,3.11h0v69.42c0,25.73,11.62,36.47,36.92,36.47,26.28,0,37.89-10.46,37.89-36.33v-6.65C255,235.9,244.23,224,220.73,224Zm15.07,42.84c0,15.54-4.7,20.92-18.25,20.92s-18.26-5.38-18.26-21.07v-8c0-14.28,4.71-19.09,18.53-19.09h0c13.28,0,18,5.37,18,21.35Z"/><path class="cls-2" d="M358.73,224c-25.31,0-36.92,10.88-36.92,35.77v3.81c0,23.61,10.09,35.06,33.88,35.06,7.6,0,15.21-1.41,20.6-5.79v2.83c0,13.29-5.67,17.66-18.94,17.66h-8c-4.54.09-6.61.91-9.35,5.5h0c-22.8,36.9-62.39,59.43-105.53,59.43-68.83,0-124.82-57.24-124.82-127.61s56-127.62,124.82-127.62c48.35,0,92.33,28.62,112.91,73.17h5.74c-21-47.7-67.47-78.49-118.65-78.49-71.69,0-130,59.64-130,132.94s58.33,132.93,130,132.93c42.17,0,81.08-20.67,105.34-55h18.6c24.48,0,37.06-9.47,37.06-33.64V258.51C395.51,234.48,383.48,224,358.73,224Zm17.7,42c0,13.29-4.56,17.38-17.7,17.38-14.8,0-17.7-5.23-17.7-20.63v-2.41c0-15.27,2.63-20.78,17.7-20.78,14.8,0,17.7,5.37,17.7,20.92Z"/></g></g></svg>