<svg xmlns="http://www.w3.org/2000/svg" viewBox="0 0 500 500"><defs><style>.cls-1{fill:none;}.cls-2{fill:#ec0000;}</style></defs><g id="Camada_2" data-name="Camada 2"><g id="fundo"><rect class="cls-1" width="500" height="500" rx="250"/></g><g id="logos"><path class="cls-2" d="M313.37,234.25A64.11,64.11,0,0,0,305,205.2L259.16,126A62.35,62.35,0,0,1,252,106.72L250,110a63.79,63.79,0,0,0,0,63.57l36.66,63.56a63.79,63.79,0,0,1,0,63.57l-2,3.32A59.68,59.68,0,0,0,277.49,285L244,226.65,222.51,189.6a63.44,63.44,0,0,1-7.22-19.11l-1.95,3.31a63.88,63.88,0,0,0-.19,63.37h0L250,300.74a63.79,63.79,0,0,1,0,63.57l-1.95,3.32a64.47,64.47,0,0,0-7.21-19.11L195,269a63,63,0,0,1-8.38-34.51c-49.14,12.67-83.07,40-83.07,71.56,0,43.87,65.52,79.36,146.44,79.36S396.44,349.88,396.44,306C396.44,274.42,362.51,247.12,313.37,234.25Z"/></g></g></svg>