<svg width="500" height="500" viewBox="0 0 500 500" fill="none" xmlns="http://www.w3.org/2000/svg">
<path d="M207.45 243.912L223.069 170.016H236.802L202.586 330.714H175.134L190.76 257.646L207.45 243.912Z" fill="#0500F5"/>
<path d="M260.872 199.368L267.211 170.016L280.937 170.008L255.803 287.636L239.12 301.362L232.789 330.714H219.056L244.395 213.086L260.872 199.368Z" fill="#0500F5"/>
<path d="M153.808 288.472L179.147 170.008L179.155 170H192.873L158.452 330.714H131L137.126 302.411L153.808 288.472Z" fill="#0500F5"/>
<path d="M307.332 330.714L341.548 170.016H369L362.874 198.524L346.192 212.25L320.853 330.714H307.332Z" fill="#0500F5"/>
<path d="M297.406 170.016H324.866L309.445 243.084L292.77 256.802L276.924 330.714H263.198L297.406 170.016Z" fill="#0500F5"/>
</svg>
