<svg width="92" height="92" viewBox="0 0 92 92" fill="none" xmlns="http://www.w3.org/2000/svg">
<path fill-rule="evenodd" clip-rule="evenodd" d="M42.3464 40.0125C40.8203 40.3516 39.7167 41.5884 39.5906 43.1008L39.5623 43.4402L40.3741 43.4288L41.1859 43.4173L41.2365 43.117C41.3361 42.5252 41.7353 42.0107 42.3044 41.7409L42.5774 41.6114H50.9139H59.2504L59.5281 41.7495C60.04 42.0041 60.4029 42.4545 60.5544 43.0238C60.6453 43.3657 60.6448 53.6527 60.5537 54.0021C60.3767 54.6817 59.8908 55.1906 59.2294 55.389C59.1717 55.4062 58.8504 55.4317 58.5155 55.4456L57.9065 55.4706V56.2686V57.0666L58.5995 57.0637C60.3983 57.0565 61.69 56.0988 62.1362 54.4417L62.2323 54.0847V48.52V42.9553L62.1384 42.5984C61.7873 41.2637 60.8174 40.3323 59.4473 40.014C59.0871 39.9305 42.7225 39.9289 42.3464 40.0125ZM36.8867 44.2632C36.6606 44.2855 36.2823 44.3717 36.2378 44.411C36.2159 44.4304 36.1715 44.4463 36.1392 44.4463C36.0094 44.4463 35.3717 44.7983 35.1092 45.0148C34.5627 45.4655 34.1769 46.0424 33.9444 46.7561L33.8418 47.0711V52.7828C33.8418 58.7675 33.837 58.5957 34.0175 59.0824C34.4227 60.1755 35.3621 61.0193 36.4667 61.2822C36.9771 61.4037 37.6018 61.4131 45.127 61.4132C52.5451 61.4133 53.4791 61.4001 53.8117 61.2898C53.8695 61.2707 54.0018 61.2301 54.1057 61.1997C55.1104 60.9053 56.0638 59.9207 56.3388 58.8935C56.4972 58.3025 56.4979 58.2726 56.4979 52.8248C56.4979 47.2785 56.4955 47.1961 56.3147 46.6511C55.9704 45.6137 55.0591 44.7057 54.0637 44.4089C53.9598 44.3778 53.818 44.3311 53.7487 44.3048C53.6325 44.2609 37.3181 44.2206 36.8867 44.2632ZM53.6283 45.9842C54.4708 46.3323 54.8873 47.0371 54.8538 48.0581L54.8407 48.457L45.1445 48.4676L35.4484 48.4782L35.468 47.8587C35.4995 46.8653 35.8497 46.3099 36.6347 46.0084C36.9717 45.8789 36.4783 45.8857 45.2652 45.8907L53.4128 45.8952L53.6283 45.9842ZM54.8535 55.1557C54.8626 57.1989 54.8525 58.0541 54.8173 58.2185C54.6653 58.9258 54.1996 59.4535 53.5482 59.6562C53.3063 59.7315 52.9926 59.734 45.0582 59.7234L36.8193 59.7124L36.4999 59.5545C36.1129 59.3633 35.7988 59.0413 35.6092 58.6415L35.4798 58.3685L35.4679 55.334L35.4561 52.2996L45.1484 52.3102L54.8407 52.3208L54.8535 55.1557Z" fill="#FCFA04"/>
<path fill-rule="evenodd" clip-rule="evenodd" d="M32.0168 31.4729C31.4018 31.5934 30.8433 32.1181 30.6492 32.7579C30.5389 33.1215 30.5597 37.1675 30.6737 37.5147C30.8621 38.0886 31.2503 38.4825 31.8288 38.6867C32.2201 38.8248 36.2586 38.8265 36.6782 38.6888C37.2963 38.4858 37.775 37.9435 37.894 37.3114C37.9503 37.0128 37.9506 33.1921 37.8944 32.8959C37.763 32.2025 37.1611 31.6006 36.4677 31.4692C36.1945 31.4173 32.2834 31.4206 32.0168 31.4729Z" fill="#05349B"/>
<path fill-rule="evenodd" clip-rule="evenodd" d="M25.0044 28.8547C25.0061 31.0435 25.023 32.6717 25.0434 32.624C25.0633 32.5778 25.0809 32.4833 25.0825 32.414C25.1053 31.4517 25.8622 29.6092 26.6955 28.4872C28.0212 26.7023 30.6726 25.1237 32.414 25.0825C32.4833 25.0809 32.5778 25.0633 32.624 25.0434C32.6717 25.023 31.0435 25.0061 28.8547 25.0044L25.0014 25.0014L25.0044 28.8547ZM59.3765 25.0434C59.4227 25.0633 59.5172 25.0809 59.5865 25.0825C60.5488 25.1053 62.3913 25.8622 63.5133 26.6955C65.2982 28.0212 66.8768 30.6726 66.9181 32.414C66.9196 32.4833 66.9373 32.5778 66.9571 32.624C66.9776 32.6717 66.9945 31.0435 66.9962 28.8547L66.9991 25.0014L63.1458 25.0044C60.957 25.0061 59.3289 25.023 59.3765 25.0434ZM25.0044 63.1458L25.0014 66.9991L28.8547 66.9962C31.0435 66.9945 32.6717 66.9776 32.624 66.9571C32.5778 66.9373 32.4833 66.9196 32.414 66.9181C30.6726 66.8768 28.0212 65.2982 26.6955 63.5133C25.8622 62.3913 25.1053 60.5488 25.0825 59.5865C25.0809 59.5172 25.0633 59.4227 25.0434 59.3765C25.023 59.3289 25.0061 60.957 25.0044 63.1458ZM66.9461 59.4605C66.9285 59.5529 66.8933 59.7514 66.8679 59.9015C66.2805 63.3724 63.3724 66.2805 59.9015 66.8679C59.7514 66.8933 59.5529 66.9284 59.4605 66.9461C59.3681 66.9637 61.0201 66.9829 63.1317 66.9888C65.2431 66.9947 66.9772 66.993 66.9852 66.9851C66.993 66.9772 66.9947 65.2431 66.9888 63.1317C66.9829 61.0201 66.9637 59.3681 66.9461 59.4605Z" fill="#FCFBFA"/>
<path fill-rule="evenodd" clip-rule="evenodd" d="M33.1283 25.0437C33.114 25.0668 33.0231 25.0858 32.9262 25.0859C32.4302 25.0866 31.2385 25.3406 30.7134 25.5575C30.6556 25.5814 30.5659 25.6173 30.5139 25.6373C30.4619 25.6573 30.3769 25.6903 30.3249 25.7106C30.1053 25.7966 29.4615 26.1192 29.3065 26.2211C29.2141 26.2818 29.1098 26.3419 29.0749 26.3545C28.5208 26.5544 26.5544 28.5208 26.3545 29.0749C26.3419 29.1098 26.2818 29.2141 26.2211 29.3065C26.1192 29.4615 25.7966 30.1053 25.7106 30.3249C25.6903 30.3769 25.6573 30.4619 25.6373 30.5139C25.6173 30.5659 25.5807 30.6556 25.5561 30.7134C25.5314 30.7711 25.4885 30.894 25.4606 30.9864C25.4327 31.0788 25.395 31.2016 25.3766 31.2594C25.2517 31.6537 25.0864 32.6015 25.0859 32.9262C25.0858 33.0231 25.0668 33.114 25.0437 33.1283C24.9854 33.1643 24.9854 58.8368 25.0437 58.8728C25.0668 58.8871 25.0858 58.978 25.0859 59.0748C25.0866 59.5634 25.3337 60.7311 25.5519 61.2772C25.5727 61.3292 25.6086 61.4189 25.6317 61.4767C25.6548 61.5344 25.6903 61.6242 25.7106 61.6762C25.7966 61.8958 26.1192 62.5395 26.2211 62.6946C26.2818 62.787 26.3419 62.8913 26.3545 62.9262C26.5544 63.4803 28.5208 65.4467 29.0749 65.6466C29.1098 65.6592 29.2141 65.7193 29.3065 65.78C29.4615 65.8819 30.1053 66.2045 30.3249 66.2905C30.4654 66.3454 30.6175 66.4065 30.7239 66.4507C30.7759 66.4722 30.894 66.5126 30.9864 66.5405C31.0788 66.5684 31.2016 66.6061 31.2594 66.6245C31.6537 66.7494 32.6015 66.9147 32.9262 66.9152C33.0231 66.9153 33.114 66.9343 33.1283 66.9574C33.1643 67.0157 58.8368 67.0157 58.8728 66.9574C58.8871 66.9343 58.978 66.9153 59.0748 66.9152C59.2976 66.9149 60.0039 66.8091 60.3625 66.7223C60.8123 66.6135 61.1305 66.5135 61.4662 66.3751C61.5297 66.3488 61.6242 66.3108 61.6762 66.2905C61.8958 66.2045 62.5395 65.8819 62.6946 65.78C62.787 65.7193 62.8913 65.6592 62.9262 65.6466C63.4803 65.4467 65.4467 63.4803 65.6466 62.9262C65.6592 62.8913 65.7193 62.787 65.78 62.6946C65.8407 62.6022 65.972 62.3565 66.072 62.1487C66.2443 61.79 66.2906 61.6857 66.3751 61.4662C66.395 61.4142 66.4291 61.3292 66.4507 61.2772C66.4722 61.2252 66.5126 61.1071 66.5405 61.0147C66.5684 60.9223 66.6061 60.7995 66.6245 60.7417C66.7494 60.3474 66.9147 59.3996 66.9152 59.0748C66.9153 58.978 66.9343 58.8871 66.9574 58.8728C67.0157 58.8368 67.0157 33.1643 66.9574 33.1283C66.9343 33.114 66.9153 33.0231 66.9152 32.9262C66.9144 32.4302 66.6605 31.2385 66.4435 30.7134C66.4197 30.6556 66.3838 30.5659 66.3638 30.5139C66.3438 30.4619 66.3108 30.3769 66.2905 30.3249C66.2045 30.1053 65.8819 29.4615 65.78 29.3065C65.7193 29.2141 65.6592 29.1098 65.6466 29.0749C65.4467 28.5208 63.4803 26.5544 62.9262 26.3545C62.8913 26.3419 62.787 26.2818 62.6946 26.2211C62.5404 26.1198 61.9155 25.8064 61.6657 25.7051C61.6079 25.6815 61.5134 25.6435 61.4557 25.6204C61.3979 25.5973 61.3129 25.5633 61.2667 25.5448C61.2205 25.5264 61.1071 25.4885 61.0147 25.4606C60.9223 25.4327 60.7995 25.395 60.7417 25.3766C60.3474 25.2517 59.3996 25.0864 59.0748 25.0859C58.978 25.0858 58.8871 25.0668 58.8728 25.0437C58.8368 24.9854 33.1643 24.9854 33.1283 25.0437ZM36.468 31.4696C37.1615 31.601 37.7633 32.2028 37.8948 32.8963C37.951 33.1925 37.9506 37.0131 37.8944 37.3118C37.7754 37.9439 37.2966 38.4862 36.6785 38.6892C36.259 38.8269 32.2205 38.8251 31.8292 38.6871C31.2506 38.4829 30.8625 38.089 30.674 37.5151C30.5601 37.1679 30.5393 33.1219 30.6496 32.7583C30.8437 32.1185 31.4022 31.5938 32.0172 31.4732C32.2838 31.4209 36.1948 31.4177 36.468 31.4696ZM59.4579 39.9491C59.5287 39.9701 59.6624 40.0092 59.7548 40.0358C60.3407 40.2053 61.0613 40.66 61.3921 41.0689C61.4841 41.1827 61.5937 41.3134 61.6355 41.3594C61.7409 41.475 62.0572 42.1174 62.1217 42.3467C62.1509 42.4507 62.1967 42.5924 62.2236 42.6617C62.2865 42.8241 62.3186 53.3894 62.2581 53.9591C62.1117 55.3335 61.1464 56.5733 59.9391 56.9374C59.6149 57.0351 59.5208 57.0578 59.2928 57.0929C59.1542 57.1142 58.7922 57.1428 58.4883 57.1565C57.7921 57.1879 57.8384 57.2563 57.8534 56.2175L57.8649 55.429L58.4529 55.4024C59.5846 55.3511 60.1225 55.0187 60.4486 54.1691C60.5625 53.8724 60.5737 53.3624 60.5737 48.4946C60.5736 42.5199 60.5938 42.7456 60.007 42.1604C59.8191 41.9731 59.7071 41.9027 59.2759 41.7009C59.2024 41.6666 56.9447 41.6538 50.9394 41.6538C42.1348 41.6538 42.5148 41.6452 42.2142 41.8507C42.1529 41.8925 42.0905 41.9268 42.0753 41.9268C41.9453 41.9268 41.4665 42.5203 41.3809 42.7877C41.3514 42.8801 41.3114 42.9935 41.2921 43.0397C41.2729 43.0859 41.2519 43.1993 41.2455 43.2917L41.2338 43.4597H40.3729H39.5119L39.5154 43.2497C39.5195 42.9965 39.5685 42.6509 39.6167 42.5357C39.636 42.4895 39.6764 42.362 39.7066 42.2523C39.7366 42.1425 39.776 42.0528 39.794 42.0528C39.8121 42.0528 39.8269 42.0282 39.8269 41.9982C39.8269 41.9209 39.9257 41.7175 39.9634 41.7171C39.9807 41.7169 39.9949 41.6965 39.9949 41.6718C39.9949 41.4119 40.8679 40.5662 41.4228 40.2887C41.5729 40.2135 41.7286 40.1356 41.7688 40.1155C41.8089 40.0954 41.8786 40.0789 41.9237 40.0789C41.9689 40.0789 42.0175 40.06 42.0318 40.0369C42.046 40.0138 42.1086 39.9946 42.1708 39.9942C42.2329 39.9939 42.3121 39.9752 42.3467 39.9529C42.4293 39.8995 59.2779 39.8958 59.4579 39.9491ZM54.0333 44.3297C55.2399 44.7503 56.0955 45.6426 56.4409 46.8405C56.5382 47.178 56.5922 57.8882 56.4993 58.4529C56.4027 59.0411 56.1439 59.6347 55.7866 60.0873C55.5729 60.3582 55.0061 60.8673 54.918 60.8676C54.8911 60.8676 54.8628 60.882 54.855 60.8994C54.842 60.929 54.3554 61.1749 54.1691 61.246C54.0562 61.2892 53.7976 61.3551 53.5254 61.4103C53.1998 61.4764 37.0935 61.4739 36.7426 61.4077C35.1915 61.1154 34.0483 59.9607 33.7963 58.4319C33.7094 57.9041 33.7094 47.7043 33.7963 47.1765C34.0116 45.8706 34.8779 44.837 36.1521 44.366C36.6076 44.1976 36.4547 44.2003 45.2656 44.2083L53.7071 44.216L54.0333 44.3297ZM36.7191 46.0305C35.9383 46.3002 35.5478 46.898 35.511 47.8799L35.4902 48.4364H45.1389H54.7876L54.7717 47.8589C54.7448 46.888 54.3693 46.3137 53.585 46.0439C53.2443 45.9266 37.0568 45.9138 36.7191 46.0305ZM35.5011 55.1694C35.5011 57.024 35.5169 58.0821 35.5468 58.2457C35.6624 58.8769 36.1258 59.396 36.7596 59.604L37.0269 59.6918H45.1542H53.2816L53.5315 59.6031C54.1475 59.3844 54.5393 58.9823 54.7115 58.3927C54.7695 58.1943 54.7781 57.787 54.7781 55.2534V52.3422H45.1396H35.5011V55.1694Z" fill="#FB6404"/>
<path fill-rule="evenodd" clip-rule="evenodd" d="M32.561 25.046C32.4801 25.0648 32.2817 25.1024 32.12 25.1295C28.6254 25.715 25.7089 28.6318 25.13 32.1199C25.1032 32.2816 25.0634 32.4945 25.0413 32.593C24.9881 32.8318 24.9893 33.1612 25.0434 33.1278C25.0665 33.1135 25.0855 33.0226 25.0856 32.9258C25.0863 32.4297 25.3403 31.238 25.5572 30.713C25.5811 30.6552 25.617 30.5654 25.637 30.5135C25.657 30.4615 25.69 30.3764 25.7103 30.3245C25.7963 30.1048 26.1189 29.4611 26.2208 29.306C26.2815 29.2136 26.3415 29.1094 26.3541 29.0744C26.5541 28.5204 28.5205 26.5539 29.0745 26.354C29.1095 26.3414 29.2138 26.2814 29.3062 26.2207C29.4612 26.1187 30.105 25.7962 30.3246 25.7102C30.3766 25.6898 30.4711 25.6518 30.5346 25.6256C30.7683 25.5293 30.8215 25.5098 30.9861 25.4602C31.0785 25.4323 31.2013 25.3946 31.2591 25.3762C31.6534 25.2513 32.6012 25.086 32.9259 25.0855C33.0228 25.0854 33.1137 25.0664 33.128 25.0433C33.1588 24.9933 32.7799 24.9952 32.561 25.046ZM58.8725 25.0433C58.8868 25.0664 58.9777 25.0854 59.0745 25.0855C59.2973 25.0858 60.0036 25.1915 60.3622 25.2783C60.812 25.3871 61.1302 25.4872 61.4659 25.6256C61.5294 25.6518 61.6239 25.6898 61.6759 25.7102C61.8955 25.7962 62.5393 26.1187 62.6943 26.2207C62.7867 26.2814 62.891 26.3414 62.9259 26.354C63.48 26.5539 65.4464 28.5204 65.6463 29.0744C65.6589 29.1094 65.719 29.2136 65.7797 29.306C65.8816 29.4611 66.2042 30.1048 66.2902 30.3245C66.3105 30.3764 66.3435 30.4615 66.3635 30.5135C66.3835 30.5654 66.42 30.6552 66.4447 30.713C66.4694 30.7707 66.5123 30.8935 66.5402 30.9859C66.5681 31.0783 66.6058 31.2012 66.6242 31.2589C66.7491 31.6533 66.9144 32.6011 66.9149 32.9258C66.915 33.0226 66.934 33.1135 66.9571 33.1278C67.0112 33.1612 67.0124 32.8318 66.9592 32.593C66.9371 32.4945 66.8972 32.2816 66.8705 32.1199C66.2917 28.6324 63.368 25.7086 59.8805 25.1299C59.7188 25.1031 59.5059 25.0632 59.4074 25.0412C59.1685 24.9879 58.8392 24.9892 58.8725 25.0433ZM42.3464 39.9524C42.3118 39.9748 42.2326 39.9935 42.1705 39.9938C42.1083 39.9941 42.0457 40.0133 42.0315 40.0364C42.0172 40.0595 41.9686 40.0784 41.9234 40.0784C41.8783 40.0784 41.8086 40.0949 41.7685 40.1151C41.7283 40.1351 41.5726 40.213 41.4225 40.2882C40.8676 40.5657 39.9946 41.4114 39.9946 41.6714C39.9946 41.6961 39.9804 41.7165 39.9631 41.7167C39.9254 41.7171 39.8266 41.9205 39.8266 41.9977C39.8266 42.0278 39.8118 42.0523 39.7937 42.0523C39.7757 42.0523 39.7363 42.1421 39.7063 42.2518C39.6761 42.3615 39.6357 42.4891 39.6164 42.5353C39.5682 42.6505 39.5192 42.996 39.5151 43.2493L39.5116 43.4592H40.3726H41.2335L41.2395 43.2703L41.2455 43.0813L41.2185 43.2493L41.1915 43.4173L40.377 43.4287L39.5624 43.4401L39.5907 43.1007C39.7101 41.6679 40.711 40.4777 42.1575 40.0483C42.5132 39.9427 58.9826 39.9091 59.4395 40.013C60.939 40.3543 61.9933 41.4752 62.2067 42.9553L62.2431 43.2073L62.2482 43.0002C62.251 42.8864 62.2357 42.7352 62.2142 42.6642C62.1927 42.5934 62.151 42.4503 62.1217 42.3463C62.0567 42.1165 61.7403 41.4742 61.6352 41.3589C61.5934 41.313 61.4838 41.1822 61.3918 41.0684C61.061 40.6596 60.3404 40.2048 59.7545 40.0354C59.6621 40.0087 59.5284 39.9697 59.4576 39.9487C59.2776 39.8953 42.429 39.8991 42.3464 39.9524ZM42.6405 41.6211C42.1826 41.7076 41.6344 42.1443 41.403 42.6068C41.2592 42.8942 41.2104 43.0925 41.2965 43.0393C41.3196 43.025 41.3385 42.9764 41.3385 42.9313C41.3385 42.717 41.9114 41.9263 42.0666 41.9263C42.0864 41.9263 42.1526 41.8921 42.2139 41.8502C42.5145 41.6447 42.1345 41.6533 50.9391 41.6533C56.9444 41.6533 59.2021 41.6662 59.2756 41.7005C59.7068 41.9023 59.8189 41.9726 60.0067 42.1599C60.5935 42.7452 60.5733 42.5194 60.5734 48.4941C60.5734 53.362 60.5622 53.8719 60.4483 54.1687C60.1222 55.0183 59.5843 55.3507 58.4526 55.4019L57.8646 55.4286L57.8531 56.2171C57.8381 57.2559 57.7918 57.1874 58.488 57.1561C58.7919 57.1424 59.1539 57.1137 59.2925 57.0924C59.5205 57.0574 59.6146 57.0347 59.9388 56.9369C60.9194 56.6412 61.9362 55.537 62.1786 54.5046C62.277 54.0856 62.2889 53.391 62.2826 48.457L62.276 43.2073L62.2534 48.667L62.2307 54.1267L62.1352 54.4626C61.665 56.1177 60.389 57.0564 58.5996 57.0637L57.9066 57.0665V56.2685V55.4706L58.5156 55.4455C58.8505 55.4316 59.1718 55.4061 59.2295 55.3889C59.8909 55.1906 60.3768 54.6817 60.5538 54.002C60.6448 53.6526 60.6454 43.3656 60.5544 43.0237C60.4029 42.4545 60.0401 42.004 59.5282 41.7494L59.2505 41.6114L50.998 41.6063C46.4591 41.6036 42.6983 41.6102 42.6405 41.6211ZM36.5508 44.2596C35.1217 44.5705 34.0361 45.72 33.796 47.176C33.7091 47.7038 33.7091 57.9036 33.796 58.4314C34.048 59.9602 35.1912 61.115 36.7423 61.4073C37.0932 61.4734 53.1995 61.4759 53.5251 61.4099C53.7973 61.3547 54.0559 61.2887 54.1688 61.2456C54.3551 61.1745 54.8417 60.9286 54.8547 60.899C54.8625 60.8816 54.8908 60.8672 54.9177 60.8672C55.0058 60.8669 55.5726 60.3577 55.7863 60.0869C56.1436 59.6342 56.4024 59.0407 56.499 58.4524C56.5919 57.8878 56.5379 47.1775 56.4406 46.8401C56.0952 45.6422 55.2396 44.7498 54.033 44.3292L53.7068 44.2155L45.2653 44.2079C38.1247 44.2013 36.7816 44.2093 36.5508 44.2596ZM53.7488 44.3048C53.8181 44.331 53.9599 44.3777 54.0638 44.4088C55.0591 44.7056 55.9705 45.6136 56.3148 46.6511C56.4956 47.196 56.498 47.2784 56.498 52.8247C56.498 58.2726 56.4973 58.3025 56.3389 58.8934C56.0638 59.9207 55.1105 60.9052 54.1058 61.1996C54.0019 61.23 53.8696 61.2707 53.8118 61.2898C53.4792 61.4 52.5452 61.4133 45.1271 61.4132C37.6019 61.413 36.9771 61.4036 36.4668 61.2821C35.3621 61.0192 34.4227 60.1755 34.0176 59.0824C33.8371 58.5956 33.8419 58.7674 33.8419 52.7827V47.071L33.9445 46.7561C34.177 46.0423 34.5628 45.4655 35.1093 45.0147C35.3718 44.7982 36.0095 44.4462 36.1393 44.4462C36.1715 44.4462 36.2159 44.4303 36.2379 44.4109C36.2824 44.3716 36.6607 44.2854 36.8867 44.2632C37.3182 44.2206 53.6326 44.2609 53.7488 44.3048ZM36.9917 45.9028C36.0719 46.0256 35.503 46.7559 35.4681 47.8586L35.4484 48.4782L45.1445 48.4676L54.8408 48.457L54.8539 48.058C54.8874 47.037 54.4709 46.3322 53.6284 45.9842L53.4128 45.8951L45.2653 45.8906C40.7841 45.8881 37.061 45.8935 36.9917 45.9028ZM53.5847 46.0435C54.369 46.3133 54.7445 46.8875 54.7714 47.8585L54.7873 48.436H45.1386H35.4899L35.5107 47.8795C35.5475 46.8976 35.938 46.2998 36.7188 46.03C37.0565 45.9134 53.244 45.9262 53.5847 46.0435ZM35.468 55.334L35.4798 58.3684L35.6093 58.6414C35.7989 59.0412 36.1129 59.3632 36.5 59.5544L36.8193 59.7124L45.0582 59.7234C52.9927 59.734 53.3064 59.7315 53.5483 59.6562C54.1997 59.4534 54.6654 58.9257 54.8173 58.2184C54.8526 58.0541 54.8627 57.1988 54.8536 55.1556L54.8408 52.3208L45.1484 52.3102L35.4562 52.2995L35.468 55.334ZM54.7778 55.2529C54.7778 57.7865 54.7692 58.1938 54.7112 58.3923C54.539 58.9819 54.1472 59.3839 53.5312 59.6026L53.2813 59.6914H45.1539H37.0266L36.7593 59.6036C36.1255 59.3956 35.6621 58.8765 35.5465 58.2453C35.5166 58.0817 35.5008 57.0236 35.5008 55.1689V52.3418H45.1393H54.7778V55.2529ZM25.0014 59.0373C25.0014 59.1422 25.0194 59.3088 25.0413 59.4072C25.0634 59.5057 25.1032 59.7187 25.13 59.8803C25.7087 63.3678 28.6325 66.2916 32.12 66.8703C32.2817 66.8971 32.4946 66.937 32.5931 66.959C32.832 67.0123 33.1613 67.011 33.128 66.9569C33.1137 66.9339 33.0228 66.9148 32.9259 66.9147C32.4298 66.914 31.2382 66.66 30.7131 66.4431C30.6553 66.4193 30.5656 66.3834 30.5136 66.3633C30.4616 66.3434 30.3766 66.3104 30.3246 66.29C30.105 66.204 29.4612 65.8815 29.3062 65.7795C29.2138 65.7189 29.1095 65.6588 29.0745 65.6462C28.5205 65.4463 26.5541 63.4799 26.3541 62.9258C26.3415 62.8908 26.2815 62.7866 26.2208 62.6942C26.1189 62.5391 25.7963 61.8954 25.7103 61.6757C25.69 61.6238 25.6519 61.5293 25.6257 61.4658C25.4873 61.1301 25.3873 60.8118 25.2785 60.3621C25.1917 60.0035 25.0859 59.2972 25.0856 59.0744C25.0855 58.9776 25.0665 58.8867 25.0434 58.8724C25.0178 58.8565 25.0014 58.9208 25.0014 59.0373ZM66.9466 58.8754C66.9293 58.893 66.915 58.9845 66.9149 59.0789C66.9141 59.5633 66.6662 60.7331 66.4489 61.2768C66.4281 61.3287 66.3947 61.4138 66.3748 61.4658C66.2903 61.6853 66.244 61.7896 66.0717 62.1482C65.9717 62.3561 65.8404 62.6018 65.7797 62.6942C65.719 62.7866 65.6589 62.8908 65.6463 62.9258C65.4464 63.4799 63.48 65.4463 62.9259 65.6462C62.891 65.6588 62.7867 65.7189 62.6943 65.7795C62.5393 65.8815 61.8955 66.204 61.6759 66.29C61.6239 66.3104 61.5294 66.3484 61.4659 66.3746C61.2322 66.4709 61.1789 66.4905 61.0144 66.54C60.922 66.5679 60.7992 66.6056 60.7414 66.624C60.3471 66.749 59.3993 66.9142 59.0745 66.9147C58.9777 66.9148 58.8868 66.9339 58.8725 66.9569C58.8392 67.011 59.1685 67.0123 59.4074 66.959C59.5059 66.937 59.7188 66.8971 59.8805 66.8703C63.3689 66.2914 66.281 63.3796 66.8712 59.8803C66.8985 59.7187 66.9401 59.4919 66.9636 59.3764C67.0096 59.1509 66.9985 58.8228 66.9466 58.8754Z" fill="#FC9320"/>
</svg>
