<svg xmlns="http://www.w3.org/2000/svg" width="512" height="512" viewBox="0 0 512 512" fill="none">
<path d="M90 173.001C90 127.161 127.161 90 173.001 90H338.999C384.839 90 422 127.161 422 173.001V338.999C422 384.839 384.839 422 338.999 422H173.001C127.161 422 90 384.839 90 338.999V173.001Z" fill="#11C76F"/>
<path fill-rule="evenodd" clip-rule="evenodd" d="M216.452 199.601H186.197V226.466H214.802C232.945 226.466 243.252 235.273 243.252 251.343C243.252 267.825 232.945 276.839 214.802 276.839H186.197V226.466H154.269V344.004H186.197V303.708H216.452C253.151 303.708 274.18 283.795 274.18 250.212C274.18 218.279 253.151 199.601 216.452 199.601Z" fill="white"/>
<path fill-rule="evenodd" clip-rule="evenodd" d="M293.609 232.072H357.731V167.996H293.609V232.072ZM304.308 221.396H347.059V178.68H304.308V221.396ZM336.348 210.72H314.973V189.36H336.348V210.72Z" fill="white"/>
</svg>