<svg xmlns="http://www.w3.org/2000/svg" width="512" height="512" viewBox="0 0 512 512" fill="none">
<rect width="512" height="512" fill="#FA6300"/>
<path d="M254.401 220.773C254.401 211.149 263.108 203.817 272.273 205.192C322.223 212.524 361.175 256.059 361.175 308.3C360.717 390.328 295.186 407.742 267.232 411.866C260.358 412.783 254.401 407.284 254.401 400.41C254.401 400.41 254.401 267.973 254.401 220.773Z" fill="#462A71"/>
<path d="M171.915 314.716H218.657C238.362 314.716 254.401 298.677 254.401 278.972V118.123C254.401 111.708 249.36 106.667 242.945 106.667H220.948C187.495 106.667 160 134.162 160 167.615V303.259C160 309.675 165.499 314.716 171.915 314.716Z" fill="white"/>
</svg>