<svg xmlns="http://www.w3.org/2000/svg" xmlns:xlink="http://www.w3.org/1999/xlink" version="1.1" id="Layer_1" x="0px" y="0px" viewBox="0 0 512 512" style="enable-background:new 0 0 512 512;" xml:space="preserve">
<style type="text/css">
	.st0{fill:#202E55;}
	.st1{fill:#6DC8C3;}
</style>
<path id="d" class="st0" d="M130.69,165.13c0-5.91-3.72-10.04-9.03-10.04l-0.11,0c-5.37,0.06-8.85,4.05-8.86,10.18  c-0.01,8.61-0.01,14.76-0.01,23.37l0,12.45c-11.12-9.27-22.94-13.79-36.05-13.79c-1.28,0-2.58,0.04-3.89,0.13  c-16.08,1.08-29.28,8.01-39.25,20.6c-16.62,21-15.33,50.86,3.07,71c9.72,10.64,24.59,17,39.78,17c12.97,0,25.48-4.63,36.32-13.42  c0,1.27,0,2.39,0.01,3.5c0.05,6.15,3.48,9.97,8.94,9.97h0.08c5.45-0.04,8.98-4,8.98-10.11C130.72,240.5,130.72,202.63,130.69,165.13  z M112.68,241.7c0.02,9.66-3.74,18.77-10.6,25.65c-6.88,6.9-16.01,10.71-25.76,10.72c-20.02,0-36.32-16.28-36.33-36.3  c-0.01-20.06,16.25-36.39,36.25-36.4l0.03-1.23l0,0v1.23C96.29,205.38,112.63,221.67,112.68,241.7z"/>
<g id="i_1_">
	<path class="st0" d="M177.06,229.59c-0.01-5.89-3.71-10.01-8.99-10.01l-0.14,0c-5.32,0.07-8.9,4.15-8.92,10.15   c-0.02,6.86-0.02,11.87-0.01,18.73l0,8.55l0,8.46c0,6.77-0.01,13.53,0.01,20.3c0.01,6.27,3.54,10.32,9,10.32l0.1,0   c5.43-0.05,8.95-4.01,8.96-10.1C177.11,264.94,177.11,247.74,177.06,229.59z"/>
	<path class="st1" d="M168.38,187.25c-0.1,0-0.19,0-0.29,0c-5.76,0-10.61,4.71-10.82,10.5c-0.1,2.89,0.97,5.67,3.03,7.81   c2.04,2.12,4.86,3.35,7.74,3.37l0.06,0c5.87,0,10.72-4.78,10.83-10.66C179.05,192.35,174.31,187.41,168.38,187.25z"/>
</g>
<path id="g" class="st0" d="M303.14,276.07c-1.08-1.72-1.08-2.46,0.03-4.12c13.55-20.38,12.03-46.75-3.78-65.61  c-0.25-0.3-0.49-0.61-0.76-0.97c0.07,0,0.13,0,0.2,0c0.73,0.01,1.43,0.01,2.09,0.01c1,0,4.9-0.01,5.65-0.04  c4.12-0.14,7.01-2.25,8.36-6.1c1-2.85,0.67-5.68-0.93-7.94c-1.79-2.54-4.94-4-8.65-4.01l-4.38-0.01c-7.08-0.03-14.4-0.06-21.6-0.06  c-8.3,0-15.55,0.04-22.17,0.13c-4.18,0.05-8.45,0.62-12.68,1.68c-26.28,6.58-44.15,32.31-40.7,58.57c1.8,13.69,8.19,26.07,18,34.86  c9.82,8.8,22.65,13.65,36.15,13.65c10.89,0,20.89-3.03,30.53-9.25c3.92,5.88,5.82,12.35,5.81,19.72  c-0.03,17.41-13.2,32.74-30.64,35.65c-1.9,0.32-3.84,0.48-5.77,0.48c0,0,0,0,0,0c-15.27,0-28.98-9.72-34.1-24.17  c-0.45-1.28-0.76-2.6-1.09-4c-0.21-0.88-0.42-1.79-0.67-2.68c-1.17-4.15-4.78-7.05-8.79-7.05c-0.51,0-1.02,0.05-1.52,0.14  c-4.84,0.91-7.81,4.88-7.39,9.88c0.17,2.01,0.57,4.04,1.19,6.04c7,22.47,22.45,36.02,44.69,39.17c3.08,0.44,6.13,0.66,9.06,0.66  c18.62,0,34.03-8.83,44.56-25.55c6.04-9.58,9-19.53,8.8-29.56C312.47,295.79,309.27,285.86,303.14,276.07z M258,278.07h-0.11  c-20.01-0.06-36.26-16.41-36.24-36.44c0.02-19.99,16.33-36.26,36.35-36.26v-1.23l0.05,1.23c9.65,0.01,18.78,3.85,25.69,10.79  c6.89,6.92,10.66,16.02,10.62,25.63C294.28,261.8,277.97,278.07,258,278.07z"/>
<g id="i">
	<path class="st0" d="M357.31,229.59c-0.01-5.89-3.71-10.01-8.99-10.01l-0.14,0c-5.32,0.07-8.9,4.15-8.92,10.15   c-0.02,6.86-0.02,11.87-0.01,18.73l0,8.55l0,8.46c0,6.77-0.01,13.53,0.01,20.3c0.01,6.27,3.54,10.32,9,10.32l0.1,0   c5.43-0.05,8.95-4.01,8.96-10.1C357.35,264.94,357.35,247.74,357.31,229.59z"/>
	<path class="st1" d="M348.63,187.25c-0.1,0-0.19,0-0.29,0c-5.76,0-10.61,4.71-10.82,10.5c-0.1,2.89,0.97,5.67,3.03,7.81   c2.04,2.12,4.86,3.35,7.74,3.37l0.06,0c5.87,0,10.72-4.78,10.83-10.66C359.3,192.35,354.56,187.41,348.63,187.25z"/>
</g>
<path id="o" class="st0" d="M477.67,203.12c-10.2-10.22-23.83-15.85-38.38-15.85c-14.5,0-28.15,5.63-38.43,15.85  c-10.28,10.22-16,23.84-16.09,38.36c-0.1,14.48,5.51,28.17,15.8,38.54c10.26,10.34,23.85,16.06,38.27,16.09h0.12  c14.71,0,28.45-5.59,38.7-15.75c10.26-10.16,15.92-23.8,15.94-38.4C493.6,227.21,487.95,213.42,477.67,203.12z M439.17,278.07  c-9.63,0-18.72-3.79-25.58-10.68c-6.89-6.91-10.66-16.06-10.63-25.75c0.07-20,16.35-36.26,36.29-36.26h0.08  c9.67,0.02,18.77,3.83,25.63,10.72c6.86,6.9,10.62,16.02,10.58,25.7C475.48,261.8,459.17,278.08,439.17,278.07z"/>
</svg>