<?xml version="1.0" encoding="utf-8"?>
<!-- Generator: Adobe Illustrator 27.9.0, SVG Export Plug-In . SVG Version: 6.00 Build 0)  -->
<svg version="1.1" id="Camada_1" xmlns="http://www.w3.org/2000/svg" xmlns:xlink="http://www.w3.org/1999/xlink" x="0px" y="0px"
	 viewBox="0 0 512 512" style="enable-background:new 0 0 512 512;" xml:space="preserve">
<style type="text/css">
	.st0{fill-rule:evenodd;clip-rule:evenodd;fill:#03FF60;}
	.st1{fill-rule:evenodd;clip-rule:evenodd;}
</style>
<circle class="st0" cx="256.1" cy="256" r="166"/>
<g id="Clip-11_00000047039757106225019190000009631001811040773539_">
</g>
<g id="Clip-16_00000146490896016756616210000012335643743391353485_">
</g>
<g id="Clip-20_00000160895923673188690760000016386980993912245657_">
</g>
<g>
	<path class="st1" d="M381,204.3c-1.4-0.7-2.8-1-4.4-1c-0.1,0-0.1,0-0.2,0c-0.2,0-0.4,0.1-0.6,0.1c-0.3,0-0.7,0.1-1,0.1
		c-0.4,0.1-0.7,0.1-1,0.2c-0.3,0.1-0.7,0.2-1,0.3c-0.1,0.1-0.4,0.1-0.5,0.1l-76.4,35.8l-76.7-62.8c-0.4-0.3-0.7-0.5-1.1-0.8
		c-0.2-0.1-0.5-0.4-0.7-0.5c-0.1,0-0.1-0.1-0.1-0.1c-0.1-0.1-0.2-0.1-0.3-0.1c-0.4-0.2-1-0.4-1.5-0.5c-0.1,0-0.2-0.1-0.3-0.1
		c-0.6-0.1-1.1-0.2-1.7-0.3c-0.1,0-0.1,0-0.1,0c-0.2,0-0.4-0.1-0.6-0.1c-0.3,0-0.6,0.1-0.9,0.1c-0.2,0-0.4,0-0.7,0.1
		c-0.4,0.1-0.8,0.1-1.3,0.3c-0.3,0.1-0.5,0.1-0.8,0.3c-0.3,0.1-0.6,0.2-0.9,0.4c-0.4,0.2-0.8,0.4-1.2,0.7c-0.1,0.1-0.2,0.1-0.4,0.3
		c-1.2,0.9-2.2,2.1-2.9,3.6l-66.9,136.1c-2.5,5.2-0.4,11.4,4.6,13.8c1.4,0.7,3,1,4.6,1c0.2,0,0.4-0.1,0.6-0.1c0.7,0,1.4-0.1,2.1-0.3
		l0,0c0.6-0.1,1.2-0.4,1.8-0.6l142.7-66.8l40.2,32.8c0.6,0.5,1.2,1,1.9,1.3l0,0c0,0,0.1,0,0.1,0.1c0.1,0.1,0.3,0.1,0.4,0.1
		c0.5,0.2,1.1,0.4,1.6,0.6c0.2,0.1,0.4,0.1,0.6,0.1c0.5,0.1,1,0.1,1.5,0.1c0.1,0,0.2,0,0.3,0s0.2-0.1,0.3-0.1c0.7,0,1.4-0.1,2.1-0.3
		c0.1,0,0.2-0.1,0.4-0.1c0.7-0.2,1.3-0.5,2-0.9c0.4-0.2,0.7-0.4,1-0.7c0.2-0.1,0.4-0.3,0.6-0.5c1-0.9,1.9-1.9,2.5-3.2l36.9-75
		C388.1,213,386.1,206.8,381,204.3z M167.3,300.1l48.8-99.2l59.4,48.6L167.3,300.1z M354.6,234.7l-18.8,38.1L313,254.1L354.6,234.7z
		"/>
</g>
</svg>
