<svg xmlns="http://www.w3.org/2000/svg" version="1.1" viewBox="0 0 512 512">
<path d="M0 0 C168.96 0 337.92 0 512 0 C512 168.96 512 337.92 512 512 C343.04 512 174.08 512 0 512 C0 343.04 0 174.08 0 0 Z " fill="#FEFEFE" transform="translate(0,0)"/>
<path d="M0 0 C17.16871701 13.26790238 31.02435645 32.89114334 33.9140625 54.85400391 C36.3355349 80.92406908 31.8059261 105.07069934 15 125.73828125 C12.77849691 128.27989676 10.48946842 130.71622298 8.125 133.125 C7.46113281 133.81335938 6.79726563 134.50171875 6.11328125 135.2109375 C-4.03139292 144.98847108 -17.47408807 151.2307179 -30.875 155.125 C-31.71417969 155.36992187 -32.55335938 155.61484375 -33.41796875 155.8671875 C-51.46196956 160.05546114 -70.10412909 157.3125161 -86.875 150.125 C-86.875 165.305 -86.875 180.485 -86.875 196.125 C-103.705 196.125 -120.535 196.125 -137.875 196.125 C-137.942945 178.53874358 -137.99811375 160.95260069 -138.03043652 143.36624908 C-138.04584915 135.19903332 -138.06683027 127.03190543 -138.10131836 118.86474609 C-138.13139364 111.73914033 -138.15061563 104.61359826 -138.15726548 97.48793077 C-138.16114734 93.72138099 -138.17015041 89.95501327 -138.19219017 86.18852234 C-138.36715642 55.07830382 -134.67752831 30.67201365 -112.6875 7.375 C-103.29152697 -1.62283858 -92.26392833 -8.79193214 -79.875 -12.875 C-78.72257812 -13.26558594 -77.57015625 -13.65617188 -76.3828125 -14.05859375 C-49.67713556 -21.95014859 -22.52530055 -15.6162798 0 0 Z " fill="#373740" transform="translate(316.875,202.875)"/>
<path d="M0 0 C1.17985474 0.00253784 1.17985474 0.00253784 2.38354492 0.00512695 C11.0704579 0.27046427 17.52829296 3.43641592 24.1875 8.9375 C25.239375 10.236875 25.239375 10.236875 26.3125 11.5625 C26.81265625 12.15933594 27.3128125 12.75617188 27.828125 13.37109375 C35.228131 22.58517889 36.36980237 30.76005494 35.3125 42.5625 C33.46669815 52.209891 27.84510806 59.28502081 20.16015625 65.2265625 C11.3477529 71.01128792 1.59799104 71.93676185 -8.6875 70.5625 C-17.78823913 67.79668878 -25.33482956 62.12793292 -30.25 53.96875 C-35.03874294 44.71776931 -36.40271052 34.90360102 -34.00390625 24.63671875 C-29.84220292 13.53308705 -22.86570183 7.17754622 -12.4453125 1.9296875 C-8.11931792 0.35578095 -4.56316631 -0.01416981 0 0 Z " fill="#FDFDFD" transform="translate(264.6875,237.4375)"/>
<path d="M0 0 C16.83 0 33.66 0 51 0 C51 17.16 51 34.32 51 52 C34.17 52 17.34 52 0 52 C0 34.84 0 17.68 0 0 Z " fill="#03B0FF" transform="translate(179,115)"/>
</svg>