<?xml version="1.0" encoding="utf-8"?>
<!-- Generator: Adobe Illustrator 25.3.1, SVG Export Plug-In . SVG Version: 6.00 Build 0)  -->
<svg version="1.1" id="Camada_1" xmlns="http://www.w3.org/2000/svg" xmlns:xlink="http://www.w3.org/1999/xlink" x="0px" y="0px"
	 viewBox="0 0 512 512" style="enable-background:new 0 0 512 512;" xml:space="preserve">
<style type="text/css">
	.st0{fill:#AF964F;}
	.st1{fill:#0F4B35;}
	.st2{fill:none;}
</style>
<g>
	<g>
		<path class="st0" d="M272.73,191.66l-40.15,0.02c-0.41-0.02-0.71-0.36-0.71-0.76c0-0.17,0.06-0.35,0.19-0.51l23.66-25.55
			c0.18-0.21,0.37-0.36,0.59-0.49c0.33-0.25,0.71-0.39,1.14-0.39c0.81,0.11,1.31,0.41,1.61,0.88l14.51,25.28
			c0.11,0.2,0.16,0.36,0.16,0.53C273.73,191.22,273.27,191.66,272.73,191.66 M243.92,319.78L243.92,319.78
			c0-18.1,11.66-27.73,20.21-27.73l23.01,0.01l2.17-11.59h-22.74c-22.27,0-41.54,14.98-41.54,39.5c0,16.92,9.73,28.59,28.13,28.59
			h23.52l2.15-11.57h-23.23C248.17,337.01,243.92,328.52,243.92,319.78 M357.96,280.46L357.96,280.46l-12.76,68.11h40.86l2.13-11.57
			h-22.38l3.41-18.2h18.2l2.13-11.57h-18.19l2.84-15.18h18.77l2.14-11.59H357.96z M419.37,337.01L419.37,337.01h-4.86l8.36-44.95
			h5.06c7.39,0,11.67,8.46,11.67,17.22C439.61,327.36,427.94,337.01,419.37,337.01 M315.15,311.22L315.15,311.22h-5.55l3.71-19.17
			h4.76c3.9,0,7.2,3.99,7.2,8.08C325.28,306.43,320.13,311.22,315.15,311.22 M329.16,318.32L329.16,318.32
			c6.34-3.11,14.41-8.66,14.41-20.51c0-7.23-4.78-17.34-19.17-17.34h-27.22l-12.75,68.11h18.38l4.86-25.78h5.28l6.91,25.79h20.18
			L329.16,318.32z M430.38,280.46L430.38,280.46h-23.74l-12.74,68.11h23.06c22.26,0,41.54-14.98,41.54-39.49
			C458.49,292.15,448.77,280.46,430.38,280.46 M323.73,222.12L323.73,222.12l-33.07-57.11l-0.28-0.48c-0.78-1.16-1.96-1.86-3.3-1.96
			l-0.32-0.01L245,162.57h-0.32c-0.16,0-0.33,0.03-0.47,0.06l-0.49,0.1c-0.96,0.3-1.85,0.92-2.8,1.9l-53,57.27
			c0,0-0.14,0.1-0.32,0.31l-0.22,0.3c-0.19,0.32-0.32,0.7-0.32,1.09c0,1.1,0.89,2.02,2,2.1h25.29c0.37,0,0.67,0.28,0.67,0.68
			c0,0.15-0.08,0.32-0.17,0.44l-25.46,27.23c-0.4,0.48-0.55,0.71-0.63,0.92c-0.07,0.18-0.13,0.38-0.13,0.57
			c0,0.55,0.28,1.05,0.68,1.38c0.31,0.15,0.69,0.28,1.13,0.35h0.32h17.13c1,0,2.08-0.38,2.97-1.25l26.94-29.01
			c0.17-0.13,0.28-0.33,0.28-0.57c0-0.4-0.34-0.76-0.76-0.76c-0.03,0-14.57,0.02-14.57,0.02c-0.36-0.06-0.65-0.39-0.65-0.79
			c0-0.17,0.07-0.36,0.17-0.47l28.31-30.5c0.1-0.13,0.21-0.21,0.32-0.3c0.35-0.39,0.84-0.61,1.41-0.61c0.69,0,1.28,0.34,1.62,0.89
			l16.05,27.69l1.64,2.86c0.13,0.23,0.15,0.33,0.15,0.42c0,0.41-0.34,0.74-0.74,0.78l-14.8,0.02c-0.54,0-0.97,0.47-0.97,1
			c0,0.26,0.07,0.38,0.22,0.63l16.01,27.72c0.78,1.32,1.96,2.1,3.31,2.22h0.77h32.72c0.4,0,0.76-0.08,1.07-0.17
			c0.9-0.37,1.52-1.22,1.52-2.21c0-0.33-0.08-0.66-0.18-0.94l-0.3-0.52l-15.56-26.75c0,0-0.07-0.21-0.07-0.32
			c0-0.4,0.3-0.66,0.65-0.66l26.41-0.02c0.41,0,0.62-0.04,0.82-0.12l0.28-0.11l0.32-0.19l0.33-0.32l0.28-0.39l0.24-0.56
			C324.18,223.68,324.23,222.98,323.73,222.12"/>
		<path class="st1" d="M96.97,317.82c-0.31,15.21-3.28,24.06-14.6,24.06h-0.28c-11.33,0-14.28-8.85-14.6-24.06v-37.29H53.51v41.59
			c0,14.75,5.43,23.57,17.96,26.51c0,0,3.54,0.8,9.82,0.8h1.89c6.28,0,9.21-0.83,9.21-0.83c13.15-2.63,18.55-11.74,18.55-26.49
			v-41.59H96.96L96.97,317.82z M134.09,280.55L134.09,280.55h-10.64v68.04h10.92v-49.75l40.29,49.75h11.09v-68.04h-11.49v49.92
			L134.09,280.55z M198.36,280.55L198.36,280.55h14.09v68.04h-14.1L198.36,280.55z"/>
	</g>
	<rect class="st2" width="512" height="512"/>
</g>
</svg>
