<?xml version="1.0" encoding="utf-8"?>
<!-- Generator: Adobe Illustrator 25.0.1, SVG Export Plug-In . SVG Version: 6.00 Build 0)  -->
<svg version="1.1" id="Layer_1" xmlns="http://www.w3.org/2000/svg" xmlns:xlink="http://www.w3.org/1999/xlink" x="0px" y="0px"
	 viewBox="0 0 512 512" style="enable-background:new 0 0 512 512;" xml:space="preserve">
<style type="text/css">
	.st0{fill:#00A049;}
</style>
<g>
	<path class="st0" d="M256.9,238.3L82,137.6L257,36.4l174.9,101L256.9,238.3z M470.6,123.9L264.7,5.1c-4.8-2.8-10.7-2.8-15.5,0
		L43.3,124.2c-4.8,2.8-7.7,7.9-7.7,13.4c0,5.5,3,10.6,7.8,13.4l205.9,118.6c2.4,1.4,5.1,2.1,7.7,2.1c2.7,0,5.4-0.7,7.7-2.1
		l205.9-118.9c4.8-2.8,7.7-7.9,7.7-13.4C478.3,131.8,475.4,126.7,470.6,123.9"/>
	<path class="st0" d="M462.8,193.6c-8.6,0-15.5,6.9-15.5,15.5v157.5l-190.4,110L66.5,366.9V209.5c0-8.5-6.9-15.5-15.5-15.5
		c-8.6,0-15.5,6.9-15.5,15.5v166.4c0,5.5,3,10.7,7.8,13.4l205.9,118.6c2.4,1.4,5.1,2.1,7.7,2.1c2.7,0,5.3-0.7,7.7-2.1L470.6,389
		c4.8-2.8,7.7-7.9,7.7-13.4V209.1C478.3,200.6,471.4,193.6,462.8,193.6"/>
</g>
</svg>
