<svg xmlns="http://www.w3.org/2000/svg" viewBox="0 0 500 500"><defs><style>.cls-1{fill:none;}</style></defs><g id="Camada_2" data-name="Camada 2"><g id="fundo"><rect class="cls-1" width="500" height="500" rx="250"/></g><g id="logos"><path id="path34" d="M338.67,333.65a41.72,41.72,0,0,1-18.35-4.31V365.5h30.76a27.88,27.88,0,0,0,28.07-28.07v-27C370.51,324.48,355.94,333.65,338.67,333.65Z"/><path id="path36" d="M288.48,314.76V247.84c-9.18,12.41-21.59,29.15-24.83,33.46C266.89,285.62,278.76,301.81,288.48,314.76Z"/><path id="path38" d="M351.08,134.5H150.85a27.88,27.88,0,0,0-28.06,28.07V337.43a27.88,27.88,0,0,0,28.06,28.07H288.48V332H263.11S250.7,315.3,245.3,307.21C239.36,315.3,227.49,332,227.49,332H189.71S222.09,288.32,227,281.3c-4.86-7-35.08-48-35.08-48h37.78s10.79,14.57,16.19,22.13c5.4-7.56,16.19-22.13,16.19-22.13h44.26s3.24,5.94,4.32,8.63a46.4,46.4,0,0,1,28.6-10.25c16.73,0,31.84,9.17,40.48,23.21V162.57A28.69,28.69,0,0,0,351.08,134.5Z"/><path id="path40" d="M354.32,282.92c0-11.33-7.55-20.51-16.73-20.51-9.71,0-17.27,9.18-17.27,20.51s7.56,20.51,17.27,20.51C346.77,303.43,354.32,294.26,354.32,282.92Z"/></g></g></svg>