<?xml version="1.0" encoding="utf-8"?>
<!-- Generator: Adobe Illustrator 28.0.0, SVG Export Plug-In . SVG Version: 6.00 Build 0)  -->
<svg version="1.1" id="Camada_1" xmlns="http://www.w3.org/2000/svg" xmlns:xlink="http://www.w3.org/1999/xlink" x="0px" y="0px"
	 viewBox="0 0 512 512" style="enable-background:new 0 0 512 512;" xml:space="preserve">
<style type="text/css">
	.st0{clip-path:url(#SVGID_00000090982923837940260310000018136005320335344559_);}
	.st1{clip-path:url(#SVGID_00000086652639744546668140000002708625920026993302_);fill:#031C2D;}
	.st2{clip-path:url(#SVGID_00000151532654965790694730000016113688268660648584_);fill:#031C2D;}
	.st3{clip-path:url(#SVGID_00000058576093986363080040000015647998069721779124_);fill:#031C2D;}
</style>
<g>
	<g>
		<defs>
			<rect id="SVGID_1_" x="92.1" y="98.5" width="327.8" height="315"/>
		</defs>
		<clipPath id="SVGID_00000100350966860352411310000008908028834192300428_">
			<use xlink:href="#SVGID_1_"  style="overflow:visible;"/>
		</clipPath>
		<g style="clip-path:url(#SVGID_00000100350966860352411310000008908028834192300428_);">
			<g>
				<defs>
					<rect id="SVGID_00000010303045829168981250000017914973717342646196_" x="90.6" y="94.5" width="330.8" height="322.9"/>
				</defs>
				<clipPath id="SVGID_00000008843562551777927680000012169030466787204518_">
					<use xlink:href="#SVGID_00000010303045829168981250000017914973717342646196_"  style="overflow:visible;"/>
				</clipPath>
				<path style="clip-path:url(#SVGID_00000008843562551777927680000012169030466787204518_);fill:#031C2D;" d="M304.5,209h-50
					h-51.2v4.8h51.2h50c27.4,0,44.9,12.9,52.5,29.7c2.9,6.5,4.2,12.9,4.2,20s-1.3,14.2-4.2,20.6c-7.8,16.5-25.5,29.7-53.2,29.7
					H154.2c-1.3,0-2.2,0.9-2.2,1.9l0.4,36.2h4.2V318h147.4c29.7,0,48.6-14.2,57.1-32.3c3.2-6.8,4.9-14.5,4.9-22.2
					c0-7.4-1.7-14.9-4.9-21.9C352.5,223.4,333.8,209,304.5,209"/>
			</g>
			<g>
				<defs>
					<rect id="SVGID_00000008137214181313172820000016938580040709592976_" x="90.6" y="94.5" width="330.8" height="322.9"/>
				</defs>
				<clipPath id="SVGID_00000179643672587461450930000017816003018279225247_">
					<use xlink:href="#SVGID_00000008137214181313172820000016938580040709592976_"  style="overflow:visible;"/>
				</clipPath>
				<path style="clip-path:url(#SVGID_00000179643672587461450930000017816003018279225247_);fill:#031C2D;" d="M207.7,266.7h101.5
					v-4.5H207.7c-26.8,0-43.8-12.6-51.6-29.4c-2.6-6.5-4.2-13.5-4.2-20.6c0-7.1,1.3-13.9,4.2-20.3c7.4-16.7,24.5-29.7,51-29.7h154.4
					v-4.5H207.1c-28.4,0-46.7,14.2-54.8,32.3c-3.2,7.1-4.8,14.8-4.8,22.3c0,7.8,1.6,15.5,4.8,22.3
					C160.3,252.9,179.1,266.7,207.7,266.7"/>
			</g>
			<g>
				<defs>
					<rect id="SVGID_00000116235145888521366720000005705357672868766616_" x="90.6" y="94.5" width="330.8" height="322.9"/>
				</defs>
				<clipPath id="SVGID_00000157289323061163176200000013000130024909810589_">
					<use xlink:href="#SVGID_00000116235145888521366720000005705357672868766616_"  style="overflow:visible;"/>
				</clipPath>
				<path style="clip-path:url(#SVGID_00000157289323061163176200000013000130024909810589_);fill:#031C2D;" d="M325.4,98.5H186.6
					c-52.2,0-94.5,42.4-94.5,94.5v126v94.5h94.5h138.7c52.2,0,94.5-42.3,94.5-94.5V193V98.5H325.4z M203.2,139.3h158.3
					c27.7,0,27.7,41.2-0.3,41.2H203.5c-45.1,0-44.5,63.5-0.3,63.5h105.4c27.4,0,27.7,40.6-0.3,40.6H203.2
					C102.2,284.8,102.2,139.3,203.2,139.3 M308.3,337H174.8v14.9c0,27.7-41,27.7-41,0v-55.8H308c44.5,0,44.5-63.5,0.4-63.5H202.9
					c-27.4,0-27.7-41,0.4-41h105.2C409.2,191.5,409.2,337,308.3,337"/>
			</g>
		</g>
	</g>
</g>
</svg>
