<?xml version="1.0" encoding="utf-8"?>
<!-- Generator: Adobe Illustrator 28.0.0, SVG Export Plug-In . SVG Version: 6.00 Build 0)  -->
<svg version="1.1" id="b608da00-2e30-4e05-becf-ff1d28389e9c"
	 xmlns="http://www.w3.org/2000/svg" xmlns:xlink="http://www.w3.org/1999/xlink" x="0px" y="0px" viewBox="0 0 512 512"
	 style="enable-background:new 0 0 512 512;" xml:space="preserve">
<style type="text/css">
	.st0{fill:#255BE3;}
	.st1{fill:#FF3C28;}
</style>
<g>
	<path class="st0" d="M90.2,283.4c0-34.2,28-60.9,64.6-60.9c21.1,0,40.4,9.4,51.5,23.7L190.4,262c-8.5-10.9-21.5-17.3-35.4-17.5
		c-21.8,0-39.3,16.3-39.3,38.8c0,22.7,17.5,39.1,39.3,39.1c14.3,0,27.9-6.7,36.5-18.2l15.6,15.4c-10.6,14.9-30.8,24.8-52.4,24.8
		C118.2,344.5,90.2,317.9,90.2,283.4z"/>
	<path class="st0" d="M227.8,226.6h25v113.7h-25V226.6z"/>
	<path class="st0" d="M299.5,309.8v-62h-27.3v-21.1h28.5v-24.4l23.4-11.5v35.8h37.2v21.1h-37.2v57.9c0,11.5,6.4,16.5,18.6,16.5
		c6.3,0,12.6-1.3,18.4-3.9v21.6c-7.2,3.2-15.1,4.7-23,4.6C315.8,344.5,299.5,332.3,299.5,309.8z"/>
	<path class="st0" d="M381.1,226.6h25v113.7h-25V226.6z"/>
	<path class="st1" d="M316.7,154.3c41.7-0.1,80.9,20.1,105,54.2h-29.2c-37.7-41.9-102.2-45.3-144-7.6c-2.7,2.4-5.2,4.9-7.6,7.6
		h-29.2C235.8,174.4,275,154.2,316.7,154.3z"/>
</g>
</svg>
