<svg xmlns="http://www.w3.org/2000/svg" viewBox="0 0 512 512" fill="none">
  <path fill="#FD8832" fill-rule="evenodd" d="M319.341 175.509c-7.444-7.26-16.505-11.994-27.509-14.835-1.942-.947-3.236-2.525-2.589-5.366l1.618-8.839c.971-5.366-2.589-9.469-8.09-9.469h-12.298c-5.502 0-10.68 4.419-11.651 9.469l-1.618 7.892c-.647 3.472-2.913 4.734-5.825 5.681-12.945 2.21-24.596 7.26-34.305 14.52-14.563 10.732-22.978 24.305-25.567 40.719-2.589 14.836.971 26.83 10.68 35.669 9.709 8.838 24.92 15.466 45.632 20.201 13.592 3.157 22.654 6.944 26.861 11.048 4.207 4.103 5.825 9.785 4.854 16.098-1.294 6.944-4.854 12.626-11.003 16.73-6.149 4.103-14.24 6.313-23.625 6.313-9.709 0-17.476-2.526-23.625-7.576-4.207-3.472-6.472-8.523-7.12-14.836-.647-2.209-1.618-8.522-8.414-8.522h-23.948c-7.444 0-8.738 5.997-8.738 8.522-.648 12.942 3.883 24.621 13.916 35.353 6.472 6.944 14.563 11.995 24.272 15.151h-.648c5.179 1.579 9.709 2.21 8.415 7.26l-1.618 8.839c-.971 5.366 2.589 9.469 8.09 9.469h12.298c5.502 0 10.68-4.419 11.651-9.469l1.618-7.892c.647-3.788 3.236-5.05 6.473-5.681 13.916-2.21 26.214-6.629 36.57-13.889 14.887-10.101 23.948-23.989 26.537-41.666 2.589-15.151-.971-27.461-10.356-36.3-9.385-8.838-25.243-15.782-47.25-20.517-13.916-3.156-22.654-6.313-26.537-10.101-3.884-3.787-5.502-9.153-4.207-15.782.97-6.629 4.53-11.995 10.356-16.73 5.825-4.734 12.945-6.944 22.006-6.944 9.386 0 16.182 2.841 20.713 8.207 2.912 3.472 3.883 6.944 4.53 10.417 1.619 6.944 5.826 9.785 10.357 9.785h21.683c8.738 0 10.356-5.366 10.032-10.732.324-11.679-4.531-24.305-12.621-32.197Z" clip-rule="evenodd"/>
  <path fill="#42535C" fill-rule="evenodd" d="M436.099 90.267c5.15-5.075 9.978-.952 8.69 3.806L406.81 281.851c-1.288 6.978-3.863 18.397-5.15 25.376 0 0-6.068 30.044-12.397 61.797l-.851 4.274-.568 2.852a10343.41 10343.41 0 0 0-7.427 37.654c-5.472 26.961-18.024 45.993-39.267 58.046-11.587 6.661-26.071 10.15-39.911 10.15H95.247c-7.08 0-8.69-5.075-3.54-10.15l55.682-54.557c5.15-5.075 15.449-9.199 22.53-9.199h37.98c7.403 0 9.012 4.124 3.862 9.199l-12.874 12.687c-8.412 8.586-8.972 9.158-6.655 9.196l.351.003h94.494c7.081 0 18.668-1.903 25.427-4.441 0 0 21.887-7.93 25.749-27.913 5.15-26.01 54.073-263.27 54.073-263.27 1.287-6.978 6.759-16.811 11.909-21.886l31.864-31.402ZM417.753 30c7.081 0 8.69 5.075 3.54 10.15l-55.682 54.24c-5.15 5.075-15.449 9.199-22.53 9.199h-37.98c-7.403 0-9.012-4.124-3.862-9.199l12.874-12.688c8.412-8.585 8.972-9.157 6.655-9.195l-.351-.003h-94.172c-7.081 0-18.668 1.903-25.427 4.44 0 0-21.887 7.93-25.749 27.914-5.15 26.009-54.073 263.27-54.073 263.27-1.287 6.978-6.759 16.811-11.909 21.886l-32.186 31.402c-5.15 5.075-9.978.952-8.69-3.806l37.979-187.461c1.288-6.978 3.863-18.397 5.15-25.376 0 0 6.251-30.947 12.68-63.22l.568-2.851.568-2.852.849-4.274a9530.484 9530.484 0 0 0 6.578-33.38c5.472-26.96 18.024-45.992 39.267-58.046C183.437 33.49 197.921 30 211.761 30h205.992Z" clip-rule="evenodd"/>
</svg>
