<?xml version="1.0" encoding="UTF-8"?>
<svg id="Camada_1" data-name="Camada 1"
  xmlns="http://www.w3.org/2000/svg"
  xmlns:xlink="http://www.w3.org/1999/xlink" version="1.1" viewBox="0 0 512 512">
  <defs>
    <style>
      .cls-1 {
        fill: url(#Gradiente_sem_nome_4-2);
      }

      .cls-1, .cls-2, .cls-3, .cls-4, .cls-5, .cls-6, .cls-7, .cls-8, .cls-9, .cls-10, .cls-11, .cls-12, .cls-13, .cls-14, .cls-15, .cls-16, .cls-17, .cls-18 {
        stroke-width: 0px;
      }

      .cls-1, .cls-4, .cls-5, .cls-6, .cls-7, .cls-8, .cls-9, .cls-10, .cls-11 {
        fill-rule: evenodd;
      }

      .cls-19 {
        clip-path: url(#clippath);
      }

      .cls-2, .cls-12 {
        fill: none;
      }

      .cls-3 {
        fill: url(#Gradiente_sem_nome_4);
      }

      .cls-4 {
        fill: url(#linear-gradient);
      }

      .cls-20 {
        clip-path: url(#clippath-1);
      }

      .cls-5 {
        fill: url(#linear-gradient-8);
      }

      .cls-6 {
        fill: url(#linear-gradient-3);
      }

      .cls-7 {
        fill: url(#linear-gradient-2);
      }

      .cls-8 {
        fill: url(#linear-gradient-4);
      }

      .cls-9 {
        fill: url(#linear-gradient-5);
      }

      .cls-10 {
        fill: url(#linear-gradient-7);
      }

      .cls-11 {
        fill: url(#linear-gradient-6);
      }

      .cls-12 {
        clip-rule: evenodd;
      }

      .cls-13 {
        fill: url(#Gradiente_sem_nome_48-2);
      }

      .cls-14 {
        fill: url(#Gradiente_sem_nome_48-3);
      }

      .cls-15 {
        fill: url(#Gradiente_sem_nome_48-4);
      }

      .cls-16 {
        fill: url(#Gradiente_sem_nome_48-5);
      }

      .cls-17 {
        fill: url(#Gradiente_sem_nome_48);
      }

      .cls-18 {
        fill: url(#Gradiente_sem_nome_14);
      }
    </style>
    <linearGradient id="Gradiente_sem_nome_14" data-name="Gradiente sem nome 14" x1="430.9" y1="-46.9" x2="81.1" y2="558.9" gradientUnits="userSpaceOnUse">
      <stop offset="0" stop-color="#00b4e4"/>
      <stop offset="1" stop-color="#065da8"/>
    </linearGradient>
    <linearGradient id="Gradiente_sem_nome_48" data-name="Gradiente sem nome 48" x1="229.9" y1="247.1" x2="229.9" y2="312.9" gradientUnits="userSpaceOnUse">
      <stop offset="0" stop-color="#aec90b"/>
      <stop offset=".4" stop-color="#aac40b"/>
      <stop offset=".9" stop-color="#9fb80c"/>
      <stop offset="1" stop-color="#9bb30d"/>
    </linearGradient>
    <linearGradient id="Gradiente_sem_nome_48-2" data-name="Gradiente sem nome 48" x1="167.3" y1="233" x2="167.3" y2="313.3" xlink:href="#Gradiente_sem_nome_48"/>
    <linearGradient id="Gradiente_sem_nome_48-3" data-name="Gradiente sem nome 48" x1="317.3" y1="247.9" x2="317.3" y2="311.9" xlink:href="#Gradiente_sem_nome_48"/>
    <linearGradient id="Gradiente_sem_nome_48-4" data-name="Gradiente sem nome 48" x1="398.5" y1="291.4" x2="398.5" y2="315.2" xlink:href="#Gradiente_sem_nome_48"/>
    <linearGradient id="Gradiente_sem_nome_48-5" data-name="Gradiente sem nome 48" x1="398.2" y1="233" x2="398.2" y2="285.4" xlink:href="#Gradiente_sem_nome_48"/>
    <clipPath id="clippath">
      <polygon class="cls-2" points="320.4 348.3 465.2 348.3 465.8 207.5 321 207.5 321 238 385 238.2 385.2 325.1 321 325.8 320.4 348.3"/>
    </clipPath>
    <linearGradient id="Gradiente_sem_nome_4" data-name="Gradiente sem nome 4" x1="394.5" y1="347.7" x2="394.5" y2="207.5" gradientUnits="userSpaceOnUse">
      <stop offset="0" stop-color="#e3e3e3"/>
      <stop offset=".2" stop-color="#ebebeb"/>
      <stop offset=".5" stop-color="#f3f3f3"/>
      <stop offset="1" stop-color="#f6f6f6"/>
    </linearGradient>
    <clipPath id="clippath-1">
      <path class="cls-12" d="M210.7,164.1l-9.5,59.7h-21.7l9.5-59.7h21.7ZM163.8,164.1l11.9,59.7h-23l-.8-7.4h-16.4l-2.9,7.4h-22.9l30.2-59.7h24ZM150.5,202.2l-1.1-10.9c-.3-2.6-.1-6.5,0-9.2h-.9l-7.4,20.2h9.5ZM259.3,192.5l28.4-28.4h-25.9l-11.2,11.2h0s-5.7-11.2-5.7-11.2h-25.9l14.5,28.4h25.9ZM337.7,223.8h-23l-.8-7.4h-16.4l-2.9,7.4h-22.9l30.2-59.7h24l11.9,59.7ZM312.5,202.2l-1.1-10.9c-.3-2.6-.1-6.5,0-9.2h-.9l-7.4,20.2h9.5ZM97.9,205.6c-6.5,0-11.3-5-10.3-11.6,1.1-6.5,7.2-11.6,13.7-11.6s8.8,2.8,11.8,6l3-22.7c-4.3-1.5-9.3-2.4-14.2-2.4-17.5,0-33.4,13.9-36.1,31.4-2.7,17,8.5,30.2,25.5,30.2s12.1-.7,15.8-2.4l4.2-22.3c-4,3.4-8.3,5.5-13.3,5.5ZM230.5,195.4l-28.4,28.4h25.9l11.2-11.2,5.7,11.2h.4s25.5,0,25.5,0l-14.5-28.4h-25.9Z"/>
    </clipPath>
    <linearGradient id="linear-gradient" x1="255.1" y1="227.5" x2="255.1" y2="160.4" gradientUnits="userSpaceOnUse">
      <stop offset="0" stop-color="#e3e3e3"/>
      <stop offset=".2" stop-color="#ebebeb"/>
      <stop offset=".5" stop-color="#f3f3f3"/>
      <stop offset="1" stop-color="#f6f6f6"/>
    </linearGradient>
    <linearGradient id="Gradiente_sem_nome_4-2" data-name="Gradiente sem nome 4" x1="195.2" y1="227.6" x2="195.2" y2="160.1" xlink:href="#Gradiente_sem_nome_4"/>
    <linearGradient id="linear-gradient-2" x1="142.7" y1="227.6" x2="142.7" y2="160.1" xlink:href="#linear-gradient"/>
    <linearGradient id="linear-gradient-3" x1="239.1" y1="229.1" x2="239.1" y2="170.3" xlink:href="#linear-gradient"/>
    <linearGradient id="linear-gradient-4" x1="304.7" y1="227.6" x2="304.7" y2="160.1" xlink:href="#linear-gradient"/>
    <linearGradient id="linear-gradient-5" x1="90.6" y1="227.6" x2="90.6" y2="160.1" xlink:href="#linear-gradient"/>
    <linearGradient id="linear-gradient-6" x1="229.2" y1="175.1" x2="229.2" y2="217.5" gradientUnits="userSpaceOnUse">
      <stop offset="0" stop-color="#f7a600"/>
      <stop offset="1" stop-color="#ef7d00"/>
    </linearGradient>
    <linearGradient id="linear-gradient-7" x1="269.1" y1="174.9" x2="269.1" y2="217.8" gradientUnits="userSpaceOnUse">
      <stop offset="0" stop-color="#f7a600"/>
      <stop offset="1" stop-color="#ef7d00"/>
    </linearGradient>
    <linearGradient id="linear-gradient-8" x1="239.2" y1="205.9" x2="256.4" y2="205.9" gradientUnits="userSpaceOnUse">
      <stop offset="0" stop-color="#d6d6d6"/>
      <stop offset=".6" stop-color="#dbdbdb"/>
      <stop offset="1" stop-color="#e3e3e3"/>
    </linearGradient>
  </defs>
  <rect class="cls-18" width="512" height="512"/>
  <g>
    <g>
      <g>
        <path class="cls-17" d="M214.1,308.7c-5.1-2.8-9.1-6.7-11.9-11.7-2.8-5-4.3-10.6-4.3-17s1.3-11.2,3.9-16.2c2.6-5,6.4-9.1,11.3-12.2,4.9-3.1,10.7-4.6,17.2-4.6,10.6,0,18.5,3.2,23.7,9.6,5.1,6.4,7.7,14.9,7.7,25.3v2.6h-42.4c.9,3.5,2.8,6.2,5.8,8.2,3,2,6.8,2.9,11.3,2.9s6.5-.5,9.2-1.5c2.6-1,5.3-2.6,8.1-4.8l1.6,2.1c2.2,3,3.3,5.5,3.3,7.5s-.8,4.1-2.3,5.9c-1.5,1.8-3.7,3.4-6.5,4.6-5,2.3-11.1,3.4-18.3,3.4s-12.4-1.4-17.5-4.2ZM240.6,272.6c-.3-3.2-1.2-5.6-2.9-7.1-1.7-1.5-3.9-2.3-6.6-2.3s-5.7.8-7.6,2.3c-1.9,1.5-3.2,3.9-3.9,7.1h21.1Z"/>
        <path class="cls-13" d="M156.3,306.1c-4.6-4.9-7-12.4-7-22.5v-15.5l-12-2.6v-16.1h12l2.7-16.3h20.2v16.3h23.4v18.7h-23.4v15.9c0,3.6,1,6.1,2.9,7.7,1.9,1.6,4.9,2.3,9,2.3s7.2-.7,10.7-2.2l1,2.6c.9,2.1,1.3,4.2,1.3,6.4,0,4.2-2,7.4-6,9.6-3.5,2-8.6,3-15.5,3s-14.7-2.4-19.3-7.3Z"/>
        <path class="cls-14" d="M364.2,255.4c4,5,6.1,12.3,6.1,21.9v34.6h-13.8c-6.1,0-9.1-2.6-9.1-7.8v-27.5c0-6.2-2.6-9.4-7.8-9.4s-6.1,1.3-7.9,4c-1.8,2.7-2.7,6.9-2.7,12.8v27.9h-22.9v-35.3c0-6.2-2.6-9.4-7.9-9.4s-10.7,5.6-10.7,16.8v27.9h-22.9v-62.6h8.6c2.8,0,4.9.5,6.4,1.4,1.5.9,2.6,2.5,3.2,4.6.4,1.3.7,2.6.8,3.8,2.9-3.9,6.1-6.7,9.8-8.5,3.7-1.8,7.6-2.7,11.8-2.7,9,0,15.5,3.4,19.5,10.2,2.4-3.5,5.4-6,9-7.7,3.6-1.6,7.9-2.5,12.9-2.5,7.8,0,13.7,2.5,17.8,7.5Z"/>
      </g>
      <g>
        <path class="cls-15" d="M389.4,311.8c-2.3-2.2-3.4-5.1-3.4-8.5s1.2-6.3,3.5-8.5c2.3-2.2,5.3-3.4,9.1-3.4s6.7,1.1,9,3.4c2.3,2.2,3.4,5.1,3.4,8.5s-1.2,6.3-3.5,8.5c-2.3,2.2-5.3,3.4-9.1,3.4s-6.7-1.1-9-3.4Z"/>
        <path class="cls-16" d="M386.4,233h13.6c3.4,0,6,.7,7.7,2.2,1.7,1.5,2.5,3.8,2.4,7.1l-1.3,43.1h-20.7l-1.7-52.4Z"/>
      </g>
      <g class="cls-19">
        <path class="cls-3" d="M397.1,207.5c-37.1,0-67.1,30.7-67.1,68.6s2.7,22.1,7.5,31.6l-12.7,40,40-11.4c9.6,5.4,20.6,8.4,32.3,8.4,37.1,0,67.1-30.7,67.1-68.6s-30.1-68.6-67.1-68.6ZM397.1,336.2c-11,0-21.6-3.3-30.4-8.8l-2.8.9-27.1,7.7,8.7-27.6.8-2.3c-5-8.8-7.9-19.1-7.9-30,0-33.1,26.4-60,58.7-60s58.7,26.9,58.7,60-26.4,60-58.7,60Z"/>
      </g>
    </g>
    <g class="cls-20">
      <g>
        <polygon class="cls-4" points="245 223.8 239.2 212.6 256.4 195.4 270.9 223.8 245.3 223.8 245.3 223.8 245 223.8"/>
        <image width="684" height="1007" transform="translate(251.7 193) scale(0)" xlink:href="CAIXA_Tem-1.png"/>
        <polygon class="cls-1" points="189.1 164.1 210.7 164.1 201.3 223.8 179.6 223.8 189.1 164.1 189.1 164.1 189.1 164.1"/>
        <path class="cls-7" d="M132.6,223.8h-22.9l30.2-59.7h24l11.9,59.7h-23l-.8-7.4h-16.4l-2.9,7.4h0ZM150.5,202.2l-1.1-10.9h0c-.3-2.6-.1-6.5,0-9.2h-.9l-7.4,20.2h9.5Z"/>
        <image width="2676" height="1347" transform="translate(107.2 191) scale(0)" xlink:href="CAIXA_Tem-2.png"/>
        <polygon class="cls-6" points="233.4 192.5 218.9 164.1 244.8 164.1 259.3 192.5 233.4 192.5"/>
        <image width="1925" height="1406" transform="translate(121.6 161.1) scale(0)" xlink:href="CAIXA_Tem-3.png"/>
        <image width="1214" height="1406" transform="translate(181.3 161.1) scale(0)" xlink:href="CAIXA_Tem-4.png"/>
        <image width="1622" height="1159" transform="translate(216.9 161.1) scale(0)" xlink:href="CAIXA_Tem-5.png"/>
        <image width="1215" height="349" transform="translate(229.5 186.1) scale(0)" xlink:href="CAIXA_Tem-6.png"/>
        <image width="1205" height="1347" transform="translate(176.8 191) scale(0)" xlink:href="CAIXA_Tem-7.png"/>
        <path class="cls-8" d="M294.6,223.8h-22.9l30.2-59.7h24l11.9,59.7h-23l-.8-7.4h-16.4l-2.9,7.4h0ZM312.5,202.2l-1.1-10.9h0c-.3-2.6-.1-6.5,0-9.2h-.9l-7.4,20.2h9.5Z"/>
        <image width="2676" height="1347" transform="translate(269.2 191) scale(0)" xlink:href="CAIXA_Tem-8.png"/>
        <image width="1925" height="1406" transform="translate(283.6 161.1) scale(0)" xlink:href="CAIXA_Tem-9.png"/>
        <path class="cls-9" d="M113,188.3c-2.9-3.2-6.9-6-11.8-6s-12.6,5.1-13.7,11.6c-1,6.6,3.8,11.6,10.3,11.6s9.3-2.1,13.3-5.5h0l-4.2,22.3h0c-3.8,1.6-11.9,2.4-15.8,2.4-17,0-28.2-13.2-25.5-30.2,2.7-17.4,18.7-31.4,36.1-31.4s9.8.9,14.2,2.4h0l-3,22.7h0Z"/>
        <image width="2118" height="1444" transform="translate(62.7 160.1) scale(0)" xlink:href="CAIXA_Tem-10.png"/>
        <image width="1814" height="1390" transform="translate(62.2 190.7) scale(0)" xlink:href="CAIXA_Tem-11.png"/>
        <image width="1255" height="724" transform="translate(83.2 176) scale(0)" xlink:href="CAIXA_Tem-12.png"/>
        <image width="1157" height="714" transform="translate(82.4 192.7) scale(0)" xlink:href="CAIXA_Tem-13.png"/>
        <image width="877" height="1222" transform="translate(133.7 176) scale(0)" xlink:href="CAIXA_Tem-14.png"/>
        <image width="830" height="351" transform="translate(134.3 199.2) scale(0)" xlink:href="CAIXA_Tem-15.png"/>
        <image width="877" height="1222" transform="translate(295.7 176) scale(0)" xlink:href="CAIXA_Tem-16.png"/>
        <image width="830" height="351" transform="translate(296.3 199.2) scale(0)" xlink:href="CAIXA_Tem-17.png"/>
        <polygon class="cls-11" points="202.1 223.8 228 223.8 256.4 195.4 230.5 195.4 202.1 223.8"/>
        <polygon class="cls-10" points="261.8 164.1 250.5 175.4 259.3 192.5 287.7 164.1 261.8 164.1"/>
        <polygon class="cls-5" points="256.4 195.4 241.2 216.4 239.2 212.6 256.4 195.4"/>
        <image width="1996" height="1132" transform="translate(200.6 196.7) scale(0)" xlink:href="CAIXA_Tem-18.png"/>
        <image width="1216" height="349" transform="translate(225.8 192.3) scale(0)" xlink:href="CAIXA_Tem-19.png"/>
      </g>
    </g>
  </g>
</svg>