<?xml version="1.0" standalone="no"?>
<!DOCTYPE svg PUBLIC "-//W3C//DTD SVG 20010904//EN"
 "http://www.w3.org/TR/2001/REC-SVG-20010904/DTD/svg10.dtd">
<svg version="1.0" xmlns="http://www.w3.org/2000/svg"
 width="1024.000000pt" height="1024.000000pt" viewBox="0 0 1024.000000 1024.000000"
 preserveAspectRatio="xMidYMid meet">
<metadata>
Created by potrace 1.16, written by Peter Selinger 2001-2019
</metadata>
<g transform="translate(0.000000,1024.000000) scale(0.100000,-0.100000)"
fill="#000000" stroke="none">
<path d="M0 5120 l0 -5120 5120 0 5120 0 0 5120 0 5120 -5120 0 -5120 0 0
-5120z m5715 3211 c587 -56 993 -168 1320 -366 116 -70 257 -184 359 -288 141
-147 224 -265 316 -452 98 -200 151 -371 198 -640 l26 -150 3 -2214 3 -2213
-25 -44 c-18 -31 -41 -52 -75 -69 l-49 -25 -478 0 c-538 0 -531 0 -589 76
l-29 37 -5 2181 -5 2181 -27 74 c-109 293 -342 482 -743 600 -253 75 -654 110
-1029 92 -781 -38 -1247 -280 -1369 -709 l-22 -77 -5 -2175 c-5 -2155 -5
-2175 -25 -2202 -11 -15 -41 -38 -66 -52 l-47 -26 -481 0 -482 0 -49 25 c-36
18 -56 37 -72 68 l-23 42 0 2155 c0 2013 1 2166 18 2320 44 397 155 705 364
1010 53 77 192 224 288 304 252 211 526 344 885 430 270 65 493 95 965 130
147 11 743 -4 950 -23z"/>
</g>
</svg>
